<?xml version="1.0" encoding="utf-8"?>
<!-- Generator: Adobe Illustrator 25.4.1, SVG Export Plug-In . SVG Version: 6.00 Build 0)  -->
<svg version="1.1"  xmlns="http://www.w3.org/2000/svg" xmlns:xlink="http://www.w3.org/1999/xlink" x="0px" y="0px"
	 viewBox="0 0 20 20" style="enable-background:new 0 0 20 20;" xml:space="preserve">
<style type="text/css">
	.st0{fill:#C4C4C4;}
	.st1{fill:#616160;}
	.st2{fill:#FFFFFF;}
	.st3{fill:#C4C4C4;stroke:#616160;stroke-miterlimit:10;}
	.st4{fill:#FFFFFF;stroke:#616160;stroke-miterlimit:10;}
	.st5{fill:#616160;stroke:#616160;stroke-width:0.25;stroke-miterlimit:10;}
	.st6{fill:none;stroke:#616160;stroke-miterlimit:10;stroke-dasharray:2.0068,2.0068;}
	.st7{fill:#616160;stroke:#616160;stroke-miterlimit:10;}
	.st8{fill:none;stroke:#FFFFFF;stroke-miterlimit:10;}
	.st9{fill:none;stroke:#FFFFFF;stroke-width:2;stroke-miterlimit:10;}
	.st10{fill:#C4C4C4;stroke:#FFFFFF;stroke-miterlimit:10;}
	.st11{fill:none;stroke:#FFFFFF;stroke-miterlimit:10;stroke-dasharray:1.9724,1.9724;}
	.st12{fill:#FFFFFF;stroke:#FFFFFF;stroke-width:0.25;stroke-miterlimit:10;}
</style>
<g>
	<path class="st1" d="M16.5,17.5h-13c-0.552,0-1-0.448-1-1v-13c0-0.552,0.448-1,1-1h13c0.552,0,1,0.448,1,1v13
		C17.5,17.052,17.052,17.5,16.5,17.5z"/>
	<path class="st1" d="M16.5,18h-13C2.673,18,2,17.327,2,16.5v-13C2,2.673,2.673,2,3.5,2h13C17.327,2,18,2.673,18,3.5v13
		C18,17.327,17.327,18,16.5,18z M3.5,3C3.225,3,3,3.224,3,3.5v13C3,16.775,3.225,17,3.5,17h13c0.275,0,0.5-0.225,0.5-0.5v-13
		C17,3.224,16.775,3,16.5,3H3.5z"/>
</g>
<g>
	<path class="st2" d="M15.529,17.029H4.471c-0.827,0-1.5-0.673-1.5-1.5V4.47c0-0.827,0.673-1.5,1.5-1.5h11.059
		c0.827,0,1.5,0.673,1.5,1.5v11.059C17.029,16.356,16.356,17.029,15.529,17.029z M4.471,3.97c-0.275,0-0.5,0.224-0.5,0.5v11.059
		c0,0.275,0.225,0.5,0.5,0.5h11.059c0.275,0,0.5-0.225,0.5-0.5V4.47c0-0.276-0.225-0.5-0.5-0.5H4.471z"/>
</g>
<g>
	<path class="st2" d="M7.028,13.205h-1.34V6.78h3.683v1.116H7.028v1.656h2.18v1.112h-2.18V13.205z"/>
	<path class="st2" d="M14.671,13.205H10.18V12.26l1.612-1.63c0.478-0.489,0.79-0.828,0.937-1.018
		c0.146-0.188,0.252-0.363,0.316-0.524s0.097-0.328,0.097-0.502c0-0.257-0.071-0.449-0.213-0.575
		c-0.143-0.126-0.332-0.188-0.569-0.188c-0.249,0-0.491,0.057-0.726,0.171S11.155,8.27,10.9,8.48l-0.738-0.874
		c0.316-0.27,0.578-0.46,0.786-0.571s0.436-0.197,0.682-0.257c0.246-0.061,0.521-0.091,0.826-0.091c0.401,0,0.756,0.074,1.063,0.221
		s0.546,0.352,0.716,0.615s0.256,0.565,0.256,0.904c0,0.297-0.053,0.574-0.156,0.833c-0.104,0.26-0.266,0.525-0.483,0.798
		c-0.219,0.272-0.604,0.661-1.153,1.164l-0.826,0.778v0.062h2.799V13.205z"/>
</g>
</svg>
