<?xml version="1.0" encoding="utf-8"?>
<!-- Generator: Adobe Illustrator 25.4.1, SVG Export Plug-In . SVG Version: 6.00 Build 0)  -->
<svg version="1.1"  xmlns="http://www.w3.org/2000/svg" xmlns:xlink="http://www.w3.org/1999/xlink" x="0px" y="0px"
	 viewBox="0 0 20 20" style="enable-background:new 0 0 20 20;" xml:space="preserve">
<style type="text/css">
	.st0{fill:#C4C4C4;}
	.st1{fill:#616160;}
	.st2{fill:#FFFFFF;}
	.st3{fill:#C4C4C4;stroke:#616160;stroke-miterlimit:10;}
	.st4{fill:#FFFFFF;stroke:#616160;stroke-miterlimit:10;}
	.st5{fill:#616160;stroke:#616160;stroke-width:0.25;stroke-miterlimit:10;}
	.st6{fill:none;stroke:#616160;stroke-miterlimit:10;stroke-dasharray:2.0068,2.0068;}
	.st7{fill:#616160;stroke:#616160;stroke-miterlimit:10;}
	.st8{fill:none;stroke:#FFFFFF;stroke-miterlimit:10;}
	.st9{fill:none;stroke:#FFFFFF;stroke-width:2;stroke-miterlimit:10;}
	.st10{fill:#C4C4C4;stroke:#FFFFFF;stroke-miterlimit:10;}
	.st11{fill:none;stroke:#FFFFFF;stroke-miterlimit:10;stroke-dasharray:1.9724,1.9724;}
	.st12{fill:#FFFFFF;stroke:#FFFFFF;stroke-width:0.25;stroke-miterlimit:10;}
</style>
<g>
	<path class="st1" d="M16.5,17.5h-13c-0.552,0-1-0.448-1-1v-13c0-0.552,0.448-1,1-1h13c0.552,0,1,0.448,1,1v13
		C17.5,17.052,17.052,17.5,16.5,17.5z"/>
	<path class="st1" d="M16.5,18h-13C2.673,18,2,17.327,2,16.5v-13C2,2.673,2.673,2,3.5,2h13C17.327,2,18,2.673,18,3.5v13
		C18,17.327,17.327,18,16.5,18z M3.5,3C3.225,3,3,3.224,3,3.5v13C3,16.775,3.225,17,3.5,17h13c0.275,0,0.5-0.225,0.5-0.5v-13
		C17,3.224,16.775,3,16.5,3H3.5z"/>
</g>
<g>
	<path class="st2" d="M15.529,17.029H4.471c-0.827,0-1.5-0.673-1.5-1.5V4.47c0-0.827,0.673-1.5,1.5-1.5h11.059
		c0.827,0,1.5,0.673,1.5,1.5v11.059C17.029,16.356,16.356,17.029,15.529,17.029z M4.471,3.97c-0.275,0-0.5,0.224-0.5,0.5v11.059
		c0,0.275,0.225,0.5,0.5,0.5h11.059c0.275,0,0.5-0.225,0.5-0.5V4.47c0-0.276-0.225-0.5-0.5-0.5H4.471z"/>
</g>
<g>
	<path class="st2" d="M7.028,13.205h-1.34V6.78h3.683v1.116H7.028v1.656h2.18v1.112h-2.18V13.205z"/>
	<path class="st2" d="M14.421,8.217c0,0.402-0.122,0.743-0.365,1.024s-0.584,0.475-1.023,0.58v0.026
		c0.518,0.064,0.91,0.222,1.178,0.473c0.266,0.25,0.399,0.588,0.399,1.013c0,0.618-0.224,1.1-0.673,1.443
		c-0.447,0.345-1.088,0.517-1.92,0.517c-0.697,0-1.315-0.115-1.854-0.348V11.79c0.249,0.126,0.522,0.229,0.821,0.308
		s0.595,0.119,0.889,0.119c0.447,0,0.778-0.076,0.992-0.229s0.321-0.397,0.321-0.734c0-0.302-0.123-0.516-0.369-0.642
		s-0.639-0.188-1.178-0.188h-0.487V9.382h0.496c0.498,0,0.862-0.065,1.092-0.195c0.23-0.131,0.346-0.354,0.346-0.671
		c0-0.485-0.306-0.729-0.914-0.729c-0.211,0-0.426,0.035-0.645,0.105c-0.218,0.07-0.461,0.191-0.727,0.364L10.171,7.32
		c0.586-0.422,1.284-0.633,2.096-0.633c0.665,0,1.19,0.136,1.576,0.404C14.228,7.362,14.421,7.737,14.421,8.217z"/>
</g>
</svg>
