<?xml version="1.0" encoding="utf-8"?>
<!-- Generator: Adobe Illustrator 25.4.1, SVG Export Plug-In . SVG Version: 6.00 Build 0)  -->
<svg version="1.1"  xmlns="http://www.w3.org/2000/svg" xmlns:xlink="http://www.w3.org/1999/xlink" x="0px" y="0px"
	 viewBox="0 0 20 20" style="enable-background:new 0 0 20 20;" xml:space="preserve">
<style type="text/css">
	.st0{fill:#C4C4C4;}
	.st1{fill:#616160;}
	.st2{fill:#FFFFFF;}
	.st3{fill:#C4C4C4;stroke:#616160;stroke-miterlimit:10;}
	.st4{fill:#FFFFFF;stroke:#616160;stroke-miterlimit:10;}
	.st5{fill:#616160;stroke:#616160;stroke-width:0.25;stroke-miterlimit:10;}
	.st6{fill:none;stroke:#616160;stroke-miterlimit:10;stroke-dasharray:2.0068,2.0068;}
	.st7{fill:#616160;stroke:#616160;stroke-miterlimit:10;}
	.st8{fill:none;stroke:#FFFFFF;stroke-miterlimit:10;}
	.st9{fill:none;stroke:#FFFFFF;stroke-width:2;stroke-miterlimit:10;}
	.st10{fill:#C4C4C4;stroke:#FFFFFF;stroke-miterlimit:10;}
	.st11{fill:none;stroke:#FFFFFF;stroke-miterlimit:10;stroke-dasharray:1.9724,1.9724;}
	.st12{fill:#FFFFFF;stroke:#FFFFFF;stroke-width:0.25;stroke-miterlimit:10;}
</style>
<g>
	<path class="st1" d="M16.5,17.5h-13c-0.552,0-1-0.448-1-1v-13c0-0.552,0.448-1,1-1h13c0.552,0,1,0.448,1,1v13
		C17.5,17.052,17.052,17.5,16.5,17.5z"/>
</g>
<g>
	<path class="st1" d="M16.5,18h-13C2.673,18,2,17.327,2,16.5v-13C2,2.673,2.673,2,3.5,2h13C17.327,2,18,2.673,18,3.5v13
		C18,17.327,17.327,18,16.5,18z M3.5,3C3.225,3,3,3.224,3,3.5v13C3,16.775,3.225,17,3.5,17h13c0.275,0,0.5-0.225,0.5-0.5v-13
		C17,3.224,16.775,3,16.5,3H3.5z"/>
</g>
<g>
	<path class="st2" d="M15.529,17.029H4.471c-0.827,0-1.5-0.673-1.5-1.5V4.47c0-0.827,0.673-1.5,1.5-1.5h11.059
		c0.827,0,1.5,0.673,1.5,1.5v11.059C17.029,16.356,16.356,17.029,15.529,17.029z M4.471,3.97c-0.275,0-0.5,0.224-0.5,0.5v11.059
		c0,0.275,0.225,0.5,0.5,0.5h11.059c0.275,0,0.5-0.225,0.5-0.5V4.47c0-0.276-0.225-0.5-0.5-0.5H4.471z"/>
</g>
<g>
	<path class="st2" d="M13.019,7.368H6.827l1.257-1.239c0.082-0.081,0.084-0.214,0.002-0.296L7.893,5.638
		c-0.039-0.04-0.092-0.063-0.148-0.063c-0.001,0-0.001,0-0.001,0c-0.056,0-0.108,0.021-0.147,0.06l-1.96,1.932
		C5.555,7.648,5.554,7.781,5.635,7.863L7.56,9.826c0.081,0.083,0.214,0.083,0.297,0.003l0.196-0.193
		C8.134,9.555,8.135,9.422,8.055,9.34L6.802,8.062h6.218c0.415,0,0.753,0.338,0.753,0.753v1.059c0,0.116,0.094,0.21,0.21,0.21h0.274
		c0.116,0,0.21-0.094,0.21-0.21V8.816C14.466,8.018,13.817,7.368,13.019,7.368z"/>
	<path class="st2" d="M14.257,10.208h-0.273c-0.185,0-0.335-0.15-0.335-0.335V8.815c0-0.346-0.281-0.628-0.628-0.628H7.1
		l1.044,1.065c0.129,0.131,0.127,0.343-0.003,0.472L7.944,9.917C7.812,10.047,7.6,10.045,7.47,9.913L5.546,7.95
		c-0.13-0.13-0.128-0.342,0.003-0.472l1.96-1.932C7.635,5.421,7.859,5.423,7.982,5.55l0.191,0.196
		c0.062,0.062,0.098,0.146,0.097,0.236c0,0.09-0.036,0.174-0.101,0.236L7.131,7.243h5.888c0.867,0,1.573,0.706,1.573,1.573v1.057
		C14.592,10.058,14.441,10.208,14.257,10.208z M6.504,7.937h6.517c0.484,0,0.878,0.394,0.878,0.878v1.058
		c0,0.047,0.038,0.085,0.085,0.085h0.273c0.046,0,0.085-0.039,0.085-0.085V8.816c0-0.729-0.594-1.323-1.323-1.323H6.521l1.474-1.453
		c0.017-0.016,0.025-0.037,0.025-0.06c0.001-0.022-0.008-0.043-0.024-0.059L7.804,5.725C7.771,5.693,7.715,5.692,7.686,5.724
		L5.725,7.656C5.691,7.688,5.691,7.742,5.724,7.775l1.925,1.963C7.682,9.772,7.736,9.771,7.77,9.739l0.195-0.193
		c0.032-0.032,0.032-0.086,0-0.119L6.504,7.937z"/>
</g>
<g>
	<path class="st2" d="M12.44,10.174c-0.08-0.082-0.213-0.083-0.297-0.003l-0.196,0.193c-0.081,0.081-0.082,0.213-0.002,0.296
		l1.253,1.277H6.98c-0.415,0-0.753-0.338-0.753-0.753v-1.058c0-0.116-0.094-0.21-0.21-0.21H5.743c-0.116,0-0.21,0.094-0.21,0.21
		v1.057c0,0.798,0.65,1.448,1.448,1.448h6.192l-1.257,1.239c-0.082,0.08-0.084,0.213-0.002,0.296l0.192,0.196
		c0.039,0.04,0.091,0.062,0.148,0.062c0,0,0.001,0,0.001,0c0.056,0,0.108-0.021,0.147-0.061l1.961-1.931
		c0.081-0.082,0.082-0.215,0.002-0.297L12.44,10.174z"/>
	<path class="st2" d="M12.256,14.55c-0.091,0-0.175-0.035-0.238-0.101l-0.191-0.194c-0.063-0.063-0.098-0.148-0.097-0.238
		c0.001-0.089,0.036-0.173,0.1-0.235l1.04-1.025H6.981c-0.867,0-1.573-0.705-1.573-1.572v-1.057c0-0.185,0.15-0.335,0.335-0.335
		h0.273c0.185,0,0.335,0.15,0.335,0.335v1.058c0,0.347,0.281,0.628,0.628,0.628H12.9l-1.044-1.065
		c-0.128-0.132-0.127-0.343,0.003-0.472l0.196-0.193c0.135-0.128,0.345-0.126,0.475,0.004l1.924,1.961
		c0.128,0.131,0.127,0.343-0.001,0.473l-1.962,1.933C12.429,14.516,12.346,14.55,12.256,14.55z M5.743,10.042
		c-0.046,0-0.085,0.039-0.085,0.085v1.057c0,0.729,0.594,1.322,1.323,1.322h6.497l-1.474,1.453c-0.017,0.016-0.025,0.037-0.025,0.06
		c0,0.023,0.009,0.044,0.024,0.061l0.192,0.195c0.034,0.034,0.089,0.031,0.118,0.001l1.962-1.932
		c0.032-0.032,0.032-0.087-0.001-0.121l-1.925-1.961c-0.03-0.033-0.085-0.035-0.121,0l-0.194,0.192c-0.032,0.032-0.032,0.087,0,0.12
		l1.461,1.489H6.979c-0.484,0-0.878-0.394-0.878-0.878v-1.058c0-0.047-0.038-0.085-0.085-0.085H5.743z"/>
</g>
</svg>
