<?xml version="1.0" encoding="utf-8"?>
<!-- Generator: Adobe Illustrator 25.4.1, SVG Export Plug-In . SVG Version: 6.00 Build 0)  -->
<svg version="1.1"  xmlns="http://www.w3.org/2000/svg" xmlns:xlink="http://www.w3.org/1999/xlink" x="0px" y="0px"
	 viewBox="0 0 20 20" style="enable-background:new 0 0 20 20;" xml:space="preserve">
<style type="text/css">
	.st0{fill:#C4C4C4;}
	.st1{fill:#616160;}
	.st2{fill:#FFFFFF;}
	.st3{fill:#C4C4C4;stroke:#616160;stroke-miterlimit:10;}
	.st4{fill:#FFFFFF;stroke:#616160;stroke-miterlimit:10;}
	.st5{fill:#616160;stroke:#616160;stroke-width:0.25;stroke-miterlimit:10;}
	.st6{fill:none;stroke:#616160;stroke-miterlimit:10;stroke-dasharray:2.0068,2.0068;}
	.st7{fill:#616160;stroke:#616160;stroke-miterlimit:10;}
	.st8{fill:none;stroke:#FFFFFF;stroke-miterlimit:10;}
	.st9{fill:none;stroke:#FFFFFF;stroke-width:2;stroke-miterlimit:10;}
	.st10{fill:#C4C4C4;stroke:#FFFFFF;stroke-miterlimit:10;}
	.st11{fill:none;stroke:#FFFFFF;stroke-miterlimit:10;stroke-dasharray:1.9724,1.9724;}
	.st12{fill:#FFFFFF;stroke:#FFFFFF;stroke-width:0.25;stroke-miterlimit:10;}
</style>
<g>
	<path class="st0" d="M15.455,17.455H4.545c-1.105,0-2-0.895-2-2V4.545c0-1.105,0.895-2,2-2h10.91c1.105,0,2,0.895,2,2v10.91
		C17.455,16.56,16.56,17.455,15.455,17.455z"/>
	<path class="st1" d="M15.455,17.955H4.545c-1.378,0-2.5-1.121-2.5-2.5V4.545c0-1.378,1.122-2.5,2.5-2.5h10.91
		c1.379,0,2.5,1.122,2.5,2.5v10.91C17.955,16.834,16.834,17.955,15.455,17.955z M4.545,3.045c-0.827,0-1.5,0.673-1.5,1.5v10.91
		c0,0.827,0.673,1.5,1.5,1.5h10.91c0.827,0,1.5-0.673,1.5-1.5V4.545c0-0.827-0.673-1.5-1.5-1.5H4.545z"/>
</g>
</svg>
