<?xml version="1.0" encoding="utf-8"?>
<!-- Generator: Adobe Illustrator 25.4.1, SVG Export Plug-In . SVG Version: 6.00 Build 0)  -->
<svg version="1.1"  xmlns="http://www.w3.org/2000/svg" xmlns:xlink="http://www.w3.org/1999/xlink" x="0px" y="0px"
	 viewBox="0 0 20 20" style="enable-background:new 0 0 20 20;" xml:space="preserve">
<style type="text/css">
	.st0{fill:#C4C4C4;}
	.st1{fill:#616160;}
	.st2{fill:#FFFFFF;}
	.st3{fill:#C4C4C4;stroke:#616160;stroke-miterlimit:10;}
	.st4{fill:#FFFFFF;stroke:#616160;stroke-miterlimit:10;}
	.st5{fill:#616160;stroke:#616160;stroke-width:0.25;stroke-miterlimit:10;}
	.st6{fill:none;stroke:#616160;stroke-miterlimit:10;stroke-dasharray:2.0068,2.0068;}
	.st7{fill:#616160;stroke:#616160;stroke-miterlimit:10;}
	.st8{fill:none;stroke:#FFFFFF;stroke-miterlimit:10;}
	.st9{fill:none;stroke:#FFFFFF;stroke-width:2;stroke-miterlimit:10;}
	.st10{fill:#C4C4C4;stroke:#FFFFFF;stroke-miterlimit:10;}
	.st11{fill:none;stroke:#FFFFFF;stroke-miterlimit:10;stroke-dasharray:1.9724,1.9724;}
	.st12{fill:#FFFFFF;stroke:#FFFFFF;stroke-width:0.25;stroke-miterlimit:10;}
</style>
<g>
	<g>
		<path class="st0" d="M15.158,17.051H4.765c-1.052,0-1.905-0.853-1.905-1.905V4.753c0-1.052,0.853-1.905,1.905-1.905h10.393
			c1.052,0,1.905,0.853,1.905,1.905v10.393C17.063,16.199,16.21,17.051,15.158,17.051z"/>
	</g>
</g>
<g>
	<g>
		<path class="st1" d="M15.441,17.905H13.41v-1h2.007L15.441,17.905z M11.403,17.905H9.396v-1h2.007V17.905z M7.39,17.905H5.383v-1
			H7.39V17.905z M3.169,17.518c-0.726-0.459-1.16-1.246-1.162-2.104l1-0.002c0.001,0.514,0.262,0.985,0.697,1.262L3.169,17.518z
			 M17.541,16.724l-0.85-0.527c0.147-0.237,0.226-0.511,0.226-0.791V14.51h1v0.896C17.917,15.872,17.787,16.327,17.541,16.724z
			 M3.006,13.405h-1v-2.007h1V13.405z M17.917,12.503h-1v-2.007h1V12.503z M3.006,9.392h-1V7.385h1V9.392z M17.917,8.489h-1V6.482h1
			V8.489z M3.006,5.378h-1V4.495c0-0.474,0.133-0.935,0.386-1.333l0.844,0.535C3.085,3.935,3.006,4.21,3.006,4.495V5.378z
			 M16.916,4.481c-0.005-0.515-0.269-0.985-0.706-1.259l0.531-0.848c0.728,0.456,1.166,1.24,1.175,2.097L16.916,4.481z
			 M14.527,2.995h-2.007v-1h2.007V2.995z M10.514,2.995H8.507v-1h2.007V2.995z M6.5,2.995H4.506l-0.013-1H6.5V2.995z"/>
	</g>
</g>
</svg>
