<?xml version="1.0" encoding="utf-8"?>
<!-- Generator: Adobe Illustrator 27.2.0, SVG Export Plug-In . SVG Version: 6.00 Build 0)  -->
<svg version="1.1"  xmlns="http://www.w3.org/2000/svg" xmlns:xlink="http://www.w3.org/1999/xlink" x="0px" y="0px"
	 viewBox="0 0 20 20" style="enable-background:new 0 0 20 20;" xml:space="preserve">
<style type="text/css">
	.st0{display:none;}
	.st1{display:none;opacity:0.5;}
	.st2{fill:#0072C6;}
	.st3{fill:none;}
</style>
<g id="Editabl">
</g>
<g id="Guides" class="st0">
</g>
<g id="Layer_1_00000137840826117259389740000012121897452955012793_" class="st1">
</g>
<g >
	<rect x="6.1" y="7.5" class="st2" width="7.2" height="1"/>
	<rect x="6.1" y="9.7" class="st2" width="4.3" height="1"/>
	<path class="st2" d="M7,16.5v1h3.4v-1H9v-1h1.4v-1l-6.8,0l0-10.8l12.8,0v5.1h1V3.7c0-0.6-0.5-1-1-1H3.6c-0.6,0-1,0.5-1,1v10.8
		c0,0.6,0.5,1,1,1H8v1L7,16.5L7,16.5z"/>
	<path id="XMLID_00000027573515013340329520000000006850674116269972_" class="st2" d="M18.2,11.6c-0.2,0.2-0.4,0.4-0.6,0.6
		c0,0,0,0.1,0,0.1c0.1,0.2,0.2,0.4,0.2,0.6c0,0,0,0.1,0.1,0.1c0.3,0,0.6,0,0.8,0c0,0,0.1,0,0.1,0c0,0.5,0,1,0,1.5c0,0-0.1,0-0.1,0
		c-0.3,0-0.6,0-0.8,0c0,0-0.1,0-0.1,0.1c-0.1,0.2-0.2,0.4-0.2,0.6c0,0,0,0.1,0,0.1c0.2,0.2,0.4,0.4,0.6,0.6c0,0,0,0,0.1,0
		c-0.4,0.4-0.7,0.7-1.1,1.1c0,0,0,0,0,0c-0.2-0.2-0.4-0.4-0.6-0.6c0,0-0.1,0-0.1,0c-0.2,0.1-0.4,0.2-0.6,0.2c0,0-0.1,0-0.1,0.1
		c0,0.3,0,0.6,0,0.9c-0.5,0-1,0-1.5,0c0,0,0,0,0-0.1c0-0.3,0-0.5,0-0.8c0-0.1,0-0.1-0.1-0.1c-0.2-0.1-0.4-0.2-0.6-0.2
		c0,0-0.1,0-0.1,0c-0.2,0.2-0.4,0.4-0.6,0.6c-0.4-0.4-0.7-0.7-1.1-1.1c0,0,0.1-0.1,0.1-0.1c0.2-0.2,0.4-0.4,0.6-0.5c0,0,0,0,0-0.1
		c-0.1-0.2-0.2-0.4-0.2-0.6c0,0,0-0.1-0.1-0.1c-0.3,0-0.6,0-0.8,0c0,0-0.1,0-0.1,0c0-0.5,0-1,0-1.5c0,0,0,0,0.1,0c0.3,0,0.6,0,0.9,0
		c0,0,0.1,0,0.1-0.1c0.1-0.2,0.2-0.4,0.2-0.6c0,0,0-0.1,0-0.1c-0.2-0.2-0.4-0.4-0.6-0.6c0,0,0,0,0,0c0.4-0.4,0.7-0.7,1.1-1.1
		c0,0,0,0,0,0c0.2,0.2,0.4,0.4,0.6,0.6c0,0,0,0,0.1,0c0.2-0.1,0.4-0.2,0.6-0.2c0,0,0.1,0,0.1-0.1c0-0.3,0-0.6,0-0.8c0,0,0-0.1,0-0.1
		c0.5,0,1,0,1.5,0c0,0,0,0.1,0,0.1c0,0.3,0,0.6,0,0.8c0,0,0,0.1,0.1,0.1c0.2,0.1,0.4,0.2,0.6,0.2c0,0,0.1,0,0.1,0
		c0.2-0.2,0.4-0.4,0.6-0.6c0,0,0,0,0.1,0C17.5,10.9,17.9,11.2,18.2,11.6z M15,12.2c-0.8,0-1.5,0.7-1.5,1.5c0,0.8,0.7,1.5,1.5,1.5
		c0.8,0,1.5-0.7,1.5-1.5C16.5,12.9,15.8,12.2,15,12.2z"/>
</g>
<rect class="st3" width="20" height="20"/>
</svg>
