<?xml version="1.0" encoding="utf-8"?>
<!-- Generator: Adobe Adobe Illustrator 24.2.0, SVG Export Plug-In . SVG Version: 6.00 Build 0)  -->
<svg version="1.1" xmlns="http://www.w3.org/2000/svg" xmlns:xlink="http://www.w3.org/1999/xlink" x="0px" y="0px"
	 viewBox="0 0 26 26" style="enable-background:new 0 0 26 26;" xml:space="preserve">
<style type="text/css">
	.st0{stroke:#000000;stroke-width:0.3237;stroke-miterlimit:10;}
</style>
<g >
</g>
<g id="Icons">
	<path id="XMLID_18_" d="M15.4,8h3.3c0.3,0,1,0.1,1,0.5v1.8h-1.9l2.5,2.5l2.5-2.5h-1.5V8.5c0-1.2-1.1-2.1-2.6-2.1h-3.3
		c-0.2,0-0.4,0.2-0.4,0.4v0.8C15,7.8,15.2,8,15.4,8z"/>
	<g>
		<path d="M25.4,14H10.2c-0.6,0-1,0.4-1,1v10c0,0.6,0.4,1,1,1h15.2c0.6,0,1-0.4,1-1V15C26.4,14.4,26,14,25.4,14z M24.7,17.6l-9.6,0
			l0-2h9.6V17.6z M13.4,15.7l0,2l-2.6,0v-2H13.4z M10.8,19.4l2.6,0l0,5h-2.6V19.4z M15.1,24.3l0-5l9.6,0v5H15.1z"/>
	</g>
	<g>
		<path d="M12.9,0H1C0.4,0,0,0.4,0,1v9.2c0,0.6,0.4,1,1,1h11.9c0.6,0,1-0.4,1-1V1C13.9,0.4,13.4,0,12.9,0z M12.2,5.5l-2.4,0l0-2.3
			l2.4,0V5.5z M5.8,5.5l0-2.3l2.3,0l0,2.3L5.8,5.5z M8.1,7.2l0,2.4H5.8l0-2.4L8.1,7.2z M1.7,3.2l2.4,0l0,2.3l-2.5,0V3.2z M1.7,7.2
			l2.5,0l0,2.3H1.7V7.2z M9.8,9.6l0-2.4l2.4,0v2.4H9.8z"/>
	</g>
</g>
</svg>
