<svg version="1.1"
	xmlns="http://www.w3.org/2000/svg"
	xmlns:xlink="http://www.w3.org/1999/xlink" x="0px" y="0px" viewBox="0 0 8 8" style="enable-background:new 0 0 8 8;" xml:space="preserve">
	<style type="text/css">
	.st0{fill:#005EA3;}
	.st1{fill:none;stroke:#000000;stroke-miterlimit:10;}
	.st2{fill-rule:evenodd;clip-rule:evenodd;fill:#0D6F08;}
	.st3{fill:#606060;}
	.st4{fill:#0072C6;}
	.st5{fill-rule:evenodd;clip-rule:evenodd;fill:#AD6503;}
	.st6{fill-rule:evenodd;clip-rule:evenodd;fill:#D53D3D;}
	.st7{fill-rule:evenodd;clip-rule:evenodd;fill:#5C5C5C;}
	.st8{fill:#D53D3D;}
	.st9{fill:#AD6503;}
	.st10{fill:#FFFFFF;stroke:#C4C4C4;stroke-miterlimit:10;}
	.st11{fill:none;}
	.st12{fill:none;stroke:#D3D3D3;}
	.st13{fill:none;stroke:#C4C4C4;stroke-width:0.9;stroke-miterlimit:10;}
	.st14{fill:#D3D3D3;}
	.st15{opacity:0.6;fill:#D3D3D3;}
	.st16{fill:none;stroke:#C4C4C4;stroke-miterlimit:10;}
	.st17{fill:#C4C4C4;}
	</style>
	<g id="Layer_2">
	</g>
	<g id="Layer_1">
		<path class="st3" d="M7.21,0.0884L4,3.2983l-3.21-3.21c-0.0488-0.0488-0.128-0.0488-0.1768,0L0.0884,0.6133
		c-0.0488,0.0488-0.0488,0.1279,0,0.1768L3.2984,4l-3.21,3.21c-0.0488,0.0488-0.0488,0.128,0,0.1768l0.5248,0.5248
		c0.0488,0.0488,0.128,0.0488,0.1768,0L4,4.7016l3.21,3.21c0.0488,0.0488,0.128,0.0488,0.1768,0l0.5249-0.5249
		c0.0488-0.0488,0.0488-0.128,0-0.1768L4.7016,4l3.21-3.21c0.0488-0.0488,0.0488-0.1279,0-0.1768L7.3867,0.0884
		C7.3379,0.0396,7.2588,0.0396,7.21,0.0884z"/>
	</g>
	<g id="Layer_3">
	</g>
	<g id="Layer_4">
	</g>
</svg>
