<?xml version="1.0" encoding="utf-8"?>
<!-- Generator: Adobe Adobe Illustrator 24.2.0, SVG Export Plug-In . SVG Version: 6.00 Build 0)  -->
<svg version="1.1" xmlns="http://www.w3.org/2000/svg" xmlns:xlink="http://www.w3.org/1999/xlink" x="0px" y="0px"
	 viewBox="0 0 26 26" style="enable-background:new 0 0 26 26;" xml:space="preserve">
<style type="text/css">
	.st0{stroke:#000000;stroke-width:0.3237;stroke-miterlimit:10;}
</style>
<g >
</g>
<g id="Icons">
	<g id="XMLID_327_">
		<g id="XMLID_1981_">
			<path id="XMLID_548_" d="M24.4,19.5H1.6c-0.9,0-1.6-0.7-1.6-1.6V8.1c0-0.9,0.7-1.6,1.6-1.6h22.8c0.9,0,1.6,0.7,1.6,1.6v9.8
				C26,18.8,25.3,19.5,24.4,19.5z M1.6,8.1v9.8h22.8V8.1H1.6z"/>
		</g>
		<g id="XMLID_1980_">
			<path id="XMLID_545_" d="M24.4,19.5H1.6c-0.9,0-1.6-0.7-1.6-1.6V8.1c0-0.9,0.7-1.6,1.6-1.6h22.8c0.9,0,1.6,0.7,1.6,1.6v9.8
				C26,18.8,25.3,19.5,24.4,19.5z M1.6,8.1v9.8h22.8V8.1H1.6z"/>
		</g>
		<g id="XMLID_1978_">
			<path id="XMLID_1236_" d="M21,12.5c0,0.8-0.7,1.5-1.5,1.5h-13C5.7,14,5,13.3,5,12.5l0,0C5,11.7,5.7,11,6.5,11h13
				C20.3,11,21,11.7,21,12.5L21,12.5z"/>
		</g>
	</g>
</g>
</svg>
