<?xml version="1.0" encoding="utf-8"?>
<!-- Generator: Adobe Adobe Illustrator 24.2.0, SVG Export Plug-In . SVG Version: 6.00 Build 0)  -->
<svg version="1.1" xmlns="http://www.w3.org/2000/svg" xmlns:xlink="http://www.w3.org/1999/xlink" x="0px" y="0px"
	 viewBox="0 0 26 26" style="enable-background:new 0 0 26 26;" xml:space="preserve">
<style type="text/css">
	.st0{fill:#FFFFFF;}
</style>
<g >
</g>
<g id="Icons">
	<g id="XMLID_989_">
		<g id="XMLID_189_">
			<path id="XMLID_190_" d="M22.31,11.09H3.69C2.76,11.09,2,10.33,2,9.4V2.97c0-0.93,0.76-1.69,1.69-1.69h18.62
				c0.93,0,1.69,0.76,1.69,1.69V9.4C24,10.33,23.24,11.09,22.31,11.09z M3.69,2.97V9.4h18.62l0-6.43H3.69z"/>
		</g>
		<g id="XMLID_184_">
			<path id="XMLID_185_" d="M22.31,24.72H3.69C2.76,24.72,2,23.96,2,23.03v-6.62c0-0.93,0.76-1.69,1.69-1.69h18.62
				c0.93,0,1.69,0.76,1.69,1.69v6.62C24,23.96,23.24,24.72,22.31,24.72z M3.69,16.42v6.62h18.62l0-6.62H3.69z"/>
		</g>
		<g id="XMLID_183_">
			<path id="XMLID_389_" d="M19.43,7.19H6.35c-0.57,0-1.04-0.47-1.04-1.04v0c0-0.57,0.47-1.04,1.04-1.04h13.08
				c0.57,0,1.04,0.47,1.04,1.04v0C20.47,6.72,20.01,7.19,19.43,7.19z"/>
		</g>
		<g id="XMLID_182_">
			<path id="XMLID_388_" d="M19.43,20.76H6.35c-0.57,0-1.04-0.47-1.04-1.04v0c0-0.57,0.47-1.04,1.04-1.04h13.08
				c0.57,0,1.04,0.47,1.04,1.04v0C20.47,20.3,20.01,20.76,19.43,20.76z"/>
		</g>
	</g>
</g>
<g id="Layer_9">
</g>
</svg>
