<svg xmlns="http://www.w3.org/2000/svg" xmlns:xlink="http://www.w3.org/1999/xlink" width="20" height="21" viewBox="0 0 20 21">
  <defs>
    <clipPath id="clip-Cancel">
      <rect width="20" height="21"/>
    </clipPath>
  </defs>
  <g id="Cancel" clip-path="url(#clip-Cancel)">
    <rect width="20" height="21" fill="#fff"/>
    <g  transform="translate(0 0.5)">
      <path id="Path_54261" data-name="Path 54261" d="M18.276,2.082l-.358-.358a.253.253,0,0,0-.358,0L10,9.284,2.44,1.724a.253.253,0,0,0-.358,0l-.358.358a.253.253,0,0,0,0,.358L9.284,10l-7.56,7.56a.253.253,0,0,0,0,.358l.358.358a.253.253,0,0,0,.358,0L10,10.716l7.56,7.56a.253.253,0,0,0,.358,0l.358-.358a.253.253,0,0,0,0-.358L10.716,10l7.56-7.56A.253.253,0,0,0,18.276,2.082Z" fill="#606060"/>
    </g>
  </g>
</svg>
