<?xml version="1.0" encoding="utf-8"?>
<!-- Generator: Adobe Adobe Illustrator 24.2.0, SVG Export Plug-In . SVG Version: 6.00 Build 0)  -->
<svg version="1.1" xmlns="http://www.w3.org/2000/svg" xmlns:xlink="http://www.w3.org/1999/xlink" x="0px" y="0px"
	 viewBox="0 0 26 26" style="enable-background:new 0 0 26 26;" xml:space="preserve">
<style type="text/css">
	.st0{fill:#FFFFFF;}
	.st1{fill:none;stroke:#000000;stroke-width:1.68;stroke-linejoin:round;stroke-miterlimit:10;}
	.st2{stroke:#000000;stroke-width:1.68;stroke-linecap:square;stroke-miterlimit:10;}
	.st3{fill:none;stroke:#000000;stroke-width:1.68;stroke-miterlimit:10;}
	.st4{opacity:0.6314;}
	.st5{opacity:0.9804;}
	.st6{fill:none;stroke:#000000;stroke-width:1.68;stroke-linecap:square;stroke-miterlimit:10;}
</style>
<g >
</g>
<g id="Icons">
</g>
<g id="Layer_9">
</g>
<g >
</g>
<g id="Layer_5">
	<path d="M16.59,1.68c4.26,0,7.73,3.47,7.73,7.73v13.72c-1.53-1.03-3.38-2.3-4.49-3.06c-1.42-0.97-1.42-0.97-1.94-0.97l-8.49-0.05
		c-4.26,0-7.73-3.47-7.73-7.73V9.41c0-4.26,3.47-7.73,7.73-7.73H16.59 M16.59,0H9.41C4.21,0,0,4.21,0,9.41v1.91
		c0,5.19,4.21,9.41,9.41,9.41l8.48,0.05c0.01,0,3.75,2.57,6.15,4.18c0.22,0.15,0.46,0.22,0.7,0.22c0.66,0,1.27-0.53,1.27-1.27V9.41
		C26,4.21,21.79,0,16.59,0L16.59,0z"/>
	<path d="M5.91,9l0-1.18c0-0.14,0.11-0.25,0.25-0.25l13.68-0.01c0.14,0,0.25,0.11,0.25,0.25l0,1.18c0,0.14-0.11,0.25-0.25,0.25
		L6.16,9.25C6.02,9.25,5.91,9.14,5.91,9z"/>
	<path d="M5.91,13.98l0-1.18c0-0.14,0.11-0.25,0.25-0.25l13.68-0.01c0.14,0,0.25,0.11,0.25,0.25l0,1.18c0,0.14-0.11,0.25-0.25,0.25
		L6.16,14.23C6.02,14.23,5.91,14.12,5.91,13.98z"/>
</g>
<g id="Layer_6">
</g>
</svg>
