<?xml version="1.0" encoding="utf-8"?>
<!-- Generator: Adobe Adobe Illustrator 24.2.0, SVG Export Plug-In . SVG Version: 6.00 Build 0)  -->
<svg version="1.1" xmlns="http://www.w3.org/2000/svg" xmlns:xlink="http://www.w3.org/1999/xlink" x="0px" y="0px"
	 viewBox="0 0 26 26" style="enable-background:new 0 0 26 26;" xml:space="preserve">
<style type="text/css">
	.st0{stroke:#000000;stroke-width:0.3237;stroke-miterlimit:10;}
</style>
<g >
</g>
<g id="Icons">
	<g id="XMLID_300_">
		<g id="XMLID_2460_">
			<path id="XMLID_554_" d="M24.4,26H1.6C0.7,26,0,25.3,0,24.4V1.6C0,0.7,0.7,0,1.6,0h22.8C25.3,0,26,0.7,26,1.6v22.8
				C26,25.3,25.3,26,24.4,26z M1.6,1.6v22.8h22.8V1.6H1.6z"/>
		</g>
		<g id="XMLID_231_">
			<g id="XMLID_405_">
				<path id="XMLID_1221_" d="M10.5,18.4l-5.6-5.3c-0.2-0.2-0.2-0.4,0-0.6l0.6-0.6c0.2-0.2,0.4-0.2,0.6,0l4.8,4.5l10.1-10
					c0.2-0.2,0.4-0.2,0.6,0L22,7c0.2,0.2,0.2,0.4,0,0.6L11,18.3C10.9,18.5,10.6,18.5,10.5,18.4z"/>
			</g>
		</g>
	</g>
</g>
</svg>
