<svg xmlns="http://www.w3.org/2000/svg" width="14" height="14" viewBox="0 0 14 14">
  <g id="Group_77323" data-name="Group 77323" transform="translate(0 -2)">
    <rect id="Rectangle_23760" data-name="Rectangle 23760" width="14" height="14" rx="2" transform="translate(0 2)" fill="#0072c6"/>
    <g id="Group_77169" data-name="Group 77169" transform="translate(4 7)">
      <path id="Path_61774" data-name="Path 61774" d="M2.246,3.97.03,1.754a.1.1,0,0,1,0-.144l.119-.119a.1.1,0,0,1,.144,0L2.318,3.516,5.8.03a.1.1,0,0,1,.144,0l.119.119a.1.1,0,0,1,0,.144L2.39,3.97A.1.1,0,0,1,2.246,3.97Z" transform="translate(0 0)" fill="#fff" stroke="#fff" stroke-width="0.5"/>
    </g>
  </g>
</svg>
