<?xml version="1.0" encoding="utf-8"?>
<!-- Generator: Adobe Illustrator 25.4.0, SVG Export Plug-In . SVG Version: 6.00 Build 0)  -->
<svg version="1.1" xmlns="http://www.w3.org/2000/svg" xmlns:xlink="http://www.w3.org/1999/xlink" x="0px" y="0px"
	 viewBox="0 0 102 41" style="enable-background:new 0 0 102 41;" xml:space="preserve">
<style type="text/css">
	.st0{fill:#FFFFFF;}
	.st1{fill:none;stroke:#C5C4C4;stroke-width:1.5;stroke-miterlimit:10;}
	.st2{fill:#C5C4C4;}
	.st3{fill:#616160;}
	.st4{fill:#C4C4C4;}
	.st5{enable-background:new    ;}
	.st6{fill:#020203;}
	.st7{fill:none;stroke:#D3D3D3;stroke-width:1.5;stroke-miterlimit:10;}
	.st8{fill:#D3D3D3;}
	.st9{fill:none;stroke:#C5C4C4;stroke-width:0.75;stroke-miterlimit:10;}
	.st10{fill:none;stroke:#616160;stroke-miterlimit:10;}
	.st11{fill:none;stroke:#616160;stroke-width:2;stroke-miterlimit:10;}
	.st12{fill:none;stroke:#616160;stroke-width:0.75;stroke-miterlimit:10;}
	.st13{fill:#616160;stroke:#616160;stroke-miterlimit:10;}
	.st14{fill:none;stroke:#FFFFFF;stroke-miterlimit:10;}
	.st15{fill:#1D70B8;}
	.st16{fill:#FFFFFF;stroke:#C5C4C4;stroke-width:1.5;stroke-miterlimit:10;}
	.st17{fill:none;stroke:#616160;stroke-width:1.5;stroke-miterlimit:10;}
	.st18{fill:none;stroke:#D3D3D3;stroke-width:0.5;}
	.st19{fill:#FFFFFF;stroke:#616160;}
	.st20{fill:none;stroke:#616160;stroke-width:0.5;stroke-miterlimit:10;}
	.st21{fill:#FFFFFF;stroke:#616160;stroke-width:1.5;}
	.st22{fill:#C5C4C4;stroke:#C5C4C4;stroke-width:1.5;stroke-miterlimit:10;}
	.st23{opacity:0.6;}
	.st24{opacity:0.6;fill:#C5C4C4;}
	.st25{fill:#FFFFFF;stroke:#616160;stroke-width:0.5;}
	.st26{fill:none;stroke:#616160;stroke-width:0.5;}
</style>
<g id="Layer_5">
	<g id="Layer_7">
	</g>
</g>
<g >
</g>
<g >
</g>
<g id="Layer_6">
</g>
<g >
	<g>
		<g id="XMLID_00000048471638839924399920000010120145759081591430_">
			<g>
				<path class="st3" d="M37.72,16.04v8.57c0,1.22-1,2.21-2.22,2.21h-8.57c-1.22,0-2.21-0.99-2.21-2.21v-8.57
					c0-1.23,0.99-2.22,2.21-2.22h8.57C36.72,13.82,37.72,14.81,37.72,16.04z M36.72,24.61v-8.57c0-0.67-0.55-1.22-1.22-1.22h-8.57
					c-0.67,0-1.21,0.55-1.21,1.22v8.57c0,0.67,0.54,1.21,1.21,1.21h8.57C36.17,25.82,36.72,25.28,36.72,24.61z"/>
				<path class="st0" d="M36.72,16.04v8.57c0,0.67-0.55,1.21-1.22,1.21h-8.57c-0.67,0-1.21-0.54-1.21-1.21v-8.57
					c0-0.67,0.54-1.22,1.21-1.22h8.57C36.17,14.82,36.72,15.37,36.72,16.04z"/>
			</g>
		</g>
	</g>
	<g>
		<polygon class="st3" points="30.0059,23.4531 27.2275,20.6753 27.9346,19.9683 30.0059,22.0391 34.501,17.5439 35.208,18.251 		
			"/>
	</g>
	<g>
		<path class="st3" d="M44.6553,18.5869c-0.5361,0-0.958,0.1904-1.2656,0.5703c-0.3066,0.3799-0.4609,0.9053-0.4609,1.5742
			c0,0.7002,0.1484,1.2305,0.4434,1.5898c0.2959,0.3594,0.7236,0.5391,1.2832,0.5391c0.2422,0,0.4766-0.0244,0.7031-0.0723
			s0.4629-0.1104,0.707-0.1855v0.8008c-0.4473,0.1689-0.9551,0.2539-1.5234,0.2539c-0.8359,0-1.4775-0.2529-1.9258-0.7598
			c-0.4473-0.5068-0.6719-1.2314-0.6719-2.1738c0-0.5938,0.1094-1.1133,0.3262-1.5586c0.2178-0.4453,0.5322-0.7861,0.9434-1.0234
			c0.4121-0.2373,0.8945-0.3555,1.4492-0.3555c0.584,0,1.123,0.1221,1.6172,0.3672l-0.3359,0.7773
			c-0.1924-0.0908-0.3965-0.1709-0.6113-0.2402S44.8926,18.5869,44.6553,18.5869z"/>
		<path class="st3" d="M50.999,23.5791h-0.9219v-2.6562c0-0.333-0.0664-0.582-0.2012-0.7461
			c-0.1338-0.1641-0.3467-0.2461-0.6387-0.2461c-0.3848,0-0.668,0.1152-0.8496,0.3457c-0.1807,0.2305-0.2715,0.6162-0.2715,1.1582
			v2.1445h-0.918V17.501h0.918v1.543c0,0.2471-0.0156,0.5117-0.0469,0.793h0.0586c0.125-0.208,0.2988-0.3701,0.5215-0.4844
			s0.4824-0.1719,0.7793-0.1719c1.0469,0,1.5703,0.5273,1.5703,1.582V23.5791z"/>
		<path class="st3" d="M54.1631,23.6572c-0.6719,0-1.1973-0.1963-1.5762-0.5879s-0.5684-0.9316-0.5684-1.6191
			c0-0.7061,0.1758-1.2607,0.5273-1.6641s0.835-0.6055,1.4492-0.6055c0.5703,0,1.0215,0.1729,1.3516,0.5195
			c0.3311,0.3467,0.4961,0.8232,0.4961,1.4297v0.4961h-2.8789c0.0137,0.4189,0.127,0.7412,0.3398,0.9668
			c0.2139,0.2256,0.5146,0.3379,0.9023,0.3379c0.2559,0,0.4932-0.0244,0.7129-0.0723c0.2207-0.0479,0.457-0.1279,0.709-0.2402
			v0.7461c-0.2236,0.1064-0.4502,0.1826-0.6797,0.2266C54.7197,23.6348,54.458,23.6572,54.1631,23.6572z M53.9951,19.876
			c-0.291,0-0.5254,0.0928-0.7012,0.2773s-0.2803,0.4541-0.3145,0.8086h1.9609c-0.0049-0.3564-0.0908-0.627-0.2578-0.8105
			C54.5166,19.9678,54.2871,19.876,53.9951,19.876z"/>
		<path class="st3" d="M58.6279,23.6572c-0.6533,0-1.1504-0.1904-1.4902-0.5723s-0.5098-0.9287-0.5098-1.6426
			c0-0.7266,0.1777-1.2852,0.5332-1.6758s0.8691-0.5859,1.541-0.5859c0.4561,0,0.8662,0.085,1.2305,0.2539l-0.2773,0.7383
			c-0.3877-0.1514-0.708-0.2266-0.9609-0.2266c-0.7471,0-1.1211,0.4961-1.1211,1.4883c0,0.4844,0.0938,0.8486,0.2793,1.0918
			c0.1865,0.2432,0.459,0.3652,0.8184,0.3652c0.4092,0,0.7959-0.1016,1.1602-0.3047v0.8008
			c-0.1641,0.0967-0.3389,0.165-0.5254,0.207C59.1201,23.6367,58.8936,23.6572,58.6279,23.6572z"/>
		<path class="st3" d="M61.7334,21.2979l0.5195-0.6484l1.3047-1.3906h1.0586l-1.7383,1.8555l1.8477,2.4648h-1.0781l-1.3867-1.8945
			l-0.5039,0.4141v1.4805h-0.9102V17.501h0.9102v2.9648l-0.0469,0.832H61.7334z"/>
		<path class="st3" d="M66.3389,23.5791h-0.918V17.501h0.918V23.5791z"/>
		<path class="st3" d="M67.5967,18.1143c0-0.1641,0.0449-0.29,0.1348-0.3789s0.2188-0.1328,0.3848-0.1328
			c0.1621,0,0.2871,0.0439,0.377,0.1328s0.1348,0.2148,0.1348,0.3789c0,0.1562-0.0449,0.2793-0.1348,0.3691
			s-0.2148,0.1348-0.377,0.1348c-0.166,0-0.2949-0.0449-0.3848-0.1348S67.5967,18.2705,67.5967,18.1143z M68.5693,23.5791h-0.918
			v-4.3203h0.918V23.5791z"/>
		<path class="st3" d="M72.7842,22.3486c0,0.4219-0.1533,0.7451-0.4609,0.9707c-0.3066,0.2256-0.7471,0.3379-1.3203,0.3379
			c-0.5752,0-1.0371-0.0869-1.3867-0.2617v-0.793c0.5078,0.2344,0.9805,0.3516,1.418,0.3516c0.5654,0,0.8477-0.1709,0.8477-0.5117
			c0-0.1094-0.0312-0.2002-0.0938-0.2734s-0.165-0.1484-0.3086-0.2266c-0.1426-0.0781-0.3418-0.167-0.5977-0.2656
			c-0.4971-0.1924-0.834-0.3857-1.0098-0.5781s-0.2637-0.4424-0.2637-0.75c0-0.3701,0.1494-0.6572,0.4473-0.8613
			c0.2988-0.2041,0.7041-0.3066,1.2168-0.3066c0.5078,0,0.9883,0.1025,1.4414,0.3086l-0.2969,0.6914
			c-0.4658-0.1924-0.8574-0.2891-1.1758-0.2891c-0.4844,0-0.7266,0.1377-0.7266,0.4141c0,0.1357,0.0635,0.25,0.1895,0.3438
			c0.127,0.0938,0.4023,0.2227,0.8262,0.3867c0.3574,0.1377,0.6162,0.2646,0.7773,0.3789c0.1621,0.1143,0.2812,0.2471,0.3594,0.3965
			S72.7842,22.1406,72.7842,22.3486z"/>
		<path class="st3" d="M75.3857,22.915c0.2246,0,0.4482-0.0352,0.6719-0.1055v0.6914c-0.1016,0.0439-0.2324,0.0811-0.3926,0.1113
			s-0.3262,0.0449-0.498,0.0449c-0.8691,0-1.3047-0.458-1.3047-1.375v-2.3281h-0.5898v-0.4062l0.6328-0.3359l0.3125-0.9141h0.5664
			v0.9609h1.2305v0.6953h-1.2305v2.3125c0,0.2217,0.0557,0.3848,0.166,0.4902C75.0615,22.8623,75.2061,22.915,75.3857,22.915z"/>
	</g>
</g>
<g id="Layer_8">
</g>
<g >
</g>
</svg>
