<?xml version="1.0" encoding="utf-8"?>
<!-- Generator: Adobe Illustrator 25.4.0, SVG Export Plug-In . SVG Version: 6.00 Build 0)  -->
<svg version="1.1" xmlns="http://www.w3.org/2000/svg" xmlns:xlink="http://www.w3.org/1999/xlink" x="0px" y="0px"
	 viewBox="0 0 20 20" style="enable-background:new 0 0 20 20;" xml:space="preserve">
<style type="text/css">
	.st0{fill:#FFFFFF;}
	.st1{fill:#616160;}
	.st2{fill:#FFFFFF;stroke:#616160;stroke-miterlimit:10;}
	.st3{fill:none;stroke:#616160;stroke-miterlimit:10;}
	.st4{fill:none;stroke:#C5C4C4;stroke-width:1.5;stroke-miterlimit:10;}
	.st5{fill:#C5C4C4;}
	.st6{fill:#C4C4C4;}
	.st7{enable-background:new    ;}
	.st8{fill:#020203;}
	.st9{fill:none;stroke:#D3D3D3;stroke-width:1.5;stroke-miterlimit:10;}
	.st10{fill:#D3D3D3;}
	.st11{fill:none;stroke:#C5C4C4;stroke-width:0.75;stroke-miterlimit:10;}
	.st12{fill:none;stroke:#616160;stroke-width:2;stroke-miterlimit:10;}
	.st13{fill:none;stroke:#616160;stroke-width:0.75;stroke-miterlimit:10;}
	.st14{fill:#616160;stroke:#616160;stroke-miterlimit:10;}
	.st15{fill:none;stroke:#FFFFFF;stroke-miterlimit:10;}
	.st16{fill:#1D70B8;}
	.st17{fill:#FFFFFF;stroke:#C5C4C4;stroke-width:1.5;stroke-miterlimit:10;}
	.st18{fill:none;stroke:#616160;stroke-width:1.5;stroke-miterlimit:10;}
	.st19{fill:none;stroke:#D3D3D3;stroke-width:0.5;}
	.st20{fill:#FFFFFF;stroke:#616160;}
	.st21{fill:none;stroke:#616160;stroke-width:0.5;stroke-miterlimit:10;}
	.st22{fill:#FFFFFF;stroke:#616160;stroke-width:1.5;}
	.st23{fill:#C5C4C4;stroke:#C5C4C4;stroke-width:1.5;stroke-miterlimit:10;}
	.st24{opacity:0.6;}
	.st25{opacity:0.6;fill:#C5C4C4;}
	.st26{fill:#FFFFFF;stroke:#616160;stroke-width:0.5;}
	.st27{fill:none;stroke:#616160;stroke-width:0.5;}
</style>
<g id="Layer_5">
	<g id="Layer_7">
	</g>
	<path class="st0" d="M2.1766,15.2245L2.1766,15.2245c0-1.2232,0.9916-2.2148,2.2148-2.2148h12.7852v4.4295H4.3913
		C3.1682,17.4393,2.1766,16.4477,2.1766,15.2245z"/>
	<path class="st1" d="M17.6768,17.9395H4.3911c-1.4966,0-2.7144-1.2178-2.7144-2.7148s1.2178-2.7148,2.7144-2.7148h13.2856V17.9395z
		 M4.3911,13.5098c-0.9453,0-1.7144,0.769-1.7144,1.7148s0.769,1.7148,1.7144,1.7148h12.2856v-3.4297H4.3911z"/>
	<g>
		<path class="st0" d="M2.9953,16.1087L2.9953,16.1087c-0.6447-1.0395-0.3247-2.4048,0.7147-3.0495l10.865-6.739l2.3348,3.7642
			l-10.865,6.739C5.0054,17.4682,3.6401,17.1482,2.9953,16.1087z"/>
		<path class="st1" d="M4.8818,17.6553c-0.9087,0-1.7979-0.4551-2.3115-1.2827l0,0c-0.7891-1.2725-0.396-2.9492,0.876-3.7383
			l11.2905-7.0024l2.8613,4.6138L6.3086,17.248C5.8643,17.5239,5.3701,17.6553,4.8818,17.6553z M3.4199,15.8452
			c0.4985,0.8032,1.5571,1.0522,2.3613,0.5532l10.4399-6.4751l-1.8076-2.9146L3.9736,13.4839
			C3.1704,13.9824,2.9219,15.0415,3.4199,15.8452L3.4199,15.8452z"/>
	</g>
	<g>
		<path class="st0" d="M3.527,16.7335L3.527,16.7335c-1.0593-0.6116-1.4223-1.9661-0.8107-3.0254L9.109,2.6358l3.8361,2.2148
			L6.5524,15.9229C5.9408,16.9822,4.5863,17.3451,3.527,16.7335z"/>
		<path class="st1" d="M4.6299,17.5312c-0.4702,0-0.9346-0.123-1.353-0.3647l0,0c-1.2959-0.748-1.7417-2.4116-0.9937-3.7085
			L8.9258,1.9526l4.7021,2.7148L6.9854,16.1729C6.623,16.8008,6.0376,17.25,5.3369,17.4375
			C5.103,17.5005,4.8657,17.5312,4.6299,17.5312z M9.292,3.3188L3.1494,13.958c-0.4727,0.8188-0.1914,1.8696,0.6274,2.3423l0,0
			c0.397,0.2295,0.8608,0.2896,1.3013,0.1714c0.4424-0.1187,0.812-0.4023,1.041-0.7988l6.1426-10.6392L9.292,3.3188z"/>
	</g>
	<g>
		<path class="st0" d="M4.3913,17.4393L4.3913,17.4393c-1.2232,0-2.2148-0.9916-2.2148-2.2148V2.4393h4.4295v12.7852
			C6.6061,16.4477,5.6145,17.4393,4.3913,17.4393z"/>
		<path class="st1" d="M4.3911,17.9395c-1.4966,0-2.7144-1.2178-2.7144-2.7148V1.9395H7.106v13.2852
			C7.106,16.7217,5.8882,17.9395,4.3911,17.9395z M2.6768,2.9395v12.2852c0,0.9458,0.769,1.7148,1.7144,1.7148
			c0.9458,0,1.7148-0.769,1.7148-1.7148V2.9395H2.6768z"/>
	</g>
	<g>
		
			<rect x="8.6806" y="4.3588" transform="matrix(0.492 -0.8706 0.8706 0.492 -1.0696 11.3373)" class="st1" width="0.9997" height="4.4528"/>
	</g>
	<g>
		
			<rect x="7.5019" y="8.4387" transform="matrix(0.499 -0.8666 0.8666 0.499 -4.8538 12.0574)" class="st1" width="0.9997" height="3.5763"/>
	</g>
	<g>
		
			<rect x="12.0682" y="7.7805" transform="matrix(0.8556 -0.5177 0.5177 0.8556 -3.4263 7.9691)" class="st1" width="0.9999" height="4.6884"/>
	</g>
	<g>
		
			<rect x="9.2488" y="11.261" transform="matrix(0.8684 -0.4959 0.4959 0.8684 -4.9974 6.5019)" class="st1" width="0.9999" height="2.807"/>
	</g>
	<g>
		<rect x="13.0908" y="13.0742" class="st1" width="1" height="4.3145"/>
	</g>
	<g>
		<rect x="9.7534" y="14.1514" class="st1" width="1" height="3.2373"/>
	</g>
	<g>
		<circle class="st1" cx="4.3913" cy="15.2988" r="0.5"/>
	</g>
</g>
<g >
</g>
<g >
</g>
<g id="Layer_6">
</g>
<g >
</g>
<g id="Layer_8">
</g>
<g >
</g>
</svg>
