<?xml version="1.0" encoding="utf-8"?>
<!-- Generator: Adobe Illustrator 25.4.0, SVG Export Plug-In . SVG Version: 6.00 Build 0)  -->
<svg version="1.1" xmlns="http://www.w3.org/2000/svg" xmlns:xlink="http://www.w3.org/1999/xlink" x="0px" y="0px"
	 viewBox="0 0 20 20" style="enable-background:new 0 0 20 20;" xml:space="preserve">
<style type="text/css">
	.st0{fill:#FFFFFF;}
	.st1{fill:#616160;}
	.st2{fill:#FFFFFF;stroke:#616160;stroke-miterlimit:10;}
	.st3{fill:none;stroke:#616160;stroke-miterlimit:10;}
	.st4{fill:none;stroke:#C5C4C4;stroke-width:1.5;stroke-miterlimit:10;}
	.st5{fill:#C5C4C4;}
	.st6{fill:#C4C4C4;}
	.st7{enable-background:new    ;}
	.st8{fill:#020203;}
	.st9{fill:none;stroke:#D3D3D3;stroke-width:1.5;stroke-miterlimit:10;}
	.st10{fill:#D3D3D3;}
	.st11{fill:none;stroke:#C5C4C4;stroke-width:0.75;stroke-miterlimit:10;}
	.st12{fill:none;stroke:#616160;stroke-width:2;stroke-miterlimit:10;}
	.st13{fill:none;stroke:#616160;stroke-width:0.75;stroke-miterlimit:10;}
	.st14{fill:#616160;stroke:#616160;stroke-miterlimit:10;}
	.st15{fill:none;stroke:#FFFFFF;stroke-miterlimit:10;}
	.st16{fill:#1D70B8;}
	.st17{fill:#FFFFFF;stroke:#C5C4C4;stroke-width:1.5;stroke-miterlimit:10;}
	.st18{fill:none;stroke:#616160;stroke-width:1.5;stroke-miterlimit:10;}
	.st19{fill:none;stroke:#D3D3D3;stroke-width:0.5;}
	.st20{fill:#FFFFFF;stroke:#616160;}
	.st21{fill:none;stroke:#616160;stroke-width:0.5;stroke-miterlimit:10;}
	.st22{fill:#FFFFFF;stroke:#616160;stroke-width:1.5;}
	.st23{fill:#C5C4C4;stroke:#C5C4C4;stroke-width:1.5;stroke-miterlimit:10;}
	.st24{opacity:0.6;}
	.st25{opacity:0.6;fill:#C5C4C4;}
	.st26{fill:#FFFFFF;stroke:#616160;stroke-width:0.5;}
	.st27{fill:none;stroke:#616160;stroke-width:0.5;}
</style>
<g id="Layer_5">
	<g id="Layer_7">
	</g>
	<g>
		<g>
			<path class="st1" d="M11.8843,18.2496c-0.5635,0-1.1216-0.1528-1.624-0.4546c-0.9287-0.5581-1.5415-1.5547-1.6392-2.667
				c-0.0107-0.1221-0.0283-0.2451-0.0527-0.3696c-0.2734-1.4028-1.4458-2.5278-2.8511-2.7368
				c-0.3945-0.0591-0.7896-0.0518-1.1709,0.0205c-0.8027,0.1523-1.627-0.0723-2.2114-0.5967
				c-0.5439-0.4873-0.8228-1.1855-0.7656-1.915c0.0078-0.0986,0.0171-0.1968,0.0288-0.2949c0.4648-4.1196,3.9434-7.3359,8.0913-7.48
				c2.4321-0.0889,4.7803,0.8794,6.4463,2.646c1.666,1.7656,2.4912,4.1733,2.2646,6.606c-0.2671,2.8599-2.1123,5.4575-4.8154,6.7798
				c-0.1484,0.0728-0.2974,0.1406-0.4458,0.2036C12.7319,18.1636,12.3066,18.2496,11.8843,18.2496z M5.189,10.982
				c0.2246,0,0.4502,0.0166,0.6758,0.0503c1.8169,0.2705,3.332,1.7236,3.6851,3.5342c0.0312,0.1592,0.0537,0.3174,0.0674,0.4741
				c0.0698,0.7939,0.5029,1.5034,1.1577,1.897c0.6108,0.3667,1.3105,0.4141,1.9731,0.1328
				c0.1313-0.0557,0.2637-0.1157,0.3965-0.1812c2.3931-1.1704,4.0249-3.4595,4.2598-5.9746
				c0.2002-2.1465-0.5273-4.2705-1.9956-5.8267c-1.4692-1.5566-3.5469-2.4077-5.6841-2.3335L9.707,2.2549l0.0176,0.4995
				C6.0679,2.8819,3.0015,5.7169,2.5918,9.3492L2.5664,9.609c-0.0332,0.4219,0.1216,0.8101,0.436,1.0923
				c0.354,0.3169,0.8613,0.4502,1.3579,0.3584C4.6328,11.0079,4.9102,10.982,5.189,10.982z"/>
		</g>
		<g>
			<path class="st1" d="M6.0142,10.1163c-1.001,0-1.8154-0.8145-1.8154-1.8154s0.8145-1.8154,1.8154-1.8154
				s1.8149,0.8145,1.8149,1.8154S7.0151,10.1163,6.0142,10.1163z M6.0142,7.4854c-0.4497,0-0.8154,0.3657-0.8154,0.8154
				s0.3657,0.8154,0.8154,0.8154c0.4492,0,0.8149-0.3657,0.8149-0.8154S6.4634,7.4854,6.0142,7.4854z"/>
		</g>
		<g>
			<path class="st1" d="M10.2964,7.5772c-1.001,0-1.8154-0.8145-1.8154-1.8154s0.8145-1.8154,1.8154-1.8154
				s1.8154,0.8145,1.8154,1.8154S11.2974,7.5772,10.2964,7.5772z M10.2964,4.9464c-0.4497,0-0.8154,0.3657-0.8154,0.8154
				s0.3657,0.8154,0.8154,0.8154s0.8154-0.3657,0.8154-0.8154S10.7461,4.9464,10.2964,4.9464z"/>
		</g>
		<g>
			<path class="st1" d="M14.6406,10.7281c-1.001,0-1.8154-0.8145-1.8154-1.8154s0.8145-1.8154,1.8154-1.8154
				s1.8149,0.8145,1.8149,1.8154S15.6416,10.7281,14.6406,10.7281z M14.6406,8.0972c-0.4497,0-0.8154,0.3657-0.8154,0.8154
				s0.3657,0.8154,0.8154,0.8154c0.4492,0,0.8149-0.3657,0.8149-0.8154S15.0898,8.0972,14.6406,8.0972z"/>
		</g>
		<g>
			<path class="st1" d="M12.958,15.6529c-1.001,0-1.8154-0.8145-1.8154-1.8154s0.8145-1.8154,1.8154-1.8154
				s1.8154,0.8145,1.8154,1.8154S13.959,15.6529,12.958,15.6529z M12.958,13.022c-0.4497,0-0.8154,0.3657-0.8154,0.8154
				s0.3657,0.8154,0.8154,0.8154s0.8154-0.3657,0.8154-0.8154S13.4077,13.022,12.958,13.022z"/>
		</g>
	</g>
</g>
<g >
</g>
<g >
</g>
<g id="Layer_6">
</g>
<g >
</g>
<g id="Layer_8">
</g>
<g >
</g>
</svg>
