<?xml version="1.0" encoding="utf-8"?>
<!-- Generator: Adobe Adobe Illustrator 24.2.0, SVG Export Plug-In . SVG Version: 6.00 Build 0)  -->
<svg version="1.1" xmlns="http://www.w3.org/2000/svg" xmlns:xlink="http://www.w3.org/1999/xlink" x="0px" y="0px"
	 viewBox="0 0 16 16" style="enable-background:new 0 0 16 16;" xml:space="preserve">
<style type="text/css">
	.st0{fill:#FFFFFF;}
</style>
<g >
</g>
<g id="Icons">
	<g id="XMLID_1487_">
		<path id="XMLID_1249_" d="M8,7.07c-1.93,0-3.5-1.57-3.5-3.5s1.57-3.5,3.5-3.5s3.5,1.57,3.5,3.5S9.93,7.07,8,7.07z M8,1.07
			c-1.38,0-2.5,1.12-2.5,2.5s1.12,2.5,2.5,2.5s2.5-1.12,2.5-2.5S9.38,1.07,8,1.07z"/>
	</g>
	<g id="XMLID_1502_">
		<path id="XMLID_1246_" d="M3.53,16.02c-1.93,0-3.5-1.57-3.5-3.5s1.57-3.5,3.5-3.5s3.5,1.57,3.5,3.5S5.46,16.02,3.53,16.02z
			 M3.53,10.02c-1.38,0-2.5,1.12-2.5,2.5s1.12,2.5,2.5,2.5s2.5-1.12,2.5-2.5S4.91,10.02,3.53,10.02z"/>
	</g>
	<g id="XMLID_1503_">
		<path id="XMLID_1243_" d="M12.46,16c-1.93,0-3.5-1.57-3.5-3.5S10.53,9,12.46,9s3.5,1.57,3.5,3.5S14.39,16,12.46,16z M12.46,10
			c-1.38,0-2.5,1.12-2.5,2.5s1.12,2.5,2.5,2.5s2.5-1.12,2.5-2.5S13.84,10,12.46,10z"/>
	</g>
</g>
<g id="Layer_9">
</g>
</svg>
