<?xml version="1.0" encoding="utf-8"?>
<!-- Generator: Adobe Illustrator 25.4.1, SVG Export Plug-In . SVG Version: 6.00 Build 0)  -->
<svg version="1.1" xmlns="http://www.w3.org/2000/svg" xmlns:xlink="http://www.w3.org/1999/xlink" x="0px" y="0px"
	 viewBox="0 0 80 56" style="enable-background:new 0 0 80 56;" xml:space="preserve">
<style type="text/css">
	.st0{display:none;}
	.st1{display:inline;}
	.st2{fill:none;stroke:#000000;stroke-miterlimit:10;}
	.st3{fill:#FFFFFF;}
	.st4{fill:#020203;}
	.st5{fill:none;}
	.st6{display:inline;opacity:0.3;}
	.st7{fill:#616160;}
	.st8{fill:none;stroke:#616160;stroke-miterlimit:10;}
	.st9{display:inline;fill:none;stroke:#616160;stroke-miterlimit:10;}
	.st10{display:inline;fill:none;stroke:#616160;}
	.st11{display:inline;fill:#616160;}
	.st12{display:none;opacity:0.5;}
	.st13{display:inline;opacity:0.58;}
	.st14{fill:#010202;}
	.st15{fill:#F0F0F0;}
	.st16{fill:#1F70B7;}
	.st17{fill:none;stroke:#C4C4C4;stroke-width:0.5;}
	.st18{fill:#2470B7;}
	.st19{fill:none;stroke:#FFFFFF;stroke-linecap:round;stroke-linejoin:round;}
	.st20{fill:none;stroke:#B4B0B0;stroke-width:0.5;}
	.st21{fill:#C4C4C4;}
	.st22{fill:none;stroke:#C4C4C4;stroke-width:2;}
	.st23{fill:#1D70B8;}
	.st24{fill:none;stroke:#1D70B8;stroke-width:2;}
	.st25{fill:none;stroke:#1D70B8;}
	.st26{fill:none;stroke:#1D70B8;stroke-width:3;}
</style>
<g id="Editabl" class="st0">
</g>
<g id="Guides">
</g>
<g  class="st12">
</g>
<g >
	<g>
		<g>
			<path id="Rectangle_15965_00000000930120235358132780000014216060356413278364_" class="st21" d="M8.8456,5.25h61.25
				c0.4833,0,0.875,0.3918,0.875,0.875V10.5c0,0.4832-0.3917,0.875-0.875,0.875h-61.25c-0.4832,0-0.875-0.3918-0.875-0.875V6.125
				C7.9706,5.6418,8.3624,5.25,8.8456,5.25z"/>
			<path id="Rectangle_15968_00000039827064144719463100000016040610247377311138_" class="st21" d="M8.8456,13.125h45.5
				c0.4832,0,0.875,0.3918,0.875,0.875v4.375c0,0.4832-0.3918,0.875-0.875,0.875h-45.5c-0.4832,0-0.875-0.3918-0.875-0.875V14
				C7.9706,13.5168,8.3624,13.125,8.8456,13.125z"/>
			<path id="Rectangle_15971_00000049197463654230398270000014205137746779491494_" class="st21" d="M8.8456,21h38.5
				c0.4832,0,0.875,0.3918,0.875,0.875v4.375c0,0.4832-0.3918,0.875-0.875,0.875h-38.5c-0.4832,0-0.875-0.3918-0.875-0.875v-4.375
				C7.9706,21.3918,8.3624,21,8.8456,21z"/>
		</g>
		<path id="Rectangle_15974_00000131359348384947812800000004210134197149753488_" class="st21" d="M31.392,41.125h18.375
			c0.4832,0,0.875,0.3918,0.875,0.875v4.375c0,0.4832-0.3918,0.875-0.875,0.875H31.392c-0.4832,0-0.875-0.3918-0.875-0.875V42
			C30.517,41.5168,30.9087,41.125,31.392,41.125z"/>
		<path id="Rectangle_15977_00000144317364066907770370000016029161110810589602_" class="st21" d="M8.8456,41.125h18.375
			c0.4832,0,0.875,0.3918,0.875,0.875v4.375c0,0.4832-0.3918,0.875-0.875,0.875H8.8456c-0.4832,0-0.875-0.3918-0.875-0.875V42
			C7.9706,41.5168,8.3624,41.125,8.8456,41.125z"/>
	</g>
</g>
</svg>
