<?xml version="1.0" encoding="utf-8"?>
<!-- Generator: Adobe Adobe Illustrator 24.2.0, SVG Export Plug-In . SVG Version: 6.00 Build 0)  -->
<svg version="1.1" xmlns="http://www.w3.org/2000/svg" xmlns:xlink="http://www.w3.org/1999/xlink" x="0px" y="0px"
	 viewBox="0 0 26 26" style="enable-background:new 0 0 26 26;" xml:space="preserve">
<style type="text/css">
	.st0{fill:#FFFFFF;}
	.st1{fill:none;stroke:#000000;stroke-width:1.68;stroke-linejoin:round;stroke-miterlimit:10;}
	.st2{stroke:#000000;stroke-width:1.68;stroke-linecap:square;stroke-miterlimit:10;}
	.st3{fill:none;stroke:#000000;stroke-width:1.68;stroke-miterlimit:10;}
	.st4{opacity:0.6314;}
	.st5{opacity:0.9804;}
	.st6{fill:none;stroke:#000000;stroke-width:1.68;stroke-linecap:square;stroke-miterlimit:10;}
	.st7{fill:none;stroke:#000000;stroke-miterlimit:10;}
</style>
<g >
</g>
<g id="Icons">
	<path d="M24.21,2.61c0.1-0.1,0.09-0.26,0-0.35l-0.84-0.83c-0.1-0.1-0.26-0.09-0.35,0l-2.85,2.91l-1.33-1.36
		c-0.1-0.1-0.25-0.1-0.35,0l-0.84,0.83c-0.1,0.1-0.1,0.25,0,0.35l1.35,1.38l0.58,0.6l0.58,0.59"/>
	<path d="M9.13,26.13h-7.5c-1.01,0-1.84-0.83-1.84-1.84V12.94c0-1.01,0.83-1.84,1.84-1.84h7.5c1.01,0,1.84,0.83,1.84,1.84v11.36
		C10.97,25.31,10.14,26.13,9.13,26.13z M1.63,12.78c-0.09,0-0.16,0.07-0.16,0.16v11.36c0,0.09,0.07,0.16,0.16,0.16h7.5
		c0.09,0,0.16-0.07,0.16-0.16V12.94c0-0.09-0.07-0.16-0.16-0.16H1.63z"/>
	<path d="M24.18,25.99h-7.5c-1.01,0-1.84-0.83-1.84-1.84V9.65c0-1.01,0.83-1.84,1.84-1.84h7.5c1.01,0,1.84,0.83,1.84,1.84v14.5
		C26.02,25.16,25.19,25.99,24.18,25.99z M16.68,9.49c-0.09,0-0.16,0.07-0.16,0.16v14.5c0,0.09,0.07,0.16,0.16,0.16h7.5
		c0.09,0,0.16-0.07,0.16-0.16V9.65c0-0.09-0.07-0.16-0.16-0.16H16.68z"/>
</g>
<g id="Layer_9">
</g>
<g >
</g>
<g id="Layer_5">
	<g>
		<path d="M7.89,2.53L7.06,1.7c-0.1-0.1-0.26-0.1-0.35,0L5.38,3.01L4.07,1.68c-0.1-0.1-0.26-0.1-0.35,0L2.88,2.51
			c-0.1,0.1-0.1,0.26,0,0.35l1.31,1.32L2.87,5.5c-0.1,0.1-0.1,0.26,0,0.35l0.83,0.84c0.1,0.1,0.26,0.1,0.35,0l1.32-1.31L6.68,6.7
			c0.1,0.1,0.26,0.1,0.35,0l0.84-0.83c0.1-0.1,0.1-0.26,0-0.35L6.56,4.2l1.32-1.31C7.98,2.79,7.98,2.63,7.89,2.53z"/>
	</g>
</g>
<g id="Layer_6">
</g>
</svg>
