<?xml version="1.0" encoding="utf-8"?>
<!-- Generator: Adobe Adobe Illustrator 24.2.0, SVG Export Plug-In . SVG Version: 6.00 Build 0)  -->
<svg version="1.1" xmlns="http://www.w3.org/2000/svg" xmlns:xlink="http://www.w3.org/1999/xlink" x="0px" y="0px"
	 viewBox="0 0 16 16" style="enable-background:new 0 0 16 16;" xml:space="preserve">
<style type="text/css">
	.st0{fill:#FFFFFF;}
</style>
<g >
	<g id="XMLID_271_">
		<g id="XMLID_1536_">
			<rect id="XMLID_1286_" x="12.45" width="1" height="16"/>
		</g>
		<g id="XMLID_1535_">
			<rect id="XMLID_1285_" x="7.22" width="1" height="16"/>
		</g>
		<g id="XMLID_1534_">
			<rect id="XMLID_1284_" x="2.38" width="1" height="16"/>
		</g>
		<g id="XMLID_1533_">
			<circle id="XMLID_1279_" class="st0" cx="7.74" cy="11.18" r="1.52"/>
			<path id="XMLID_1280_" d="M7.74,13.2c-1.11,0-2.02-0.91-2.02-2.02s0.91-2.02,2.02-2.02s2.02,0.91,2.02,2.02S8.85,13.2,7.74,13.2z
				 M7.74,10.16c-0.56,0-1.02,0.46-1.02,1.02s0.46,1.02,1.02,1.02s1.02-0.46,1.02-1.02S8.3,10.16,7.74,10.16z"/>
		</g>
		<g id="XMLID_1532_">
			<circle id="XMLID_1275_" class="st0" cx="3.05" cy="4.43" r="1.52"/>
			<path id="XMLID_1276_" d="M3.05,6.45c-1.11,0-2.02-0.91-2.02-2.02s0.91-2.02,2.02-2.02s2.02,0.91,2.02,2.02S4.16,6.45,3.05,6.45z
				 M3.05,3.41c-0.56,0-1.02,0.46-1.02,1.02s0.46,1.02,1.02,1.02s1.02-0.46,1.02-1.02S3.61,3.41,3.05,3.41z"/>
		</g>
		<g id="XMLID_1531_">
			<circle id="XMLID_1264_" class="st0" cx="12.95" cy="4.43" r="1.52"/>
			<path id="XMLID_1272_" d="M12.95,6.45c-1.11,0-2.02-0.91-2.02-2.02s0.91-2.02,2.02-2.02s2.02,0.91,2.02,2.02
				S14.06,6.45,12.95,6.45z M12.95,3.41c-0.56,0-1.02,0.46-1.02,1.02s0.46,1.02,1.02,1.02s1.02-0.46,1.02-1.02
				S13.51,3.41,12.95,3.41z"/>
		</g>
	</g>
</g>
<g id="Icons">
</g>
<g id="Layer_9">
</g>
</svg>
