<svg id="Copy" xmlns="http://www.w3.org/2000/svg" width="16" height="16" viewBox="0 0 16 16">
  <g id="Layer_2_00000163064352271786737480000014539509669158439080_" transform="translate(1.005 1)">
    <g id="Layer_2_00000183953659958881715600000017372082705616059552_">
      <path id="Path_1800" data-name="Path 1800" d="M13.505,1H5.089a1.5,1.5,0,0,0-1.5,1.5V3.58H2.505a1.5,1.5,0,0,0-1.5,1.5V13.5a1.5,1.5,0,0,0,1.5,1.5h8.416a1.5,1.5,0,0,0,1.5-1.5V12.42h1.084a1.5,1.5,0,0,0,1.5-1.5V2.5A1.5,1.5,0,0,0,13.505,1ZM11.421,13.5a.5.5,0,0,1-.5.5H2.505a.5.5,0,0,1-.5-.5V5.081a.5.5,0,0,1,.5-.5H3.589v6.34a1.5,1.5,0,0,0,1.5,1.5h6.332Zm2.584-2.58a.5.5,0,0,1-.5.5H5.089a.5.5,0,0,1-.5-.5V2.5a.5.5,0,0,1,.5-.5h8.416a.5.5,0,0,1,.5.5S14.005,10.92,14.005,10.92Z" transform="translate(-1.005 -1)" fill="#606060"/>
    </g>
  </g>
  <g id="Outline_Box">
    <rect id="Rectangle_582" data-name="Rectangle 582" width="16" height="16" fill="none"/>
  </g>
</svg>
