<svg xmlns="http://www.w3.org/2000/svg" width="12.375" height="12.375" viewBox="0 0 12.375 12.375"><defs><style>.a{fill:none;stroke:#fff;stroke-linecap:round;stroke-linejoin:round;stroke-width:1.5px;}</style></defs><g transform="translate(0.75 0.75)"><path class="a" d="M14.587,13.5h4.894a1.087,1.087,0,0,1,1.087,1.087v4.894a1.087,1.087,0,0,1-1.087,1.087H14.587A1.087,1.087,0,0,1,13.5,19.481V14.587A1.087,1.087,0,0,1,14.587,13.5Z" transform="translate(-9.694 -9.694)"/><path class="a" d="M4.631,10.069H4.087A1.087,1.087,0,0,1,3,8.981V4.087A1.087,1.087,0,0,1,4.087,3H8.981a1.087,1.087,0,0,1,1.087,1.087v.544" transform="translate(-3 -3)"/></g></svg>