<svg width="10" height="10" viewBox="0 0 10 10" fill="none" xmlns="http://www.w3.org/2000/svg">
<rect width="10" height="10" fill="#F5F5F5"/>
<path d="M-342 -343C-342 -344.105 -341.105 -345 -340 -345H3929C3930.1 -345 3931 -344.105 3931 -343V1616C3931 1617.1 3930.1 1618 3929 1618H-340C-341.104 1618 -342 1617.1 -342 1616V-343Z" fill="white"/>
<rect x="-58" y="-25" width="299" height="617" fill="white"/>
<path d="M-58.75 -24.75H240.75V15.75H-58.75V-24.75Z" fill="white" stroke="#D2D2D2" stroke-width="0.5"/>
<path d="M8.5 0H3.289C2.89118 0 2.50964 0.158035 2.22834 0.43934C1.94704 0.720644 1.789 1.10218 1.789 1.5V1.786H1.5C1.10218 1.786 0.720644 1.94404 0.43934 2.22534C0.158035 2.50664 0 2.88818 0 3.286V8.5C0 8.89782 0.158035 9.27936 0.43934 9.56066C0.720644 9.84196 1.10218 10 1.5 10H6.711C7.10882 10 7.49036 9.84196 7.77166 9.56066C8.05296 9.27936 8.211 8.89782 8.211 8.5V8.214H8.5C8.89782 8.214 9.27936 8.05596 9.56066 7.77466C9.84196 7.49336 10 7.11182 10 6.714V1.5C10 1.10218 9.84196 0.720644 9.56066 0.43934C9.27936 0.158035 8.89782 0 8.5 0ZM7.211 8.5C7.211 8.63261 7.15832 8.75979 7.06455 8.85355C6.97079 8.94732 6.84361 9 6.711 9H1.5C1.36739 9 1.24021 8.94732 1.14645 8.85355C1.05268 8.75979 1 8.63261 1 8.5V3.286C1 3.15339 1.05268 3.02621 1.14645 2.93245C1.24021 2.83868 1.36739 2.786 1.5 2.786H1.789V6.714C1.789 7.11182 1.94704 7.49336 2.22834 7.77466C2.50964 8.05596 2.89118 8.214 3.289 8.214H7.211V8.5ZM9 6.714C9 6.84661 8.94732 6.97379 8.85355 7.06755C8.75979 7.16132 8.63261 7.214 8.5 7.214H3.289C3.15639 7.214 3.02921 7.16132 2.93545 7.06755C2.84168 6.97379 2.789 6.84661 2.789 6.714V1.5C2.789 1.36739 2.84168 1.24021 2.93545 1.14645C3.02921 1.05268 3.15639 1 3.289 1H8.5C8.63261 1 8.75979 1.05268 8.85355 1.14645C8.94732 1.24021 9 1.36739 9 1.5V6.714Z" fill="#606060"/>
<path d="M-340 -344H3929V-346H-340V-344ZM3930 -343V1616H3932V-343H3930ZM3929 1617H-340V1619H3929V1617ZM-341 1616V-343H-343V1616H-341ZM-340 1617C-340.552 1617 -341 1616.55 -341 1616H-343C-343 1617.66 -341.657 1619 -340 1619V1617ZM3930 1616C3930 1616.55 3929.55 1617 3929 1617V1619C3930.66 1619 3932 1617.66 3932 1616H3930ZM3929 -344C3929.55 -344 3930 -343.552 3930 -343H3932C3932 -344.657 3930.66 -346 3929 -346V-344ZM-340 -346C-341.657 -346 -343 -344.657 -343 -343H-341C-341 -343.552 -340.552 -344 -340 -344V-346Z" fill="black" fill-opacity="0.1"/>
</svg>
