<?xml version="1.0" encoding="utf-8"?>
<!-- Generator: Adobe Illustrator 26.3.1, SVG Export Plug-In . SVG Version: 6.00 Build 0)  -->
<svg version="1.1"  xmlns="http://www.w3.org/2000/svg" xmlns:xlink="http://www.w3.org/1999/xlink" x="0px" y="0px"
	 viewBox="0 0 16 16" style="enable-background:new 0 0 16 16;" xml:space="preserve">
<style type="text/css">
	.st0{fill:#606060;}
	.st1{fill:none;}
</style>
<path class="st0" d="M5.171,13.212H3.056c-0.472,0-0.855-0.384-0.855-0.855v-2.185c0-0.472,0.384-0.855,0.855-0.855h2.115
	c0.472,0,0.855,0.384,0.855,0.855v2.185C6.026,12.828,5.643,13.212,5.171,13.212z M3.2,12.212h1.826v-1.896H3.2V12.212z"/>
<path class="st0" d="M11.776,14.022c-0.001,0-0.001,0-0.002,0c-0.229,0-0.444-0.091-0.605-0.256l-1.512-1.549
	c-0.326-0.333-0.326-0.875-0.001-1.21l1.513-1.549c0.16-0.165,0.376-0.256,0.605-0.257c0.001,0,0.001,0,0.002,0
	c0.229,0,0.445,0.091,0.607,0.257l1.511,1.548c0.326,0.335,0.326,0.878,0.001,1.21l-1.511,1.55
	C12.221,13.933,12.005,14.022,11.776,14.022z M10.464,11.612l1.312,1.345l1.312-1.345l-1.312-1.344L10.464,11.612z"/>
<path class="st0" d="M3.929,6.238c-1.141,0-2.069-0.945-2.069-2.107s0.929-2.108,2.069-2.108s2.069,0.946,2.069,2.108
	S5.069,6.238,3.929,6.238z M3.929,3.022c-0.59,0-1.069,0.497-1.069,1.108c0,0.61,0.479,1.107,1.069,1.107S4.998,4.74,4.998,4.13
	S4.519,3.022,3.929,3.022z"/>
<path class="st0" d="M11.776,6.238c-1.142,0-2.07-0.945-2.07-2.107s0.929-2.108,2.07-2.108s2.069,0.946,2.069,2.108
	S12.917,6.238,11.776,6.238z M11.776,3.022c-0.59,0-1.07,0.497-1.07,1.108c0,0.61,0.48,1.107,1.07,1.107s1.069-0.497,1.069-1.107
	C12.846,3.52,12.366,3.022,11.776,3.022z"/>
<rect x="3.613" y="6.559" class="st0" width="1" height="2.172"/>
<rect x="11.276" y="6.622" class="st0" width="1" height="2.294"/>
<rect x="6.543" y="11.112" class="st0" width="2.199" height="1"/>
<rect class="st1" width="16" height="16"/>
</svg>
