<?xml version="1.0" encoding="utf-8"?>
<!-- Generator: Adobe Illustrator 26.2.1, SVG Export Plug-In . SVG Version: 6.00 Build 0)  -->
<svg version="1.1" xmlns="http://www.w3.org/2000/svg" xmlns:xlink="http://www.w3.org/1999/xlink" x="0px" y="0px"
	 viewBox="0 0 24 24" style="enable-background:new 0 0 24 24;" xml:space="preserve">
<style type="text/css">
	.st0{fill:#606060;}
	.st1{fill:#222222;}
	.st2{fill:none;stroke:#FFFFFF;stroke-width:1.5709;stroke-miterlimit:10;}
	.st3{fill:none;stroke:#000000;stroke-width:1.5;stroke-miterlimit:10;}
	.st4{fill:none;stroke:#000000;stroke-width:1.5709;stroke-miterlimit:10;}
	.st5{fill:#FFFFFF;stroke:#000000;stroke-width:1.5;stroke-miterlimit:10;}
	.st6{fill:#D3D3D3;}
	.st7{fill:#FFFFFF;stroke:#FFFFFF;stroke-width:1.5;stroke-miterlimit:10;}
	.st8{fill:#222222;stroke:#FFFFFF;stroke-width:1.5;stroke-miterlimit:10;}
	.st9{fill:none;stroke:#FFFFFF;stroke-width:1.5;stroke-miterlimit:10;}
	.st10{fill:#FFFFFF;stroke:#000000;stroke-width:1.5709;stroke-miterlimit:10;}
	.st11{fill:none;stroke:#D3D3D3;stroke-width:1.5;stroke-miterlimit:10;}
	.st12{fill:url(#);}
	.st13{fill:#FFFFFF;}
	.st14{fill:none;stroke:#000000;stroke-width:1.5;stroke-linecap:square;stroke-miterlimit:10;}
	.st15{fill:none;stroke:#000000;stroke-miterlimit:10;}
	.st16{fill:none;stroke:#00FF00;stroke-width:1.5;stroke-miterlimit:10;}
	.st17{fill:#00FFFF;}
	.st18{fill:#F7931E;}
	.st19{fill:none;}
</style>
<g id="Layer_12">
</g>
<g id="Layer_13">
</g>
<g >
</g>
<g >
</g>
<g id="Layer_10">
</g>
<g >
</g>
<g >
</g>
<g id="Layer_5">
</g>
<g id="Layer_6">
</g>
<g id="Layer_9">
</g>
<g id="Layer_26">
</g>
<g id="Process">
</g>
<g id="Layer_11">
</g>
<g id="Layer_15">
</g>
<g id="Layer_14">
	<path id="Path_95" class="st6" d="M20.3744,13.1526v-7.654c-0.0621-2.1276-1.8332-3.8043-3.961-3.75h-8.828
		c-2.1278-0.0543-3.8989,1.6224-3.961,3.75v7.654h-1.364l-0.047,6.078c-0.0921,1.5634,1.0899,2.9103,2.652,3.022h14.268
		c1.5647-0.1117,2.748-1.4622,2.653-3.028v-6.072H20.3744z M5.1244,5.4986c0.0621-1.2991,1.1615-2.3043,2.461-2.25h8.828
		c1.2993-0.0537,2.3984,0.9511,2.461,2.25v7.654h-1.588c-1.0894,0.0369-2.0435,0.7409-2.4,1.771
		c-0.4075,1.2731-1.5521,2.1675-2.886,2.255c-1.3341-0.0877-2.4788-0.9825-2.886-2.256c-0.3583-1.0311-1.315-1.7349-2.406-1.77
		h-1.583L5.1244,5.4986z M20.2864,19.2206c0,0.829-0.528,1.528-1.153,1.528H4.8654c-0.625,0-1.152-0.7-1.152-1.522l0.036-4.574
		h2.959c0.4717,0.0402,0.8716,0.3632,1.01,0.816c0.6266,1.8522,2.3284,3.1279,4.282,3.21c1.9535-0.0824,3.6551-1.358,4.282-3.21
		c0.137-0.4517,0.5348-0.7747,1.005-0.816h3L20.2864,19.2206z"/>
	<path id="Rectangle_40" class="st6" d="M11.4994,9.7596h5.5c0.1381,0,0.25,0.1119,0.25,0.25v1c0,0.1381-0.1119,0.25-0.25,0.25h-5.5
		c-0.1381,0-0.25-0.1119-0.25-0.25v-1C11.2494,9.8716,11.3613,9.7596,11.4994,9.7596z"/>
	<path id="Rectangle_41" class="st6" d="M11.4994,6.4346h5.5c0.1381,0,0.25,0.1119,0.25,0.25v1c0,0.1381-0.1119,0.25-0.25,0.25h-5.5
		c-0.1381,0-0.25-0.1119-0.25-0.25v-1C11.2494,6.5466,11.3613,6.4346,11.4994,6.4346z"/>
	<path class="st6" d="M8.8123,8.1846H7.612c-0.2208,0-0.3999-0.179-0.3999-0.3999V6.5845c0-0.2208,0.179-0.3999,0.3999-0.3999
		h1.2002c0.2208,0,0.3999,0.179,0.3999,0.3999v1.2002C9.2121,8.0056,9.0331,8.1846,8.8123,8.1846z"/>
	<path class="st6" d="M8.8123,11.5096H7.612c-0.2208,0-0.3999-0.179-0.3999-0.3999V9.9095c0-0.2208,0.179-0.3999,0.3999-0.3999
		h1.2002c0.2208,0,0.3999,0.179,0.3999,0.3999v1.2002C9.2121,11.3306,9.0331,11.5096,8.8123,11.5096z"/>
</g>
<g id="Layer_16">
</g>
</svg>
