<?xml version="1.0" encoding="utf-8"?>
<!-- Generator: Adobe Adobe Illustrator 24.2.0, SVG Export Plug-In . SVG Version: 6.00 Build 0)  -->
<svg version="1.1" xmlns="http://www.w3.org/2000/svg" xmlns:xlink="http://www.w3.org/1999/xlink" x="0px" y="0px"
	 viewBox="0 0 16 16" style="enable-background:new 0 0 16 16;" xml:space="preserve">
<style type="text/css">
	.st0{fill:#FFFFFF;}
</style>
<g >
	<g id="XMLID_291_">
		<g id="XMLID_275_">
			<path id="XMLID_1269_" d="M8,5.31c-3.84,0-7.98-0.83-7.98-2.66C0.02,0.83,4.16,0,8,0s7.98,0.83,7.98,2.66
				C15.98,4.48,11.84,5.31,8,5.31z M8,1C3.48,1,1.02,2.09,1.02,2.66S3.48,4.31,8,4.31s6.98-1.09,6.98-1.66S12.52,1,8,1z"/>
		</g>
		<g id="XMLID_294_">
			<path id="XMLID_1268_" d="M8,10.55c-3.84,0-7.98-0.83-7.98-2.66h1c0,0.56,2.46,1.66,6.98,1.66s6.98-1.09,6.98-1.66h1
				C15.98,9.72,11.84,10.55,8,10.55z"/>
		</g>
		<g id="XMLID_292_">
			<path id="XMLID_1267_" d="M8,16c-3.84,0-7.98-0.83-7.98-2.66h1C1.02,13.91,3.48,15,8,15s6.98-1.09,6.98-1.66h1
				C15.98,15.17,11.84,16,8,16z"/>
		</g>
		<g id="XMLID_289_">
			<rect id="XMLID_1266_" x="0.02" y="2.66" width="1" height="11.03"/>
		</g>
		<g id="XMLID_290_">
			<rect id="XMLID_1265_" x="14.98" y="2.66" width="1" height="11.03"/>
		</g>
	</g>
</g>
<g id="Icons">
</g>
<g id="Layer_9">
</g>
</svg>
