<?xml version="1.0" encoding="utf-8"?>
<!-- Generator: Adobe Illustrator 26.3.1, SVG Export Plug-In . SVG Version: 6.00 Build 0)  -->
<svg version="1.1"  xmlns="http://www.w3.org/2000/svg" xmlns:xlink="http://www.w3.org/1999/xlink" x="0px" y="0px"
	 viewBox="0 0 16 16" style="enable-background:new 0 0 16 16;" xml:space="preserve">
<style type="text/css">
	.st0{fill:#606060;}
	.st1{fill:none;}
</style>
<ellipse class="st0" cx="3.481" cy="3.464" rx="0.645" ry="0.658"/>
<ellipse class="st0" cx="5.209" cy="3.464" rx="0.645" ry="0.658"/>
<path class="st0" d="M13.297,1.25h-10.6c-0.73,0-1.32,0.59-1.32,1.33v10.84c0,0.74,0.59,1.33,1.32,1.33h10.6
	c0.73,0,1.33-0.59,1.33-1.33V2.58C14.626,1.84,14.027,1.25,13.297,1.25z M2.376,13.42V5.65h2.33v8.1h-2.01
	C2.516,13.75,2.376,13.6,2.376,13.42z M13.626,13.42c0,0.18-0.15,0.33-0.33,0.33h-7.59v-8.1h7.92V13.42z M13.626,4.65H2.376V2.58
	c0-0.18,0.14-0.33,0.32-0.33h10.6c0.18,0,0.33,0.15,0.33,0.33V4.65z"/>
<rect class="st1" width="16" height="16"/>
</svg>
