<?xml version="1.0" encoding="utf-8"?>
<!-- Generator: Adobe Illustrator 26.3.1, SVG Export Plug-In . SVG Version: 6.00 Build 0)  -->
<svg version="1.1"  xmlns="http://www.w3.org/2000/svg" xmlns:xlink="http://www.w3.org/1999/xlink" x="0px" y="0px"
	 viewBox="0 0 16 16" style="enable-background:new 0 0 16 16;" xml:space="preserve">
<style type="text/css">
	.st0{fill:#606060;}
	.st1{fill:none;}
</style>
<g>
	<path class="st0" d="M13.387,3.295c-0.09-1.38-3.12-2.01-5.92-2.01c-2.81,0-5.83,0.63-5.92,2.01c-0.01,0.02-0.01,0.05-0.01,0.07
		v9.28c0,1.35,2.72,2,5.43,2.07v-1c-2.92-0.07-4.37-0.8-4.43-1.07v-3.27c1.03,0.54,2.74,0.81,4.43,0.85v-1
		c-2.92-0.07-4.37-0.8-4.43-1.07v-3.56c1.13,0.59,3.08,0.86,4.93,0.86s3.79-0.27,4.93-0.87v3.42h1v-4.64
		C13.398,3.345,13.398,3.315,13.387,3.295z M7.467,4.455c-3.25,0-4.87-0.79-4.93-1.08c0.06-0.3,1.68-1.09,4.93-1.09
		c3.24,0,4.86,0.79,4.93,1.08C12.328,3.665,10.708,4.455,7.467,4.455z"/>
	<path class="st0" d="M1.546,3.295c-0.01,0.02-0.01,0.05-0.01,0.07v-0.07H1.546z"/>
	<path class="st0" d="M13.398,3.295v0.07c0-0.02,0-0.05-0.01-0.07H13.398z"/>
	<circle class="st0" cx="4.528" cy="6.915" r="1"/>
	<circle class="st0" cx="4.528" cy="11.642" r="1"/>
	<rect x="8.464" y="9.505" class="st0" width="6" height="1"/>
	<rect x="8.464" y="11.495" class="st0" width="6" height="1"/>
	<rect x="8.464" y="13.505" class="st0" width="6" height="1"/>
</g>
<rect class="st1" width="16" height="16"/>
</svg>
