<svg xmlns="http://www.w3.org/2000/svg" width="16" height="16" viewBox="0 0 16 16">
  <g id="Group_58521" data-name="Group 58521" transform="translate(6361 19204)">
    <rect id="Rectangle_13822" data-name="Rectangle 13822" width="16" height="16" transform="translate(-6361 -19204)" fill="none"/>
    <g id="trash-2" transform="translate(-6362 -19204)">
      <path id="Path_50718" data-name="Path 50718" d="M3,6H15" transform="translate(0 -1.257)" fill="none" stroke="#606060" stroke-linecap="round" stroke-linejoin="round" stroke-width="1"/>
      <path id="Path_50719" data-name="Path 50719" d="M13,4.863V12.8A1.172,1.172,0,0,1,11.857,14H6.143A1.172,1.172,0,0,1,5,12.8V4.863M6.714,4.4V3.2A1.172,1.172,0,0,1,7.857,2h2.286a1.172,1.172,0,0,1,1.143,1.2V4.4" transform="translate(0 0)" fill="none" stroke="#606060" stroke-linecap="round" stroke-linejoin="round" stroke-width="1"/>
      <line id="Line_1286" data-name="Line 1286" y2="6" transform="translate(7.667 5.857)" fill="none" stroke="#606060" stroke-linecap="round" stroke-linejoin="round" stroke-width="1"/>
      <line id="Line_1287" data-name="Line 1287" y2="6" transform="translate(10.333 5.857)" fill="none" stroke="#606060" stroke-linecap="round" stroke-linejoin="round" stroke-width="1"/>
    </g>
  </g>
</svg>
