<?xml version="1.0" encoding="utf-8"?>
<!-- Generator: Adobe Illustrator 25.4.0, SVG Export Plug-In . SVG Version: 6.00 Build 0)  -->
<svg version="1.1" xmlns="http://www.w3.org/2000/svg" xmlns:xlink="http://www.w3.org/1999/xlink" x="0px" y="0px"
	 viewBox="0 0 102 41" style="enable-background:new 0 0 102 41;" xml:space="preserve">
<style type="text/css">
	.st0{fill:#FFFFFF;}
	.st1{fill:none;stroke:#C5C4C4;stroke-width:1.5;stroke-miterlimit:10;}
	.st2{fill:#C5C4C4;}
	.st3{fill:#616160;}
	.st4{fill:#C4C4C4;}
	.st5{enable-background:new    ;}
	.st6{fill:#020203;}
	.st7{fill:none;stroke:#D3D3D3;stroke-width:1.5;stroke-miterlimit:10;}
	.st8{fill:#D3D3D3;}
	.st9{fill:none;stroke:#C5C4C4;stroke-width:0.75;stroke-miterlimit:10;}
	.st10{fill:none;stroke:#616160;stroke-miterlimit:10;}
	.st11{fill:none;stroke:#616160;stroke-width:2;stroke-miterlimit:10;}
	.st12{fill:none;stroke:#616160;stroke-width:0.75;stroke-miterlimit:10;}
	.st13{fill:#616160;stroke:#616160;stroke-miterlimit:10;}
	.st14{fill:none;stroke:#FFFFFF;stroke-miterlimit:10;}
	.st15{fill:#1D70B8;}
	.st16{fill:#FFFFFF;stroke:#C5C4C4;stroke-width:1.5;stroke-miterlimit:10;}
	.st17{fill:none;stroke:#616160;stroke-width:1.5;stroke-miterlimit:10;}
	.st18{fill:none;stroke:#D3D3D3;stroke-width:0.5;}
	.st19{fill:#FFFFFF;stroke:#616160;}
	.st20{fill:none;stroke:#616160;stroke-width:0.5;stroke-miterlimit:10;}
	.st21{fill:#FFFFFF;stroke:#616160;stroke-width:1.5;}
	.st22{fill:#C5C4C4;stroke:#C5C4C4;stroke-width:1.5;stroke-miterlimit:10;}
	.st23{opacity:0.6;}
	.st24{opacity:0.6;fill:#C5C4C4;}
	.st25{fill:#FFFFFF;stroke:#616160;stroke-width:0.5;}
	.st26{fill:none;stroke:#616160;stroke-width:0.5;}
</style>
<g id="Layer_5">
	<g id="Layer_7">
	</g>
</g>
<g >
</g>
<g >
</g>
<g id="Layer_6">
</g>
<g >
	<g>
		<path class="st0" d="M22.2164,4.2717h57.5672c0.5523,0,1,0.4477,1,1v12.51c0,0.5523-0.4477,1-1,1H22.2164c-0.5523,0-1-0.4477-1-1
			v-12.51C21.2164,4.7195,21.6641,4.2717,22.2164,4.2717z"/>
		<path class="st3" d="M79.7832,19.2812H22.2168c-0.8271,0-1.5-0.6729-1.5-1.5V5.2715c0-0.8271,0.6729-1.5,1.5-1.5h57.5664
			c0.8271,0,1.5,0.6729,1.5,1.5v12.5098C81.2832,18.6084,80.6104,19.2812,79.7832,19.2812z M22.2168,4.7715
			c-0.2754,0-0.5,0.2246-0.5,0.5v12.5098c0,0.2754,0.2246,0.5,0.5,0.5h57.5664c0.2754,0,0.5-0.2246,0.5-0.5V5.2715
			c0-0.2754-0.2246-0.5-0.5-0.5H22.2168z"/>
	</g>
	<g>
		<path class="st0" d="M22.2164,22.6001h57.5672c0.5523,0,1,0.4477,1,1v12.51c0,0.5523-0.4477,1-1,1H22.2164c-0.5523,0-1-0.4477-1-1
			v-12.51C21.2164,23.0478,21.6641,22.6001,22.2164,22.6001z"/>
		<path class="st3" d="M79.7832,37.6104H22.2168c-0.8271,0-1.5-0.6729-1.5-1.5V23.6006c0-0.8271,0.6729-1.5,1.5-1.5h57.5664
			c0.8271,0,1.5,0.6729,1.5,1.5v12.5098C81.2832,36.9375,80.6104,37.6104,79.7832,37.6104z M22.2168,23.1006
			c-0.2754,0-0.5,0.2246-0.5,0.5v12.5098c0,0.2754,0.2246,0.5,0.5,0.5h57.5664c0.2754,0,0.5-0.2246,0.5-0.5V23.6006
			c0-0.2754-0.2246-0.5-0.5-0.5H22.2168z"/>
	</g>
	<g class="st5">
		<path class="st6" d="M30.3037,11.5947c0,0.7197-0.2002,1.2705-0.5996,1.6514c-0.4004,0.3809-0.9756,0.5713-1.7275,0.5713h-1.2197
			V9.4561h1.3477c0.6943,0,1.2344,0.1865,1.6201,0.5605S30.3037,10.917,30.3037,11.5947z M29.5518,11.6191
			c0-1.0439-0.4883-1.5664-1.4648-1.5664h-0.6172v3.165h0.5068C29.0264,13.2178,29.5518,12.6846,29.5518,11.6191z"/>
		<path class="st6" d="M34.0918,12.1621c0,0.5391-0.1387,0.959-0.415,1.2617c-0.2764,0.3018-0.6611,0.4531-1.1543,0.4531
			c-0.3086,0-0.5811-0.0693-0.8174-0.209c-0.2363-0.1387-0.4189-0.3389-0.5459-0.5996s-0.1904-0.5625-0.1904-0.9062
			c0-0.5352,0.1367-0.9531,0.4111-1.2529c0.2744-0.3008,0.6611-0.4512,1.1602-0.4512c0.4775,0,0.8555,0.1543,1.1338,0.4609
			C33.9521,11.2266,34.0918,11.6406,34.0918,12.1621z M31.6904,12.1621c0,0.7617,0.2812,1.1426,0.8438,1.1426
			c0.5576,0,0.8359-0.3809,0.8359-1.1426c0-0.7539-0.2812-1.1309-0.8418-1.1309c-0.2939,0-0.5078,0.0977-0.6396,0.292
			C31.7568,11.5186,31.6904,11.7979,31.6904,12.1621z"/>
		<path class="st6" d="M36.2285,13.877c-0.5,0-0.8789-0.1455-1.1387-0.4365c-0.2598-0.292-0.3887-0.71-0.3887-1.2549
			c0-0.5547,0.1357-0.9814,0.4072-1.2793c0.2715-0.2988,0.6631-0.4482,1.1768-0.4482c0.3477,0,0.6611,0.0654,0.9395,0.1943
			l-0.2119,0.5635c-0.2959-0.1152-0.541-0.1729-0.7334-0.1729c-0.5713,0-0.8564,0.3789-0.8564,1.1367
			c0,0.3701,0.0713,0.6475,0.2129,0.834c0.1426,0.1855,0.3506,0.2783,0.625,0.2783c0.3125,0,0.6074-0.0771,0.8857-0.2324v0.6113
			c-0.125,0.0742-0.2588,0.127-0.4004,0.1582C36.6035,13.8613,36.4307,13.877,36.2285,13.877z"/>
		<path class="st6" d="M41.335,13.8174h-0.7012V11.001c0-0.3359,0.0078-0.6025,0.0234-0.7988
			c-0.0459,0.0479-0.1016,0.1006-0.168,0.1582c-0.0674,0.0576-0.29,0.2402-0.6699,0.5488l-0.3525-0.4453L40.75,9.4561h0.585V13.8174
			z"/>
	</g>
	<g class="st5">
		<path class="st6" d="M30.3037,29.9238c0,0.7197-0.2002,1.2705-0.5996,1.6514c-0.4004,0.3809-0.9756,0.5713-1.7275,0.5713h-1.2197
			v-4.3613h1.3477c0.6943,0,1.2344,0.1865,1.6201,0.5605S30.3037,29.2461,30.3037,29.9238z M29.5518,29.9482
			c0-1.0439-0.4883-1.5664-1.4648-1.5664h-0.6172v3.165h0.5068C29.0264,31.5469,29.5518,31.0137,29.5518,29.9482z"/>
		<path class="st6" d="M34.0918,30.4912c0,0.5391-0.1387,0.959-0.415,1.2617c-0.2764,0.3018-0.6611,0.4531-1.1543,0.4531
			c-0.3086,0-0.5811-0.0693-0.8174-0.209c-0.2363-0.1387-0.4189-0.3389-0.5459-0.5996s-0.1904-0.5625-0.1904-0.9062
			c0-0.5352,0.1367-0.9531,0.4111-1.2529c0.2744-0.3008,0.6611-0.4512,1.1602-0.4512c0.4775,0,0.8555,0.1543,1.1338,0.4609
			C33.9521,29.5557,34.0918,29.9697,34.0918,30.4912z M31.6904,30.4912c0,0.7617,0.2812,1.1426,0.8438,1.1426
			c0.5576,0,0.8359-0.3809,0.8359-1.1426c0-0.7539-0.2812-1.1309-0.8418-1.1309c-0.2939,0-0.5078,0.0977-0.6396,0.292
			C31.7568,29.8477,31.6904,30.127,31.6904,30.4912z"/>
		<path class="st6" d="M36.2285,32.2061c-0.5,0-0.8789-0.1455-1.1387-0.4365c-0.2598-0.292-0.3887-0.71-0.3887-1.2549
			c0-0.5547,0.1357-0.9814,0.4072-1.2793c0.2715-0.2988,0.6631-0.4482,1.1768-0.4482c0.3477,0,0.6611,0.0654,0.9395,0.1943
			l-0.2119,0.5635c-0.2959-0.1152-0.541-0.1729-0.7334-0.1729c-0.5713,0-0.8564,0.3789-0.8564,1.1367
			c0,0.3701,0.0713,0.6475,0.2129,0.834c0.1426,0.1855,0.3506,0.2783,0.625,0.2783c0.3125,0,0.6074-0.0771,0.8857-0.2324V32
			c-0.125,0.0742-0.2588,0.127-0.4004,0.1582C36.6035,32.1904,36.4307,32.2061,36.2285,32.2061z"/>
		<path class="st6" d="M42.2324,32.1465h-2.9561v-0.5312l1.125-1.1299c0.332-0.3408,0.5518-0.582,0.6602-0.7236
			c0.1084-0.1426,0.1875-0.2764,0.2373-0.4014s0.0742-0.2598,0.0742-0.4033c0-0.1963-0.0586-0.3516-0.1768-0.4648
			c-0.1191-0.1133-0.2822-0.1699-0.4912-0.1699c-0.167,0-0.3281,0.0303-0.4844,0.0928c-0.1562,0.0615-0.3369,0.1729-0.542,0.334
			l-0.3789-0.4629c0.2432-0.2051,0.4785-0.3496,0.707-0.4355c0.2285-0.085,0.4727-0.1279,0.7314-0.1279
			c0.4053,0,0.7305,0.1055,0.9756,0.3174c0.2441,0.2119,0.3662,0.4971,0.3662,0.8545c0,0.1973-0.0352,0.3838-0.1055,0.5615
			c-0.0703,0.1768-0.1787,0.3594-0.3252,0.5469c-0.1465,0.1885-0.3896,0.4424-0.7295,0.7627l-0.7578,0.7334v0.0303h2.0703V32.1465z"
			/>
	</g>
	<g>
		<g>
			<path class="st3" d="M75.9688,9.9844h-1.5488c-0.2295,0-0.417-0.1875-0.417-0.417V8.0186h0.5v1.4658h1.4658V9.9844z"/>
		</g>
		<g>
			<path class="st3" d="M75.9688,15.4521H70.957c-0.2295,0-0.417-0.1875-0.417-0.417V8.0186c0-0.2295,0.1875-0.417,0.417-0.417
				h3.5664l1.8623,1.8623v5.5713C76.3857,15.2646,76.1982,15.4521,75.9688,15.4521z M71.04,14.9521h4.8457V9.6709l-1.5693-1.5693
				H71.04V14.9521z"/>
		</g>
		<g>
			<rect x="72.084" y="11.1621" class="st3" width="2.6016" height="0.5"/>
		</g>
		<g>
			<rect x="72.084" y="12.8408" class="st3" width="2.6016" height="0.5"/>
		</g>
	</g>
	<g>
		<g>
			<path class="st3" d="M75.9688,28.3125h-1.5488c-0.2295,0-0.417-0.1875-0.417-0.417v-1.5488h0.5v1.4658h1.4658V28.3125z"/>
		</g>
		<g>
			<path class="st3" d="M75.9688,33.7803H70.957c-0.2295,0-0.417-0.1875-0.417-0.417v-7.0166c0-0.2295,0.1875-0.417,0.417-0.417
				h3.5664l1.8623,1.8623v5.5713C76.3857,33.5928,76.1982,33.7803,75.9688,33.7803z M71.04,33.2803h4.8457V27.999l-1.5693-1.5693
				H71.04V33.2803z"/>
		</g>
		<g>
			<rect x="72.084" y="29.4912" class="st3" width="2.6016" height="0.5"/>
		</g>
		<g>
			<rect x="72.084" y="31.1689" class="st3" width="2.6016" height="0.5"/>
		</g>
	</g>
</g>
<g id="Layer_8">
</g>
<g >
</g>
</svg>
