<?xml version="1.0" encoding="utf-8"?>
<!-- Generator: Adobe Illustrator 25.4.0, SVG Export Plug-In . SVG Version: 6.00 Build 0)  -->
<svg version="1.1" xmlns="http://www.w3.org/2000/svg" xmlns:xlink="http://www.w3.org/1999/xlink" x="0px" y="0px"
	 viewBox="0 0 102 41" style="enable-background:new 0 0 102 41;" xml:space="preserve">
<style type="text/css">
	.st0{fill:#FFFFFF;}
	.st1{fill:none;stroke:#C5C4C4;stroke-width:1.5;stroke-miterlimit:10;}
	.st2{fill:#C5C4C4;}
	.st3{fill:#616160;}
	.st4{fill:#C4C4C4;}
	.st5{enable-background:new    ;}
	.st6{fill:#020203;}
	.st7{fill:none;stroke:#D3D3D3;stroke-width:1.5;stroke-miterlimit:10;}
	.st8{fill:#D3D3D3;}
	.st9{fill:none;stroke:#C5C4C4;stroke-width:0.75;stroke-miterlimit:10;}
	.st10{fill:none;stroke:#616160;stroke-miterlimit:10;}
	.st11{fill:none;stroke:#616160;stroke-width:2;stroke-miterlimit:10;}
	.st12{fill:none;stroke:#616160;stroke-width:0.75;stroke-miterlimit:10;}
	.st13{fill:#616160;stroke:#616160;stroke-miterlimit:10;}
	.st14{fill:none;stroke:#FFFFFF;stroke-miterlimit:10;}
	.st15{fill:#1D70B8;}
	.st16{fill:#FFFFFF;stroke:#C5C4C4;stroke-width:1.5;stroke-miterlimit:10;}
	.st17{fill:none;stroke:#616160;stroke-width:1.5;stroke-miterlimit:10;}
	.st18{fill:none;stroke:#D3D3D3;stroke-width:0.5;}
	.st19{fill:#FFFFFF;stroke:#616160;}
	.st20{fill:none;stroke:#616160;stroke-width:0.5;stroke-miterlimit:10;}
	.st21{fill:#FFFFFF;stroke:#616160;stroke-width:1.5;}
	.st22{fill:#C5C4C4;stroke:#C5C4C4;stroke-width:1.5;stroke-miterlimit:10;}
	.st23{opacity:0.6;}
	.st24{opacity:0.6;fill:#C5C4C4;}
	.st25{fill:#FFFFFF;stroke:#616160;stroke-width:0.5;}
	.st26{fill:none;stroke:#616160;stroke-width:0.5;}
</style>
<g id="Layer_5">
	<g id="Layer_7">
	</g>
</g>
<g >
</g>
<g >
</g>
<g id="Layer_6">
</g>
<g >
</g>
<g id="Layer_8">
</g>
<g >
	<g>
		<path class="st0" d="M19.8925,8.9832h62.215c0.5523,0,1,0.4477,1,1v22.4296c0,0.5523-0.4477,1-1,1h-62.215c-0.5523,0-1-0.4477-1-1
			V9.9832C18.8925,9.4309,19.3402,8.9832,19.8925,8.9832z"/>
		<path class="st3" d="M82.1074,33.9131H19.8926c-0.8271,0-1.5-0.6729-1.5-1.5V9.9834c0-0.8271,0.6729-1.5,1.5-1.5h62.2148
			c0.8271,0,1.5,0.6729,1.5,1.5v22.4297C83.6074,33.2402,82.9346,33.9131,82.1074,33.9131z M19.8926,9.4834
			c-0.2759,0-0.5,0.2246-0.5,0.5v22.4297c0,0.2754,0.2241,0.5,0.5,0.5h62.2148c0.2759,0,0.5-0.2246,0.5-0.5V9.9834
			c0-0.2754-0.2241-0.5-0.5-0.5H19.8926z"/>
	</g>
	<g>
		<path class="st3" d="M82.5504,7.6801h-63.125c-0.5545,0-1.004,0.4495-1.004,1.004v6.8836h65.1329V8.6841
			C83.5544,8.1296,83.1049,7.6801,82.5504,7.6801z"/>
	</g>
	<g class="st5">
		<path class="st0" d="M25.8008,12.1875c0,0.6582-0.1826,1.1602-0.5479,1.5078c-0.3652,0.3496-0.8916,0.5234-1.5781,0.5234h-1.1152
			v-3.9863h1.2324c0.6338,0,1.1279,0.1699,1.4805,0.5117S25.8008,11.5664,25.8008,12.1875z M25.1143,12.209
			c0-0.9551-0.4463-1.4316-1.3389-1.4316h-0.5645v2.8926h0.4639C24.6348,13.6699,25.1143,13.1836,25.1143,12.209z"/>
		<path class="st0" d="M29.2637,12.7051c0,0.4922-0.126,0.877-0.3789,1.1523c-0.2529,0.2773-0.6045,0.416-1.0557,0.416
			c-0.2812,0-0.5303-0.0645-0.7471-0.1914c-0.2158-0.127-0.3818-0.3105-0.499-0.5488c-0.1162-0.2383-0.1738-0.5137-0.1738-0.8281
			c0-0.4883,0.125-0.8711,0.376-1.1445c0.251-0.2754,0.6045-0.4121,1.0605-0.4121c0.4365,0,0.7812,0.1406,1.0361,0.4219
			C29.1367,11.8496,29.2637,12.2285,29.2637,12.7051z M27.0684,12.7051c0,0.6953,0.2578,1.0449,0.7725,1.0449
			c0.5088,0,0.7627-0.3496,0.7627-1.0449c0-0.6895-0.2559-1.0332-0.7686-1.0332c-0.2695,0-0.4639,0.0898-0.585,0.2676
			S27.0684,12.373,27.0684,12.7051z"/>
		<path class="st0" d="M31.2158,14.2734c-0.4561,0-0.8027-0.1328-1.04-0.4004c-0.2373-0.2656-0.3555-0.6484-0.3555-1.1465
			c0-0.5078,0.124-0.8965,0.3721-1.1699c0.248-0.2715,0.6064-0.4082,1.0752-0.4082c0.3184,0,0.6045,0.0586,0.8594,0.1777
			l-0.1934,0.5137c-0.2715-0.1055-0.4951-0.1582-0.6709-0.1582c-0.5215,0-0.7832,0.3477-0.7832,1.0391
			c0,0.3379,0.0654,0.5938,0.1953,0.7637s0.3203,0.2539,0.5713,0.2539c0.2852,0,0.5557-0.0703,0.8096-0.2129v0.5586
			c-0.1143,0.0684-0.2363,0.1152-0.3662,0.1445S31.4014,14.2734,31.2158,14.2734z"/>
		<path class="st0" d="M35.8838,14.2188h-0.6406v-2.5742c0-0.3066,0.0068-0.5508,0.0215-0.7305
			c-0.042,0.043-0.0928,0.0918-0.1543,0.1445c-0.0605,0.0527-0.2646,0.2188-0.6123,0.502l-0.3213-0.4062l1.1729-0.9219h0.5342
			V14.2188z"/>
	</g>
	<g class="st23">
		<rect x="34.3116" y="20.8328" class="st2" width="41.9147" height="3.0495"/>
	</g>
	<g class="st23">
		<rect x="34.3116" y="25.692" class="st2" width="41.9147" height="3.0495"/>
	</g>
	<g>
		<rect x="24.1562" y="27.3789" class="st3" width="4.478" height="0.5"/>
	</g>
	<g>
		<rect x="24.1562" y="25.7598" class="st3" width="4.478" height="0.5"/>
	</g>
	<g>
		<rect x="24.1562" y="24.1406" class="st3" width="4.478" height="0.5"/>
	</g>
	<g>
		<path class="st3" d="M29.3164,29.5107h-5.8423c-0.3486,0-0.6318-0.2832-0.6318-0.6318v-8.3105
			c0-0.3486,0.2832-0.6318,0.6318-0.6318h5.8423c0.3486,0,0.6318,0.2832,0.6318,0.6318v8.3105
			C29.9482,29.2275,29.665,29.5107,29.3164,29.5107z M23.4741,20.4365c-0.0728,0-0.1318,0.0596-0.1318,0.1318v8.3105
			c0,0.0723,0.0591,0.1318,0.1318,0.1318h5.8423c0.0728,0,0.1318-0.0596,0.1318-0.1318v-8.3105
			c0-0.0723-0.0591-0.1318-0.1318-0.1318H23.4741z"/>
	</g>
	<g>
		<rect x="24.1563" y="21.3537" class="st0" width="1.715" height="1.9839"/>
		<path class="st3" d="M26.1211,23.5879h-2.2148v-2.4844h2.2148V23.5879z M24.4062,23.0879h1.2148v-1.4844h-1.2148V23.0879z"/>
	</g>
</g>
</svg>
