<?xml version="1.0" encoding="utf-8"?>
<!-- Generator: Adobe Adobe Illustrator 24.2.0, SVG Export Plug-In . SVG Version: 6.00 Build 0)  -->
<svg version="1.1" xmlns="http://www.w3.org/2000/svg" xmlns:xlink="http://www.w3.org/1999/xlink" x="0px" y="0px"
	 viewBox="0 0 26 26" style="enable-background:new 0 0 26 26;" xml:space="preserve">
<style type="text/css">
	.st0{fill:#FFFFFF;}
</style>
<g >
</g>
<g id="Icons">
	<path id="XMLID_965_" d="M18.57,14.55l-5.39-5.39c-0.1-0.1-0.26-0.1-0.35,0l-5.39,5.39c-0.1,0.1-0.1,0.26,0,0.35l0.8,0.8
		c0.1,0.1,0.26,0.1,0.35,0l3.61-3.61v9.49c0,0.14,0.11,0.25,0.25,0.25h1.12c0.14,0,0.25-0.11,0.25-0.25v-9.49l3.61,3.61
		c0.1,0.1,0.26,0.1,0.35,0l0.8-0.8C18.67,14.8,18.67,14.64,18.57,14.55z"/>
</g>
<g id="Layer_9">
</g>
<g >
	<path id="XMLID_960_" d="M22.75,6.99l-6.32-6.37C16.04,0.22,15.5,0,14.95,0H4.73C3.58,0,2.64,0.94,2.64,2.1V23.9
		c0,1.16,0.94,2.1,2.09,2.1h16.55c1.15,0,2.09-0.94,2.09-2.1V8.47C23.36,7.91,23.14,7.38,22.75,6.99z M16.29,2.78l4.3,4.34h-3.84
		c-0.25,0-0.46-0.21-0.46-0.47V2.78z M21.27,24.38H4.73c-0.25,0-0.46-0.21-0.46-0.47V2.1c0-0.26,0.21-0.47,0.46-0.47h9.94v5.03
		c0,1.16,0.94,2.1,2.09,2.1h4.98V23.9C21.73,24.16,21.53,24.38,21.27,24.38z"/>
</g>
</svg>
