<svg xmlns="http://www.w3.org/2000/svg" width="46.997" height="6" viewBox="0 0 46.997 6">
  <g id="Group_63070" data-name="Group 63070" transform="translate(9356 10617)">
    <path id="Icon_awesome-circle" data-name="Icon awesome-circle" d="M3.563.563a3,3,0,1,0,3,3A3,3,0,0,0,3.563.563Z" transform="translate(-9356.563 -10617.563)" fill="#4e4e4e"/>
    <path id="Icon_awesome-circle-2" data-name="Icon awesome-circle" d="M3.563.563a3,3,0,1,0,3,3A3,3,0,0,0,3.563.563Z" transform="translate(-9348.363 -10617.563)" fill="#4e4e4e"/>
    <path id="Icon_awesome-circle-3" data-name="Icon awesome-circle" d="M3.563.563a3,3,0,1,0,3,3A3,3,0,0,0,3.563.563Z" transform="translate(-9340.164 -10617.563)" fill="#4e4e4e"/>
    <path id="Icon_awesome-circle-4" data-name="Icon awesome-circle" d="M3.563.563a3,3,0,1,0,3,3A3,3,0,0,0,3.563.563Z" transform="translate(-9331.965 -10617.563)" fill="#4e4e4e"/>
    <path id="Icon_awesome-circle-5" data-name="Icon awesome-circle" d="M3.563.563a3,3,0,1,0,3,3A3,3,0,0,0,3.563.563Z" transform="translate(-9323.766 -10617.563)" fill="#4e4e4e"/>
    <path id="Icon_awesome-circle-6" data-name="Icon awesome-circle" d="M3.563.563a3,3,0,1,0,3,3A3,3,0,0,0,3.563.563Z" transform="translate(-9315.565 -10617.563)" fill="#4e4e4e"/>
  </g>
</svg>
