<svg id="Download" xmlns="http://www.w3.org/2000/svg" width="16" height="16" viewBox="0 0 16 16">
  <g id="Layer_3">
    <g id="Group_1180" data-name="Group 1180">
      <path id="Path_1847" data-name="Path 1847" d="M11.219,8.838l-.354-.354a.25.25,0,0,0-.353,0L8.484,10.508V1.265a.25.25,0,0,0-.25-.25h-.5a.25.25,0,0,0-.25.25v9.247L5.452,8.479a.25.25,0,0,0-.354,0l-.353.354a.25.25,0,0,0,0,.354l3.237,3.237,3.236-3.232A.25.25,0,0,0,11.219,8.838Z" fill="#616160"/>
      <path id="Path_1848" data-name="Path 1848" d="M13.968,9.771v4.224H2V9.771a.25.25,0,0,0-.25-.25h-.5a.25.25,0,0,0-.25.25v4.224a1,1,0,0,0,1,1H13.968a1,1,0,0,0,1-1V9.771a.25.25,0,0,0-.25-.25h-.5A.25.25,0,0,0,13.968,9.771Z" fill="#616160"/>
    </g>
  </g>
  <rect id="Rectangle_611" data-name="Rectangle 611" width="16" height="16" fill="none"/>
</svg>
