<?xml version="1.0" encoding="utf-8"?>
<!-- Generator: Adobe Illustrator 27.1.1, SVG Export Plug-In . SVG Version: 6.00 Build 0)  -->
<svg version="1.1"  xmlns="http://www.w3.org/2000/svg" xmlns:xlink="http://www.w3.org/1999/xlink" x="0px" y="0px"
	 viewBox="0 0 16 16" style="enable-background:new 0 0 16 16;" xml:space="preserve">
<style type="text/css">
	.st0{fill:#616160;}
	.st1{display:none;}
	.st2{fill:none;}
</style>
<g id="Guides">
</g>
<g id="Icons">
	<path class="st0" d="M11.2,8.8l-0.4-0.4c-0.1-0.1-0.3-0.1-0.4,0l-2,2V1.2C8.5,1.1,8.4,1,8.3,1H7.8C7.6,1,7.5,1.1,7.5,1.2v9.2l-2-2
		c-0.1-0.1-0.3-0.1-0.4,0L4.8,8.8C4.7,8.9,4.7,9,4.8,9.1l3.1,3.1c0.1,0.1,0.3,0.1,0.4,0l3.1-3.1C11.3,9,11.3,8.9,11.2,8.8z"/>
	<path class="st0" d="M14,10v4.3H2V10c0-0.1-0.1-0.2-0.2-0.2H1.2C1.1,9.7,1,9.9,1,10v4.8c0,0.3,0.2,0.5,0.5,0.5h13
		c0.3,0,0.5-0.2,0.5-0.5V10c0-0.1-0.1-0.2-0.2-0.2h-0.5C14.1,9.7,14,9.9,14,10z"/>
</g>
<g id="Strokes" class="st1">
</g>
<rect class="st2" width="16" height="16"/>
</svg>
