<?xml version="1.0" encoding="utf-8"?>
<!-- Generator: Adobe Adobe Illustrator 24.2.0, SVG Export Plug-In . SVG Version: 6.00 Build 0)  -->
<svg version="1.1" xmlns="http://www.w3.org/2000/svg" xmlns:xlink="http://www.w3.org/1999/xlink" x="0px" y="0px"
	 viewBox="0 0 26 26" style="enable-background:new 0 0 26 26;" xml:space="preserve">
<style type="text/css">
	.st0{stroke:#000000;stroke-width:0.3237;stroke-miterlimit:10;}
</style>
<g >
</g>
<g id="Icons">
	<g id="XMLID_201_">
		<g id="XMLID_2420_">
			<path id="XMLID_563_" d="M13,26C5.8,26,0,20.2,0,13S5.8,0,13,0s13,5.8,13,13S20.2,26,13,26z M13,1.6C6.7,1.6,1.6,6.7,1.6,13
				S6.7,24.4,13,24.4S24.4,19.3,24.4,13S19.3,1.6,13,1.6z"/>
		</g>
		<g id="XMLID_2133_">
			<g id="XMLID_359_">
				<path id="XMLID_1224_" d="M12.7,19l-7.8-7.7c-0.2-0.2-0.2-0.4,0-0.6l0.6-0.6c0.2-0.2,0.4-0.2,0.6,0L13,17l6.9-6.9
					c0.2-0.2,0.4-0.2,0.6,0l0.6,0.6c0.2,0.2,0.2,0.4,0,0.6L13.3,19C13.1,19.2,12.9,19.2,12.7,19z"/>
			</g>
		</g>
	</g>
</g>
</svg>
