<?xml version="1.0" encoding="utf-8"?>
<!-- Generator: Adobe Illustrator 27.1.1, SVG Export Plug-In . SVG Version: 6.00 Build 0)  -->
<svg version="1.1"  xmlns="http://www.w3.org/2000/svg" xmlns:xlink="http://www.w3.org/1999/xlink" x="0px" y="0px"
	 viewBox="0 0 16 16" style="enable-background:new 0 0 16 16;" xml:space="preserve">
<style type="text/css">
	.st0{fill:#616160;}
	.st1{fill:none;}
</style>
<path class="st0" d="M13.612,1.023H5.838c-0.752,0-1.363,0.611-1.363,1.363v2.03H2.446c-0.752,0-1.363,0.611-1.363,1.363v7.774
	c0,0.751,0.611,1.362,1.363,1.362h7.774c0.752,0,1.363-0.611,1.363-1.362v-2.03h2.029c0.752,0,1.363-0.611,1.363-1.363V2.386
	C14.976,1.635,14.364,1.023,13.612,1.023z M10.583,13.554c0,0.2-0.163,0.362-0.363,0.362H2.446c-0.2,0-0.363-0.162-0.363-0.362
	V5.779c0-0.2,0.163-0.363,0.363-0.363h2.029v4.744c0,0.752,0.611,1.363,1.363,1.363h4.745V13.554z M13.976,10.16
	c0,0.2-0.163,0.363-0.363,0.363H5.838c-0.2,0-0.363-0.163-0.363-0.363V2.386c0-0.2,0.163-0.363,0.363-0.363h7.774
	c0.2,0,0.363,0.163,0.363,0.363V10.16z"/>
<rect class="st1" width="16" height="16"/>
</svg>
