<svg id="Edit" xmlns="http://www.w3.org/2000/svg" width="16" height="16" viewBox="0 0 16 16">
  <g id="Icons" transform="translate(1 1)">
    <g id="Group_1485" data-name="Group 1485">
      <path id="Path_2241" data-name="Path 2241" d="M14.678,4.533,11.463,1.321A1.092,1.092,0,0,0,10.686,1h0a1.092,1.092,0,0,0-.777.323L1.358,9.91a1.089,1.089,0,0,0-.319.76L1,13.89A1.1,1.1,0,0,0,2.1,15h.026l3.27-.072a1.093,1.093,0,0,0,.752-.321l8.533-8.522a1.1,1.1,0,0,0,0-1.551ZM5.371,13.926,2.1,14,2,13.9l.039-3.221L8.691,3.974l3.336,3.332Zm8.6-8.55L12.738,6.6,9.4,3.262,10.619,2.03h.135l3.215,3.211A.107.107,0,0,1,13.969,5.376Z" transform="translate(-1 -1)" fill="#626161"/>
    </g>
  </g>
  <rect id="Rectangle_891" data-name="Rectangle 891" width="16" height="16" fill="none"/>
</svg>
