<?xml version="1.0" encoding="utf-8"?>
<!-- Generator: Adobe Adobe Illustrator 24.2.0, SVG Export Plug-In . SVG Version: 6.00 Build 0)  -->
<svg version="1.1" xmlns="http://www.w3.org/2000/svg" xmlns:xlink="http://www.w3.org/1999/xlink" x="0px" y="0px"
	 viewBox="0 0 26 26" style="enable-background:new 0 0 26 26;" xml:space="preserve">
<style type="text/css">
	.st0{stroke:#000000;stroke-width:0.3237;stroke-miterlimit:10;}
</style>
<g >
</g>
<g id="Icons">
	<g id="XMLID_102_">
		<path id="XMLID_106_" d="M24.6,3.8H1.4C0.6,3.8,0,4.4,0,5.1v15.7c0,0.8,0.6,1.4,1.4,1.4h23.3c0.8,0,1.4-0.6,1.4-1.4V5.1
			C26,4.4,25.4,3.8,24.6,3.8z M24.6,20.9H1.4V5.1h23.3V20.9z"/>
		<path id="XMLID_110_" d="M9.1,13.6l-5.9,4.9c-0.1,0.1-0.2,0.3,0,0.5l0.4,0.5c0.1,0.1,0.3,0.2,0.5,0l6.1-5.1l2.6,2.2
			c0.1,0.1,0.3,0.1,0.4,0l2.7-2.3l6.2,5.2c0.1,0.1,0.4,0.1,0.5,0L23,19c0.1-0.1,0.1-0.4,0-0.5l-6-5l6-5.2c0.1-0.1,0.2-0.3,0-0.5
			l-0.4-0.5c-0.1-0.1-0.3-0.2-0.5,0L13,15.1L3.9,7.3c-0.1-0.1-0.4-0.1-0.5,0L3,7.8C2.9,8,2.9,8.2,3,8.3L9.1,13.6z"/>
	</g>
</g>
</svg>
