<?xml version="1.0" encoding="utf-8"?>
<!-- Generator: Adobe Illustrator 25.4.1, SVG Export Plug-In . SVG Version: 6.00 Build 0)  -->
<svg version="1.1" xmlns="http://www.w3.org/2000/svg" xmlns:xlink="http://www.w3.org/1999/xlink" x="0px" y="0px"
	 viewBox="0 0 80 56" style="enable-background:new 0 0 80 56;" xml:space="preserve">
<style type="text/css">
	.st0{display:none;}
	.st1{display:inline;}
	.st2{fill:none;stroke:#000000;stroke-miterlimit:10;}
	.st3{fill:#FFFFFF;}
	.st4{fill:#020203;}
	.st5{fill:none;}
	.st6{display:inline;opacity:0.3;}
	.st7{fill:#616160;}
	.st8{fill:none;stroke:#616160;stroke-miterlimit:10;}
	.st9{display:inline;fill:none;stroke:#616160;stroke-miterlimit:10;}
	.st10{display:inline;fill:none;stroke:#616160;}
	.st11{display:inline;fill:#616160;}
	.st12{display:none;opacity:0.5;}
	.st13{display:inline;opacity:0.58;}
	.st14{fill:#010202;}
	.st15{fill:#F0F0F0;}
	.st16{fill:#1F70B7;}
	.st17{fill:none;stroke:#C4C4C4;stroke-width:0.5;}
	.st18{fill:#2470B7;}
	.st19{fill:none;stroke:#FFFFFF;stroke-linecap:round;stroke-linejoin:round;}
	.st20{fill:none;stroke:#B4B0B0;stroke-width:0.5;}
	.st21{fill:#C4C4C4;}
	.st22{fill:none;stroke:#C4C4C4;stroke-width:2;}
	.st23{fill:#1D70B8;}
	.st24{fill:none;stroke:#1D70B8;stroke-width:2;}
	.st25{fill:none;stroke:#1D70B8;}
	.st26{fill:none;stroke:#1D70B8;stroke-width:3;}
</style>
<g id="Editabl" class="st0">
</g>
<g id="Guides">
</g>
<g  class="st12">
</g>
<g >
	<g>
		<path id="Rectangle_15966_00000093892706263850944040000011565250978173936280_" class="st21" d="M9.375,5.25h61.25
			c0.4832,0,0.875,0.3918,0.875,0.875V10.5c0,0.4832-0.3918,0.875-0.875,0.875H9.375c-0.4832,0-0.875-0.3918-0.875-0.875V6.125
			C8.5,5.6418,8.8918,5.25,9.375,5.25z"/>
		<path id="Rectangle_15969_00000041287940627931623200000006130588230646760360_" class="st21" d="M9.375,17.7036h45.5
			c0.4832,0,0.875,0.3918,0.875,0.875v4.375c0,0.4832-0.3918,0.875-0.875,0.875h-45.5c-0.4832,0-0.875-0.3918-0.875-0.875v-4.375
			C8.5,18.0954,8.8918,17.7036,9.375,17.7036z"/>
		<path id="Rectangle_15972_00000069378102150495455770000013687516257764658346_" class="st21" d="M9.375,30.1573h38.5
			c0.4832,0,0.875,0.3918,0.875,0.875v4.375c0,0.4832-0.3918,0.875-0.875,0.875h-38.5c-0.4832,0-0.875-0.3918-0.875-0.875v-4.375
			C8.5,30.549,8.8918,30.1573,9.375,30.1573z"/>
		<path id="Rectangle_15975_00000079450993798227347050000005310484023188767906_" class="st21" d="M40.8146,44.625h18.375
			c0.4832,0,0.875,0.3918,0.875,0.875v4.375c0,0.4832-0.3918,0.875-0.875,0.875h-18.375c-0.4832,0-0.875-0.3918-0.875-0.875V45.5
			C39.9396,45.0168,40.3313,44.625,40.8146,44.625z"/>
		<path id="Rectangle_15978_00000008850280752706449880000002181063091590402194_" class="st21" d="M9.375,44.625H27.75
			c0.4832,0,0.875,0.3918,0.875,0.875v4.375c0,0.4832-0.3918,0.875-0.875,0.875H9.375c-0.4832,0-0.875-0.3918-0.875-0.875V45.5
			C8.5,45.0168,8.8918,44.625,9.375,44.625z"/>
	</g>
</g>
</svg>
