<?xml version="1.0" encoding="utf-8"?>
<!-- Generator: Adobe Illustrator 26.3.1, SVG Export Plug-In . SVG Version: 6.00 Build 0)  -->
<svg version="1.1"  xmlns="http://www.w3.org/2000/svg" xmlns:xlink="http://www.w3.org/1999/xlink" x="0px" y="0px"
	 viewBox="0 0 16 16" style="enable-background:new 0 0 16 16;" xml:space="preserve">
<style type="text/css">
	.st0{display:none;}
	.st1{fill:#616160;}
	.st2{fill:none;}
</style>
<g id="Rough" class="st0">
</g>
<g id="Guides">
</g>
<g  class="st0">
</g>
<g id="Icons">
	<g>
		<path class="st1" d="M8,13.3c-4.7,0-7-4.7-7-5.3s2.3-5.3,7-5.3c4.7,0,7,4.8,7,5.4C15,8.7,12.7,13.3,8,13.3z M2,8
			c0.2,0.6,2.3,4.3,6,4.3c3.7,0,5.7-3.4,6-4.1c-0.2-0.7-2.2-4.4-6-4.4C4.3,3.7,2.2,7.4,2,8z"/>
	</g>
	<g>
		<path class="st1" d="M8,10.8c-1.6,0-2.8-1.3-2.8-2.8S6.4,5.2,8,5.2s2.8,1.3,2.8,2.8S9.6,10.8,8,10.8z M8,6.2C7,6.2,6.2,7,6.2,8
			S7,9.8,8,9.8S9.8,9,9.8,8S9,6.2,8,6.2z"/>
	</g>
</g>
<g id="Strokes">
</g>
<g id="Annotation__x2B__Rough" class="st0">
</g>
<rect class="st2" width="16" height="16"/>
</svg>
