<?xml version="1.0" encoding="utf-8"?>
<!-- Generator: Adobe Adobe Illustrator 24.2.0, SVG Export Plug-In . SVG Version: 6.00 Build 0)  -->
<svg version="1.1" xmlns="http://www.w3.org/2000/svg" xmlns:xlink="http://www.w3.org/1999/xlink" x="0px" y="0px"
	 viewBox="0 0 26 26" style="enable-background:new 0 0 26 26;" xml:space="preserve">
<style type="text/css">
	.st0{fill:#FFFFFF;}
	.st1{fill:none;stroke:#000000;stroke-width:1.68;stroke-linejoin:round;stroke-miterlimit:10;}
	.st2{stroke:#000000;stroke-width:1.68;stroke-linecap:square;stroke-miterlimit:10;}
	.st3{fill:none;stroke:#000000;stroke-width:1.68;stroke-miterlimit:10;}
	.st4{opacity:0.6314;}
	.st5{opacity:0.9804;}
	.st6{fill:none;stroke:#000000;stroke-width:1.68;stroke-linecap:square;stroke-miterlimit:10;}
</style>
<g >
</g>
<g id="Icons">
	<path d="M16.49,8.23c0.73,0,1.32,0.59,1.32,1.32v9.52c0,0.73-0.59,1.32-1.32,1.32H6.05H5.53l-0.43,0.3l-3.42,2.35v-2.22V9.55
		c0-0.73,0.59-1.32,1.32-1.32H16.49 M16.49,6.55H3c-1.66,0-3,1.34-3,3v11.27v4.7c0,0.22,0.18,0.38,0.38,0.38
		c0.07,0,0.14-0.02,0.21-0.07l5.46-3.76h10.44c1.66,0,3-1.34,3-3V9.55C19.49,7.89,18.15,6.55,16.49,6.55L16.49,6.55z"/>
	<g>
		<path class="st0" d="M4.68,13.7V3.28C4.68,1.47,6.15,0,7.96,0h14.76C24.53,0,26,1.47,26,3.28v12.33v5.14
			c0,0.33-0.37,0.52-0.64,0.34l-5.98-4.11H7.96C6.15,16.98,4.68,15.51,4.68,13.7z"/>
		<path d="M22.72,1.68c0.88,0,1.6,0.72,1.6,1.6v12.33v2.73l-3.99-2.74l-0.43-0.3h-0.52H7.96c-0.88,0-1.6-0.72-1.6-1.6V3.28
			c0-0.88,0.72-1.6,1.6-1.6H22.72 M22.72,0H7.96C6.15,0,4.68,1.47,4.68,3.28V13.7c0,1.81,1.47,3.28,3.28,3.28h11.42l5.98,4.11
			c0.07,0.05,0.15,0.07,0.23,0.07c0.21,0,0.41-0.17,0.41-0.41v-5.14V3.28C26,1.47,24.53,0,22.72,0L22.72,0z"/>
	</g>
</g>
<g id="Layer_9">
</g>
<g >
</g>
<g id="Layer_5">
	<g>
		<path d="M8.55,10.61H7.58V5.97h2.66v0.81H8.55v1.2h1.57v0.8H8.55V10.61z"/>
		<path d="M13.99,10.61l-0.34-1.1h-1.69l-0.34,1.1h-1.06l1.64-4.66h1.2l1.64,4.66H13.99z M13.42,8.68c-0.31-1-0.49-1.57-0.53-1.7
			c-0.04-0.13-0.07-0.23-0.08-0.31c-0.07,0.27-0.27,0.94-0.6,2.01H13.42z"/>
		<path d="M19.85,8.29c0,0.55-0.1,1-0.29,1.37c-0.19,0.37-0.48,0.64-0.85,0.81l1.12,1.25h-1.26l-0.85-1.04h-0.07
			c-0.71,0-1.26-0.21-1.64-0.62c-0.38-0.41-0.57-1-0.57-1.78S15.62,6.92,16,6.51s0.93-0.61,1.64-0.61s1.26,0.21,1.64,0.62
			C19.66,6.92,19.85,7.51,19.85,8.29z M16.46,8.29c0,0.52,0.1,0.91,0.29,1.17c0.2,0.26,0.49,0.39,0.88,0.39
			c0.79,0,1.18-0.52,1.18-1.56c0-1.05-0.39-1.57-1.17-1.57c-0.39,0-0.69,0.13-0.89,0.4C16.56,7.38,16.46,7.77,16.46,8.29z"/>
		<path d="M23.21,9.56c0,0.36-0.13,0.64-0.38,0.83c-0.25,0.19-0.63,0.29-1.13,0.29c-0.26,0-0.48-0.02-0.66-0.05
			c-0.18-0.03-0.35-0.09-0.51-0.15v-0.8c0.18,0.08,0.38,0.16,0.61,0.21c0.23,0.06,0.42,0.09,0.59,0.09c0.35,0,0.53-0.1,0.53-0.3
			c0-0.08-0.02-0.14-0.07-0.19c-0.05-0.05-0.13-0.1-0.24-0.16c-0.11-0.06-0.27-0.13-0.46-0.21c-0.27-0.11-0.47-0.22-0.6-0.32
			c-0.13-0.1-0.22-0.21-0.28-0.33c-0.06-0.13-0.09-0.28-0.09-0.46c0-0.32,0.12-0.56,0.37-0.73C21.13,7.08,21.47,7,21.92,7
			c0.43,0,0.84,0.09,1.25,0.28l-0.29,0.7c-0.18-0.08-0.34-0.14-0.5-0.19c-0.15-0.05-0.31-0.07-0.47-0.07
			c-0.29,0-0.43,0.08-0.43,0.23c0,0.09,0.05,0.16,0.14,0.23s0.29,0.16,0.6,0.28c0.28,0.11,0.48,0.22,0.61,0.31
			c0.13,0.1,0.22,0.21,0.29,0.34S23.21,9.38,23.21,9.56z"/>
	</g>
</g>
<g id="Layer_6">
</g>
</svg>
