<svg xmlns="http://www.w3.org/2000/svg" width="16.678" height="20.384" viewBox="0 0 16.678 20.384">
  <path id="Icon_material-flip" data-name="Icon material-flip" d="M15.618,20.031h1.853V18.178H15.618ZM19.325,8.912h1.853V7.059H19.325ZM4.5,5.206V18.178a1.859,1.859,0,0,0,1.853,1.853h3.706V18.178H6.353V5.206h3.706V3.353H6.353A1.859,1.859,0,0,0,4.5,5.206ZM19.325,3.353V5.206h1.853A1.859,1.859,0,0,0,19.325,3.353ZM11.912,21.884h1.853V1.5H11.912Zm7.412-5.559h1.853V14.472H19.325ZM15.618,5.206h1.853V3.353H15.618Zm3.706,7.412h1.853V10.765H19.325Zm0,7.412a1.859,1.859,0,0,0,1.853-1.853H19.325Z" transform="translate(-4.5 -1.5)" fill="#c4c4c4"/>
</svg>
