<svg xmlns="http://www.w3.org/2000/svg" width="224" height="39" viewBox="0 0 224 39">
  <g id="Group_62678" data-name="Group 62678" transform="translate(-86 -636.49)">
    <g id="Rectangle_16387" data-name="Rectangle 16387" transform="translate(86 636.49)" fill="#fff" stroke="#d3d3d3" stroke-miterlimit="10" stroke-width="0.7">
      <rect width="224" height="39" rx="1" stroke="none"/>
      <rect x="0.35" y="0.35" width="223.3" height="38.3" rx="0.65" fill="none"/>
    </g>
    <text id="Privacy_Statement" data-name="Privacy Statement" transform="translate(258 658)" fill="#1072c6" font-size="5" font-family="OpenSans-Semibold, Open Sans" font-weight="600"><tspan x="0" y="0">Privacy Statement</tspan></text>
    <text id="Disclaimer" transform="translate(251 658)" fill="#1072c6" font-size="5" font-family="OpenSans-Semibold, Open Sans" font-weight="600"><tspan x="-25.479" y="0">Disclaimer</tspan></text>
    <path id="Icon_awesome-image" data-name="Icon awesome-image" d="M18.372,19.1H1.9A1.864,1.864,0,0,1,0,17.272V6.325A1.864,1.864,0,0,1,1.9,4.5H18.372a1.864,1.864,0,0,1,1.9,1.825V17.272A1.864,1.864,0,0,1,18.372,19.1ZM4.435,6.629A2.174,2.174,0,0,0,2.217,8.757a2.174,2.174,0,0,0,2.217,2.129A2.174,2.174,0,0,0,6.652,8.757,2.174,2.174,0,0,0,4.435,6.629Zm-1.9,10.035h15.2V12.406L14.274,9.08a.489.489,0,0,0-.672,0L8.236,14.231l-2.2-2.11a.489.489,0,0,0-.672,0L2.534,14.839Z" transform="translate(94.109 644.191)" fill="#babec1"/>
    <text id="Copyright_2020._The_Landmark_Trust_Banking_Corporation_Limited._" data-name="Copyright 2020. The Landmark Trust Banking Corporation Limited. " transform="translate(128 647)" fill="#3a3a3a" font-size="5" font-family="OpenSans, Open Sans"><tspan x="0" y="5">Copyright 2020. The Landmark </tspan><tspan x="0" y="11">Trust Banking Corporation </tspan><tspan x="0" y="17">Limited. </tspan></text>
  </g>
</svg>
