<?xml version="1.0" encoding="utf-8"?>
<!-- Generator: Adobe Illustrator 25.4.1, SVG Export Plug-In . SVG Version: 6.00 Build 0)  -->
<svg version="1.1" xmlns="http://www.w3.org/2000/svg" xmlns:xlink="http://www.w3.org/1999/xlink" x="0px" y="0px"
	 viewBox="0 0 20 20" style="enable-background:new 0 0 20 20;" xml:space="preserve">
<style type="text/css">
	.st0{display:none;}
	.st1{display:inline;}
	.st2{fill:none;stroke:#000000;stroke-miterlimit:10;}
	.st3{fill:#FFFFFF;}
	.st4{fill:#020203;}
	.st5{fill:none;}
	.st6{display:inline;opacity:0.3;}
	.st7{fill:#616160;}
	.st8{fill:none;stroke:#616160;stroke-miterlimit:10;}
	.st9{display:inline;fill:none;stroke:#616160;stroke-miterlimit:10;}
	.st10{display:inline;fill:none;stroke:#616160;}
	.st11{display:inline;fill:#616160;}
	.st12{display:none;opacity:0.5;}
	.st13{display:inline;opacity:0.58;}
	.st14{fill:#010202;}
	.st15{fill:#F0F0F0;}
	.st16{fill:#1F70B7;}
	.st17{fill:none;stroke:#C4C4C4;stroke-width:0.5;}
	.st18{fill:#2470B7;}
	.st19{fill:none;stroke:#FFFFFF;stroke-linecap:round;stroke-linejoin:round;}
	.st20{fill:none;stroke:#B4B0B0;stroke-width:0.5;}
	.st21{fill:#C4C4C4;}
	.st22{fill:none;stroke:#C4C4C4;stroke-width:2;}
	.st23{fill:#1D70B8;}
	.st24{fill:none;stroke:#1D70B8;stroke-width:2;}
	.st25{fill:none;stroke:#1D70B8;}
	.st26{fill:none;stroke:#1D70B8;stroke-width:3;}
</style>
<g id="Editabl" class="st0">
</g>
<g id="Guides">
</g>
<g  class="st12">
</g>
<g >
	<g>
		<path class="st7" d="M17.4999,7.9991l-1.592,0.001c-0.152-0.369-0.164-0.396-0.316-0.765l1.116-1.114
			c0.197-0.197,0.195-0.516-0.004-0.711l-2.133-2.09c-0.195-0.19-0.507-0.19-0.701,0.002l-1.106,1.091l-0.763-0.319l0.002-1.594
			c0-0.276-0.224-0.5-0.5-0.5H8.4999c-0.276,0-0.5,0.224-0.5,0.5l0.001,1.59c-0.366,0.155-0.396,0.168-0.763,0.322l-1.125-1.097
			c-0.197-0.192-0.512-0.189-0.705,0.006c-0.686,0.695-1.372,1.39-2.058,2.085c-0.189,0.191-0.193,0.498-0.008,0.694l1.079,1.147
			c-0.156,0.36-0.17,0.394-0.326,0.754l-1.594-0.002c-0.277,0-0.501,0.224-0.501,0.5v3.003c0,0.277,0.224,0.501,0.501,0.5
			l1.594-0.001c0.152,0.371,0.162,0.396,0.314,0.767l-1.117,1.095c-0.198,0.195-0.2,0.514-0.003,0.711l2.13,2.131
			c0.195,0.195,0.512,0.195,0.707-0.001l1.109-1.11c0.37,0.153,0.397,0.164,0.766,0.317l-0.001,1.589c0,0.276,0.224,0.5,0.5,0.5
			h3.0031c0.276,0,0.5-0.224,0.5-0.5l-0.001-1.592c0.368-0.153,0.395-0.164,0.763-0.317l1.116,1.115
			c0.196,0.195,0.513,0.195,0.708-0.001l2.116-2.126c0.195-0.196,0.195-0.513-0.002-0.707l-1.111-1.104
			c0.152-0.37,0.163-0.396,0.315-0.765h1.593c0.276,0,0.5-0.224,0.5-0.5v-3.004C17.9999,8.2231,17.7759,7.9991,17.4999,7.9991z
			 M16.8959,11.0031c-0.402,0.003-0.805,0.002-1.2079-0.002c-0.204,0.026-0.4901,0.072-0.634,0.438
			c-0.148,0.38-0.304,0.758-0.469,1.131c-0.12,0.271-0.071,0.534,0.141,0.746l0.921,0.918l-1.414,1.413
			c-0.306-0.305-0.612-0.611-0.916-0.92c-0.147-0.151-0.402-0.294-0.759-0.136c-0.3651,0.162-0.733,0.314-1.104,0.459
			c-0.379,0.146-0.456,0.434-0.454,0.65c0.004,0.432,0.004,0.864,0.0031,1.3h-2.004v-0.107c-0.001-0.38-0.002-0.761,0.004-1.139
			c0.007-0.354-0.16-0.597-0.497-0.721c-0.362-0.133-0.717-0.287-1.068-0.443c-0.3701-0.165-0.6281,0.011-0.749,0.134
			c-0.303,0.307-0.61,0.613-0.911,0.915l-0.005,0.005l-1.414-1.414l0.925-0.922c0.205-0.206,0.254-0.465,0.137-0.733
			c-0.167-0.378-0.326-0.759-0.477-1.143c-0.146-0.375-0.451-0.431-0.623-0.431l-1.321,0.002v-2.004l1.321,0.002
			c0.181,0.017,0.475-0.051,0.624-0.432c0.151-0.385,0.31-0.766,0.475-1.142c0.119-0.267,0.066-0.5359-0.138-0.7339l-0.919-0.918
			l1.413-1.413l0.914,0.916c0.278,0.283,0.58,0.213,0.735,0.144c0.382-0.1689,0.767-0.329,1.16-0.483
			c0.269-0.106,0.416-0.324,0.416-0.615l-0.001-1.324h2.0031l-0.002,1.304c-0.002,0.214,0.072,0.502,0.444,0.646
			c0.38,0.146,0.756,0.304,1.132,0.47c0.27,0.116,0.527,0.068,0.731-0.137l0.93-0.932l1.413,1.413
			c-0.299,0.3-0.602,0.603-0.908,0.904c-0.228,0.225-0.278,0.5-0.143,0.796c0.164,0.36,0.312,0.728,0.455,1.099
			c0.139,0.363,0.42,0.439,0.635,0.439c0.425-0.005,0.851-0.003,1.281-0.003l0.029,2.004H16.8959z"/>
		<path class="st7" d="M10.0099,6.4971h-0.007c-1.926,0-3.498,1.563-3.505,3.487c-0.0031,0.936,0.36,1.819,1.024,2.486
			c0.661,0.665,1.539,1.033,2.47,1.035h0.008c0.931,0,1.808-0.364,2.472-1.027c0.666-0.663,1.032-1.543,1.033-2.476
			C13.5049,8.0741,11.9379,6.5021,10.0099,6.4971z M11.7659,11.7701c-0.475,0.474-1.1021,0.735-1.7661,0.735h-0.006
			c-0.664-0.002-1.291-0.265-1.763-0.74c-0.475-0.478-0.735-1.109-0.733-1.777c0.005-1.375,1.128-2.491,2.505-2.491h0.0049
			c1.377,0.003,2.497,1.127,2.497,2.505C12.5049,10.6681,12.2419,11.2961,11.7659,11.7701z"/>
	</g>
</g>
</svg>
