<?xml version="1.0" encoding="utf-8"?>
<!-- Generator: Adobe Illustrator 25.4.0, SVG Export Plug-In . SVG Version: 6.00 Build 0)  -->
<svg version="1.1" xmlns="http://www.w3.org/2000/svg" xmlns:xlink="http://www.w3.org/1999/xlink" x="0px" y="0px"
	 viewBox="0 0 14 14" style="enable-background:new 0 0 14 14;" xml:space="preserve">
<style type="text/css">
	.st0{fill:#005EA3;}
	.st1{fill:none;stroke:#000000;stroke-miterlimit:10;}
	.st2{fill-rule:evenodd;clip-rule:evenodd;fill:#FFFFFF;};
	.st3{fill:#FFFFFF;}
	.st4{fill:#0072C6;}
	.st5{fill-rule:evenodd;clip-rule:evenodd;fill:#AD6503;}
	.st6{fill-rule:evenodd;clip-rule:evenodd;fill:#D53D3D;}
	.st7{fill-rule:evenodd;clip-rule:evenodd;fill:#5C5C5C;}
	.st8{fill:#D53D3D;}
	.st9{fill:#AD6503;}
	.st10{fill:#FFFFFF;stroke:#C4C4C4;stroke-miterlimit:10;}
	.st11{fill:none;}
	.st12{fill:none;stroke:#D3D3D3;}
	.st13{fill:none;stroke:#C4C4C4;stroke-width:0.9;stroke-miterlimit:10;}
	.st14{fill:#D3D3D3;}
	.st15{opacity:0.6;fill:#D3D3D3;}
	.st16{fill:none;stroke:#C4C4C4;stroke-miterlimit:10;}
	.st17{fill:#C4C4C4;}
</style>
<g >
</g>
<g >
	<path class="st2" d="M7,0.1416c-3.866,0-7,3.134-7,7s3.134,7,7,7s7-3.134,7-7S10.866,0.1416,7,0.1416z M11.4272,5.2461
		L5.5942,11.08c-0.0977,0.0977-0.2559,0.0977-0.3536,0L2.2358,8.0752c-0.0977-0.0976-0.0977-0.2559,0-0.3535l0.707-0.707
		c0.0977-0.0976,0.2559-0.0976,0.3536,0l2.1211,2.1211l4.9492-4.9501c0.0977-0.0977,0.256-0.0977,0.3536,0l0.707,0.707
		C11.5248,4.9902,11.5248,5.1485,11.4272,5.2461z"/>
</g>
<g >
</g>
<g >
</g>
</svg>
