<svg xmlns="http://www.w3.org/2000/svg"
	xmlns:xlink="http://www.w3.org/1999/xlink" x="0px" y="0px" viewBox="0 0 20 20" style="enable-background:new 0 0 20 20;" xml:space="preserve">
	<style type="text/css">
	.st0{display:none;}
	.st1{fill:#606060;}
	.st2{fill:none;}
	</style>
	<g id="Guides" class="st0">
	</g>
	<g id="Rough" class="st0">
	</g>
	<g id="Strokes" class="st0">
	</g>
	<path class="st1" d="M17.5,6h-15C2.2239,6,2,5.7761,2,5.5v-1C2,4.2239,2.2239,4,2.5,4h15C17.7761,4,18,4.2239,18,4.5v1
	C18,5.7761,17.7761,6,17.5,6z"/>
	<path class="st1" d="M17.5,11h-15C2.2239,11,2,10.7761,2,10.5v-1C2,9.2239,2.2239,9,2.5,9h15C17.7761,9,18,9.2239,18,9.5v1
	C18,10.7761,17.7761,11,17.5,11z"/>
	<path class="st1" d="M17.5,16h-15C2.2239,16,2,15.7761,2,15.5v-1C2,14.2239,2.2239,14,2.5,14h15c0.2761,0,0.5,0.2239,0.5,0.5v1
	C18,15.7761,17.7761,16,17.5,16z"/>
	<rect class="st2" width="20" height="20"/>
</svg>
