<svg version="1.1" xmlns="http://www.w3.org/2000/svg" xmlns:xlink="http://www.w3.org/1999/xlink" x="0px" y="0px"
	 viewBox="0 0 28 464" style="enable-background:new 0 0 28 464;" xml:space="preserve">
<style type="text/css">
	.st0{fill:#005EA3;}
	.st1{fill:none;stroke:#000000;stroke-miterlimit:10;}
	.st2{fill-rule:evenodd;clip-rule:evenodd;fill:#0D6F08;}
	.st3{fill:#FFFFFF;}
	.st4{fill:#0072C6;}
	.st5{fill-rule:evenodd;clip-rule:evenodd;fill:#AD6503;}
	.st6{fill-rule:evenodd;clip-rule:evenodd;fill:#D53D3D;}
	.st7{fill-rule:evenodd;clip-rule:evenodd;fill:#5C5C5C;}
	.st8{fill:#707070;}
	.st9{fill:#D3D3D3;}
	.st10{fill:#C4C4C4;}
	.st11{fill:#A1A1A1;}
	.st12{fill:#D53D3D;}
	.st13{fill:#AD6503;}
	.st14{fill:#FFFFFF;stroke:#C4C4C4;stroke-miterlimit:10;}
	.st15{fill:none;}
	.st16{fill:none;stroke:#D3D3D3;}
	.st17{fill:none;stroke:#C4C4C4;stroke-width:0.9;stroke-miterlimit:10;}
	.st18{opacity:0.6;fill:#D3D3D3;}
	.st19{fill:none;stroke:#C4C4C4;stroke-miterlimit:10;}
</style>
<g >
</g>
<g >
	<path class="st11" d="M20,213.5H8V0H6v464h2V250.5h12c1.1046,0,2-0.8954,2-2v-33C22,214.3954,21.1046,213.5,20,213.5z M12.482,243
		c0,0.2761-0.2238,0.5-0.5,0.5h-1c-0.2761,0-0.5-0.2239-0.5-0.5v-22c0-0.2762,0.2239-0.5,0.5-0.5h1c0.2762,0,0.5,0.2238,0.5,0.5V243
		z M18.533,243.135c0,0.2761-0.2239,0.5-0.5,0.5h-1c-0.2761,0-0.5-0.2239-0.5-0.5v-22c0-0.2762,0.2239-0.5,0.5-0.5h1
		c0.2761,0,0.5,0.2238,0.5,0.5V243.135z"/>
</g>
<g >
</g>
<g >
</g>
</svg>
