<?xml version="1.0" encoding="utf-8"?>
<!-- Generator: Adobe Illustrator 25.4.0, SVG Export Plug-In . SVG Version: 6.00 Build 0)  -->
<svg version="1.1" xmlns="http://www.w3.org/2000/svg" xmlns:xlink="http://www.w3.org/1999/xlink" x="0px" y="0px"
	 viewBox="0 0 20 20" style="enable-background:new 0 0 20 20;" xml:space="preserve">
<style type="text/css">
	.st0{fill:none;stroke:#000000;stroke-miterlimit:10;}
	.st1{fill:none;stroke:#000000;stroke-width:0.925;stroke-miterlimit:10;}
	.st2{fill:none;stroke:#000000;stroke-linecap:square;stroke-miterlimit:10;}
	.st3{opacity:0.25;fill:#FF0000;}
	.st4{fill:none;}
	.st5{stroke:#000000;stroke-miterlimit:10;}
	.st6{fill:#606060;}
	.st7{fill:none;stroke:#000000;stroke-width:0.8667;stroke-miterlimit:10;}
	.st8{opacity:0.99;fill:none;stroke:#000000;stroke-miterlimit:10;}
	.st9{fill:none;stroke:#B3B3B3;stroke-miterlimit:10;}
	.st10{fill:#B3B3B3;}
	.st11{fill:none;stroke:#B3B3B3;stroke-linecap:square;stroke-miterlimit:10;}
	.st12{fill:none;stroke:#000000;stroke-width:0.9878;stroke-miterlimit:10;}
	.st13{fill:none;stroke:#000000;stroke-width:2;stroke-miterlimit:10;}
	.st14{fill:none;stroke:#000000;stroke-width:1.25;stroke-miterlimit:10;}
	.st15{fill:#FBB03B;}
	.st16{fill:none;stroke:#000000;stroke-width:1.9467;stroke-miterlimit:10;}
	.st17{fill:none;stroke:#000000;stroke-width:1.539;stroke-miterlimit:10;}
	.st18{fill:none;stroke:#000000;stroke-width:1.3765;stroke-miterlimit:10;}
	.st19{opacity:0.34;}
</style>
<g id="Layer_1">
</g>
<g id="Layer_9">
</g>
<g id="Layer_4">
	<g>
		<path class="st6" d="M10.1164,13.0934h-1c0-0.6494,0.0234-1.2803,0.3057-1.8564c0.2754-0.5566,0.7324-0.7998,1.1357-1.0137
			c0.0879-0.0459,0.1758-0.0928,0.2646-0.1445c0.5049-0.2939,0.8936-0.8359,1.0381-1.4502c0.1465-0.624-0.0146-1.2676-0.4414-1.7656
			c-0.418-0.4873-1.0107-0.7373-1.6426-0.6924C9.0402,6.2272,8.3302,6.7438,8.05,7.4274L7.1242,7.0485
			C7.55,6.0124,8.5851,5.2595,9.7003,5.1735c0.9512-0.0693,1.8506,0.3066,2.4785,1.0391c0.627,0.7314,0.8721,1.7207,0.6543,2.6445
			c-0.2061,0.877-0.7695,1.6562-1.5078,2.0859c-0.1006,0.0586-0.2002,0.1113-0.2988,0.1641
			c-0.3672,0.1943-0.5811,0.3174-0.707,0.5723C10.132,12.0612,10.1164,12.5456,10.1164,13.0934z"/>
	</g>
	<g>
		<circle class="st6" cx="9.649" cy="14.7425" r="0.6262"/>
	</g>
	<g>
		<path class="st6" d="M10.0002,17.9997c-4.4111,0-8-3.5889-8-8s3.5889-8,8-8s8,3.5889,8,8S14.4113,17.9997,10.0002,17.9997z
			 M10.0002,2.9997c-3.8594,0-7,3.1406-7,7s3.1406,7,7,7s7-3.1406,7-7S13.8595,2.9997,10.0002,2.9997z"/>
	</g>
</g>
<g id="Layer_3">
</g>
<g id="Layer_5">
</g>
<g id="Layer_6">
</g>
<g id="Layer_8">
</g>
<g id="Layer_7">
</g>
</svg>
