<?xml version="1.0" encoding="utf-8"?>
<!-- Generator: Adobe Illustrator 25.4.1, SVG Export Plug-In . SVG Version: 6.00 Build 0)  -->
<svg version="1.1" xmlns="http://www.w3.org/2000/svg" xmlns:xlink="http://www.w3.org/1999/xlink" x="0px" y="0px"
	 viewBox="0 0 102 41" style="enable-background:new 0 0 102 41;" xml:space="preserve">
<style type="text/css">
	.st0{fill:#FFFFFF;stroke:#E6E6E6;}
	.st1{fill:none;stroke:#E6E6E6;}
	.st2{fill:none;stroke:#E6E6E6;stroke-width:2;stroke-miterlimit:10;}
	.st3{fill:#FFFFFF;}
	.st4{fill:none;stroke:#DADADA;stroke-miterlimit:10;}
	.st5{fill:#E6E6E6;}
	.st6{fill:none;stroke:#0072C6;stroke-width:2;}
	.st7{fill:#0072C6;stroke:#0072C6;stroke-miterlimit:10;}
	.st8{fill:#E6E6E6;stroke:#E6E6E6;stroke-width:2;stroke-miterlimit:10;}
	.st9{fill:#0072C6;}
	.st10{fill:none;stroke:#0072C6;}
	.st11{fill:#E5E1DF;}
	.st12{fill:#F15A24;}
	.st13{fill:none;stroke:#F15A24;}
	.st14{opacity:0.6;fill:none;stroke:#D3D3D3;}
	.st15{fill:#D3D3D3;}
	.st16{fill:#616160;}
	.st17{fill:none;stroke:#616160;}
	.st18{fill:#FFFFFF;stroke:#DADADA;stroke-miterlimit:10;}
	.st19{opacity:0.5;}
	.st20{fill:none;stroke:#0072C6;stroke-miterlimit:10;}
	.st21{fill:none;stroke:#D3D3D3;}
	.st22{fill:none;stroke:#C4C4C4;stroke-width:0.5;}
	.st23{fill:#C4C4C4;}
	.st24{fill:none;stroke:#C4C4C4;stroke-width:2;}
	.st25{fill:#C5C4C4;}
	.st26{fill:none;}
	.st27{fill:#FFFFFF;stroke:#C4C4C4;stroke-miterlimit:10;}
	.st28{opacity:0.6;}
	.st29{fill:#006837;}
	.st30{opacity:0.6;fill:none;stroke:#D3D3D3;enable-background:new    ;}
	.st31{opacity:0.5;fill:#D3D3D3;}
</style>
<g >
	<line class="st14" x1="16.8467" y1="19.876" x2="84.8621" y2="19.876"/>
	<line class="st17" x1="36.1051" y1="19.876" x2="46.6032" y2="19.876"/>
	<g>
		<g>
			<g>
				<path class="st16" d="M22.0624,7.6663c2.3246,0,4.2157,1.8912,4.2157,4.2157s-1.8912,4.2157-4.2157,4.2157
					s-4.2157-1.8912-4.2157-4.2157S19.7379,7.6663,22.0624,7.6663 M22.0624,6.6663c-2.8806,0-5.2157,2.3352-5.2157,5.2157
					s2.3352,5.2157,5.2157,5.2157s5.2157-2.3352,5.2157-5.2157S24.943,6.6663,22.0624,6.6663L22.0624,6.6663z"/>
			</g>
		</g>
		<g>
			<circle class="st16" cx="41.3538" cy="11.8818" r="4.7158"/>
			<path class="st16" d="M41.3541,7.6663c2.3246,0,4.2157,1.8912,4.2157,4.2157s-1.8912,4.2157-4.2157,4.2157
				c-2.3246,0-4.2157-1.8912-4.2157-4.2157S39.0296,7.6663,41.3541,7.6663 M41.3541,6.6663c-2.8806,0-5.2157,2.3352-5.2157,5.2157
				s2.3352,5.2157,5.2157,5.2157s5.2157-2.3352,5.2157-5.2157S44.2347,6.6663,41.3541,6.6663L41.3541,6.6663z"/>
		</g>
		<g>
			<path class="st16" d="M60.6459,7.6663c2.3246,0,4.2157,1.8912,4.2157,4.2157s-1.8912,4.2157-4.2157,4.2157
				s-4.2157-1.8912-4.2157-4.2157S58.3213,7.6663,60.6459,7.6663 M60.6459,6.6663c-2.8806,0-5.2157,2.3352-5.2157,5.2157
				s2.3352,5.2157,5.2157,5.2157s5.2157-2.3352,5.2157-5.2157S63.5264,6.6663,60.6459,6.6663L60.6459,6.6663z"/>
		</g>
		<g>
			<path class="st16" d="M79.9376,7.6663c2.3246,0,4.2157,1.8912,4.2157,4.2157s-1.8912,4.2157-4.2157,4.2157
				s-4.2157-1.8912-4.2157-4.2157S77.613,7.6663,79.9376,7.6663 M79.9376,6.6663c-2.8806,0-5.2157,2.3352-5.2157,5.2157
				s2.3352,5.2157,5.2157,5.2157s5.2157-2.3352,5.2157-5.2157S82.8181,6.6663,79.9376,6.6663L79.9376,6.6663z"/>
		</g>
		<path class="st17" d="M24.0624,10.5199c-0.9081,0.9081-1.8162,1.8162-2.7243,2.7243c-0.4252-0.4252-0.8505-0.8505-1.2757-1.2757"
			/>
	</g>
</g>
<g >
	<rect x="12.5562" y="24.4367" class="st31" width="75" height="4"/>
	<rect x="12.5562" y="31.7176" class="st31" width="75" height="4"/>
</g>
</svg>
