<?xml version="1.0" encoding="utf-8"?>
<!-- Generator: Adobe Illustrator 25.4.0, SVG Export Plug-In . SVG Version: 6.00 Build 0)  -->
<svg version="1.1" xmlns="http://www.w3.org/2000/svg" xmlns:xlink="http://www.w3.org/1999/xlink" x="0px" y="0px"
	 viewBox="0 0 102 41" style="enable-background:new 0 0 102 41;" xml:space="preserve">
<style type="text/css">
	.st0{fill:#FFFFFF;}
	.st1{fill:none;stroke:#C5C4C4;stroke-width:1.5;stroke-miterlimit:10;}
	.st2{fill:#C5C4C4;}
	.st3{fill:#616160;}
	.st4{fill:#C4C4C4;}
	.st5{enable-background:new    ;}
	.st6{fill:#020203;}
	.st7{fill:none;stroke:#D3D3D3;stroke-width:1.5;stroke-miterlimit:10;}
	.st8{fill:#D3D3D3;}
	.st9{fill:none;stroke:#C5C4C4;stroke-width:0.75;stroke-miterlimit:10;}
	.st10{fill:none;stroke:#616160;stroke-miterlimit:10;}
	.st11{fill:none;stroke:#616160;stroke-width:2;stroke-miterlimit:10;}
	.st12{fill:none;stroke:#616160;stroke-width:0.75;stroke-miterlimit:10;}
	.st13{fill:#616160;stroke:#616160;stroke-miterlimit:10;}
	.st14{fill:none;stroke:#FFFFFF;stroke-miterlimit:10;}
	.st15{fill:#1D70B8;}
	.st16{fill:#FFFFFF;stroke:#C5C4C4;stroke-width:1.5;stroke-miterlimit:10;}
	.st17{fill:none;stroke:#616160;stroke-width:1.5;stroke-miterlimit:10;}
	.st18{fill:none;stroke:#D3D3D3;stroke-width:0.5;}
	.st19{fill:#FFFFFF;stroke:#616160;}
	.st20{fill:none;stroke:#616160;stroke-width:0.5;stroke-miterlimit:10;}
	.st21{fill:#FFFFFF;stroke:#616160;stroke-width:1.5;}
	.st22{fill:#C5C4C4;stroke:#C5C4C4;stroke-width:1.5;stroke-miterlimit:10;}
	.st23{opacity:0.6;}
	.st24{opacity:0.6;fill:#C5C4C4;}
	.st25{fill:#FFFFFF;stroke:#616160;stroke-width:0.5;}
	.st26{fill:none;stroke:#616160;stroke-width:0.5;}
</style>
<g id="Layer_5">
	<g id="Layer_7">
	</g>
	<rect x="12.0289" y="18.7474" class="st0" width="90.0251" height="22.274"/>
</g>
<g >
</g>
<g >
</g>
<g id="Layer_6">
	<g>
		<rect x="11.4297" y="18.9727" class="st2" width="1.5" height="23.3574"/>
	</g>
</g>
<g >
	<g>
		<rect x="38.3032" y="18.1885" class="st2" width="64.312" height="1.5"/>
	</g>
	<g>
		<rect x="11.4287" y="18.1885" class="st3" width="26.8745" height="1.5"/>
	</g>
	<g>
		<path class="st3" d="M18.1382,15.9004h-0.8174v-4.2969h-1.4688v-0.7002h3.7559v0.7002h-1.4697V15.9004z"/>
		<path class="st3" d="M22.6528,15.9004l-0.1602-0.5264h-0.0273c-0.1826,0.2305-0.3662,0.3867-0.5508,0.4697
			s-0.4219,0.125-0.7109,0.125c-0.3711,0-0.6611-0.1006-0.8701-0.3008c-0.208-0.2002-0.3125-0.4844-0.3125-0.8516
			c0-0.3887,0.1445-0.6836,0.4346-0.8809c0.2891-0.1992,0.7295-0.3066,1.3223-0.3252l0.6523-0.0205v-0.2012
			c0-0.2422-0.0557-0.4229-0.1689-0.542c-0.1123-0.1201-0.2871-0.1797-0.5244-0.1797c-0.1934,0-0.3789,0.0283-0.5566,0.085
			c-0.1777,0.0576-0.3496,0.125-0.5137,0.2021l-0.2598-0.5742c0.2051-0.1074,0.4297-0.1885,0.6738-0.2441s0.4736-0.084,0.6904-0.084
			c0.4805,0,0.8438,0.1045,1.0889,0.3145s0.3672,0.5391,0.3672,0.9873v2.5469H22.6528z M21.4565,15.3535
			c0.292,0,0.5254-0.0811,0.7021-0.2441s0.2656-0.3916,0.2656-0.6855v-0.3281l-0.4863,0.0205
			c-0.3779,0.0137-0.6533,0.0771-0.8252,0.1895c-0.1719,0.1133-0.2578,0.2861-0.2578,0.5186c0,0.168,0.0498,0.2988,0.1504,0.3906
			C21.106,15.3076,21.2563,15.3535,21.4565,15.3535z"/>
		<path class="st3" d="M26.2798,12.0518c0.4707,0,0.8389,0.1709,1.1016,0.5127c0.2637,0.3418,0.3945,0.8213,0.3945,1.4395
			c0,0.6191-0.1328,1.1016-0.3994,1.4473c-0.2666,0.3447-0.6367,0.5176-1.1104,0.5176c-0.4785,0-0.8506-0.1719-1.1152-0.5156
			h-0.0547l-0.1465,0.4473h-0.6016V10.582h0.8027v1.2646c0,0.0938-0.0039,0.2324-0.0137,0.417
			c-0.0088,0.1846-0.0156,0.3018-0.0195,0.3516h0.0332C25.4067,12.2402,25.7827,12.0518,26.2798,12.0518z M26.0708,12.708
			c-0.3232,0-0.5566,0.0947-0.6992,0.2852s-0.2158,0.5088-0.2207,0.9561v0.0547c0,0.46,0.0732,0.793,0.2188,0.999
			c0.1465,0.2061,0.3848,0.3096,0.7148,0.3096c0.2852,0,0.501-0.1133,0.6475-0.3379c0.1475-0.2266,0.2207-0.5518,0.2207-0.9785
			C26.9526,13.1377,26.6587,12.708,26.0708,12.708z"/>
		<path class="st3" d="M31.2485,14.8242c0,0.3691-0.1338,0.6514-0.4023,0.8486c-0.2695,0.1973-0.6543,0.2959-1.1562,0.2959
			c-0.5029,0-0.9072-0.0762-1.2129-0.2285v-0.6943c0.4443,0.2051,0.8574,0.3076,1.2402,0.3076c0.4951,0,0.7422-0.1494,0.7422-0.4473
			c0-0.0957-0.0273-0.1758-0.082-0.2402c-0.0547-0.0635-0.1445-0.1289-0.2695-0.1973c-0.126-0.0684-0.2998-0.1465-0.5234-0.2324
			c-0.4355-0.1689-0.7295-0.3379-0.8838-0.5059c-0.1533-0.1689-0.2305-0.3877-0.2305-0.6562c0-0.3242,0.1309-0.5752,0.3916-0.7539
			s0.6152-0.2686,1.0645-0.2686c0.4443,0,0.8652,0.0898,1.2617,0.2705l-0.2598,0.6045c-0.4082-0.1689-0.751-0.2529-1.0293-0.2529
			c-0.4238,0-0.6357,0.1211-0.6357,0.3623c0,0.1182,0.0557,0.2188,0.166,0.3008s0.3516,0.1943,0.7227,0.3389
			c0.3125,0.1201,0.5391,0.2305,0.6807,0.3311c0.1406,0.1006,0.2461,0.2158,0.3145,0.3467S31.2485,14.6416,31.2485,14.8242z"/>
	</g>
	<g>
		<path class="st2" d="M49.5879,15.9004h-0.8174v-4.2969h-1.4688v-0.7002h3.7559v0.7002h-1.4697V15.9004z"/>
		<path class="st2" d="M54.1025,15.9004l-0.1602-0.5264H53.915c-0.1826,0.2305-0.3662,0.3867-0.5508,0.4697
			s-0.4219,0.125-0.7109,0.125c-0.3711,0-0.6611-0.1006-0.8701-0.3008c-0.208-0.2002-0.3125-0.4844-0.3125-0.8516
			c0-0.3887,0.1445-0.6836,0.4346-0.8809c0.2891-0.1992,0.7295-0.3066,1.3223-0.3252l0.6523-0.0205v-0.2012
			c0-0.2422-0.0557-0.4229-0.1689-0.542c-0.1123-0.1201-0.2871-0.1797-0.5244-0.1797c-0.1934,0-0.3789,0.0283-0.5566,0.085
			c-0.1777,0.0576-0.3496,0.125-0.5137,0.2021l-0.2598-0.5742c0.2051-0.1074,0.4297-0.1885,0.6738-0.2441s0.4736-0.084,0.6904-0.084
			c0.4805,0,0.8438,0.1045,1.0889,0.3145s0.3672,0.5391,0.3672,0.9873v2.5469H54.1025z M52.9062,15.3535
			c0.292,0,0.5254-0.0811,0.7021-0.2441s0.2656-0.3916,0.2656-0.6855v-0.3281l-0.4863,0.0205
			c-0.3779,0.0137-0.6533,0.0771-0.8252,0.1895c-0.1719,0.1133-0.2578,0.2861-0.2578,0.5186c0,0.168,0.0498,0.2988,0.1504,0.3906
			C52.5557,15.3076,52.7061,15.3535,52.9062,15.3535z"/>
		<path class="st2" d="M57.7295,12.0518c0.4707,0,0.8389,0.1709,1.1016,0.5127c0.2637,0.3418,0.3945,0.8213,0.3945,1.4395
			c0,0.6191-0.1328,1.1016-0.3994,1.4473c-0.2666,0.3447-0.6367,0.5176-1.1104,0.5176c-0.4785,0-0.8506-0.1719-1.1152-0.5156
			h-0.0547l-0.1465,0.4473h-0.6016V10.582h0.8027v1.2646c0,0.0938-0.0039,0.2324-0.0137,0.417
			c-0.0088,0.1846-0.0156,0.3018-0.0195,0.3516h0.0332C56.8564,12.2402,57.2324,12.0518,57.7295,12.0518z M57.5205,12.708
			c-0.3232,0-0.5566,0.0947-0.6992,0.2852s-0.2158,0.5088-0.2207,0.9561v0.0547c0,0.46,0.0732,0.793,0.2188,0.999
			c0.1465,0.2061,0.3848,0.3096,0.7148,0.3096c0.2852,0,0.501-0.1133,0.6475-0.3379c0.1475-0.2266,0.2207-0.5518,0.2207-0.9785
			C58.4023,13.1377,58.1084,12.708,57.5205,12.708z"/>
		<path class="st2" d="M62.6982,14.8242c0,0.3691-0.1338,0.6514-0.4023,0.8486c-0.2695,0.1973-0.6543,0.2959-1.1562,0.2959
			c-0.5029,0-0.9072-0.0762-1.2129-0.2285v-0.6943c0.4443,0.2051,0.8574,0.3076,1.2402,0.3076c0.4951,0,0.7422-0.1494,0.7422-0.4473
			c0-0.0957-0.0273-0.1758-0.082-0.2402c-0.0547-0.0635-0.1445-0.1289-0.2695-0.1973c-0.126-0.0684-0.2998-0.1465-0.5234-0.2324
			c-0.4355-0.1689-0.7295-0.3379-0.8838-0.5059c-0.1533-0.1689-0.2305-0.3877-0.2305-0.6562c0-0.3242,0.1309-0.5752,0.3916-0.7539
			s0.6152-0.2686,1.0645-0.2686c0.4443,0,0.8652,0.0898,1.2617,0.2705l-0.2598,0.6045c-0.4082-0.1689-0.751-0.2529-1.0293-0.2529
			c-0.4238,0-0.6357,0.1211-0.6357,0.3623c0,0.1182,0.0557,0.2188,0.166,0.3008s0.3516,0.1943,0.7227,0.3389
			c0.3125,0.1201,0.5391,0.2305,0.6807,0.3311c0.1406,0.1006,0.2461,0.2158,0.3145,0.3467S62.6982,14.6416,62.6982,14.8242z"/>
	</g>
	<g>
		<path class="st2" d="M81.5098,15.9004h-0.8174v-4.2969h-1.4688v-0.7002h3.7559v0.7002h-1.4697V15.9004z"/>
		<path class="st2" d="M86.0254,15.9004l-0.1602-0.5264h-0.0273c-0.1826,0.2305-0.3662,0.3867-0.5508,0.4697
			s-0.4219,0.125-0.7109,0.125c-0.3711,0-0.6611-0.1006-0.8701-0.3008c-0.208-0.2002-0.3125-0.4844-0.3125-0.8516
			c0-0.3887,0.1445-0.6836,0.4346-0.8809c0.2891-0.1992,0.7295-0.3066,1.3223-0.3252l0.6523-0.0205v-0.2012
			c0-0.2422-0.0557-0.4229-0.1689-0.542c-0.1123-0.1201-0.2871-0.1797-0.5244-0.1797c-0.1934,0-0.3789,0.0283-0.5566,0.085
			c-0.1777,0.0576-0.3496,0.125-0.5137,0.2021l-0.2598-0.5742c0.2051-0.1074,0.4297-0.1885,0.6738-0.2441s0.4736-0.084,0.6904-0.084
			c0.4805,0,0.8438,0.1045,1.0889,0.3145s0.3672,0.5391,0.3672,0.9873v2.5469H86.0254z M84.8291,15.3535
			c0.292,0,0.5254-0.0811,0.7021-0.2441s0.2656-0.3916,0.2656-0.6855v-0.3281l-0.4863,0.0205
			c-0.3779,0.0137-0.6533,0.0771-0.8252,0.1895c-0.1719,0.1133-0.2578,0.2861-0.2578,0.5186c0,0.168,0.0498,0.2988,0.1504,0.3906
			C84.4785,15.3076,84.6289,15.3535,84.8291,15.3535z"/>
		<path class="st2" d="M89.6523,12.0518c0.4707,0,0.8389,0.1709,1.1016,0.5127c0.2637,0.3418,0.3945,0.8213,0.3945,1.4395
			c0,0.6191-0.1328,1.1016-0.3994,1.4473c-0.2666,0.3447-0.6367,0.5176-1.1104,0.5176c-0.4785,0-0.8506-0.1719-1.1152-0.5156
			h-0.0547l-0.1465,0.4473h-0.6016V10.582h0.8027v1.2646c0,0.0938-0.0039,0.2324-0.0137,0.417
			c-0.0088,0.1846-0.0156,0.3018-0.0195,0.3516h0.0332C88.7793,12.2402,89.1553,12.0518,89.6523,12.0518z M89.4434,12.708
			c-0.3232,0-0.5566,0.0947-0.6992,0.2852s-0.2158,0.5088-0.2207,0.9561v0.0547c0,0.46,0.0732,0.793,0.2188,0.999
			c0.1465,0.2061,0.3848,0.3096,0.7148,0.3096c0.2852,0,0.501-0.1133,0.6475-0.3379c0.1475-0.2266,0.2207-0.5518,0.2207-0.9785
			C90.3252,13.1377,90.0312,12.708,89.4434,12.708z"/>
		<path class="st2" d="M94.6211,14.8242c0,0.3691-0.1338,0.6514-0.4023,0.8486c-0.2695,0.1973-0.6543,0.2959-1.1562,0.2959
			c-0.5029,0-0.9072-0.0762-1.2129-0.2285v-0.6943c0.4443,0.2051,0.8574,0.3076,1.2402,0.3076c0.4951,0,0.7422-0.1494,0.7422-0.4473
			c0-0.0957-0.0273-0.1758-0.082-0.2402c-0.0547-0.0635-0.1445-0.1289-0.2695-0.1973c-0.126-0.0684-0.2998-0.1465-0.5234-0.2324
			c-0.4355-0.1689-0.7295-0.3379-0.8838-0.5059c-0.1533-0.1689-0.2305-0.3877-0.2305-0.6562c0-0.3242,0.1309-0.5752,0.3916-0.7539
			s0.6152-0.2686,1.0645-0.2686c0.4443,0,0.8652,0.0898,1.2617,0.2705l-0.2598,0.6045c-0.4082-0.1689-0.751-0.2529-1.0293-0.2529
			c-0.4238,0-0.6357,0.1211-0.6357,0.3623c0,0.1182,0.0557,0.2188,0.166,0.3008s0.3516,0.1943,0.7227,0.3389
			c0.3125,0.1201,0.5391,0.2305,0.6807,0.3311c0.1406,0.1006,0.2461,0.2158,0.3145,0.3467S94.6211,14.6416,94.6211,14.8242z"/>
	</g>
</g>
<g id="Layer_8">
</g>
<g >
</g>
</svg>
