<svg xmlns="http://www.w3.org/2000/svg" width="20.498" height="17.799" viewBox="0 0 20.498 17.799">
  <path id="Icon_metro-calendar" data-name="Icon metro-calendar" d="M9.4,8.6h2.733v2.225H9.4Zm4.1,0h2.733v2.225H13.5Zm4.1,0h2.733v2.225H17.6ZM5.3,15.277H8.037V17.5H5.3Zm4.1,0h2.733V17.5H9.4Zm4.1,0h2.733V17.5H13.5ZM9.4,11.94h2.733v2.225H9.4Zm4.1,0h2.733v2.225H13.5Zm4.1,0h2.733v2.225H17.6Zm-12.3,0H8.037v2.225H5.3ZM20.336,1.928V3.04H17.6V1.928H8.037V3.04H5.3V1.928H2.571v17.8h20.5V1.928H20.336ZM21.7,18.614H3.937V6.378H21.7Z" transform="translate(-2.571 -1.928)" fill="#0072c6"/>
</svg>
