<?xml version="1.0" encoding="utf-8"?>
<!-- Generator: Adobe Illustrator 25.4.1, SVG Export Plug-In . SVG Version: 6.00 Build 0)  -->
<svg version="1.1" xmlns="http://www.w3.org/2000/svg" xmlns:xlink="http://www.w3.org/1999/xlink" x="0px" y="0px"
	 viewBox="0 0 20 20" style="enable-background:new 0 0 20 20;" xml:space="preserve">
<style type="text/css">
	.st0{fill:none;stroke:#000000;stroke-miterlimit:10;}
	.st1{fill:#FFFFFF;}
	.st2{fill:#020203;}
	.st3{fill:none;}
	.st4{fill:none;stroke:#616160;stroke-miterlimit:10;}
	.st5{fill:#616160;}
	.st6{fill:none;stroke:#616160;}
	.st7{display:none;}
	.st8{display:none;opacity:0.5;}
	.st9{display:inline;opacity:0.58;}
	.st10{fill:#010202;}
	.st11{fill:#1F70B7;}
	.st12{fill:none;stroke:#FFFFFF;stroke-linecap:round;stroke-linejoin:round;}
	.st13{fill:none;stroke:#B4B0B0;stroke-width:0.5;}
	.st14{fill:#C4C4C4;}
	.st15{fill:none;stroke:#C4C4C4;stroke-width:2;}
	.st16{fill:#1D70B8;}
	.st17{fill:none;stroke:#1D70B8;stroke-width:2;}
	.st18{fill:none;stroke:#1D70B8;}
	.st19{fill:none;stroke:#1D70B8;stroke-width:3;}
	.st20{fill:#F0F0F0;}
	.st21{fill:none;stroke:#C4C4C4;}
	.st22{fill:none;stroke:#2470B7;stroke-linecap:round;stroke-linejoin:round;}
	.st23{fill:#616160;stroke:#616160;stroke-miterlimit:10;}
	.st24{fill:none;stroke:#616160;stroke-width:0.75;stroke-miterlimit:10;stroke-dasharray:1.5046,1.0031;}
	.st25{fill:#C4C4C4;stroke:#616160;stroke-width:0.75;stroke-miterlimit:10;}
	.st26{fill:#020203;stroke:#020203;stroke-width:1.5;stroke-miterlimit:10;}
	.st27{fill:none;stroke:#020203;stroke-width:1.5;stroke-miterlimit:10;}
</style>
<g id="Editabl">
</g>
<g id="Guides" class="st7">
</g>
<g  class="st8">
</g>
<g >
	<rect x="6.1074" y="7.4556" class="st5" width="7.23" height="1"/>
	<rect x="6.1074" y="9.6802" class="st5" width="4.3481" height="1"/>
	<path class="st5" d="M7.0381,16.5059v1h3.4152v-1H9.0146v-1.043h1.4387v-1.014l-6.8469-0.0162L3.6367,3.6504l12.7568,0.0303v5.121
		h1v-5.121c0-0.5679-0.4624-1.0303-1.0303-1.0303H3.6367c-0.5679,0-1.0303,0.4624-1.0303,1.0303v10.752
		c0,0.5679,0.4624,1.0303,1.0303,1.0303h4.3779v1.043H7.0381z"/>
	<path id="XMLID_00000027573515013340329520000000006850674116269972_" class="st5" d="M18.2397,11.6042
		c-0.2123,0.2121-0.4264,0.4278-0.6431,0.6408c-0.0391,0.0385-0.0452,0.0642-0.0205,0.1186
		c0.0857,0.188,0.1631,0.3799,0.2371,0.5729c0.0177,0.0461,0.0352,0.0606,0.0833,0.0602c0.2805-0.0024,0.561-0.0012,0.8415-0.0012
		c0.0257,0,0.0513,0,0.082,0c0,0.509,0,1.0143,0,1.5278c-0.0255,0-0.0506,0-0.0757,0c-0.2829,0-0.5657,0.0013-0.8486-0.0013
		c-0.0491-0.0004-0.0652,0.0159-0.0827,0.061c-0.0765,0.197-0.1575,0.3924-0.243,0.5856c-0.0193,0.0437-0.0136,0.0647,0.0174,0.0954
		c0.2029,0.2005,0.4037,0.403,0.6059,0.6043c0.0165,0.0164,0.0377,0.0282,0.0503,0.0373c-0.3657,0.3657-0.7218,0.7218-1.0837,1.0838
		c-0.008-0.0076-0.0264-0.0244-0.044-0.0421c-0.2018-0.2016-0.4044-0.4024-0.6044-0.6058
		c-0.0342-0.0348-0.0571-0.0352-0.1017-0.0154c-0.1889,0.0838-0.38,0.1629-0.5726,0.2376
		c-0.0487,0.0189-0.0693,0.0362-0.0687,0.0918c0.0032,0.304,0.0015,0.608,0.0015,0.9177c-0.5077,0-1.0129,0-1.5275,0
		c0-0.0235,0-0.0484,0-0.0734c0-0.2735-0.0029-0.547,0.002-0.8204c0.0013-0.0708-0.0192-0.0969-0.0867-0.1217
		c-0.1894-0.0696-0.3748-0.1506-0.5593-0.2328c-0.0419-0.0187-0.0638-0.0176-0.0956,0.0147
		c-0.2168,0.2198-0.4356,0.4376-0.6475,0.6497c-0.3594-0.3597-0.7165-0.7171-1.08-1.081c0.0276-0.0265,0.0653-0.0615,0.1016-0.0978
		c0.1835-0.1832,0.3663-0.3672,0.5506-0.5496c0.0287-0.0284,0.0347-0.0489,0.0167-0.09c-0.0862-0.1956-0.1688-0.3928-0.2465-0.5919
		c-0.0169-0.0433-0.0335-0.0572-0.0783-0.0569c-0.2828,0.0019-0.5657,0.001-0.8486,0.001c-0.0253,0-0.0507,0-0.0797,0
		c0-0.5099,0-1.0135,0-1.5278c0.024,0,0.0488,0,0.0735,0c0.2852,0,0.5704-0.001,0.8556,0.001
		c0.0456,0.0003,0.0609-0.0153,0.0775-0.0578c0.0777-0.199,0.1598-0.3965,0.2461-0.5919c0.0183-0.0415,0.0116-0.0614-0.0168-0.0896
		c-0.2125-0.2109-0.4238-0.423-0.6354-0.6347c-0.0066-0.0066-0.0127-0.0138-0.0118-0.0129
		c0.3581-0.3581,0.7152-0.7153,1.0761-1.0763c0.0061,0.0057,0.0251,0.0225,0.043,0.0404c0.2018,0.2016,0.4038,0.403,0.6047,0.6055
		c0.0275,0.0277,0.0473,0.0373,0.0895,0.0186c0.1977-0.0872,0.3972-0.1702,0.5985-0.2488c0.0422-0.0165,0.0517-0.0349,0.0515-0.075
		c-0.0013-0.2829-0.0007-0.5658-0.0007-0.8487c0-0.0255,0-0.0511,0-0.0808c0.5103,0,1.0154,0,1.5275,0c0,0.0277,0,0.053,0,0.0783
		c0,0.2805,0.0011,0.5611-0.001,0.8416c-0.0004,0.0494,0.0129,0.0696,0.0627,0.0887c0.1973,0.0755,0.3922,0.1577,0.5856,0.2429
		c0.0402,0.0177,0.0607,0.0148,0.0899-0.0147c0.2006-0.2028,0.4028-0.404,0.6046-0.6056c0.018-0.018,0.0368-0.0353,0.0505-0.0483
		C17.521,10.8859,17.8772,11.2419,18.2397,11.6042z M15.0101,12.2317c-0.8388-0.0016-1.5282,0.6827-1.5313,1.5201
		c-0.0031,0.8421,0.6828,1.5334,1.5234,1.5353c0.8409,0.0019,1.5314-0.6867,1.5315-1.5274
		C16.5339,12.9215,15.8477,12.2333,15.0101,12.2317z"/>
</g>
</svg>
