<?xml version="1.0" encoding="utf-8"?>
<!-- Generator: Adobe Adobe Illustrator 24.2.0, SVG Export Plug-In . SVG Version: 6.00 Build 0)  -->
<svg version="1.1" xmlns="http://www.w3.org/2000/svg" xmlns:xlink="http://www.w3.org/1999/xlink" x="0px" y="0px"
	 viewBox="0 0 26 26" style="enable-background:new 0 0 26 26;" xml:space="preserve">
<style type="text/css">
	.st0{fill:#FFFFFF;}
	.st1{fill:none;stroke:#000000;stroke-width:1.68;stroke-linejoin:round;stroke-miterlimit:10;}
	.st2{stroke:#000000;stroke-width:1.68;stroke-linecap:square;stroke-miterlimit:10;}
	.st3{fill:none;stroke:#000000;stroke-width:1.68;stroke-miterlimit:10;}
	.st4{opacity:0.6314;}
	.st5{opacity:0.9804;}
	.st6{fill:none;stroke:#000000;stroke-width:1.68;stroke-linecap:square;stroke-miterlimit:10;}
</style>
<g >
</g>
<g id="Icons">
	<path d="M21.85,20.91l-1.2-1.46c-0.13-0.16-0.02-0.41,0.19-0.41h2.4c0.21,0,0.33,0.25,0.19,0.41l-1.2,1.46
		C22.14,21.03,21.95,21.03,21.85,20.91z"/>
	<path d="M21.85,5.01l-1.2,1.46c-0.13,0.16-0.02,0.41,0.19,0.41h2.4c0.21,0,0.33-0.25,0.19-0.41l-1.2-1.46
		C22.14,4.89,21.95,4.89,21.85,5.01z"/>
</g>
<g id="Layer_9">
</g>
<g >
</g>
<g id="Layer_5">
	<path d="M24.32,4.32v17.36H1.68V4.32H24.32 M25,2.64H1c-0.55,0-1,0.45-1,1v18.72c0,0.55,0.45,1,1,1h24c0.55,0,1-0.45,1-1V3.64
		C26,3.09,25.55,2.64,25,2.64L25,2.64z"/>
	<rect x="18.09" y="3.51" width="1.68" height="18.99"/>
	<path d="M21.56,18L21.54,8c0-0.14,0.11-0.25,0.25-0.25l0.49,0c0.14,0,0.25,0.11,0.25,0.25L22.54,18c0,0.14-0.11,0.25-0.25,0.25
		l-0.49,0C21.67,18.25,21.56,18.14,21.56,18z"/>
</g>
<g id="Layer_6">
</g>
</svg>
