<?xml version="1.0" encoding="utf-8"?>
<!-- Generator: Adobe Adobe Illustrator 24.2.0, SVG Export Plug-In . SVG Version: 6.00 Build 0)  -->
<svg version="1.1" xmlns="http://www.w3.org/2000/svg" xmlns:xlink="http://www.w3.org/1999/xlink" x="0px" y="0px"
	 viewBox="0 0 26 26" style="enable-background:new 0 0 26 26;" xml:space="preserve">
<style type="text/css">
	.st0{fill:#FFFFFF;}
	.st1{fill:none;stroke:#000000;stroke-width:1.68;stroke-linejoin:round;stroke-miterlimit:10;}
	.st2{stroke:#000000;stroke-width:1.68;stroke-linecap:square;stroke-miterlimit:10;}
	.st3{fill:none;stroke:#000000;stroke-width:1.68;stroke-miterlimit:10;}
	.st4{opacity:0.6314;}
	.st5{opacity:0.9804;}
	.st6{fill:none;stroke:#000000;stroke-width:1.68;stroke-linecap:square;stroke-miterlimit:10;}
</style>
<g >
</g>
<g id="Icons">
	<path d="M0.08,13.3l2.41,1.98c0.16,0.13,0.41,0.02,0.41-0.19v-3.97c0-0.21-0.25-0.33-0.41-0.19l-2.41,1.98
		C-0.04,13.02-0.04,13.2,0.08,13.3z"/>
	<path d="M25.91,13.3l-2.41,1.98c-0.16,0.13-0.41,0.02-0.41-0.19v-3.97c0-0.21,0.25-0.33,0.41-0.19l2.41,1.98
		C26.03,13.02,26.03,13.2,25.91,13.3z"/>
</g>
<g id="Layer_9">
</g>
<g >
</g>
<g id="Layer_5">
	<path d="M20.39,7.45v11.09H5.61V7.45H20.39 M21.07,5.77H4.93c-0.55,0-1,0.45-1,1v12.45c0,0.55,0.45,1,1,1h16.14c0.55,0,1-0.45,1-1
		V6.77C22.07,6.22,21.62,5.77,21.07,5.77L21.07,5.77z"/>
	<g>
		<path d="M17.45,8.77c-0.83,0-1.5,0.67-1.5,1.5c0,0.83,0.67,1.5,1.5,1.5c0.83,0,1.5-0.67,1.5-1.5C18.95,9.44,18.28,8.77,17.45,8.77
			L17.45,8.77z"/>
	</g>
	<g>
		<polygon points="7.13,18.26 11.7,13.68 16.28,18.26 		"/>
		<path d="M11.7,14.93l2.44,2.44H9.27L11.7,14.93 M11.7,12.52c-0.06,0-0.13,0.02-0.18,0.07l-6.54,6.55h13.43l-6.54-6.55
			C11.83,12.55,11.77,12.52,11.7,12.52L11.7,12.52z"/>
	</g>
	<g>
		<polygon points="12.62,18.43 15.99,15.05 19.36,18.43 		"/>
		<path d="M15.99,15.98l1.79,1.8H14.2L15.99,15.98 M15.99,14.23c-0.06,0-0.13,0.02-0.18,0.07l-4.76,4.78h9.88l-4.76-4.78
			C16.12,14.26,16.05,14.23,15.99,14.23L15.99,14.23z"/>
	</g>
	<g>
		<g>
			<path d="M9.45,21.36c-0.55,0-1,0.45-1,1s0.45,1,1,1c0.55,0,1-0.45,1-1S10,21.36,9.45,21.36L9.45,21.36z"/>
		</g>
		<g>
			<path d="M16.55,21.36c-0.55,0-1,0.45-1,1s0.45,1,1,1c0.55,0,1-0.45,1-1S17.1,21.36,16.55,21.36L16.55,21.36z"/>
		</g>
		<g>
			<path d="M13,21.36c-0.55,0-1,0.45-1,1s0.45,1,1,1s1-0.45,1-1S13.55,21.36,13,21.36L13,21.36z"/>
		</g>
	</g>
</g>
<g id="Layer_6">
</g>
</svg>
