<?xml version="1.0" encoding="utf-8"?>
<!-- Generator: Adobe Adobe Illustrator 24.2.0, SVG Export Plug-In . SVG Version: 6.00 Build 0)  -->
<svg version="1.1" xmlns="http://www.w3.org/2000/svg" xmlns:xlink="http://www.w3.org/1999/xlink" x="0px" y="0px"
	 viewBox="0 0 26 26" style="enable-background:new 0 0 26 26;" xml:space="preserve">
<style type="text/css">
	.st0{fill:#FFFFFF;}
</style>
<g >
</g>
<g id="Icons">
</g>
<g id="Layer_9">
</g>
<g >
	<g id="XMLID_1001_">
		<path id="XMLID_1003_" d="M24.38,2.64H1.62C0.73,2.64,0,3.37,0,4.27v17.47c0,0.9,0.73,1.62,1.62,1.62h22.75
			c0.9,0,1.62-0.73,1.62-1.62V4.27C26,3.37,25.27,2.64,24.38,2.64z M24.32,21.73l-6.9-6.89c-0.1-0.1-0.26-0.1-0.35,0l-1.59,1.59
			l-4.06-4.06c-0.1-0.1-0.26-0.1-0.35,0L1.7,21.73H1.62V4.27h22.75l0,17.47H24.32z"/>
		<circle id="XMLID_1002_" cx="20.01" cy="9.71" r="1.78"/>
	</g>
</g>
</svg>
