<?xml version="1.0" encoding="utf-8"?>
<!-- Generator: Adobe Illustrator 25.4.0, SVG Export Plug-In . SVG Version: 6.00 Build 0)  -->
<svg version="1.1" xmlns="http://www.w3.org/2000/svg" xmlns:xlink="http://www.w3.org/1999/xlink" x="0px" y="0px"
	 viewBox="0 0 16 16" style="enable-background:new 0 0 16 16;" xml:space="preserve">
<style type="text/css">
	.st0{fill:none;stroke:#000000;stroke-miterlimit:10;}
	.st1{fill-rule:evenodd;clip-rule:evenodd;fill:#0D6F08;}
	.st2{fill:#FFFFFF;}
	.st3{fill:#0072C6;}
	.st4{fill-rule:evenodd;clip-rule:evenodd;fill:#AD6503;}
	.st5{fill-rule:evenodd;clip-rule:evenodd;fill:#D53D3D;}
	.st6{fill-rule:evenodd;clip-rule:evenodd;fill:#5C5C5C;}
	.st7{fill:#D53D3D;}
	.st8{fill:#AD6503;}
	.st9{fill:#FFFFFF;stroke:#C4C4C4;stroke-miterlimit:10;}
	.st10{fill:none;}
	.st11{fill:none;stroke:#D3D3D3;}
	.st12{fill:none;stroke:#C4C4C4;stroke-width:0.9;stroke-miterlimit:10;}
	.st13{fill:#D3D3D3;}
	.st14{opacity:0.6;fill:#D3D3D3;}
	.st15{fill:none;stroke:#C4C4C4;stroke-miterlimit:10;}
	.st16{fill:#C4C4C4;}
</style>
<g >
</g>
<g >
</g>
<g >
	<path class="st2" d="M8,0C3.5817,0,0,3.5817,0,8s3.5817,8,8,8s8-3.5817,8-8S12.4182,0,8,0z M8.7547,12.2494
		c0,0.1384-0.1119,0.2506-0.25,0.2506h-1c-0.1381,0-0.25-0.1122-0.25-0.2506V7.2362c0-0.1384,0.1119-0.2507,0.25-0.2507h1
		c0.1381,0,0.25,0.1122,0.25,0.2507V12.2494z M8,5.5053c-0.5522,0-1-0.4489-1-1.0027C7,3.9489,7.4477,3.5,8,3.5
		c0.5523,0,1,0.4489,1,1.0026C9,5.0564,8.5523,5.5053,8,5.5053z"/>
</g>
<g >
</g>
</svg>
