<svg xmlns="http://www.w3.org/2000/svg" width="16" height="16" viewBox="0 0 16 16">
  <path id="Icon_awesome-paint-brush" data-name="Icon awesome-paint-brush" d="M5.219,9.667a3.163,3.163,0,0,0-3.037,2.259.477.477,0,0,1-.456.312c-.347,0-1.421-.865-1.727-1.073C0,13.738,1.185,16,4,16c2.371,0,4-1.368,4-3.756a2.708,2.708,0,0,0-.03-.285ZM14.309,0a1.908,1.908,0,0,0-1.257.514C6.664,6.22,6,6.354,6,8.034a2.893,2.893,0,0,0,.273,1.209l1.994,1.662a2.875,2.875,0,0,0,.7.095c1.941,0,3.066-1.421,6.6-8.014A3.215,3.215,0,0,0,16,1.548,1.627,1.627,0,0,0,14.309,0Z" transform="translate(0.001)" fill="#1072c6"/>
</svg>
