<?xml version="1.0" encoding="utf-8"?>
<!-- Generator: Adobe Adobe Illustrator 24.2.0, SVG Export Plug-In . SVG Version: 6.00 Build 0)  -->
<svg version="1.1" xmlns="http://www.w3.org/2000/svg" xmlns:xlink="http://www.w3.org/1999/xlink" x="0px" y="0px"
	 viewBox="0 0 26 26" style="enable-background:new 0 0 26 26;" xml:space="preserve">
<style type="text/css">
	.st0{stroke:#000000;stroke-width:0.3237;stroke-miterlimit:10;}
</style>
<g >
</g>
<g id="Icons">
	<g id="XMLID_240_">
		<path id="XMLID_241_" d="M10.2,8.9h10.6c0.2,0,0.4-0.2,0.4-0.4V7.7c0-0.2-0.2-0.4-0.4-0.4H10.2c-0.2,0-0.4,0.2-0.4,0.4v0.8
			C9.8,8.8,9.9,8.9,10.2,8.9z"/>
		<path id="XMLID_251_" d="M10.2,13.8h10.6c0.2,0,0.4-0.2,0.4-0.4v-0.8c0-0.2-0.2-0.4-0.4-0.4H10.2c-0.2,0-0.4,0.2-0.4,0.4v0.8
			C9.8,13.6,9.9,13.8,10.2,13.8z"/>
		<path id="XMLID_252_" d="M10.2,18.7h10.6c0.2,0,0.4-0.2,0.4-0.4v-0.8c0-0.2-0.2-0.4-0.4-0.4H10.2c-0.2,0-0.4,0.2-0.4,0.4v0.8
			C9.8,18.5,9.9,18.7,10.2,18.7z"/>
		<path id="XMLID_256_" d="M3.7,8.9h3.2c0.2,0,0.4-0.2,0.4-0.4V7.7c0-0.2-0.2-0.4-0.4-0.4H3.7c-0.2,0-0.4,0.2-0.4,0.4v0.8
			C3.2,8.8,3.4,8.9,3.7,8.9z"/>
		<path id="XMLID_257_" d="M3.7,13.8h3.2c0.2,0,0.4-0.2,0.4-0.4v-0.8c0-0.2-0.2-0.4-0.4-0.4H3.7c-0.2,0-0.4,0.2-0.4,0.4v0.8
			C3.2,13.6,3.4,13.8,3.7,13.8z"/>
		<path id="XMLID_258_" d="M3.7,18.7h3.2c0.2,0,0.4-0.2,0.4-0.4v-0.8c0-0.2-0.2-0.4-0.4-0.4H3.7c-0.2,0-0.4,0.2-0.4,0.4v0.8
			C3.2,18.5,3.4,18.7,3.7,18.7z"/>
		<path id="XMLID_261_" d="M24.4,0H1.6C0.7,0,0,0.7,0,1.6v22.8C0,25.3,0.7,26,1.6,26h22.8c0.9,0,1.6-0.7,1.6-1.6V1.6
			C26,0.7,25.3,0,24.4,0z M24.4,24.4H1.6V1.6h22.8V24.4z"/>
	</g>
</g>
</svg>
