<svg width="16" height="16" viewBox="0 0 16 16" fill="none" xmlns="http://www.w3.org/2000/svg">
<g id="Ellipsis_Vertical" clip-path="url(#clip0_178_2205)">
<g id="Icons">
<g id="Layer_1_00000095320210849726783320000007563733586585985426_">
<g id="More_00000019647002895582604320000013444472063139342997_">
<g id="Group_60238_00000096739193552673294380000015197411257589574327_">
<g id="Group_60237_00000042016977773083849770000009188205479354701442_">
<g id="Ellipse_3192_00000062193130746185053490000008737610785455567770_">
<path id="Ellipse 785" d="M6.75 2.573C6.75 3.26335 7.30964 3.823 8 3.823C8.69036 3.823 9.25 3.26335 9.25 2.573C9.25 1.88264 8.69036 1.323 8 1.323C7.30964 1.323 6.75 1.88264 6.75 2.573Z" fill="#606060"/>
<path id="Path 6134" d="M8.00195 3.94397C7.73 3.94397 7.46415 3.86331 7.23804 3.71222C7.01192 3.56113 6.83564 3.3464 6.73157 3.09515C6.6275 2.84391 6.60027 2.56744 6.65332 2.30072C6.70637 2.034 6.83737 1.78898 7.02966 1.59668C7.22196 1.40438 7.46698 1.27345 7.7337 1.2204C8.00043 1.16734 8.27689 1.19454 8.52814 1.29861C8.77939 1.40269 8.99412 1.57894 9.1452 1.80505C9.29629 2.03117 9.37695 2.29702 9.37695 2.56897C9.37642 2.93348 9.23138 3.2829 8.97363 3.54065C8.71588 3.7984 8.36646 3.94344 8.00195 3.94397ZM8.00195 1.44397C7.77945 1.44397 7.5619 1.50996 7.37689 1.63358C7.19189 1.75719 7.04773 1.93289 6.96259 2.13846C6.87744 2.34403 6.85515 2.57022 6.89856 2.78845C6.94197 3.00668 7.04909 3.20714 7.20642 3.36447C7.36375 3.52181 7.56424 3.62892 7.78247 3.67233C8.0007 3.71574 8.22687 3.69349 8.43243 3.60834C8.638 3.52319 8.8137 3.37897 8.93732 3.19397C9.06093 3.00896 9.12695 2.79147 9.12695 2.56897C9.12642 2.27076 9.00768 1.98491 8.79681 1.77405C8.58595 1.56318 8.30016 1.4445 8.00195 1.44397Z" fill="#606060"/>
</g>
</g>
</g>
<g id="Group_60240_00000049203428321296103750000012708705664817830812_">
<g id="Group_60239_00000023246668004532639310000001458649030195316385_">
<g id="Ellipse_3193_00000016770073839616709800000015139781947343427980_">
<path id="Ellipse 786" d="M6.75 7.96899C6.75 8.65935 7.30964 9.21899 8 9.21899C8.69036 9.21899 9.25 8.65935 9.25 7.96899C9.25 7.27864 8.69036 6.71899 8 6.71899C7.30964 6.71899 6.75 7.27864 6.75 7.96899Z" fill="#606060"/>
<path id="Path 6135" d="M8.00195 9.34399C7.73 9.34399 7.46415 9.26335 7.23804 9.11227C7.01192 8.96118 6.83564 8.74642 6.73157 8.49517C6.6275 8.24392 6.60027 7.96746 6.65332 7.70074C6.70637 7.43401 6.83737 7.18902 7.02966 6.99673C7.22196 6.80443 7.46698 6.67347 7.7337 6.62041C8.00043 6.56736 8.27689 6.59459 8.52814 6.69866C8.77939 6.80273 8.99412 6.97895 9.1452 7.20507C9.29629 7.43119 9.37695 7.69704 9.37695 7.96899C9.37642 8.3335 9.23138 8.68292 8.97363 8.94067C8.71588 9.19841 8.36646 9.34346 8.00195 9.34399ZM8.00195 6.84399C7.77945 6.84399 7.5619 6.90998 7.37689 7.03359C7.19189 7.15721 7.04773 7.33291 6.96259 7.53847C6.87744 7.74404 6.85515 7.97024 6.89856 8.18847C6.94197 8.4067 7.04909 8.60715 7.20642 8.76449C7.36375 8.92182 7.56424 9.02897 7.78247 9.07238C8.0007 9.11579 8.22687 9.0935 8.43243 9.00835C8.638 8.92321 8.8137 8.77902 8.93732 8.59402C9.06093 8.40901 9.12695 8.19149 9.12695 7.96899C9.12642 7.67078 9.00768 7.38493 8.79681 7.17406C8.58595 6.9632 8.30016 6.84452 8.00195 6.84399Z" fill="#606060"/>
</g>
</g>
</g>
<g id="Group_60242_00000139275482463941145590000014175924442890418305_">
<g id="Group_60241_00000018215212674131042300000010764839323260497058_">
<g id="Ellipse_3194_00000124843470366952769220000014252983699627540136_">
<path id="Ellipse 787" d="M6.75 13.427C6.75 14.1174 7.30964 14.677 8 14.677C8.69036 14.677 9.25 14.1174 9.25 13.427C9.25 12.7366 8.69036 12.177 8 12.177C7.30964 12.177 6.75 12.7366 6.75 13.427Z" fill="#606060"/>
<path id="Path 6136" d="M8.00195 14.802C7.73 14.802 7.46415 14.7213 7.23804 14.5702C7.01192 14.4191 6.83564 14.2044 6.73157 13.9531C6.6275 13.7019 6.60027 13.4254 6.65332 13.1587C6.70637 12.892 6.83737 12.647 7.02966 12.4547C7.22196 12.2624 7.46698 12.1314 7.7337 12.0784C8.00043 12.0253 8.27689 12.0525 8.52814 12.1566C8.77939 12.2607 8.99412 12.4369 9.1452 12.663C9.29629 12.8892 9.37695 13.155 9.37695 13.427C9.37642 13.7915 9.23138 14.1409 8.97363 14.3986C8.71588 14.6564 8.36646 14.8014 8.00195 14.802ZM8.00195 12.302C7.77945 12.302 7.5619 12.3679 7.37689 12.4915C7.19189 12.6152 7.04773 12.7909 6.96259 12.9965C6.87744 13.202 6.85515 13.4282 6.89856 13.6464C6.94197 13.8647 7.04909 14.0651 7.20642 14.2225C7.36375 14.3798 7.56424 14.4869 7.78247 14.5303C8.0007 14.5737 8.22687 14.5515 8.43243 14.4663C8.638 14.3812 8.8137 14.237 8.93732 14.052C9.06093 13.867 9.12695 13.6495 9.12695 13.427C9.12642 13.1288 9.00768 12.8429 8.79681 12.632C8.58595 12.4212 8.30016 12.3025 8.00195 12.302Z" fill="#606060"/>
</g>
</g>
</g>
</g>
</g>
</g>
</g>
<defs>
<clipPath id="clip0_178_2205">
<rect width="16" height="16" fill="white"/>
</clipPath>
</defs>
</svg>
