<?xml version="1.0" encoding="utf-8"?>
<!-- Generator: Adobe Adobe Illustrator 24.2.0, SVG Export Plug-In . SVG Version: 6.00 Build 0)  -->
<svg version="1.1" xmlns="http://www.w3.org/2000/svg" xmlns:xlink="http://www.w3.org/1999/xlink" x="0px" y="0px"
	 viewBox="0 0 26 26" style="enable-background:new 0 0 26 26;" xml:space="preserve">
<style type="text/css">
	.st0{stroke:#000000;stroke-width:0.3237;stroke-miterlimit:10;}
</style>
<g >
</g>
<g id="Icons">
	<g id="XMLID_31_">
		<path id="XMLID_75_" d="M24.4,0H1.6C0.7,0,0,0.7,0,1.6v22.8C0,25.3,0.7,26,1.6,26h22.8c0.9,0,1.6-0.7,1.6-1.6V1.6
			C26,0.7,25.3,0,24.4,0z M24.4,24.4H1.6V1.6h22.8V24.4z"/>
		<path id="XMLID_82_" d="M6.1,8.9h14.6c0.2,0,0.4-0.2,0.4-0.4V7.7c0-0.2-0.2-0.4-0.4-0.4H6.1c-0.2,0-0.4,0.2-0.4,0.4v0.8
			C5.7,8.8,5.9,8.9,6.1,8.9z"/>
		<path id="XMLID_83_" d="M6.1,13.8h14.6c0.2,0,0.4-0.2,0.4-0.4v-0.8c0-0.2-0.2-0.4-0.4-0.4H6.1c-0.2,0-0.4,0.2-0.4,0.4v0.8
			C5.7,13.6,5.9,13.8,6.1,13.8z"/>
		<path id="XMLID_84_" d="M6.1,18.7h12.2c0.2,0,0.4-0.2,0.4-0.4v-0.8c0-0.2-0.2-0.4-0.4-0.4H6.1c-0.2,0-0.4,0.2-0.4,0.4v0.8
			C5.7,18.5,5.9,18.7,6.1,18.7z"/>
	</g>
</g>
</svg>
