<svg width="16" height="15" viewBox="0 0 16 15" fill="none" xmlns="http://www.w3.org/2000/svg">
<path fill-rule="evenodd" clip-rule="evenodd" d="M13.118 2.37744C12.8587 2.1116 12.5225 1.96791 12.1652 1.96791H11.5837C11.5556 1.50091 11.1703 1.12012 10.7079 1.12012H7.73036C7.26797 1.12012 6.88264 1.50091 6.85461 1.96791H6.26611C5.52348 1.96791 4.92096 2.58579 4.92096 3.35455V5.01422H3.17647C2.41982 5.01422 1.8103 5.63928 1.8103 6.41523V12.4791C1.8103 13.2479 2.41982 13.8801 3.17647 13.8801H7.77941C7.83545 13.8801 7.8915 13.8657 7.96156 13.8586H12.1652C12.9078 13.8586 13.5103 13.2407 13.5103 12.4719V3.35455C13.5103 2.98095 13.3702 2.63609 13.118 2.37744ZM8.09467 12.4791C8.09467 12.6228 7.99659 12.7449 7.87048 12.7809H6.98072L6.88964 12.8024H3.17647C3.00132 12.8024 2.8612 12.6515 2.8612 12.4791V6.41523C2.8612 6.23561 3.00132 6.09192 3.17647 6.09192H7.7794C7.95455 6.09192 8.09467 6.23561 8.09467 6.41523V12.4791ZM12.4594 12.4719C12.4594 12.6444 12.3263 12.7809 12.1652 12.7809H9.11054C9.13156 12.6731 9.14557 12.5725 9.14557 12.4791V6.41523C9.14557 5.63928 8.53605 5.01422 7.7794 5.01422H5.97186V3.35455C5.97186 3.18212 6.09797 3.04561 6.26611 3.04561H7.00174C7.16288 3.31145 7.43611 3.46951 7.73036 3.46951H10.7079C11.0022 3.46951 11.2684 3.31145 11.4365 3.04561H12.1652C12.3263 3.04561 12.4594 3.18212 12.4594 3.35455V12.4719Z" fill="#F0F0F0"/>
</svg>
