<svg width="67" height="26" viewBox="0 0 67 26" fill="none" xmlns="http://www.w3.org/2000/svg">
<g clip-path="url(#clip0_1823_16036)">
<path d="M1.51953 6.76953L0.113281 4.63281H1.46484L2.3125 6.02344L3.16797 4.63281H4.51953L3.09766 6.76953L4.58594 9H3.23047L2.3125 7.50391L1.39062 9H0.0390625L1.51953 6.76953ZM6.14453 6.76953L4.73828 4.63281H6.08984L6.9375 6.02344L7.79297 4.63281H9.14453L7.72266 6.76953L9.21094 9H7.85547L6.9375 7.50391L6.01562 9H4.66406L6.14453 6.76953ZM10.7695 6.76953L9.36328 4.63281H10.7148L11.5625 6.02344L12.418 4.63281H13.7695L12.3477 6.76953L13.8359 9H12.4805L11.5625 7.50391L10.6406 9H9.28906L10.7695 6.76953ZM15.3945 6.76953L13.9883 4.63281H15.3398L16.1875 6.02344L17.043 4.63281H18.3945L16.9727 6.76953L18.4609 9H17.1055L16.1875 7.50391L15.2656 9H13.9141L15.3945 6.76953Z" fill="#7C7C7C"/>
<path fill-rule="evenodd" clip-rule="evenodd" d="M0 24.9805H67H0Z" stroke="#ACACAC"/>
<path fill-rule="evenodd" clip-rule="evenodd" d="M58.5 20.3907C58.7761 20.3907 59 20.1625 59 19.8809C59 19.5993 58.7761 19.3711 58.5 19.3711C58.2239 19.3711 58 19.5993 58 19.8809C58 20.1625 58.2239 20.3907 58.5 20.3907Z" fill="#606060"/>
<path fill-rule="evenodd" clip-rule="evenodd" d="M61.5 20.3907C61.7761 20.3907 62 20.1625 62 19.8809C62 19.5993 61.7761 19.3711 61.5 19.3711C61.2239 19.3711 61 19.5993 61 19.8809C61 20.1625 61.2239 20.3907 61.5 20.3907Z" fill="#606060"/>
<path fill-rule="evenodd" clip-rule="evenodd" d="M64.5 20.3907C64.7761 20.3907 65 20.1625 65 19.8809C65 19.5993 64.7761 19.3711 64.5 19.3711C64.2239 19.3711 64 19.5993 64 19.8809C64 20.1625 64.2239 20.3907 64.5 20.3907Z" fill="#606060"/>
</g>
<defs>
<clipPath id="clip0_1823_16036">
<rect width="67" height="26" fill="white"/>
</clipPath>
</defs>
</svg>
