<?xml version="1.0" encoding="utf-8"?>
<!-- Generator: Adobe Adobe Illustrator 24.2.0, SVG Export Plug-In . SVG Version: 6.00 Build 0)  -->
<svg version="1.1" xmlns="http://www.w3.org/2000/svg" xmlns:xlink="http://www.w3.org/1999/xlink" x="0px" y="0px"
	 viewBox="0 0 26 26" style="enable-background:new 0 0 26 26;" xml:space="preserve">
<style type="text/css">
	.st0{fill:#FFFFFF;}
</style>
<g >
</g>
<g id="Icons">
	<g id="XMLID_548_">
		<path id="XMLID_551_" d="M25,0H1C0.45,0,0,0.45,0,1v5.09v1.62v4.47v1.62v4.47v1.62V25c0,0.55,0.45,1,1,1h14.82c0.55,0,1-0.45,1-1
			v-5.09v-1.62v-4.47v-1.62V7.72H25c0.55,0,1-0.45,1-1V1C26,0.45,25.55,0,25,0z M15.2,24.38H1.63v-4.47H15.2V24.38z M15.2,18.28
			H1.63v-4.47H15.2V18.28z M15.2,12.19H1.63V7.72H15.2V12.19z M24.38,6.09h-7.55H1.63V1.63h22.75V6.09z"/>
		<circle id="XMLID_567_" cx="22.69" cy="3.86" r="0.89"/>
		<circle id="XMLID_568_" cx="20.39" cy="3.86" r="0.89"/>
		<circle id="XMLID_569_" cx="18.05" cy="3.86" r="0.89"/>
	</g>
</g>
<g id="Layer_9">
</g>
<g >
</g>
</svg>
