<svg width="67" height="26" viewBox="0 0 67 26" fill="none" xmlns="http://www.w3.org/2000/svg">
<path d="M0.5 13C0.5 12.1716 1.17157 11.5 2 11.5H65C65.8284 11.5 66.5 12.1716 66.5 13V24C66.5 24.8284 65.8284 25.5 65 25.5H2C1.17157 25.5 0.5 24.8284 0.5 24V13Z" fill="white" stroke="#ACACAC"/>
<path fill-rule="evenodd" clip-rule="evenodd" d="M5 7H30V17H5V7Z" fill="white"/>
<path d="M10.5195 11.7695L9.11328 9.63281H10.4648L11.3125 11.0234L12.168 9.63281H13.5195L12.0977 11.7695L13.5859 14H12.2305L11.3125 12.5039L10.3906 14H9.03906L10.5195 11.7695ZM15.1445 11.7695L13.7383 9.63281H15.0898L15.9375 11.0234L16.793 9.63281H18.1445L16.7227 11.7695L18.2109 14H16.8555L15.9375 12.5039L15.0156 14H13.6641L15.1445 11.7695ZM19.7695 11.7695L18.3633 9.63281H19.7148L20.5625 11.0234L21.418 9.63281H22.7695L21.3477 11.7695L22.8359 14H21.4805L20.5625 12.5039L19.6406 14H18.2891L19.7695 11.7695ZM24.3945 11.7695L22.9883 9.63281H24.3398L25.1875 11.0234L26.043 9.63281H27.3945L25.9727 11.7695L27.4609 14H26.1055L25.1875 12.5039L24.2656 14H22.9141L24.3945 11.7695Z" fill="#7C7C7C"/>
<path fill-rule="evenodd" clip-rule="evenodd" d="M55.5 19C55.7761 19 56 18.7761 56 18.5C56 18.2239 55.7761 18 55.5 18C55.2239 18 55 18.2239 55 18.5C55 18.7761 55.2239 19 55.5 19Z" fill="#606060"/>
<path fill-rule="evenodd" clip-rule="evenodd" d="M58.5 19C58.7761 19 59 18.7761 59 18.5C59 18.2239 58.7761 18 58.5 18C58.2239 18 58 18.2239 58 18.5C58 18.7761 58.2239 19 58.5 19Z" fill="#606060"/>
<path fill-rule="evenodd" clip-rule="evenodd" d="M61.5 19C61.7761 19 62 18.7761 62 18.5C62 18.2239 61.7761 18 61.5 18C61.2239 18 61 18.2239 61 18.5C61 18.7761 61.2239 19 61.5 19Z" fill="#606060"/>
</svg>
