<svg width="67" height="26" viewBox="0 0 67 26" fill="none" xmlns="http://www.w3.org/2000/svg">
<path d="M0.5 15C0.5 14.1716 1.17157 13.5 2 13.5H65C65.8284 13.5 66.5 14.1716 66.5 15V24C66.5 24.8284 65.8284 25.5 65 25.5H2C1.17157 25.5 0.5 24.8284 0.5 24V15Z" fill="white" stroke="#ACACAC"/>
<path d="M1.51953 6.76953L0.113281 4.63281H1.46484L2.3125 6.02344L3.16797 4.63281H4.51953L3.09766 6.76953L4.58594 9H3.23047L2.3125 7.50391L1.39062 9H0.0390625L1.51953 6.76953ZM6.14453 6.76953L4.73828 4.63281H6.08984L6.9375 6.02344L7.79297 4.63281H9.14453L7.72266 6.76953L9.21094 9H7.85547L6.9375 7.50391L6.01562 9H4.66406L6.14453 6.76953ZM10.7695 6.76953L9.36328 4.63281H10.7148L11.5625 6.02344L12.418 4.63281H13.7695L12.3477 6.76953L13.8359 9H12.4805L11.5625 7.50391L10.6406 9H9.28906L10.7695 6.76953ZM15.3945 6.76953L13.9883 4.63281H15.3398L16.1875 6.02344L17.043 4.63281H18.3945L16.9727 6.76953L18.4609 9H17.1055L16.1875 7.50391L15.2656 9H13.9141L15.3945 6.76953Z" fill="#7C7C7C"/>
<path fill-rule="evenodd" clip-rule="evenodd" d="M52.5 13.5V25.5V13.5Z" stroke="#ACACAC"/>
<path fill-rule="evenodd" clip-rule="evenodd" d="M56.5 20C56.7761 20 57 19.7761 57 19.5C57 19.2239 56.7761 19 56.5 19C56.2239 19 56 19.2239 56 19.5C56 19.7761 56.2239 20 56.5 20Z" fill="#606060"/>
<path fill-rule="evenodd" clip-rule="evenodd" d="M59.5 20C59.7761 20 60 19.7761 60 19.5C60 19.2239 59.7761 19 59.5 19C59.2239 19 59 19.2239 59 19.5C59 19.7761 59.2239 20 59.5 20Z" fill="#606060"/>
<path fill-rule="evenodd" clip-rule="evenodd" d="M62.5 20C62.7761 20 63 19.7761 63 19.5C63 19.2239 62.7761 19 62.5 19C62.2239 19 62 19.2239 62 19.5C62 19.7761 62.2239 20 62.5 20Z" fill="#606060"/>
</svg>
