<svg id="Preview" xmlns="http://www.w3.org/2000/svg" width="16" height="16" viewBox="0 0 16 16">
  <g id="Layer_2_00000113321342830847446130000015125288169348439179_">
    <g id="Icons_00000122712166644157711340000009703546565115440013_">
      <g id="Group_1262" data-name="Group 1262">
        <g id="Group_1261" data-name="Group 1261">
          <path id="Path_1978" data-name="Path 1978" d="M8,13.2C3.4,13.2,1.1,8.6,1.1,8S3.4,2.8,8,2.8s6.9,4.7,6.9,5.3S12.6,13.2,8,13.2ZM2.1,8c.2.6,2.2,4.2,5.9,4.2,3.6,0,5.6-3.4,5.9-4.1-.3-.6-2.2-4.3-5.9-4.3S2.3,7.4,2.1,8Z" fill="#616160"/>
        </g>
      </g>
      <g id="Group_1264" data-name="Group 1264">
        <g id="Group_1263" data-name="Group 1263">
          <path id="Path_1979" data-name="Path 1979" d="M8,10.8A2.8,2.8,0,1,1,10.8,8,2.8,2.8,0,0,1,8,10.8ZM8,6.2A1.8,1.8,0,1,0,9.8,8,1.793,1.793,0,0,0,8,6.2Z" fill="#616160"/>
        </g>
      </g>
    </g>
  </g>
  <rect id="Rectangle_666" data-name="Rectangle 666" width="16" height="16" fill="rgba(0,0,0,0)"/>
</svg>
