<?xml version="1.0" encoding="utf-8"?>
<!-- Generator: Adobe Adobe Illustrator 24.2.0, SVG Export Plug-In . SVG Version: 6.00 Build 0)  -->
<svg version="1.1" xmlns="http://www.w3.org/2000/svg" xmlns:xlink="http://www.w3.org/1999/xlink" x="0px" y="0px"
	 viewBox="0 0 16 16" style="enable-background:new 0 0 16 16;" xml:space="preserve">
<style type="text/css">
	.st0{fill:#FFFFFF;}
</style>
<g >
</g>
<g id="Icons">
</g>
<g id="Layer_9">
	<g id="XMLID_220_">
		<path d="M8,1c3.86,0,7,3.14,7,7s-3.14,7-7,7s-7-3.14-7-7S4.14,1,8,1 M8,0C3.58,0,0,3.58,0,8s3.58,8,8,8s8-3.58,8-8S12.42,0,8,0
			L8,0z"/>
	</g>
	<g id="XMLID_219_">
		<g id="XMLID_221_">
			<path d="M8.25,12.47h-0.5c-0.14,0-0.25-0.11-0.25-0.25v-6.5c0-0.14,0.11-0.25,0.25-0.25h0.5c0.14,0,0.25,0.11,0.25,0.25v6.5
				C8.5,12.36,8.39,12.47,8.25,12.47z"/>
		</g>
	</g>
	<g id="XMLID_1631_">
		<rect id="XMLID_1241_" x="6" y="11.72" width="4" height="1"/>
	</g>
	<g id="XMLID_213_">
		<path d="M8,4.69L8,4.69c-0.41,0-0.75-0.34-0.75-0.75v0c0-0.41,0.34-0.75,0.75-0.75h0c0.41,0,0.75,0.34,0.75,0.75v0
			C8.75,4.35,8.41,4.69,8,4.69z"/>
	</g>
</g>
</svg>
