<?xml version="1.0" encoding="utf-8"?>
<!-- Generator: Adobe Illustrator 25.4.0, SVG Export Plug-In . SVG Version: 6.00 Build 0)  -->
<svg version="1.1" xmlns="http://www.w3.org/2000/svg" xmlns:xlink="http://www.w3.org/1999/xlink" x="0px" y="0px"
	 viewBox="0 0 102 41" style="enable-background:new 0 0 102 41;" xml:space="preserve">
<style type="text/css">
	.st0{fill:#FFFFFF;}
	.st1{fill:none;stroke:#C5C4C4;stroke-width:1.5;stroke-miterlimit:10;}
	.st2{fill:#C5C4C4;}
	.st3{fill:#616160;}
	.st4{fill:#C4C4C4;}
	.st5{enable-background:new    ;}
	.st6{fill:#020203;}
	.st7{fill:none;stroke:#D3D3D3;stroke-width:1.5;stroke-miterlimit:10;}
	.st8{fill:#D3D3D3;}
	.st9{fill:none;stroke:#C5C4C4;stroke-width:0.75;stroke-miterlimit:10;}
	.st10{fill:none;stroke:#616160;stroke-miterlimit:10;}
	.st11{fill:none;stroke:#616160;stroke-width:2;stroke-miterlimit:10;}
	.st12{fill:none;stroke:#616160;stroke-width:0.75;stroke-miterlimit:10;}
	.st13{fill:#616160;stroke:#616160;stroke-miterlimit:10;}
	.st14{fill:none;stroke:#FFFFFF;stroke-miterlimit:10;}
	.st15{fill:#1D70B8;}
	.st16{fill:#FFFFFF;stroke:#C5C4C4;stroke-width:1.5;stroke-miterlimit:10;}
	.st17{fill:none;stroke:#616160;stroke-width:1.5;stroke-miterlimit:10;}
	.st18{fill:none;stroke:#D3D3D3;stroke-width:0.5;}
	.st19{fill:#FFFFFF;stroke:#616160;}
	.st20{fill:none;stroke:#616160;stroke-width:0.5;stroke-miterlimit:10;}
	.st21{fill:#FFFFFF;stroke:#616160;stroke-width:1.5;}
	.st22{fill:#C5C4C4;stroke:#C5C4C4;stroke-width:1.5;stroke-miterlimit:10;}
	.st23{opacity:0.6;}
	.st24{opacity:0.6;fill:#C5C4C4;}
	.st25{fill:#FFFFFF;stroke:#616160;stroke-width:0.5;}
	.st26{fill:none;stroke:#616160;stroke-width:0.5;}
</style>
<g id="Layer_5">
	<g id="Layer_7">
	</g>
</g>
<g >
</g>
<g >
</g>
<g id="Layer_6">
</g>
<g >
	<g>
		<path class="st3" d="M20.7124,20.3623c0,0.9297-0.2324,1.6523-0.6973,2.168s-1.123,0.7734-1.9746,0.7734
			c-0.8618,0-1.5239-0.2559-1.9863-0.7676s-0.6934-1.2393-0.6934-2.1816s0.2324-1.667,0.6973-2.1719s1.1284-0.7578,1.9902-0.7578
			c0.8491,0,1.5054,0.2568,1.9688,0.7695S20.7124,19.4297,20.7124,20.3623z M16.353,20.3623c0,0.7031,0.1421,1.2363,0.4258,1.5996
			s0.7046,0.5449,1.2617,0.5449c0.5547,0,0.9731-0.1797,1.2559-0.5391s0.4238-0.8945,0.4238-1.6055
			c0-0.7002-0.1401-1.2314-0.4199-1.5938s-0.6973-0.543-1.252-0.543c-0.5601,0-0.9824,0.1807-1.2676,0.543
			S16.353,19.6621,16.353,20.3623z"/>
		<path class="st3" d="M24.0327,23.3037c-0.5469,0-0.9712-0.1963-1.2734-0.5898h-0.0547c0.0366,0.3643,0.0547,0.5859,0.0547,0.6641
			v1.7695h-0.918v-6.2422h0.7422c0.021,0.0811,0.064,0.2734,0.1289,0.5781h0.0469c0.2866-0.4375,0.7163-0.6562,1.2891-0.6562
			c0.5391,0,0.959,0.1953,1.2598,0.5859s0.4512,0.9385,0.4512,1.6445s-0.1528,1.2568-0.459,1.6523S24.5718,23.3037,24.0327,23.3037z
			 M23.8101,19.5771c-0.3647,0-0.6309,0.1064-0.7988,0.3203s-0.252,0.5547-0.252,1.0234v0.1367c0,0.5264,0.0835,0.9072,0.25,1.1426
			s0.439,0.3535,0.8164,0.3535c0.3179,0,0.5625-0.1299,0.7344-0.3906s0.2578-0.6318,0.2578-1.1133
			c0-0.4844-0.0854-0.8506-0.2559-1.0996S24.1406,19.5771,23.8101,19.5771z"/>
		<path class="st3" d="M28.4351,22.5615c0.2241,0,0.4478-0.0352,0.6719-0.1055v0.6914c-0.1016,0.0439-0.2324,0.0811-0.3926,0.1113
			s-0.3262,0.0449-0.498,0.0449c-0.8696,0-1.3047-0.458-1.3047-1.375v-2.3281h-0.5898v-0.4062l0.6328-0.3359l0.3125-0.9141h0.5664
			v0.9609h1.2305v0.6953h-1.2305v2.3125c0,0.2217,0.0552,0.3848,0.166,0.4902S28.2554,22.5615,28.4351,22.5615z"/>
		<path class="st3" d="M29.9155,17.7607c0-0.1641,0.0449-0.29,0.1348-0.3789s0.2183-0.1328,0.3848-0.1328
			c0.1616,0,0.2871,0.0439,0.377,0.1328s0.1348,0.2148,0.1348,0.3789c0,0.1562-0.0449,0.2793-0.1348,0.3691
			s-0.2153,0.1348-0.377,0.1348c-0.1665,0-0.2949-0.0449-0.3848-0.1348S29.9155,17.917,29.9155,17.7607z M30.8882,23.2256h-0.918
			v-4.3203h0.918V23.2256z"/>
		<path class="st3" d="M36.0327,21.0576c0,0.7061-0.1812,1.2568-0.543,1.6523s-0.8657,0.5938-1.5117,0.5938
			c-0.4038,0-0.7603-0.0908-1.0703-0.2734s-0.5483-0.4443-0.7148-0.7852s-0.25-0.7373-0.25-1.1875
			c0-0.7002,0.1797-1.2471,0.5391-1.6406s0.8657-0.5898,1.5195-0.5898c0.625,0,1.1196,0.2012,1.4844,0.6035
			S36.0327,20.375,36.0327,21.0576z M32.8882,21.0576c0,0.9971,0.3687,1.4961,1.1055,1.4961c0.729,0,1.0938-0.499,1.0938-1.4961
			c0-0.9873-0.3672-1.4805-1.1016-1.4805c-0.3853,0-0.6646,0.1279-0.8379,0.3828S32.8882,20.5811,32.8882,21.0576z"/>
		<path class="st3" d="M40.8882,23.2256h-0.9219v-2.6562c0-0.333-0.0669-0.582-0.2012-0.7461s-0.3472-0.2461-0.6387-0.2461
			c-0.3882,0-0.6719,0.1143-0.8516,0.3438s-0.2695,0.6133-0.2695,1.1523v2.1523h-0.918v-4.3203h0.7188l0.1289,0.5664h0.0469
			c0.1304-0.2061,0.3149-0.3643,0.5547-0.4766s0.5054-0.168,0.7969-0.168c1.0366,0,1.5547,0.5273,1.5547,1.582V23.2256z"/>
		<path class="st3" d="M46.6343,23.2256h-0.918v-3.6875c0-0.4404,0.0103-0.7891,0.0312-1.0469
			c-0.0601,0.0625-0.1333,0.1318-0.2207,0.207s-0.3794,0.3154-0.877,0.7188l-0.4609-0.582l1.6797-1.3203h0.7656V23.2256z"/>
	</g>
	<g>
		<path class="st3" d="M69.9609,20.1855c0,0.9297-0.2324,1.6523-0.6973,2.168s-1.123,0.7734-1.9746,0.7734
			c-0.8618,0-1.5239-0.2559-1.9863-0.7676s-0.6934-1.2393-0.6934-2.1816s0.2324-1.667,0.6973-2.1719s1.1284-0.7578,1.9902-0.7578
			c0.8491,0,1.5054,0.2568,1.9688,0.7695S69.9609,19.2529,69.9609,20.1855z M65.6016,20.1855c0,0.7031,0.1421,1.2363,0.4258,1.5996
			s0.7046,0.5449,1.2617,0.5449c0.5547,0,0.9731-0.1797,1.2559-0.5391s0.4238-0.8945,0.4238-1.6055
			c0-0.7002-0.1401-1.2314-0.4199-1.5938s-0.6973-0.543-1.252-0.543c-0.5601,0-0.9824,0.1807-1.2676,0.543
			S65.6016,19.4854,65.6016,20.1855z"/>
		<path class="st3" d="M73.2812,23.127c-0.5469,0-0.9712-0.1963-1.2734-0.5898h-0.0547c0.0366,0.3643,0.0547,0.5859,0.0547,0.6641
			v1.7695h-0.918v-6.2422h0.7422c0.021,0.0811,0.064,0.2734,0.1289,0.5781h0.0469c0.2866-0.4375,0.7163-0.6562,1.2891-0.6562
			c0.5391,0,0.959,0.1953,1.2598,0.5859s0.4512,0.9385,0.4512,1.6445s-0.1528,1.2568-0.459,1.6523S73.8203,23.127,73.2812,23.127z
			 M73.0586,19.4004c-0.3647,0-0.6309,0.1064-0.7988,0.3203s-0.252,0.5547-0.252,1.0234v0.1367c0,0.5264,0.0835,0.9072,0.25,1.1426
			s0.439,0.3535,0.8164,0.3535c0.3179,0,0.5625-0.1299,0.7344-0.3906s0.2578-0.6318,0.2578-1.1133
			c0-0.4844-0.0854-0.8506-0.2559-1.0996S73.3892,19.4004,73.0586,19.4004z"/>
		<path class="st3" d="M77.6836,22.3848c0.2241,0,0.4478-0.0352,0.6719-0.1055v0.6914c-0.1016,0.0439-0.2324,0.0811-0.3926,0.1113
			s-0.3262,0.0449-0.498,0.0449c-0.8696,0-1.3047-0.458-1.3047-1.375v-2.3281h-0.5898v-0.4062l0.6328-0.3359l0.3125-0.9141h0.5664
			v0.9609h1.2305v0.6953H77.082v2.3125c0,0.2217,0.0552,0.3848,0.166,0.4902S77.5039,22.3848,77.6836,22.3848z"/>
		<path class="st3" d="M79.1641,17.584c0-0.1641,0.0449-0.29,0.1348-0.3789s0.2183-0.1328,0.3848-0.1328
			c0.1616,0,0.2871,0.0439,0.377,0.1328s0.1348,0.2148,0.1348,0.3789c0,0.1562-0.0449,0.2793-0.1348,0.3691
			s-0.2153,0.1348-0.377,0.1348c-0.1665,0-0.2949-0.0449-0.3848-0.1348S79.1641,17.7402,79.1641,17.584z M80.1367,23.0488h-0.918
			v-4.3203h0.918V23.0488z"/>
		<path class="st3" d="M85.2812,20.8809c0,0.7061-0.1812,1.2568-0.543,1.6523s-0.8657,0.5938-1.5117,0.5938
			c-0.4038,0-0.7603-0.0908-1.0703-0.2734s-0.5483-0.4443-0.7148-0.7852s-0.25-0.7373-0.25-1.1875
			c0-0.7002,0.1797-1.2471,0.5391-1.6406s0.8657-0.5898,1.5195-0.5898c0.625,0,1.1196,0.2012,1.4844,0.6035
			S85.2812,20.1982,85.2812,20.8809z M82.1367,20.8809c0,0.9971,0.3687,1.4961,1.1055,1.4961c0.729,0,1.0938-0.499,1.0938-1.4961
			c0-0.9873-0.3672-1.4805-1.1016-1.4805c-0.3853,0-0.6646,0.1279-0.8379,0.3828S82.1367,20.4043,82.1367,20.8809z"/>
		<path class="st3" d="M90.1367,23.0488h-0.9219v-2.6562c0-0.333-0.0669-0.582-0.2012-0.7461s-0.3472-0.2461-0.6387-0.2461
			c-0.3882,0-0.6719,0.1143-0.8516,0.3438s-0.2695,0.6133-0.2695,1.1523v2.1523h-0.918v-4.3203h0.7188l0.1289,0.5664h0.0469
			c0.1304-0.2061,0.3149-0.3643,0.5547-0.4766s0.5054-0.168,0.7969-0.168c1.0366,0,1.5547,0.5273,1.5547,1.582V23.0488z"/>
		<path class="st3" d="M97.0586,23.0488h-3.8711v-0.6953l1.4727-1.4805c0.4351-0.4453,0.7231-0.7607,0.8652-0.9473
			s0.2456-0.3613,0.3105-0.5254s0.0977-0.3398,0.0977-0.5273c0-0.2578-0.0776-0.4609-0.2324-0.6094s-0.3691-0.2227-0.6426-0.2227
			c-0.2188,0-0.4302,0.04-0.6348,0.1211s-0.4409,0.2266-0.709,0.4375l-0.4961-0.6055c0.3179-0.2686,0.6265-0.458,0.9258-0.5703
			s0.6187-0.168,0.957-0.168c0.5312,0,0.957,0.1387,1.2773,0.416s0.4805,0.6504,0.4805,1.1191c0,0.2578-0.0464,0.5029-0.1387,0.7344
			s-0.2344,0.4707-0.4258,0.7168s-0.5098,0.5791-0.9551,0.998l-0.9922,0.9609v0.0391h2.7109V23.0488z"/>
	</g>
	<g>
		<g id="XMLID_00000129919056611773884370000009332469528865878439_">
			<g>
				<path class="st3" d="M8.18,16c2.48,0,4.5,2.02,4.5,4.5S10.66,25,8.18,25s-4.5-2.02-4.5-4.5S5.7,16,8.18,16z M11.68,20.5
					c0-1.93-1.57-3.5-3.5-3.5s-3.5,1.57-3.5,3.5S6.25,24,8.18,24S11.68,22.43,11.68,20.5z"/>
			</g>
		</g>
	</g>
	<g>
		<g id="XMLID_00000146489476837876623260000014147012494469491622_">
			<g>
				<path class="st3" d="M57.46,16c2.48,0,4.5,2.02,4.5,4.5s-2.02,4.5-4.5,4.5c-2.49,0-4.5-2.02-4.5-4.5S54.97,16,57.46,16z
					 M60.96,20.5c0-1.93-1.57-3.5-3.5-3.5s-3.5,1.57-3.5,3.5s1.57,3.5,3.5,3.5S60.96,22.43,60.96,20.5z"/>
				<circle class="st0" cx="57.46" cy="20.5" r="3.5"/>
			</g>
		</g>
	</g>
	<g>
		<circle class="st3" cx="8.1766" cy="20.5" r="2"/>
	</g>
</g>
<g id="Layer_8">
</g>
<g >
</g>
</svg>
