<?xml version="1.0" encoding="utf-8"?>
<!-- Generator: Adobe Illustrator 25.4.0, SVG Export Plug-In . SVG Version: 6.00 Build 0)  -->
<svg version="1.1" xmlns="http://www.w3.org/2000/svg" xmlns:xlink="http://www.w3.org/1999/xlink" x="0px" y="0px"
	 viewBox="0 0 102 41" style="enable-background:new 0 0 102 41;" xml:space="preserve">
<style type="text/css">
	.st0{fill:#FFFFFF;}
	.st1{fill:none;stroke:#C5C4C4;stroke-width:1.5;stroke-miterlimit:10;}
	.st2{fill:#C5C4C4;}
	.st3{fill:#616160;}
	.st4{fill:#C4C4C4;}
	.st5{enable-background:new    ;}
	.st6{fill:#020203;}
	.st7{fill:none;stroke:#D3D3D3;stroke-width:1.5;stroke-miterlimit:10;}
	.st8{fill:#D3D3D3;}
	.st9{fill:none;stroke:#C5C4C4;stroke-width:0.75;stroke-miterlimit:10;}
	.st10{fill:none;stroke:#616160;stroke-miterlimit:10;}
	.st11{fill:none;stroke:#616160;stroke-width:2;stroke-miterlimit:10;}
	.st12{fill:none;stroke:#616160;stroke-width:0.75;stroke-miterlimit:10;}
	.st13{fill:#616160;stroke:#616160;stroke-miterlimit:10;}
	.st14{fill:none;stroke:#FFFFFF;stroke-miterlimit:10;}
	.st15{fill:#1D70B8;}
	.st16{fill:#FFFFFF;stroke:#C5C4C4;stroke-width:1.5;stroke-miterlimit:10;}
	.st17{fill:none;stroke:#616160;stroke-width:1.5;stroke-miterlimit:10;}
	.st18{fill:none;stroke:#D3D3D3;stroke-width:0.5;}
	.st19{fill:#FFFFFF;stroke:#616160;}
	.st20{fill:none;stroke:#616160;stroke-width:0.5;stroke-miterlimit:10;}
	.st21{fill:#FFFFFF;stroke:#616160;stroke-width:1.5;}
	.st22{fill:#C5C4C4;stroke:#C5C4C4;stroke-width:1.5;stroke-miterlimit:10;}
	.st23{opacity:0.6;}
	.st24{opacity:0.6;fill:#C5C4C4;}
	.st25{fill:#FFFFFF;stroke:#616160;stroke-width:0.5;}
	.st26{fill:none;stroke:#616160;stroke-width:0.5;}
</style>
<g id="Layer_5">
	<g id="Layer_7">
	</g>
	<rect x="49.6912" y="12.9504" class="st0" width="43.8876" height="14.9663"/>
</g>
<g >
</g>
<g >
</g>
<g id="Layer_6">
</g>
<g >
	<path class="st3" d="M92.332,11.6616H9.668c-1.5244,0-2.7646,1.2402-2.7646,2.7646v12.1743c0,1.5244,1.2402,2.7646,2.7646,2.7646
		H92.332c1.5244,0,2.7646-1.2402,2.7646-2.7646V14.4263C95.0967,12.9019,93.8564,11.6616,92.332,11.6616z M93.0967,26.6006
		c0,0.4219-0.3428,0.7646-0.7646,0.7646H52V13.6616h40.332c0.4219,0,0.7646,0.3433,0.7646,0.7646V26.6006z"/>
	<g>
		<path class="st0" d="M19.6553,20.5972c0,0.9297-0.2324,1.6523-0.6973,2.168s-1.123,0.7734-1.9746,0.7734
			c-0.8623,0-1.5244-0.2559-1.9863-0.7676s-0.6934-1.2393-0.6934-2.1816s0.2324-1.667,0.6973-2.1719s1.1279-0.7578,1.9902-0.7578
			c0.8486,0,1.5049,0.2568,1.9688,0.7695S19.6553,19.6646,19.6553,20.5972z M15.2959,20.5972c0,0.7031,0.1416,1.2363,0.4258,1.5996
			s0.7041,0.5449,1.2617,0.5449c0.5547,0,0.9736-0.1797,1.2559-0.5391s0.4238-0.8945,0.4238-1.6055
			c0-0.7002-0.1396-1.2314-0.4199-1.5938s-0.6973-0.543-1.252-0.543c-0.5596,0-0.9824,0.1807-1.2676,0.543
			S15.2959,19.897,15.2959,20.5972z"/>
		<path class="st0" d="M22.9756,23.5386c-0.5469,0-0.9717-0.1963-1.2734-0.5898h-0.0547c0.0361,0.3643,0.0547,0.5859,0.0547,0.6641
			v1.7695h-0.918v-6.2422h0.7422c0.0205,0.0811,0.0635,0.2734,0.1289,0.5781h0.0469c0.2861-0.4375,0.7158-0.6562,1.2891-0.6562
			c0.5391,0,0.959,0.1953,1.2598,0.5859s0.4512,0.9385,0.4512,1.6445s-0.1533,1.2568-0.459,1.6523S23.5146,23.5386,22.9756,23.5386z
			 M22.7529,19.812c-0.3643,0-0.6309,0.1064-0.7988,0.3203s-0.252,0.5547-0.252,1.0234v0.1367c0,0.5264,0.083,0.9072,0.25,1.1426
			s0.4385,0.3535,0.8164,0.3535c0.3174,0,0.5625-0.1299,0.7344-0.3906s0.2578-0.6318,0.2578-1.1133
			c0-0.4844-0.085-0.8506-0.2559-1.0996S23.084,19.812,22.7529,19.812z"/>
		<path class="st0" d="M27.3779,22.7964c0.2236,0,0.4482-0.0352,0.6719-0.1055v0.6914c-0.1016,0.0439-0.2324,0.0811-0.3926,0.1113
			s-0.3262,0.0449-0.498,0.0449c-0.8701,0-1.3047-0.458-1.3047-1.375v-2.3281h-0.5898v-0.4062l0.6328-0.3359l0.3125-0.9141h0.5664
			v0.9609h1.2305v0.6953h-1.2305v2.3125c0,0.2217,0.0557,0.3848,0.166,0.4902S27.1982,22.7964,27.3779,22.7964z"/>
		<path class="st0" d="M28.8584,17.9956c0-0.1641,0.0449-0.29,0.1348-0.3789s0.2178-0.1328,0.3848-0.1328
			c0.1611,0,0.2871,0.0439,0.377,0.1328s0.1348,0.2148,0.1348,0.3789c0,0.1562-0.0449,0.2793-0.1348,0.3691
			s-0.2158,0.1348-0.377,0.1348c-0.167,0-0.2949-0.0449-0.3848-0.1348S28.8584,18.1519,28.8584,17.9956z M29.8311,23.4604h-0.918
			v-4.3203h0.918V23.4604z"/>
		<path class="st0" d="M34.9756,21.2925c0,0.7061-0.1807,1.2568-0.543,1.6523s-0.8662,0.5938-1.5117,0.5938
			c-0.4033,0-0.7607-0.0908-1.0703-0.2734s-0.5479-0.4443-0.7148-0.7852s-0.25-0.7373-0.25-1.1875
			c0-0.7002,0.1797-1.2471,0.5391-1.6406s0.8662-0.5898,1.5195-0.5898c0.625,0,1.1201,0.2012,1.4844,0.6035
			S34.9756,20.6099,34.9756,21.2925z M31.8311,21.2925c0,0.9971,0.3682,1.4961,1.1055,1.4961c0.7295,0,1.0938-0.499,1.0938-1.4961
			c0-0.9873-0.3672-1.4805-1.1016-1.4805c-0.3857,0-0.665,0.1279-0.8379,0.3828S31.8311,20.8159,31.8311,21.2925z"/>
		<path class="st0" d="M39.8311,23.4604h-0.9219v-2.6562c0-0.333-0.0674-0.582-0.2012-0.7461s-0.3467-0.2461-0.6387-0.2461
			c-0.3877,0-0.6719,0.1143-0.8516,0.3438s-0.2695,0.6133-0.2695,1.1523v2.1523h-0.918v-4.3203h0.7188l0.1289,0.5664h0.0469
			c0.1299-0.2061,0.3154-0.3643,0.5547-0.4766s0.5049-0.168,0.7969-0.168c1.0361,0,1.5547,0.5273,1.5547,1.582V23.4604z"/>
		<path class="st0" d="M45.5771,23.4604h-0.918v-3.6875c0-0.4404,0.0107-0.7891,0.0312-1.0469
			c-0.0596,0.0625-0.1338,0.1318-0.2207,0.207s-0.3799,0.3154-0.877,0.7188l-0.4609-0.582l1.6797-1.3203h0.7656V23.4604z"/>
	</g>
	<g>
		<path class="st3" d="M61.5703,20.4136c0,0.9297-0.2324,1.6523-0.6973,2.168s-1.123,0.7734-1.9746,0.7734
			c-0.8623,0-1.5244-0.2559-1.9863-0.7676s-0.6934-1.2393-0.6934-2.1816s0.2324-1.667,0.6973-2.1719s1.1279-0.7578,1.9902-0.7578
			c0.8486,0,1.5049,0.2568,1.9688,0.7695S61.5703,19.481,61.5703,20.4136z M57.2109,20.4136c0,0.7031,0.1416,1.2363,0.4258,1.5996
			s0.7041,0.5449,1.2617,0.5449c0.5547,0,0.9736-0.1797,1.2559-0.5391s0.4238-0.8945,0.4238-1.6055
			c0-0.7002-0.1396-1.2314-0.4199-1.5938s-0.6973-0.543-1.252-0.543c-0.5596,0-0.9824,0.1807-1.2676,0.543
			S57.2109,19.7134,57.2109,20.4136z"/>
		<path class="st3" d="M64.8906,23.355c-0.5469,0-0.9717-0.1963-1.2734-0.5898h-0.0547c0.0361,0.3643,0.0547,0.5859,0.0547,0.6641
			v1.7695h-0.918v-6.2422h0.7422c0.0205,0.0811,0.0635,0.2734,0.1289,0.5781h0.0469c0.2861-0.4375,0.7158-0.6562,1.2891-0.6562
			c0.5391,0,0.959,0.1953,1.2598,0.5859s0.4512,0.9385,0.4512,1.6445s-0.1533,1.2568-0.459,1.6523S65.4297,23.355,64.8906,23.355z
			 M64.668,19.6284c-0.3643,0-0.6309,0.1064-0.7988,0.3203s-0.252,0.5547-0.252,1.0234v0.1367c0,0.5264,0.083,0.9072,0.25,1.1426
			s0.4385,0.3535,0.8164,0.3535c0.3174,0,0.5625-0.1299,0.7344-0.3906s0.2578-0.6318,0.2578-1.1133
			c0-0.4844-0.085-0.8506-0.2559-1.0996S64.999,19.6284,64.668,19.6284z"/>
		<path class="st3" d="M69.293,22.6128c0.2236,0,0.4482-0.0352,0.6719-0.1055v0.6914c-0.1016,0.0439-0.2324,0.0811-0.3926,0.1113
			s-0.3262,0.0449-0.498,0.0449c-0.8701,0-1.3047-0.458-1.3047-1.375v-2.3281h-0.5898v-0.4062l0.6328-0.3359l0.3125-0.9141h0.5664
			v0.9609h1.2305v0.6953h-1.2305v2.3125c0,0.2217,0.0557,0.3848,0.166,0.4902S69.1133,22.6128,69.293,22.6128z"/>
		<path class="st3" d="M70.7734,17.812c0-0.1641,0.0449-0.29,0.1348-0.3789s0.2178-0.1328,0.3848-0.1328
			c0.1611,0,0.2871,0.0439,0.377,0.1328s0.1348,0.2148,0.1348,0.3789c0,0.1562-0.0449,0.2793-0.1348,0.3691
			s-0.2158,0.1348-0.377,0.1348c-0.167,0-0.2949-0.0449-0.3848-0.1348S70.7734,17.9683,70.7734,17.812z M71.7461,23.2769h-0.918
			v-4.3203h0.918V23.2769z"/>
		<path class="st3" d="M76.8906,21.1089c0,0.7061-0.1807,1.2568-0.543,1.6523s-0.8662,0.5938-1.5117,0.5938
			c-0.4033,0-0.7607-0.0908-1.0703-0.2734s-0.5479-0.4443-0.7148-0.7852s-0.25-0.7373-0.25-1.1875
			c0-0.7002,0.1797-1.2471,0.5391-1.6406s0.8662-0.5898,1.5195-0.5898c0.625,0,1.1201,0.2012,1.4844,0.6035
			S76.8906,20.4263,76.8906,21.1089z M73.7461,21.1089c0,0.9971,0.3682,1.4961,1.1055,1.4961c0.7295,0,1.0938-0.499,1.0938-1.4961
			c0-0.9873-0.3672-1.4805-1.1016-1.4805c-0.3857,0-0.665,0.1279-0.8379,0.3828S73.7461,20.6323,73.7461,21.1089z"/>
		<path class="st3" d="M81.7461,23.2769h-0.9219v-2.6562c0-0.333-0.0674-0.582-0.2012-0.7461s-0.3467-0.2461-0.6387-0.2461
			c-0.3877,0-0.6719,0.1143-0.8516,0.3438s-0.2695,0.6133-0.2695,1.1523v2.1523h-0.918v-4.3203h0.7188l0.1289,0.5664h0.0469
			c0.1299-0.2061,0.3154-0.3643,0.5547-0.4766s0.5049-0.168,0.7969-0.168c1.0361,0,1.5547,0.5273,1.5547,1.582V23.2769z"/>
		<path class="st3" d="M88.668,23.2769h-3.8711v-0.6953l1.4727-1.4805c0.4346-0.4453,0.7236-0.7607,0.8652-0.9473
			s0.2451-0.3613,0.3105-0.5254s0.0977-0.3398,0.0977-0.5273c0-0.2578-0.0771-0.4609-0.2324-0.6094s-0.3691-0.2227-0.6426-0.2227
			c-0.2188,0-0.4307,0.04-0.6348,0.1211s-0.4404,0.2266-0.709,0.4375l-0.4961-0.6055c0.3174-0.2686,0.626-0.458,0.9258-0.5703
			s0.6182-0.168,0.957-0.168c0.5312,0,0.957,0.1387,1.2773,0.416s0.4805,0.6504,0.4805,1.1191c0,0.2578-0.0459,0.5029-0.1387,0.7344
			s-0.2344,0.4707-0.4258,0.7168s-0.5098,0.5791-0.9551,0.998l-0.9922,0.9609v0.0391h2.7109V23.2769z"/>
	</g>
</g>
<g id="Layer_8">
</g>
<g >
</g>
</svg>
