<svg width="79" height="13" viewBox="0 0 79 13" fill="none" xmlns="http://www.w3.org/2000/svg">
<path fill-rule="evenodd" clip-rule="evenodd" d="M0.761719 6.75C0.761719 3.43629 3.44801 0.75 6.76172 0.75C10.0754 0.75 12.7617 3.43629 12.7617 6.75C12.7617 10.0637 10.0754 12.75 6.76172 12.75C3.44801 12.75 0.761719 10.0637 0.761719 6.75Z" fill="#7C7C7C"/>
<path d="M45.936 6.75C45.936 3.71243 48.3985 1.25 51.436 1.25C54.4736 1.25 56.936 3.71243 56.936 6.75C56.936 9.78757 54.4736 12.25 51.436 12.25C48.3985 12.25 45.936 9.78757 45.936 6.75Z" fill="white" stroke="#C4C4C4"/>
<path fill-rule="evenodd" clip-rule="evenodd" d="M4.76172 6.75C4.76172 5.64543 5.65715 4.75 6.76172 4.75C7.86629 4.75 8.76172 5.64543 8.76172 6.75C8.76172 7.85457 7.86629 8.75 6.76172 8.75C5.65715 8.75 4.76172 7.85457 4.76172 6.75Z" fill="white"/>
<rect x="18" y="3" width="16" height="8" fill="#C4C4C4"/>
<rect x="63" y="3" width="16" height="8" fill="#C4C4C4"/>
</svg>
