<?xml version="1.0" encoding="utf-8"?>
<!-- Generator: Adobe Illustrator 25.4.0, SVG Export Plug-In . SVG Version: 6.00 Build 0)  -->
<svg version="1.1" xmlns="http://www.w3.org/2000/svg" xmlns:xlink="http://www.w3.org/1999/xlink" x="0px" y="0px"
	 viewBox="0 0 102 41" style="enable-background:new 0 0 102 41;" xml:space="preserve">
<style type="text/css">
	.st0{fill:#FFFFFF;}
	.st1{fill:none;stroke:#C5C4C4;stroke-width:1.5;stroke-miterlimit:10;}
	.st2{fill:#C5C4C4;}
	.st3{fill:#616160;}
	.st4{fill:#C4C4C4;}
	.st5{enable-background:new    ;}
	.st6{fill:#020203;}
	.st7{fill:none;stroke:#D3D3D3;stroke-width:1.5;stroke-miterlimit:10;}
	.st8{fill:#D3D3D3;}
	.st9{fill:none;stroke:#C5C4C4;stroke-width:0.75;stroke-miterlimit:10;}
	.st10{fill:none;stroke:#616160;stroke-miterlimit:10;}
	.st11{fill:none;stroke:#616160;stroke-width:2;stroke-miterlimit:10;}
	.st12{fill:none;stroke:#616160;stroke-width:0.75;stroke-miterlimit:10;}
	.st13{fill:#616160;stroke:#616160;stroke-miterlimit:10;}
	.st14{fill:none;stroke:#FFFFFF;stroke-miterlimit:10;}
	.st15{fill:#1D70B8;}
	.st16{fill:#FFFFFF;stroke:#C5C4C4;stroke-width:1.5;stroke-miterlimit:10;}
	.st17{fill:none;stroke:#616160;stroke-width:1.5;stroke-miterlimit:10;}
	.st18{fill:none;stroke:#D3D3D3;stroke-width:0.5;}
	.st19{fill:#FFFFFF;stroke:#616160;}
	.st20{fill:none;stroke:#616160;stroke-width:0.5;stroke-miterlimit:10;}
	.st21{fill:#FFFFFF;stroke:#616160;stroke-width:1.5;}
	.st22{fill:#C5C4C4;stroke:#C5C4C4;stroke-width:1.5;stroke-miterlimit:10;}
	.st23{opacity:0.6;}
	.st24{opacity:0.6;fill:#C5C4C4;}
	.st25{fill:#FFFFFF;stroke:#616160;stroke-width:0.5;}
	.st26{fill:none;stroke:#616160;stroke-width:0.5;}
</style>
<g id="Layer_5">
	<g id="Layer_7">
	</g>
</g>
<g >
</g>
<g >
</g>
<g id="Layer_6">
</g>
<g >
	<path class="st3" d="M18.0488,17.4258c-0.8618,0-1.5254,0.2529-1.9902,0.7578s-0.6973,1.2295-0.6973,2.1719
		s0.231,1.6699,0.6934,2.1816s1.1245,0.7676,1.9863,0.7676c0.8516,0,1.5098-0.2578,1.9746-0.7734s0.6973-1.2383,0.6973-2.168
		c0-0.9326-0.2319-1.6553-0.6953-2.168S18.8979,17.4258,18.0488,17.4258z M19.2969,21.9688
		c-0.2827,0.3594-0.7012,0.5391-1.2559,0.5391c-0.5571,0-0.978-0.1816-1.2617-0.5449s-0.4258-0.8965-0.4258-1.5996
		c0-0.7002,0.1426-1.2314,0.4277-1.5938s0.7075-0.543,1.2676-0.543c0.5547,0,0.9722,0.1807,1.252,0.543s0.4199,0.8936,0.4199,1.5938
		C19.7207,21.0742,19.5796,21.6094,19.2969,21.9688z"/>
	<path class="st3" d="M24.0488,18.8281c-0.5728,0-1.0024,0.2188-1.2891,0.6562h-0.0469c-0.0649-0.3047-0.1079-0.4971-0.1289-0.5781
		h-0.7422v6.2422h0.918v-1.7695c0-0.0781-0.0181-0.2998-0.0547-0.6641h0.0547c0.3022,0.3936,0.7266,0.5898,1.2734,0.5898
		c0.5391,0,0.9614-0.1982,1.2676-0.5938s0.459-0.9463,0.459-1.6523s-0.1504-1.2539-0.4512-1.6445S24.5879,18.8281,24.0488,18.8281z
		 M24.5605,22.1641c-0.1719,0.2607-0.4165,0.3906-0.7344,0.3906c-0.3774,0-0.6499-0.1182-0.8164-0.3535s-0.25-0.6162-0.25-1.1426
		v-0.1367c0-0.4688,0.084-0.8096,0.252-1.0234s0.4341-0.3203,0.7988-0.3203c0.3306,0,0.5815,0.124,0.752,0.373
		s0.2559,0.6152,0.2559,1.0996C24.8184,21.5322,24.7324,21.9033,24.5605,22.1641z"/>
	<path class="st3" d="M28,22.4043c-0.1108-0.1055-0.166-0.2686-0.166-0.4902v-2.3125h1.2305v-0.6953H27.834v-0.9609h-0.5664
		l-0.3125,0.9141l-0.6328,0.3359v0.4062h0.5898v2.3281c0,0.917,0.4351,1.375,1.3047,1.375c0.1719,0,0.3379-0.0146,0.498-0.0449
		s0.291-0.0674,0.3926-0.1113V22.457c-0.2241,0.0703-0.4478,0.1055-0.6719,0.1055C28.2559,22.5625,28.1108,22.5098,28,22.4043z"/>
	<rect x="29.9707" y="18.9062" class="st3" width="0.918" height="4.3203"/>
	<path class="st3" d="M30.4355,17.25c-0.1665,0-0.2949,0.0439-0.3848,0.1328s-0.1348,0.2148-0.1348,0.3789
		c0,0.1562,0.0449,0.2793,0.1348,0.3691s0.2183,0.1348,0.3848,0.1348c0.1616,0,0.2871-0.0449,0.377-0.1348
		s0.1348-0.2129,0.1348-0.3691c0-0.1641-0.0449-0.29-0.1348-0.3789S30.5972,17.25,30.4355,17.25z"/>
	<path class="st3" d="M34.002,18.8281c-0.6538,0-1.1602,0.1963-1.5195,0.5898s-0.5391,0.9404-0.5391,1.6406
		c0,0.4502,0.0835,0.8467,0.25,1.1875s0.4048,0.6025,0.7148,0.7852s0.6665,0.2734,1.0703,0.2734
		c0.646,0,1.1499-0.1982,1.5117-0.5938s0.543-0.9463,0.543-1.6523c0-0.6826-0.1821-1.2246-0.5469-1.627
		S34.627,18.8281,34.002,18.8281z M33.9941,22.5547c-0.7368,0-1.1055-0.499-1.1055-1.4961c0-0.4766,0.0864-0.8428,0.2598-1.0977
		s0.4526-0.3828,0.8379-0.3828c0.7344,0,1.1016,0.4932,1.1016,1.4805C35.0879,22.0557,34.7231,22.5547,33.9941,22.5547z"/>
	<path class="st3" d="M39.334,18.8281c-0.2915,0-0.5571,0.0557-0.7969,0.168s-0.4243,0.2705-0.5547,0.4766h-0.0469l-0.1289-0.5664
		h-0.7188v4.3203h0.918v-2.1523c0-0.5391,0.0898-0.9229,0.2695-1.1523s0.4634-0.3438,0.8516-0.3438
		c0.2915,0,0.5044,0.082,0.6387,0.2461s0.2012,0.4131,0.2012,0.7461v2.6562h0.9219v-2.8164
		C40.8887,19.3555,40.3706,18.8281,39.334,18.8281z"/>
	<path class="st3" d="M44.1895,18.8359l0.4609,0.582c0.4976-0.4033,0.7896-0.6436,0.877-0.7188s0.1606-0.1445,0.2207-0.207
		c-0.021,0.2578-0.0312,0.6064-0.0312,1.0469v3.6875h0.918v-5.7109h-0.7656L44.1895,18.8359z"/>
	<path class="st3" d="M67.2969,17.249c-0.8618,0-1.5254,0.2529-1.9902,0.7578s-0.6973,1.2295-0.6973,2.1719
		s0.231,1.6699,0.6934,2.1816s1.1245,0.7676,1.9863,0.7676c0.8516,0,1.5098-0.2578,1.9746-0.7734s0.6973-1.2383,0.6973-2.168
		c0-0.9326-0.2319-1.6553-0.6953-2.168S68.146,17.249,67.2969,17.249z M68.5449,21.792c-0.2827,0.3594-0.7012,0.5391-1.2559,0.5391
		c-0.5571,0-0.978-0.1816-1.2617-0.5449s-0.4258-0.8965-0.4258-1.5996c0-0.7002,0.1426-1.2314,0.4277-1.5938
		s0.7075-0.543,1.2676-0.543c0.5547,0,0.9722,0.1807,1.252,0.543s0.4199,0.8936,0.4199,1.5938
		C68.9688,20.8975,68.8276,21.4326,68.5449,21.792z"/>
	<path class="st3" d="M73.2969,18.6514c-0.5728,0-1.0024,0.2188-1.2891,0.6562h-0.0469c-0.0649-0.3047-0.1079-0.4971-0.1289-0.5781
		h-0.7422v6.2422h0.918v-1.7695c0-0.0781-0.0181-0.2998-0.0547-0.6641h0.0547c0.3022,0.3936,0.7266,0.5898,1.2734,0.5898
		c0.5391,0,0.9614-0.1982,1.2676-0.5938s0.459-0.9463,0.459-1.6523s-0.1504-1.2539-0.4512-1.6445S73.8359,18.6514,73.2969,18.6514z
		 M73.8086,21.9873c-0.1719,0.2607-0.4165,0.3906-0.7344,0.3906c-0.3774,0-0.6499-0.1182-0.8164-0.3535s-0.25-0.6162-0.25-1.1426
		v-0.1367c0-0.4688,0.084-0.8096,0.252-1.0234s0.4341-0.3203,0.7988-0.3203c0.3306,0,0.5815,0.124,0.752,0.373
		s0.2559,0.6152,0.2559,1.0996C74.0664,21.3555,73.9805,21.7266,73.8086,21.9873z"/>
	<path class="st3" d="M77.248,22.2275c-0.1108-0.1055-0.166-0.2686-0.166-0.4902v-2.3125h1.2305v-0.6953H77.082v-0.9609h-0.5664
		l-0.3125,0.9141l-0.6328,0.3359v0.4062h0.5898v2.3281c0,0.917,0.4351,1.375,1.3047,1.375c0.1719,0,0.3379-0.0146,0.498-0.0449
		s0.291-0.0674,0.3926-0.1113v-0.6914c-0.2241,0.0703-0.4478,0.1055-0.6719,0.1055C77.5039,22.3857,77.3589,22.333,77.248,22.2275z"
		/>
	<path class="st3" d="M79.6836,17.0732c-0.1665,0-0.2949,0.0439-0.3848,0.1328s-0.1348,0.2148-0.1348,0.3789
		c0,0.1562,0.0449,0.2793,0.1348,0.3691s0.2183,0.1348,0.3848,0.1348c0.1616,0,0.2871-0.0449,0.377-0.1348
		s0.1348-0.2129,0.1348-0.3691c0-0.1641-0.0449-0.29-0.1348-0.3789S79.8452,17.0732,79.6836,17.0732z"/>
	<rect x="79.2188" y="18.7295" class="st3" width="0.918" height="4.3203"/>
	<path class="st3" d="M83.25,18.6514c-0.6538,0-1.1602,0.1963-1.5195,0.5898s-0.5391,0.9404-0.5391,1.6406
		c0,0.4502,0.0835,0.8467,0.25,1.1875s0.4048,0.6025,0.7148,0.7852s0.6665,0.2734,1.0703,0.2734
		c0.646,0,1.1499-0.1982,1.5117-0.5938s0.543-0.9463,0.543-1.6523c0-0.6826-0.1821-1.2246-0.5469-1.627
		S83.875,18.6514,83.25,18.6514z M83.2422,22.3779c-0.7368,0-1.1055-0.499-1.1055-1.4961c0-0.4766,0.0864-0.8428,0.2598-1.0977
		s0.4526-0.3828,0.8379-0.3828c0.7344,0,1.1016,0.4932,1.1016,1.4805C84.3359,21.8789,83.9712,22.3779,83.2422,22.3779z"/>
	<path class="st3" d="M88.582,18.6514c-0.2915,0-0.5571,0.0557-0.7969,0.168s-0.4243,0.2705-0.5547,0.4766h-0.0469l-0.1289-0.5664
		h-0.7188v4.3203h0.918v-2.1523c0-0.5391,0.0898-0.9229,0.2695-1.1523s0.4634-0.3438,0.8516-0.3438
		c0.2915,0,0.5044,0.082,0.6387,0.2461s0.2012,0.4131,0.2012,0.7461v2.6562h0.9219v-2.8164
		C90.1367,19.1787,89.6187,18.6514,88.582,18.6514z"/>
	<path class="st3" d="M94.3477,22.2412v-0.0391l0.9922-0.9609c0.4453-0.4189,0.7637-0.752,0.9551-0.998s0.3335-0.4854,0.4258-0.7168
		s0.1387-0.4766,0.1387-0.7344c0-0.4688-0.1602-0.8418-0.4805-1.1191s-0.7461-0.416-1.2773-0.416
		c-0.3384,0-0.6577,0.0557-0.957,0.168s-0.6079,0.3018-0.9258,0.5703l0.4961,0.6055c0.2681-0.2109,0.5044-0.3564,0.709-0.4375
		s0.416-0.1211,0.6348-0.1211c0.2734,0,0.4878,0.0742,0.6426,0.2227s0.2324,0.3516,0.2324,0.6094
		c0,0.1875-0.0327,0.3633-0.0977,0.5273s-0.1685,0.3389-0.3105,0.5254s-0.4302,0.502-0.8652,0.9473l-1.4727,1.4805v0.6953h3.8711
		v-0.8086H94.3477z"/>
	<g id="XMLID_00000166652600978343868070000007597066979197244298_">
		<g>
			<path class="st3" d="M8.18,16.12c2.41,0,4.37,1.97,4.37,4.38s-1.96,4.38-4.37,4.38c-2.42,0-4.38-1.97-4.38-4.38
				S5.76,16.12,8.18,16.12z M9.68,20.5c0-0.83-0.68-1.5-1.5-1.5c-0.83,0-1.5,0.67-1.5,1.5S7.35,22,8.18,22
				C9,22,9.68,21.33,9.68,20.5z"/>
			<circle class="st0" cx="8.18" cy="20.5" r="1.5"/>
		</g>
	</g>
	<g id="XMLID_00000060026679551679696140000009325127661310324666_">
		<g>
			<path class="st3" d="M57.46,16c2.48,0,4.5,2.02,4.5,4.5s-2.02,4.5-4.5,4.5c-2.49,0-4.5-2.02-4.5-4.5S54.97,16,57.46,16z
				 M60.96,20.5c0-1.93-1.57-3.5-3.5-3.5s-3.5,1.57-3.5,3.5s1.57,3.5,3.5,3.5S60.96,22.43,60.96,20.5z"/>
			<circle class="st0" cx="57.46" cy="20.5" r="3.5"/>
		</g>
	</g>
</g>
<g id="Layer_8">
</g>
<g >
</g>
</svg>
