<?xml version="1.0" encoding="utf-8"?>
<!-- Generator: Adobe Illustrator 25.4.1, SVG Export Plug-In . SVG Version: 6.00 Build 0)  -->
<svg version="1.1"  xmlns="http://www.w3.org/2000/svg" xmlns:xlink="http://www.w3.org/1999/xlink" x="0px" y="0px"
	 viewBox="0 0 16 16" style="enable-background:new 0 0 16 16;" xml:space="preserve">
<style type="text/css">
	.st0{fill:#606060;}
</style>
<path class="st0" d="M10.198,1.425L9.8423,1.7807c-0.0976,0.0976-0.0976,0.2559,0,0.3536l3.2419,3.2419H5.6903
	C3.1813,5.3605,1.0426,7.3698,1,9.9842c0.0039,2.5629,2.0897,4.6448,4.6761,4.6448c0.0015,0,0.0039,0,0.0059,0
	c0.5109,0,1.0914,0.0049,1.6596,0.0098c0.4517,0.004,0.8953,0.0081,1.2909,0.0094c0.1383,0.0005,0.2477-0.1119,0.2477-0.2502
	v-0.5032c0-0.1378-0.1087-0.2494-0.2466-0.2498c-0.3933-0.0013-0.8344-0.0054-1.2832-0.0094
	c-0.5711-0.0049-1.1551-0.0098-1.6939-0.0098c-0.002,0-0.0034,0-0.0049,0c-2.0093,0-3.6455-1.6331-3.6479-3.6955
	C2.036,7.9397,3.6765,6.328,5.682,6.3795h7.3933L9.8423,9.6125c-0.0976,0.0976-0.0976,0.2559,0,0.3536l0.3557,0.3557
	c0.0976,0.0976,0.2559,0.0976,0.3536,0L15,5.8733L10.5515,1.425C10.4539,1.3273,10.2956,1.3273,10.198,1.425z"/>
</svg>
