<?xml version="1.0" encoding="utf-8"?>
<!-- Generator: Adobe Illustrator 25.4.0, SVG Export Plug-In . SVG Version: 6.00 Build 0)  -->
<svg version="1.1" xmlns="http://www.w3.org/2000/svg" xmlns:xlink="http://www.w3.org/1999/xlink" x="0px" y="0px"
	 viewBox="0 0 26 26" style="enable-background:new 0 0 26 26;" xml:space="preserve">
<style type="text/css">
	.st0{fill:#005EA3;}
	.st1{fill:none;stroke:#000000;stroke-miterlimit:10;}
	.st2{fill-rule:evenodd;clip-rule:evenodd;fill:#0D6F08;}
	.st3{fill:#FFFFFF;}
	.st4{fill:#0072C6;}
	.st5{fill-rule:evenodd;clip-rule:evenodd;fill:#AD6503;}
	.st6{fill-rule:evenodd;clip-rule:evenodd;fill:#D53D3D;}
	.st7{fill-rule:evenodd;clip-rule:evenodd;fill:#5C5C5C;}
	.st8{fill:#D53D3D;}
	.st9{fill:#AD6503;}
	.st10{fill:#FFFFFF;stroke:#C4C4C4;stroke-miterlimit:10;}
	.st11{fill:none;}
	.st12{fill:none;stroke:#D3D3D3;}
	.st13{fill:none;stroke:#C4C4C4;stroke-width:0.9;stroke-miterlimit:10;}
	.st14{fill:#D3D3D3;}
	.st15{opacity:0.6;fill:#D3D3D3;}
	.st16{fill:none;stroke:#C4C4C4;stroke-miterlimit:10;}
	.st17{fill:#C4C4C4;}
</style>
<g >
</g>
<g >
</g>
<g >
	<path class="st8" d="M25.8948,23.8259L13.8785,1.7361c-0.3787-0.6962-1.3782-0.6962-1.7569,0L0.1051,23.8259
		c-0.3625,0.6664,0.1199,1.4778,0.8784,1.4778h24.0328C25.775,25.3038,26.2573,24.4923,25.8948,23.8259z M11.9997,8.6745
		c0-0.1381,0.1119-0.25,0.25-0.25h1.5c0.1381,0,0.25,0.1119,0.25,0.25v8.7354c0,0.1381-0.1119,0.25-0.25,0.25h-1.5
		c-0.1381,0-0.25-0.1119-0.25-0.25V8.6745z M13,23.0757c-0.8501,0-1.5392-0.6891-1.5392-1.5392S12.1499,19.9972,13,19.9972
		s1.5392,0.6891,1.5392,1.5392S13.8501,23.0757,13,23.0757z"/>
</g>
<g >
</g>
</svg>
