<?xml version="1.0" encoding="utf-8"?>
<!-- Generator: Adobe Illustrator 25.4.1, SVG Export Plug-In . SVG Version: 6.00 Build 0)  -->
<svg version="1.1" xmlns="http://www.w3.org/2000/svg" xmlns:xlink="http://www.w3.org/1999/xlink" x="0px" y="0px"
	 viewBox="0 0 80 56" style="enable-background:new 0 0 80 56;" xml:space="preserve">
<style type="text/css">
	.st0{display:none;}
	.st1{display:inline;}
	.st2{fill:none;stroke:#000000;stroke-miterlimit:10;}
	.st3{fill:#FFFFFF;}
	.st4{fill:#020203;}
	.st5{fill:none;}
	.st6{display:inline;opacity:0.3;}
	.st7{fill:#616160;}
	.st8{fill:none;stroke:#616160;stroke-miterlimit:10;}
	.st9{display:inline;fill:none;stroke:#616160;stroke-miterlimit:10;}
	.st10{display:inline;fill:none;stroke:#616160;}
	.st11{display:inline;fill:#616160;}
	.st12{display:none;opacity:0.5;}
	.st13{display:inline;opacity:0.58;}
	.st14{fill:#010202;}
	.st15{fill:#F0F0F0;}
	.st16{fill:#1F70B7;}
	.st17{fill:none;stroke:#C4C4C4;stroke-width:0.5;}
	.st18{fill:#2470B7;}
	.st19{fill:none;stroke:#FFFFFF;stroke-linecap:round;stroke-linejoin:round;}
	.st20{fill:none;stroke:#B4B0B0;stroke-width:0.5;}
	.st21{fill:#C4C4C4;}
	.st22{fill:none;stroke:#C4C4C4;stroke-width:2;}
	.st23{fill:#1D70B8;}
	.st24{fill:none;stroke:#1D70B8;stroke-width:2;}
	.st25{fill:none;stroke:#1D70B8;}
	.st26{fill:none;stroke:#1D70B8;stroke-width:3;}
</style>
<g id="Editabl" class="st0">
</g>
<g id="Guides">
</g>
<g  class="st12">
</g>
<g >
	<g>
		<path id="Rectangle_15964_00000119096339758774096530000003074690974435024051_" class="st21" d="M9.375,5.25h61.25
			c0.4832,0,0.875,0.3918,0.875,0.875V10.5c0,0.4832-0.3918,0.875-0.875,0.875H9.375c-0.4832,0-0.875-0.3918-0.875-0.875V6.125
			C8.5,5.6418,8.8918,5.25,9.375,5.25z"/>
		<path id="Rectangle_15967_00000174588095723300697530000007418311537771895731_" class="st21" d="M9.375,15.4143h45.5
			c0.4832,0,0.875,0.3918,0.875,0.875v4.375c0,0.4832-0.3918,0.875-0.875,0.875h-45.5c-0.4832,0-0.875-0.3918-0.875-0.875v-4.375
			C8.5,15.8061,8.8918,15.4143,9.375,15.4143z"/>
		<path id="Rectangle_15970_00000119090863394673755970000008095775016018235561_" class="st21" d="M9.375,25.5786h38.5
			c0.4832,0,0.875,0.3918,0.875,0.875v4.375c0,0.4832-0.3918,0.875-0.875,0.875h-38.5c-0.4832,0-0.875-0.3918-0.875-0.875v-4.375
			C8.5,25.9704,8.8918,25.5786,9.375,25.5786z"/>
	</g>
	<path id="Rectangle_15973_00000037674935471381154460000018003803542501027242_" class="st21" d="M37.177,44.2233h18.375
		c0.4832,0,0.875,0.3918,0.875,0.875v4.375c0,0.4832-0.3918,0.875-0.875,0.875H37.177c-0.4832,0-0.875-0.3918-0.875-0.875v-4.375
		C36.302,44.6151,36.6937,44.2233,37.177,44.2233z"/>
	<path id="Rectangle_15976_00000164508171402349482880000007452059520439702150_" class="st21" d="M9.375,44.2233H27.75
		c0.4832,0,0.875,0.3918,0.875,0.875v4.375c0,0.4832-0.3918,0.875-0.875,0.875H9.375c-0.4832,0-0.875-0.3918-0.875-0.875v-4.375
		C8.5,44.6151,8.8918,44.2233,9.375,44.2233z"/>
</g>
</svg>
