<svg xmlns="http://www.w3.org/2000/svg" width="14.759" height="17.54" viewBox="0 0 14.759 17.54">
  <path id="Icon_material-rotate-left" data-name="Icon material-rotate-left" d="M8.922,8.477,7.615,7.161a7.34,7.34,0,0,0-1.51,3.6H7.977A5.5,5.5,0,0,1,8.922,8.477Zm-.945,4.142H6.105a7.325,7.325,0,0,0,1.5,3.6l1.306-1.316a5.555,5.555,0,0,1-.936-2.289Zm.936,4.929a7.342,7.342,0,0,0,3.613,1.492V17.158a5.479,5.479,0,0,1-2.279-.954Zm5.467-13.2V1.5L10.163,5.716l4.216,4.123V6.216a5.553,5.553,0,0,1,0,10.952v1.872a7.4,7.4,0,0,0,0-14.695Z" transform="translate(-6.105 -1.5)" fill="#c4c4c4"/>
</svg>
