<svg xmlns="http://www.w3.org/2000/svg" width="14.76" height="17.54" viewBox="0 0 14.76 17.54">
  <path id="Icon_material-rotate-right" data-name="Icon material-rotate-right" d="M16.7,5.716,12.486,1.5V4.344a7.4,7.4,0,0,0,0,14.695V17.168a5.553,5.553,0,0,1,0-10.952V9.839Zm4.058,5.05a7.325,7.325,0,0,0-1.5-3.6L17.943,8.477a5.379,5.379,0,0,1,.945,2.289Zm-6.421,6.393V19.03a7.342,7.342,0,0,0,3.613-1.492L16.618,16.2A5.361,5.361,0,0,1,14.339,17.158Zm3.6-2.242,1.316,1.306a7.325,7.325,0,0,0,1.5-3.6H18.888a5.464,5.464,0,0,1-.945,2.3Z" transform="translate(-6 -1.5)" fill="#C4C4C4"/>
</svg>
