<?xml version="1.0" encoding="utf-8"?>
<!-- Generator: Adobe Illustrator 25.4.0, SVG Export Plug-In . SVG Version: 6.00 Build 0)  -->
<svg version="1.1" xmlns="http://www.w3.org/2000/svg" xmlns:xlink="http://www.w3.org/1999/xlink" x="0px" y="0px"
	 viewBox="0 0 102 41" style="enable-background:new 0 0 102 41;" xml:space="preserve">
<style type="text/css">
	.st0{fill:#FFFFFF;}
	.st1{fill:none;stroke:#C5C4C4;stroke-width:1.5;stroke-miterlimit:10;}
	.st2{fill:#C5C4C4;}
	.st3{fill:#616160;}
	.st4{fill:#C4C4C4;}
	.st5{enable-background:new    ;}
	.st6{fill:#020203;}
	.st7{fill:none;stroke:#D3D3D3;stroke-width:1.5;stroke-miterlimit:10;}
	.st8{fill:#D3D3D3;}
	.st9{fill:none;stroke:#C5C4C4;stroke-width:0.75;stroke-miterlimit:10;}
	.st10{fill:none;stroke:#616160;stroke-miterlimit:10;}
	.st11{fill:none;stroke:#616160;stroke-width:2;stroke-miterlimit:10;}
	.st12{fill:none;stroke:#616160;stroke-width:0.75;stroke-miterlimit:10;}
	.st13{fill:#616160;stroke:#616160;stroke-miterlimit:10;}
	.st14{fill:none;stroke:#FFFFFF;stroke-miterlimit:10;}
	.st15{fill:#1D70B8;}
	.st16{fill:#FFFFFF;stroke:#C5C4C4;stroke-width:1.5;stroke-miterlimit:10;}
	.st17{fill:none;stroke:#616160;stroke-width:1.5;stroke-miterlimit:10;}
	.st18{fill:none;stroke:#D3D3D3;stroke-width:0.5;}
	.st19{fill:#FFFFFF;stroke:#616160;}
	.st20{fill:none;stroke:#616160;stroke-width:0.5;stroke-miterlimit:10;}
	.st21{fill:#FFFFFF;stroke:#616160;stroke-width:1.5;}
	.st22{fill:#C5C4C4;stroke:#C5C4C4;stroke-width:1.5;stroke-miterlimit:10;}
	.st23{opacity:0.6;}
	.st24{opacity:0.6;fill:#C5C4C4;}
	.st25{fill:#FFFFFF;stroke:#616160;stroke-width:0.5;}
	.st26{fill:none;stroke:#616160;stroke-width:0.5;}
</style>
<g id="Layer_5">
	<g id="Layer_7">
	</g>
	<rect x="12.0289" y="16.4927" class="st0" width="90.0251" height="24.5287"/>
</g>
<g >
</g>
<g >
</g>
<g id="Layer_6">
</g>
<g >
	<g>
		<g>
			<path class="st0" d="M11.8025,41.2794V6.7827c0-0.5531,0.4484-1.0015,1.0015-1.0015h89.4512"/>
		</g>
		<g>
			<path class="st2" d="M12.5527,41.2793h-1.5V6.7822c0-0.9658,0.7856-1.751,1.7515-1.751h89.4512v1.5H12.8042
				c-0.1387,0-0.2515,0.1123-0.2515,0.251V41.2793z"/>
		</g>
	</g>
	<g>
		<path class="st3" d="M102.292,17.9099H11.0984V6.0361c0-0.5659,0.4587-1.0246,1.0246-1.0246h90.169V17.9099z"/>
	</g>
	<g>
		<circle class="st0" cx="16.2731" cy="9.2615" r="0.7137"/>
	</g>
	<g>
		<circle class="st0" cx="16.2731" cy="12.0521" r="0.7137"/>
	</g>
	<g>
		<circle class="st0" cx="16.2731" cy="14.8427" r="0.7137"/>
	</g>
	<g>
		<circle class="st0" cx="19.208" cy="9.2615" r="0.7137"/>
	</g>
	<g>
		<circle class="st0" cx="19.208" cy="12.0521" r="0.7137"/>
	</g>
	<g>
		<circle class="st0" cx="19.208" cy="14.8427" r="0.7137"/>
	</g>
</g>
<g id="Layer_8">
</g>
<g >
	<g>
		<path class="st0" d="M25.98,13.3887c0,0.5078-0.1836,0.9062-0.5508,1.1953s-0.874,0.4336-1.5195,0.4336
			s-1.1748-0.1006-1.5859-0.3008V13.834c0.2607,0.1221,0.5371,0.2188,0.8301,0.2891s0.5654,0.1055,0.8184,0.1055
			c0.3701,0,0.6426-0.0703,0.8184-0.2109s0.2637-0.3291,0.2637-0.5664c0-0.2139-0.0811-0.3945-0.2422-0.543s-0.4951-0.3242-1-0.5273
			c-0.5205-0.2109-0.8877-0.4521-1.1016-0.7227s-0.3203-0.5967-0.3203-0.9766c0-0.4766,0.1689-0.8516,0.5078-1.125
			s0.793-0.4102,1.3633-0.4102c0.5469,0,1.0908,0.1201,1.6328,0.3594l-0.2969,0.7617c-0.5078-0.2139-0.9609-0.3203-1.3594-0.3203
			c-0.3018,0-0.5312,0.0654-0.6875,0.1973s-0.2344,0.3057-0.2344,0.5215c0,0.1484,0.0312,0.2754,0.0938,0.3809
			s0.165,0.2051,0.3086,0.2988s0.4014,0.2178,0.7734,0.3711c0.4189,0.1748,0.7266,0.3369,0.9219,0.4883s0.3389,0.3213,0.4297,0.5117
			S25.98,13.1309,25.98,13.3887z"/>
		<path class="st0" d="M28.8745,15.0176c-0.6719,0-1.1973-0.1963-1.5762-0.5879S26.73,13.498,26.73,12.8105
			c0-0.7061,0.1758-1.2607,0.5273-1.6641s0.835-0.6055,1.4492-0.6055c0.5703,0,1.0205,0.1729,1.3516,0.5195
			s0.4961,0.8232,0.4961,1.4297v0.4961h-2.8789c0.0127,0.4189,0.126,0.7412,0.3398,0.9668s0.5146,0.3379,0.9023,0.3379
			c0.2549,0,0.4932-0.0244,0.7129-0.0723s0.4561-0.1279,0.709-0.2402v0.7461c-0.2236,0.1064-0.4502,0.1826-0.6797,0.2266
			S29.1685,15.0176,28.8745,15.0176z M28.7065,11.2363c-0.292,0-0.5254,0.0928-0.7012,0.2773s-0.2803,0.4541-0.3145,0.8086h1.9609
			c-0.0049-0.3564-0.0908-0.627-0.2578-0.8105S28.9985,11.2363,28.7065,11.2363z"/>
		<path class="st0" d="M33.3394,15.0176c-0.6533,0-1.1504-0.1904-1.4902-0.5723s-0.5098-0.9287-0.5098-1.6426
			c0-0.7266,0.1777-1.2852,0.5332-1.6758s0.8691-0.5859,1.541-0.5859c0.4561,0,0.8662,0.085,1.2305,0.2539l-0.2773,0.7383
			c-0.3877-0.1514-0.708-0.2266-0.9609-0.2266c-0.7471,0-1.1211,0.4961-1.1211,1.4883c0,0.4844,0.0928,0.8486,0.2793,1.0918
			s0.459,0.3652,0.8184,0.3652c0.4092,0,0.7959-0.1016,1.1602-0.3047v0.8008c-0.1641,0.0967-0.3389,0.165-0.5254,0.207
			S33.605,15.0176,33.3394,15.0176z"/>
		<path class="st0" d="M37.1675,14.2754c0.2236,0,0.4482-0.0352,0.6719-0.1055v0.6914c-0.1016,0.0439-0.2324,0.0811-0.3926,0.1113
			s-0.3262,0.0449-0.498,0.0449c-0.8701,0-1.3047-0.458-1.3047-1.375v-2.3281h-0.5898v-0.4062l0.6328-0.3359l0.3125-0.9141h0.5664
			v0.9609h1.2305v0.6953h-1.2305v2.3125c0,0.2217,0.0557,0.3848,0.166,0.4902S36.9878,14.2754,37.1675,14.2754z"/>
		<path class="st0" d="M38.6479,9.4746c0-0.1641,0.0449-0.29,0.1348-0.3789s0.2178-0.1328,0.3848-0.1328
			c0.1611,0,0.2871,0.0439,0.377,0.1328s0.1348,0.2148,0.1348,0.3789c0,0.1562-0.0449,0.2793-0.1348,0.3691
			s-0.2158,0.1348-0.377,0.1348c-0.167,0-0.2949-0.0449-0.3848-0.1348S38.6479,9.6309,38.6479,9.4746z M39.6206,14.9395h-0.918
			v-4.3203h0.918V14.9395z"/>
		<path class="st0" d="M44.7651,12.7715c0,0.7061-0.1807,1.2568-0.543,1.6523s-0.8662,0.5938-1.5117,0.5938
			c-0.4033,0-0.7607-0.0908-1.0703-0.2734s-0.5479-0.4443-0.7148-0.7852s-0.25-0.7373-0.25-1.1875
			c0-0.7002,0.1797-1.2471,0.5391-1.6406s0.8662-0.5898,1.5195-0.5898c0.625,0,1.1201,0.2012,1.4844,0.6035
			S44.7651,12.0889,44.7651,12.7715z M41.6206,12.7715c0,0.9971,0.3682,1.4961,1.1055,1.4961c0.7295,0,1.0938-0.499,1.0938-1.4961
			c0-0.9873-0.3672-1.4805-1.1016-1.4805c-0.3857,0-0.665,0.1279-0.8379,0.3828S41.6206,12.2949,41.6206,12.7715z"/>
		<path class="st0" d="M49.6206,14.9395h-0.9219v-2.6562c0-0.333-0.0674-0.582-0.2012-0.7461s-0.3467-0.2461-0.6387-0.2461
			c-0.3877,0-0.6719,0.1143-0.8516,0.3438s-0.2695,0.6133-0.2695,1.1523v2.1523h-0.918v-4.3203h0.7188l0.1289,0.5664h0.0469
			c0.1299-0.2061,0.3154-0.3643,0.5547-0.4766s0.5049-0.168,0.7969-0.168c1.0361,0,1.5547,0.5273,1.5547,1.582V14.9395z"/>
	</g>
</g>
</svg>
