<?xml version="1.0" encoding="utf-8"?>
<!-- Generator: Adobe Adobe Illustrator 24.2.0, SVG Export Plug-In . SVG Version: 6.00 Build 0)  -->
<svg version="1.1" xmlns="http://www.w3.org/2000/svg" xmlns:xlink="http://www.w3.org/1999/xlink" x="0px" y="0px"
	 viewBox="0 0 26 26" style="enable-background:new 0 0 26 26;" xml:space="preserve">
<style type="text/css">
	.st0{stroke:#000000;stroke-width:0.3237;stroke-miterlimit:10;}
</style>
<g >
</g>
<g id="Icons">
	<g id="XMLID_1962_">
		<path id="XMLID_536_" d="M24.4,6.5H1.6C0.7,6.5,0,5.8,0,4.9V1.6C0,0.7,0.7,0,1.6,0h22.8C25.3,0,26,0.7,26,1.6v3.2
			C26,5.8,25.3,6.5,24.4,6.5z M1.6,1.6v3.2h22.8V1.6H1.6z"/>
	</g>
	<g id="XMLID_417_">
		<path id="XMLID_533_" d="M24.4,16.2H1.6c-0.9,0-1.6-0.7-1.6-1.6v-3.2c0-0.9,0.7-1.6,1.6-1.6h22.8c0.9,0,1.6,0.7,1.6,1.6v3.2
			C26,15.5,25.3,16.2,24.4,16.2z M1.6,11.4v3.2h22.8v-3.2H1.6z"/>
	</g>
	<g id="XMLID_418_">
		<path id="XMLID_530_" d="M24.4,26.4H1.6c-0.9,0-1.6-0.7-1.6-1.6v-3.2c0-0.9,0.7-1.6,1.6-1.6h22.8c0.9,0,1.6,0.7,1.6,1.6v3.2
			C26,25.6,25.3,26.4,24.4,26.4z M1.6,21.5v3.2h22.8v-3.2H1.6z"/>
	</g>
</g>
</svg>
