<?xml version="1.0" encoding="utf-8"?>
<!-- Generator: Adobe Illustrator 25.4.0, SVG Export Plug-In . SVG Version: 6.00 Build 0)  -->
<svg version="1.1" xmlns="http://www.w3.org/2000/svg" xmlns:xlink="http://www.w3.org/1999/xlink" x="0px" y="0px"
	 viewBox="0 0 102 41" style="enable-background:new 0 0 102 41;" xml:space="preserve">
<style type="text/css">
	.st0{fill:#FFFFFF;}
	.st1{fill:none;stroke:#C5C4C4;stroke-width:1.5;stroke-miterlimit:10;}
	.st2{fill:#C5C4C4;}
	.st3{fill:#616160;}
	.st4{fill:#C4C4C4;}
	.st5{enable-background:new    ;}
	.st6{fill:#020203;}
	.st7{fill:none;stroke:#D3D3D3;stroke-width:1.5;stroke-miterlimit:10;}
	.st8{fill:#D3D3D3;}
	.st9{fill:none;stroke:#C5C4C4;stroke-width:0.75;stroke-miterlimit:10;}
	.st10{fill:none;stroke:#616160;stroke-miterlimit:10;}
	.st11{fill:none;stroke:#616160;stroke-width:2;stroke-miterlimit:10;}
	.st12{fill:none;stroke:#616160;stroke-width:0.75;stroke-miterlimit:10;}
	.st13{fill:#616160;stroke:#616160;stroke-miterlimit:10;}
	.st14{fill:none;stroke:#FFFFFF;stroke-miterlimit:10;}
	.st15{fill:#1D70B8;}
	.st16{fill:#FFFFFF;stroke:#C5C4C4;stroke-width:1.5;stroke-miterlimit:10;}
	.st17{fill:none;stroke:#616160;stroke-width:1.5;stroke-miterlimit:10;}
	.st18{fill:none;stroke:#D3D3D3;stroke-width:0.5;}
	.st19{fill:#FFFFFF;stroke:#616160;}
	.st20{fill:none;stroke:#616160;stroke-width:0.5;stroke-miterlimit:10;}
	.st21{fill:#FFFFFF;stroke:#616160;stroke-width:1.5;}
	.st22{fill:#C5C4C4;stroke:#C5C4C4;stroke-width:1.5;stroke-miterlimit:10;}
	.st23{opacity:0.6;}
	.st24{opacity:0.6;fill:#C5C4C4;}
	.st25{fill:#FFFFFF;stroke:#616160;stroke-width:0.5;}
	.st26{fill:none;stroke:#616160;stroke-width:0.5;}
</style>
<g id="Layer_5">
	<g id="Layer_7">
	</g>
	<rect x="12.0289" y="5.4995" class="st0" width="90.0251" height="35.5219"/>
</g>
<g >
</g>
<g >
</g>
<g id="Layer_6">
</g>
<g >
	<g>
		<circle class="st3" cx="16.2731" cy="9.2615" r="0.7137"/>
	</g>
	<g>
		<circle class="st3" cx="16.2731" cy="12.0521" r="0.7137"/>
	</g>
	<g>
		<circle class="st3" cx="16.2731" cy="14.8427" r="0.7137"/>
	</g>
	<g>
		<circle class="st3" cx="19.208" cy="9.2615" r="0.7137"/>
	</g>
	<g>
		<circle class="st3" cx="19.208" cy="12.0521" r="0.7137"/>
	</g>
	<g>
		<circle class="st3" cx="19.208" cy="14.8427" r="0.7137"/>
	</g>
	<g>
		<path class="st2" d="M12.3086,41.0029h-1.5V6.5049c0-0.9648,0.7881-1.75,1.7559-1.75h89.7021v1.5H12.5645
			c-0.1406,0-0.2559,0.1123-0.2559,0.25V41.0029z"/>
	</g>
	<g>
		<path class="st3" d="M102.4121,18.6602H10.8086V6.5049c0-0.9648,0.7881-1.75,1.7559-1.75h89.8477v1.5H12.5645
			c-0.1406,0-0.2559,0.1123-0.2559,0.25v10.6553h90.1035V18.6602z"/>
	</g>
</g>
<g id="Layer_8">
</g>
<g >
	<g>
		<path class="st3" d="M25.9805,13.3887c0,0.5078-0.1836,0.9062-0.5508,1.1953s-0.875,0.4336-1.5195,0.4336
			c-0.6465,0-1.1758-0.1006-1.5859-0.3008V13.834c0.2598,0.1221,0.5371,0.2188,0.8301,0.2891s0.5645,0.1055,0.8184,0.1055
			c0.3691,0,0.6426-0.0703,0.8184-0.2109s0.2637-0.3291,0.2637-0.5664c0-0.2139-0.082-0.3945-0.2422-0.543
			c-0.1621-0.1484-0.4961-0.3242-1-0.5273c-0.5215-0.2109-0.8887-0.4521-1.1016-0.7227c-0.2148-0.2705-0.3203-0.5967-0.3203-0.9766
			c0-0.4766,0.168-0.8516,0.5078-1.125c0.3379-0.2734,0.793-0.4102,1.3633-0.4102c0.5469,0,1.0898,0.1201,1.6328,0.3594
			l-0.2969,0.7617c-0.5078-0.2139-0.9609-0.3203-1.3594-0.3203c-0.3027,0-0.5312,0.0654-0.6875,0.1973s-0.2344,0.3057-0.2344,0.5215
			c0,0.1484,0.0312,0.2754,0.0938,0.3809s0.1641,0.2051,0.3086,0.2988c0.1426,0.0938,0.4004,0.2178,0.7734,0.3711
			c0.418,0.1748,0.7266,0.3369,0.9219,0.4883s0.3379,0.3213,0.4297,0.5117C25.9336,12.9072,25.9805,13.1309,25.9805,13.3887z"/>
		<path class="st3" d="M28.875,15.0176c-0.6719,0-1.1973-0.1963-1.5762-0.5879s-0.5684-0.9316-0.5684-1.6191
			c0-0.7061,0.1758-1.2607,0.5273-1.6641s0.834-0.6055,1.4492-0.6055c0.5703,0,1.0195,0.1729,1.3516,0.5195
			c0.3301,0.3467,0.4961,0.8232,0.4961,1.4297v0.4961h-2.8789c0.0117,0.4189,0.125,0.7412,0.3398,0.9668
			c0.2129,0.2256,0.5137,0.3379,0.9023,0.3379c0.2539,0,0.4922-0.0244,0.7129-0.0723c0.2188-0.0479,0.4551-0.1279,0.709-0.2402
			v0.7461c-0.2246,0.1064-0.4512,0.1826-0.6797,0.2266C29.4297,14.9951,29.168,15.0176,28.875,15.0176z M28.707,11.2363
			c-0.293,0-0.5254,0.0928-0.7012,0.2773s-0.2812,0.4541-0.3145,0.8086h1.9609c-0.0059-0.3564-0.0918-0.627-0.2578-0.8105
			C29.2266,11.3281,28.998,11.2363,28.707,11.2363z"/>
		<path class="st3" d="M33.3398,15.0176c-0.6543,0-1.1504-0.1904-1.4902-0.5723s-0.5098-0.9287-0.5098-1.6426
			c0-0.7266,0.1777-1.2852,0.5332-1.6758s0.8691-0.5859,1.541-0.5859c0.4551,0,0.8652,0.085,1.2305,0.2539l-0.2773,0.7383
			c-0.3887-0.1514-0.709-0.2266-0.9609-0.2266c-0.748,0-1.1211,0.4961-1.1211,1.4883c0,0.4844,0.0918,0.8486,0.2793,1.0918
			c0.1855,0.2432,0.459,0.3652,0.8184,0.3652c0.4082,0,0.7949-0.1016,1.1602-0.3047v0.8008
			c-0.1641,0.0967-0.3398,0.165-0.5254,0.207C33.8301,14.9971,33.6055,15.0176,33.3398,15.0176z"/>
		<path class="st3" d="M37.168,14.2754c0.2227,0,0.4473-0.0352,0.6719-0.1055v0.6914c-0.1016,0.0439-0.2324,0.0811-0.3926,0.1113
			s-0.3262,0.0449-0.498,0.0449c-0.8711,0-1.3047-0.458-1.3047-1.375v-2.3281h-0.5898v-0.4062l0.6328-0.3359L36,9.6582h0.5664
			v0.9609h1.2305v0.6953h-1.2305v2.3125c0,0.2217,0.0547,0.3848,0.166,0.4902C36.8418,14.2227,36.9883,14.2754,37.168,14.2754z"/>
		<path class="st3" d="M38.6484,9.4746c0-0.1641,0.0449-0.29,0.1348-0.3789S39,8.9629,39.168,8.9629
			c0.1602,0,0.2871,0.0439,0.377,0.1328s0.1348,0.2148,0.1348,0.3789c0,0.1562-0.0449,0.2793-0.1348,0.3691
			s-0.2168,0.1348-0.377,0.1348c-0.168,0-0.2949-0.0449-0.3848-0.1348S38.6484,9.6309,38.6484,9.4746z M39.6211,14.9395h-0.918
			v-4.3203h0.918V14.9395z"/>
		<path class="st3" d="M44.7656,12.7715c0,0.7061-0.1816,1.2568-0.543,1.6523c-0.3633,0.3955-0.8672,0.5938-1.5117,0.5938
			c-0.4043,0-0.7617-0.0908-1.0703-0.2734c-0.3105-0.1826-0.5488-0.4443-0.7148-0.7852c-0.168-0.3408-0.25-0.7373-0.25-1.1875
			c0-0.7002,0.1797-1.2471,0.5391-1.6406s0.8652-0.5898,1.5195-0.5898c0.625,0,1.1191,0.2012,1.4844,0.6035
			C44.582,11.5469,44.7656,12.0889,44.7656,12.7715z M41.6211,12.7715c0,0.9971,0.3672,1.4961,1.1055,1.4961
			c0.7285,0,1.0938-0.499,1.0938-1.4961c0-0.9873-0.3672-1.4805-1.1016-1.4805c-0.3867,0-0.666,0.1279-0.8379,0.3828
			C41.707,11.9287,41.6211,12.2949,41.6211,12.7715z"/>
		<path class="st3" d="M49.6211,14.9395h-0.9219v-2.6562c0-0.333-0.0684-0.582-0.2012-0.7461
			c-0.1348-0.1641-0.3477-0.2461-0.6387-0.2461c-0.3887,0-0.6719,0.1143-0.8516,0.3438s-0.2695,0.6133-0.2695,1.1523v2.1523h-0.918
			v-4.3203h0.7188l0.1289,0.5664h0.0469c0.1289-0.2061,0.3145-0.3643,0.5547-0.4766c0.2383-0.1123,0.5039-0.168,0.7969-0.168
			c1.0352,0,1.5547,0.5273,1.5547,1.582V14.9395z"/>
	</g>
</g>
</svg>
