<?xml version="1.0" encoding="utf-8"?>
<!-- Generator: Adobe Adobe Illustrator 24.2.0, SVG Export Plug-In . SVG Version: 6.00 Build 0)  -->
<svg version="1.1" xmlns="http://www.w3.org/2000/svg" xmlns:xlink="http://www.w3.org/1999/xlink" x="0px" y="0px"
	 viewBox="0 0 26 26" style="enable-background:new 0 0 26 26;" xml:space="preserve">
<style type="text/css">
	.st0{fill:#FFFFFF;}
</style>
<g >
	<g id="XMLID_232_">
		<rect id="XMLID_277_" x="9.85" y="5.32" width="16.15" height="1.62"/>
	</g>
	<g id="XMLID_157_">
		<rect id="XMLID_276_" y="5.32" width="4.73" height="1.62"/>
	</g>
	<g id="XMLID_234_">
		<rect id="XMLID_274_" x="20.99" y="12.43" width="5.01" height="1.62"/>
	</g>
	<g id="XMLID_172_">
		<rect id="XMLID_273_" y="12.43" width="15.98" height="1.62"/>
	</g>
	<g id="XMLID_235_">
		<rect id="XMLID_272_" x="9.34" y="19.33" width="16.66" height="1.62"/>
	</g>
	<g id="XMLID_173_">
		<rect id="XMLID_270_" y="19.33" width="4.54" height="1.62"/>
	</g>
	<g id="XMLID_171_">
		<path id="XMLID_267_" d="M18.16,16.49c-1.81,0-3.28-1.47-3.28-3.28s1.47-3.28,3.28-3.28s3.28,1.47,3.28,3.28
			S19.97,16.49,18.16,16.49z M18.16,11.56c-0.91,0-1.66,0.74-1.66,1.66s0.74,1.66,1.66,1.66s1.66-0.74,1.66-1.66
			S19.08,11.56,18.16,11.56z"/>
	</g>
	<g id="XMLID_188_">
		<path id="XMLID_264_" d="M7.2,23.15c-1.81,0-3.28-1.47-3.28-3.28s1.47-3.28,3.28-3.28c1.81,0,3.28,1.47,3.28,3.28
			S9,23.15,7.2,23.15z M7.2,18.22c-0.91,0-1.66,0.74-1.66,1.66s0.74,1.66,1.66,1.66s1.65-0.74,1.65-1.66S8.11,18.22,7.2,18.22z"/>
	</g>
	<g id="XMLID_202_">
		<path id="XMLID_261_" d="M7.2,9.41c-1.81,0-3.28-1.47-3.28-3.28S5.39,2.85,7.2,2.85c1.81,0,3.28,1.47,3.28,3.28S9,9.41,7.2,9.41z
			 M7.2,4.47c-0.91,0-1.66,0.74-1.66,1.66S6.28,7.78,7.2,7.78s1.65-0.74,1.65-1.66S8.11,4.47,7.2,4.47z"/>
	</g>
</g>
<g id="Icons">
</g>
<g id="Layer_9">
</g>
</svg>
