<svg width="77" height="66" viewBox="0 0 77 66" fill="none" xmlns="http://www.w3.org/2000/svg">
  <path
    d="M0.5 2C0.5 1.17157 1.17157 0.5 2 0.5H75C75.8284 0.5 76.5 1.17157 76.5 2V45C76.5 45.8284 75.8284 46.5 75 46.5H2C1.17157 46.5 0.5 45.8284 0.5 45V2Z"
    fill="white" fill-opacity="0.0509804" stroke="#DADADA" />
  <path d="M4.5 11.3369H71.5V42.3369H4.5V11.3369Z" fill="white" stroke="#7C7C7C" />
  <path
    d="M9.94971 7.60596L9.0708 6.27051H9.91553L10.4453 7.13965L10.98 6.27051H11.8247L10.936 7.60596L11.8662 9H11.019L10.4453 8.06494L9.86914 9H9.02441L9.94971 7.60596ZM12.8403 7.60596L11.9614 6.27051H12.8062L13.3359 7.13965L13.8706 6.27051H14.7153L13.8267 7.60596L14.7568 9H13.9097L13.3359 8.06494L12.7598 9H11.915L12.8403 7.60596ZM15.731 7.60596L14.8521 6.27051H15.6968L16.2266 7.13965L16.7612 6.27051H17.606L16.7173 7.60596L17.6475 9H16.8003L16.2266 8.06494L15.6504 9H14.8057L15.731 7.60596ZM18.6216 7.60596L17.7427 6.27051H18.5874L19.1172 7.13965L19.6519 6.27051H20.4966L19.6079 7.60596L20.5381 9H19.6909L19.1172 8.06494L18.541 9H17.6963L18.6216 7.60596Z"
    fill="white" />
  <path opacity="0.546472"
    d="M13.9497 7.60596L13.0708 6.27051H13.9155L14.4453 7.13965L14.98 6.27051H15.8247L14.936 7.60596L15.8662 9H15.019L14.4453 8.06494L13.8691 9H13.0244L13.9497 7.60596ZM16.8403 7.60596L15.9614 6.27051H16.8062L17.3359 7.13965L17.8706 6.27051H18.7153L17.8267 7.60596L18.7568 9H17.9097L17.3359 8.06494L16.7598 9H15.915L16.8403 7.60596ZM19.731 7.60596L18.8521 6.27051H19.6968L20.2266 7.13965L20.7612 6.27051H21.606L20.7173 7.60596L21.6475 9H20.8003L20.2266 8.06494L19.6504 9H18.8057L19.731 7.60596ZM22.6216 7.60596L21.7427 6.27051H22.5874L23.1172 7.13965L23.6519 6.27051H24.4966L23.6079 7.60596L24.5381 9H23.6909L23.1172 8.06494L22.541 9H21.6963L22.6216 7.60596Z"
    fill="#7C7C7C" />
  <path opacity="0.546472"
    d="M13.9497 7.60596L13.0708 6.27051H13.9155L14.4453 7.13965L14.98 6.27051H15.8247L14.936 7.60596L15.8662 9H15.019L14.4453 8.06494L13.8691 9H13.0244L13.9497 7.60596ZM16.8403 7.60596L15.9614 6.27051H16.8062L17.3359 7.13965L17.8706 6.27051H18.7153L17.8267 7.60596L18.7568 9H17.9097L17.3359 8.06494L16.7598 9H15.915L16.8403 7.60596ZM19.731 7.60596L18.8521 6.27051H19.6968L20.2266 7.13965L20.7612 6.27051H21.606L20.7173 7.60596L21.6475 9H20.8003L20.2266 8.06494L19.6504 9H18.8057L19.731 7.60596ZM22.6216 7.60596L21.7427 6.27051H22.5874L23.1172 7.13965L23.6519 6.27051H24.4966L23.6079 7.60596L24.5381 9H23.6909L23.1172 8.06494L22.541 9H21.6963L22.6216 7.60596Z"
    fill="#7C7C7C" />
  <path opacity="0.546472"
    d="M12.9497 7.44287L12.0708 6.10742H12.9155L13.4453 6.97656L13.98 6.10742H14.8247L13.936 7.44287L14.8662 8.83691H14.019L13.4453 7.90186L12.8691 8.83691H12.0244L12.9497 7.44287ZM15.8403 7.44287L14.9614 6.10742H15.8062L16.3359 6.97656L16.8706 6.10742H17.7153L16.8267 7.44287L17.7568 8.83691H16.9097L16.3359 7.90186L15.7598 8.83691H14.915L15.8403 7.44287ZM18.731 7.44287L17.8521 6.10742H18.6968L19.2266 6.97656L19.7612 6.10742H20.606L19.7173 7.44287L20.6475 8.83691H19.8003L19.2266 7.90186L18.6504 8.83691H17.8057L18.731 7.44287ZM21.6216 7.44287L20.7427 6.10742H21.5874L22.1172 6.97656L22.6519 6.10742H23.4966L22.6079 7.44287L23.5381 8.83691H22.6909L22.1172 7.90186L21.541 8.83691H20.6963L21.6216 7.44287Z"
    fill="#7C7C7C" />
  <path opacity="0.546472"
    d="M32.9497 7.60596L32.0708 6.27051H32.9155L33.4453 7.13965L33.98 6.27051H34.8247L33.936 7.60596L34.8662 9H34.019L33.4453 8.06494L32.8691 9H32.0244L32.9497 7.60596ZM35.8403 7.60596L34.9614 6.27051H35.8062L36.3359 7.13965L36.8706 6.27051H37.7153L36.8267 7.60596L37.7568 9H36.9097L36.3359 8.06494L35.7598 9H34.915L35.8403 7.60596ZM38.731 7.60596L37.8521 6.27051H38.6968L39.2266 7.13965L39.7612 6.27051H40.606L39.7173 7.60596L40.6475 9H39.8003L39.2266 8.06494L38.6504 9H37.8057L38.731 7.60596ZM41.6216 7.60596L40.7427 6.27051H41.5874L42.1172 7.13965L42.6519 6.27051H43.4966L42.6079 7.60596L43.5381 9H42.6909L42.1172 8.06494L41.541 9H40.6963L41.6216 7.60596Z"
    fill="#7C7C7C" />
  <path
    d="M4.5 5.3882C4.5 4.59599 5.26595 3.83691 6.36559 3.83691H23.6344C24.734 3.83691 25.5 4.59599 25.5 5.3882V10.8369H4.5V5.3882Z"
    fill="#7C7C7C" stroke="#7C7C7C" />
  <path
    d="M26.25 5.3882C26.25 4.4351 27.1995 3.58691 28.4731 3.58691H46.5269C47.8005 3.58691 48.75 4.4351 48.75 5.3882V11.0869H26.25V5.3882Z"
    fill="white" stroke="#C4C4C4" stroke-width="0.5" />
  <path opacity="0.546472"
    d="M54.9497 7.60596L54.0708 6.27051H54.9155L55.4453 7.13965L55.98 6.27051H56.8247L55.936 7.60596L56.8662 9H56.019L55.4453 8.06494L54.8691 9H54.0244L54.9497 7.60596ZM57.8403 7.60596L56.9614 6.27051H57.8062L58.3359 7.13965L58.8706 6.27051H59.7153L58.8267 7.60596L59.7568 9H58.9097L58.3359 8.06494L57.7598 9H56.915L57.8403 7.60596ZM60.731 7.60596L59.8521 6.27051H60.6968L61.2266 7.13965L61.7612 6.27051H62.606L61.7173 7.60596L62.6475 9H61.8003L61.2266 8.06494L60.6504 9H59.8057L60.731 7.60596ZM63.6216 7.60596L62.7427 6.27051H63.5874L64.1172 7.13965L64.6519 6.27051H65.4966L64.6079 7.60596L65.5381 9H64.6909L64.1172 8.06494L63.541 9H62.6963L63.6216 7.60596Z"
    fill="#7C7C7C" />
  <path opacity="0.546472"
    d="M32.9497 7.44287L32.0708 6.10742H32.9155L33.4453 6.97656L33.98 6.10742H34.8247L33.936 7.44287L34.8662 8.83691H34.019L33.4453 7.90186L32.8691 8.83691H32.0244L32.9497 7.44287ZM35.8403 7.44287L34.9614 6.10742H35.8062L36.3359 6.97656L36.8706 6.10742H37.7153L36.8267 7.44287L37.7568 8.83691H36.9097L36.3359 7.90186L35.7598 8.83691H34.915L35.8403 7.44287ZM38.731 7.44287L37.8521 6.10742H38.6968L39.2266 6.97656L39.7612 6.10742H40.606L39.7173 7.44287L40.6475 8.83691H39.8003L39.2266 7.90186L38.6504 8.83691H37.8057L38.731 7.44287ZM41.6216 7.44287L40.7427 6.10742H41.5874L42.1172 6.97656L42.6519 6.10742H43.4966L42.6079 7.44287L43.5381 8.83691H42.6909L42.1172 7.90186L41.541 8.83691H40.6963L41.6216 7.44287Z"
    fill="#7C7C7C" />
  <path
    d="M48.75 5.3882C48.75 4.43956 49.7182 3.58691 51.0269 3.58691H69.4731C70.7818 3.58691 71.75 4.43956 71.75 5.3882V11.0869H48.75V5.3882Z"
    fill="white" stroke="#C4C4C4" stroke-width="0.5" />
  <path
    d="M9.94971 7.44287L9.0708 6.10742H9.91553L10.4453 6.97656L10.98 6.10742H11.8247L10.936 7.44287L11.8662 8.83691H11.019L10.4453 7.90186L9.86914 8.83691H9.02441L9.94971 7.44287ZM12.8403 7.44287L11.9614 6.10742H12.8062L13.3359 6.97656L13.8706 6.10742H14.7153L13.8267 7.44287L14.7568 8.83691H13.9097L13.3359 7.90186L12.7598 8.83691H11.915L12.8403 7.44287ZM15.731 7.44287L14.8521 6.10742H15.6968L16.2266 6.97656L16.7612 6.10742H17.606L16.7173 7.44287L17.6475 8.83691H16.8003L16.2266 7.90186L15.6504 8.83691H14.8057L15.731 7.44287ZM18.6216 7.44287L17.7427 6.10742H18.5874L19.1172 6.97656L19.6519 6.10742H20.4966L19.6079 7.44287L20.5381 8.83691H19.6909L19.1172 7.90186L18.541 8.83691H17.6963L18.6216 7.44287Z"
    fill="white" />
  <path opacity="0.546472"
    d="M55.9497 7.44287L55.0708 6.10742H55.9155L56.4453 6.97656L56.98 6.10742H57.8247L56.936 7.44287L57.8662 8.83691H57.019L56.4453 7.90186L55.8691 8.83691H55.0244L55.9497 7.44287ZM58.8403 7.44287L57.9614 6.10742H58.8062L59.3359 6.97656L59.8706 6.10742H60.7153L59.8267 7.44287L60.7568 8.83691H59.9097L59.3359 7.90186L58.7598 8.83691H57.915L58.8403 7.44287ZM61.731 7.44287L60.8521 6.10742H61.6968L62.2266 6.97656L62.7612 6.10742H63.606L62.7173 7.44287L63.6475 8.83691H62.8003L62.2266 7.90186L61.6504 8.83691H60.8057L61.731 7.44287ZM64.6216 7.44287L63.7427 6.10742H64.5874L65.1172 6.97656L65.6519 6.10742H66.4966L65.6079 7.44287L66.5381 8.83691H65.6909L65.1172 7.90186L64.541 8.83691H63.6963L64.6216 7.44287Z"
    fill="#7C7C7C" />
</svg>