<svg xmlns="http://www.w3.org/2000/svg" width="90" height="53" viewBox="0 0 90 53"><defs><style>.a,.d{fill:#fff;}.a{stroke:#dadada;stroke-miterlimit:10;}.b{fill:#c4c4c4;}.b,.d{stroke:#c4c4c4;}.b,.c{stroke-width:2px;}.c{fill:#0072c6;stroke:#0072c6;}.d{stroke-width:0.5px;}.e{stroke:none;}.f{fill:none;}</style></defs><g transform="translate(16246 24425)"><g class="a" transform="translate(-16246 -24425)"><rect class="e" width="90" height="53" rx="2"/><rect class="f" x="0.5" y="0.5" width="89" height="52" rx="1.5"/></g><g class="b" transform="translate(-16238 -24419)"><circle class="e" cx="3.008" cy="3.008" r="3.008"/><circle class="f" cx="3.008" cy="3.008" r="2.008"/></g><g class="b" transform="translate(-16206.207 -24419)"><circle class="e" cx="3.14" cy="3.14" r="3.14"/><circle class="f" cx="3.14" cy="3.14" r="2.14"/></g><g class="c" transform="translate(-16223.75 -24419)"><circle class="e" cx="3.14" cy="3.14" r="3.14"/><circle class="f" cx="3.14" cy="3.14" r="2.14"/></g><g class="b" transform="translate(-16188.293 -24419)"><circle class="e" cx="3.14" cy="3.14" r="3.14"/><circle class="f" cx="3.14" cy="3.14" r="2.14"/></g><g class="b" transform="translate(-16171.293 -24419)"><circle class="e" cx="3.14" cy="3.14" r="3.14"/><circle class="f" cx="3.14" cy="3.14" r="2.14"/></g><g class="d" transform="translate(-16239 -24408)"><rect class="e" width="75" height="31"/><rect class="f" x="0.25" y="0.25" width="74.5" height="30.5"/></g></g></svg>