<svg xmlns="http://www.w3.org/2000/svg" width="90" height="53" viewBox="0 0 90 53"><defs><style>.a,.e,.f{fill:#fff;}.a{stroke:#dadada;}.a,.b{stroke-miterlimit:10;}.b{fill:rgba(0,114,198,0.05);}.b,.d,.e{stroke:#0072c6;}.c,.h{fill:none;}.c{stroke:#d3d3d3;}.d{fill:#0072c6;}.d,.e{stroke-width:2px;}.f{stroke:#c4c4c4;stroke-width:0.5px;}.g{stroke:none;}</style></defs><g transform="translate(16435 24425)"><g class="a" transform="translate(-16435 -24425)"><rect class="g" width="90" height="53" rx="2"/><rect class="h" x="0.5" y="0.5" width="89" height="52" rx="1.5"/></g><g class="b" transform="translate(-16434 -24425)"><rect class="g" width="89" height="53" rx="2"/><rect class="h" x="0.5" y="0.5" width="88" height="52" rx="1.5"/></g><g transform="translate(1.649)"><line class="c" x1="70" transform="translate(-16426.887 -24415.5)"/><g class="d" transform="translate(-16427.648 -24419)"><circle class="g" cx="3.008" cy="3.008" r="3.008"/><circle class="h" cx="3.008" cy="3.008" r="2.008"/></g><g class="e" transform="translate(-16395.855 -24419)"><circle class="g" cx="3.14" cy="3.14" r="3.14"/><circle class="h" cx="3.14" cy="3.14" r="2.14"/></g><g class="e" transform="translate(-16413.398 -24419)"><circle class="g" cx="3.14" cy="3.14" r="3.14"/><circle class="h" cx="3.14" cy="3.14" r="2.14"/></g><g class="e" transform="translate(-16377.941 -24419)"><circle class="g" cx="3.14" cy="3.14" r="3.14"/><circle class="h" cx="3.14" cy="3.14" r="2.14"/></g><g class="e" transform="translate(-16360.941 -24419)"><circle class="g" cx="3.14" cy="3.14" r="3.14"/><circle class="h" cx="3.14" cy="3.14" r="2.14"/></g></g><g class="f" transform="translate(-16427 -24408)"><rect class="g" width="75" height="31"/><rect class="h" x="0.25" y="0.25" width="74.5" height="30.5"/></g></g></svg>