<svg xmlns="http://www.w3.org/2000/svg" width="86.577" height="51" viewBox="0 0 86.577 51">
  <g id="Group_74500" data-name="Group 74500" transform="translate(-106.5 -869.5)">
    <rect id="Rectangle_14706" data-name="Rectangle 14706" width="85.577" height="50" rx="1.5" transform="translate(107 870)" fill="#fff" stroke="#dadada" stroke-miterlimit="10" stroke-width="1"/>
    <g id="Rectangle_14013" data-name="Rectangle 14013" transform="translate(113.504 892.887)" opacity="0.5">
      <rect id="Rectangle_14707" data-name="Rectangle 14707" width="71.577" height="5.141" rx="1" fill="rgba(211,211,211,0.6)"/>
      <rect id="Rectangle_14708" data-name="Rectangle 14708" width="71.077" height="5.058" rx="1" transform="translate(0.25 0.041)" fill="rgba(211,211,211,0.6)"/>
    </g>
    <g id="Rectangle_14013-2" data-name="Rectangle 14013" transform="translate(113.504 899.727)" opacity="0.5">
      <rect id="Rectangle_14709" data-name="Rectangle 14709" width="71.577" height="14.761" rx="1" fill="rgba(211,211,211,0.6)"/>
      <rect id="Rectangle_14710" data-name="Rectangle 14710" width="71.077" height="14.523" rx="1" transform="translate(0.25 0.119)" fill="rgba(211,211,211,0.6)"/>
    </g>
    <line id="Line_2445" data-name="Line 2445" x2="64.592" transform="translate(117.348 888.877)" fill="none" stroke="rgba(211,211,211,0.6)" stroke-width="1"/>
    <g id="Ellipse_3216" data-name="Ellipse 3216" transform="translate(117.348 876.88)" fill="none" stroke="#0072c6" stroke-width="1">
      <circle cx="5.216" cy="5.216" r="5.216" stroke="none"/>
      <circle cx="5.216" cy="5.216" r="4.716" fill="none"/>
    </g>
    <g id="Ellipse_3217" data-name="Ellipse 3217" transform="translate(135.348 876.88)" fill="#0072c6" stroke="#0072c6" stroke-width="1">
      <circle cx="5.216" cy="5.216" r="5.216" stroke="none"/>
      <circle cx="5.216" cy="5.216" r="4.716" fill="none"/>
    </g>
    <g id="Ellipse_3218" data-name="Ellipse 3218" transform="translate(153.799 876.88)" fill="none" stroke="#0072c6" stroke-width="1">
      <circle cx="5.216" cy="5.216" r="5.216" stroke="none"/>
      <circle cx="5.216" cy="5.216" r="4.716" fill="none"/>
    </g>
    <g id="Ellipse_3219" data-name="Ellipse 3219" transform="translate(171.799 876.88)" fill="none" stroke="#0072c6" stroke-width="1">
      <circle cx="5.216" cy="5.216" r="5.216" stroke="none"/>
      <circle cx="5.216" cy="5.216" r="4.716" fill="none"/>
    </g>
    <line id="Line_2446" data-name="Line 2446" x2="10.498" transform="translate(135.314 888.877)" fill="none" stroke="#0072c6" stroke-width="1"/>
    <path id="Path_54022" data-name="Path 54022" d="M-330.014,72.217l-2.724,2.724-1.276-1.275" transform="translate(454.576 808.517)" fill="none" stroke="#0072c6" stroke-width="1"/>
  </g>
</svg>
