<svg xmlns="http://www.w3.org/2000/svg" width="90" height="53" viewBox="0 0 90 53"><defs><style>.a,.c,.e{fill:#fff;}.a{stroke:#dadada;stroke-miterlimit:10;}.b,.f,.h{fill:none;}.b{stroke:#d3d3d3;}.c,.d,.f{stroke:#0072c6;}.c,.d{stroke-width:2px;}.d{fill:#0072c6;}.e{stroke:#c4c4c4;stroke-width:0.5px;}.g{stroke:none;}</style></defs><g transform="translate(16342 24425)"><g class="a" transform="translate(-16342 -24425)"><rect class="g" width="90" height="53" rx="2"/><rect class="h" x="0.5" y="0.5" width="89" height="52" rx="1.5"/></g><line class="b" x1="70" transform="translate(-16333.238 -24415.5)"/><g class="c" transform="translate(-16334 -24419)"><circle class="g" cx="3.008" cy="3.008" r="3.008"/><circle class="h" cx="3.008" cy="3.008" r="2.008"/></g><g class="c" transform="translate(-16302.207 -24419)"><circle class="g" cx="3.14" cy="3.14" r="3.14"/><circle class="h" cx="3.14" cy="3.14" r="2.14"/></g><g class="d" transform="translate(-16319.75 -24419)"><circle class="g" cx="3.14" cy="3.14" r="3.14"/><circle class="h" cx="3.14" cy="3.14" r="2.14"/></g><g class="c" transform="translate(-16284.293 -24419)"><circle class="g" cx="3.14" cy="3.14" r="3.14"/><circle class="h" cx="3.14" cy="3.14" r="2.14"/></g><g class="c" transform="translate(-16267.293 -24419)"><circle class="g" cx="3.14" cy="3.14" r="3.14"/><circle class="h" cx="3.14" cy="3.14" r="2.14"/></g><g class="e" transform="translate(-16335 -24408)"><rect class="g" width="75" height="31"/><rect class="h" x="0.25" y="0.25" width="74.5" height="30.5"/></g><line class="f" x1="5" transform="translate(-16319.109 -24410.5)"/></g></svg>