<svg width="77" height="66" viewBox="0 0 77 66" fill="none" xmlns="http://www.w3.org/2000/svg">
  <path
    d="M0.5 2C0.5 1.17157 1.17157 0.5 2 0.5H75C75.8284 0.5 76.5 1.17157 76.5 2V45C76.5 45.8284 75.8284 46.5 75 46.5H2C1.17157 46.5 0.5 45.8284 0.5 45V2Z"
    fill="white" stroke="#DADADA" />
  <path d="M63.6919 10.9326L65.7035 12.9442L67.7151 10.9326" stroke="white" stroke-linecap="round"
    stroke-linejoin="round" />
  <path fill-rule="evenodd" clip-rule="evenodd" d="M4 10.001H73V11.001H4V10.001Z" fill="#B8B8B8" />
  <path d="M4.5 13.501H72.5V42.501H4.5V13.501Z" stroke="#7C7C7C" />
  <path fill-rule="evenodd" clip-rule="evenodd" d="M4 10.001H26V11.001H4V10.001Z" fill="#7C7C7C" />
  <path
    d="M9.13965 6.32812L8.08496 4.72559H9.09863L9.73438 5.76855L10.376 4.72559H11.3896L10.3232 6.32812L11.4395 8.00098H10.4229L9.73438 6.87891L9.04297 8.00098H8.0293L9.13965 6.32812ZM12.6084 6.32812L11.5537 4.72559H12.5674L13.2031 5.76855L13.8447 4.72559H14.8584L13.792 6.32812L14.9082 8.00098H13.8916L13.2031 6.87891L12.5117 8.00098H11.498L12.6084 6.32812ZM16.0771 6.32812L15.0225 4.72559H16.0361L16.6719 5.76855L17.3135 4.72559H18.3271L17.2607 6.32812L18.377 8.00098H17.3604L16.6719 6.87891L15.9805 8.00098H14.9668L16.0771 6.32812ZM19.5459 6.32812L18.4912 4.72559H19.5049L20.1406 5.76855L20.7822 4.72559H21.7959L20.7295 6.32812L21.8457 8.00098H20.8291L20.1406 6.87891L19.4492 8.00098H18.4355L19.5459 6.32812Z"
    fill="#7C7C7C" />
  <path opacity="0.546472"
    d="M32.1396 6.32812L31.085 4.72559H32.0986L32.7344 5.76855L33.376 4.72559H34.3896L33.3232 6.32812L34.4395 8.00098H33.4229L32.7344 6.87891L32.043 8.00098H31.0293L32.1396 6.32812ZM35.6084 6.32812L34.5537 4.72559H35.5674L36.2031 5.76855L36.8447 4.72559H37.8584L36.792 6.32812L37.9082 8.00098H36.8916L36.2031 6.87891L35.5117 8.00098H34.498L35.6084 6.32812ZM39.0771 6.32812L38.0225 4.72559H39.0361L39.6719 5.76855L40.3135 4.72559H41.3271L40.2607 6.32812L41.377 8.00098H40.3604L39.6719 6.87891L38.9805 8.00098H37.9668L39.0771 6.32812ZM42.5459 6.32812L41.4912 4.72559H42.5049L43.1406 5.76855L43.7822 4.72559H44.7959L43.7295 6.32812L44.8457 8.00098H43.8291L43.1406 6.87891L42.4492 8.00098H41.4355L42.5459 6.32812Z"
    fill="#7C7C7C" />
  <path opacity="0.546472"
    d="M53.1396 6.32812L52.085 4.72559H53.0986L53.7344 5.76855L54.376 4.72559H55.3896L54.3232 6.32812L55.4395 8.00098H54.4229L53.7344 6.87891L53.043 8.00098H52.0293L53.1396 6.32812ZM56.6084 6.32812L55.5537 4.72559H56.5674L57.2031 5.76855L57.8447 4.72559H58.8584L57.792 6.32812L58.9082 8.00098H57.8916L57.2031 6.87891L56.5117 8.00098H55.498L56.6084 6.32812ZM60.0771 6.32812L59.0225 4.72559H60.0361L60.6719 5.76855L61.3135 4.72559H62.3271L61.2607 6.32812L62.377 8.00098H61.3604L60.6719 6.87891L59.9805 8.00098H58.9668L60.0771 6.32812ZM63.5459 6.32812L62.4912 4.72559H63.5049L64.1406 5.76855L64.7822 4.72559H65.7959L64.7295 6.32812L65.8457 8.00098H64.8291L64.1406 6.87891L63.4492 8.00098H62.4355L63.5459 6.32812Z"
    fill="#7C7C7C" />
</svg>