<svg xmlns="http://www.w3.org/2000/svg" width="86.576" height="51" viewBox="0 0 86.576 51">
  <g id="Group_74507" data-name="Group 74507" transform="translate(18724.076 14443.5)">
    <rect id="Rectangle_14701" data-name="Rectangle 14701" width="85.577" height="50" rx="1.5" transform="translate(-18723.576 -14443)" fill="#fff" stroke="#dadada" stroke-miterlimit="10" stroke-width="1"/>
    <line id="Line_2442" data-name="Line 2442" x2="5.648" transform="translate(-18713.18 -14420.929) rotate(90)" fill="none" stroke="rgba(211,211,211,0.6)" stroke-width="1"/>
    <line id="Line_2443" data-name="Line 2443" x2="5.524" transform="translate(-18713.258 -14409.882) rotate(90)" fill="none" stroke="rgba(211,211,211,0.6)" stroke-width="1"/>
    <g id="Ellipse_3212" data-name="Ellipse 3212" transform="translate(-18709.807 -14438.335) rotate(90)" fill="#0072c6" stroke="#0072c6" stroke-width="1">
      <ellipse cx="3.201" cy="3.201" rx="3.201" ry="3.201" stroke="none"/>
      <ellipse cx="3.201" cy="3.201" rx="2.701" ry="2.701" fill="none"/>
    </g>
    <g id="Ellipse_3213" data-name="Ellipse 3213" transform="translate(-18709.807 -14427.282) rotate(90)" fill="#fff" stroke="#0072c6" stroke-width="1">
      <ellipse cx="3.201" cy="3.201" rx="3.201" ry="3.201" stroke="none"/>
      <ellipse cx="3.201" cy="3.201" rx="2.701" ry="2.701" fill="none"/>
    </g>
    <g id="Ellipse_3214" data-name="Ellipse 3214" transform="translate(-18709.807 -14415.957) rotate(90)" fill="#fff" stroke="#0072c6" stroke-width="1">
      <ellipse cx="3.201" cy="3.201" rx="3.201" ry="3.201" stroke="none"/>
      <ellipse cx="3.201" cy="3.201" rx="2.701" ry="2.701" fill="none"/>
    </g>
    <g id="Ellipse_3215" data-name="Ellipse 3215" transform="translate(-18709.807 -14404.914) rotate(90)" fill="#fff" stroke="#0072c6" stroke-width="1">
      <ellipse cx="3.201" cy="3.201" rx="3.201" ry="3.201" stroke="none"/>
      <ellipse cx="3.201" cy="3.201" rx="2.701" ry="2.701" fill="none"/>
    </g>
    <line id="Line_2444" data-name="Line 2444" x2="5.438" transform="translate(-18713.18 -14432.677) rotate(90)" fill="none" stroke="#0072c6" stroke-width="1"/>
    <g id="Rectangle_14013" data-name="Rectangle 14013" transform="translate(-18704.703 -14431.495)" opacity="0.5">
      <rect id="Rectangle_14704" data-name="Rectangle 14704" width="59.703" height="32.983" rx="1" fill="rgba(211,211,211,0.6)"/>
      <rect id="Rectangle_14705" data-name="Rectangle 14705" width="59.203" height="32.745" rx="1" transform="translate(0.25 0.119)" fill="rgba(211,211,211,0.6)"/>
    </g>
    <g id="Rectangle_14013-2" data-name="Rectangle 14013" transform="translate(-18704.703 -14438.335)" opacity="0.5">
      <rect id="Rectangle_14702" data-name="Rectangle 14702" width="59.703" height="5.141" rx="1" fill="rgba(211,211,211,0.6)"/>
      <rect id="Rectangle_14703" data-name="Rectangle 14703" width="59.203" height="5.058" rx="1" transform="translate(0.25 0.041)" fill="rgba(211,211,211,0.6)"/>
    </g>
  </g>
</svg>
