<svg width="77" height="66" viewBox="0 0 77 66" fill="none" xmlns="http://www.w3.org/2000/svg">
  <path
    d="M0.5 2C0.5 1.17157 1.17157 0.5 2 0.5H75C75.8284 0.5 76.5 1.17157 76.5 2V45C76.5 45.8284 75.8284 46.5 75 46.5H2C1.17157 46.5 0.5 45.8284 0.5 45V2Z"
    fill="white" stroke="#DADADA" />
  <path fill-rule="evenodd" clip-rule="evenodd" d="M5 3.83691H73V11.8369H5V3.83691Z" fill="#E2E2E2" />
  <path opacity="0.997221"
    d="M33.1396 8.32812L32.085 6.72559H33.0986L33.7344 7.76855L34.376 6.72559H35.3896L34.3232 8.32812L35.4395 10.001H34.4229L33.7344 8.87891L33.043 10.001H32.0293L33.1396 8.32812ZM36.6084 8.32812L35.5537 6.72559H36.5674L37.2031 7.76855L37.8447 6.72559H38.8584L37.792 8.32812L38.9082 10.001H37.8916L37.2031 8.87891L36.5117 10.001H35.498L36.6084 8.32812ZM40.0771 8.32812L39.0225 6.72559H40.0361L40.6719 7.76855L41.3135 6.72559H42.3271L41.2607 8.32812L42.377 10.001H41.3604L40.6719 8.87891L39.9805 10.001H38.9668L40.0771 8.32812ZM43.5459 8.32812L42.4912 6.72559H43.5049L44.1406 7.76855L44.7822 6.72559H45.7959L44.7295 8.32812L45.8457 10.001H44.8291L44.1406 8.87891L43.4492 10.001H42.4355L43.5459 8.32812Z"
    fill="#838383" />
  <path opacity="0.997221"
    d="M53.1396 8.32812L52.085 6.72559H53.0986L53.7344 7.76855L54.376 6.72559H55.3896L54.3232 8.32812L55.4395 10.001H54.4229L53.7344 8.87891L53.043 10.001H52.0293L53.1396 8.32812ZM56.6084 8.32812L55.5537 6.72559H56.5674L57.2031 7.76855L57.8447 6.72559H58.8584L57.792 8.32812L58.9082 10.001H57.8916L57.2031 8.87891L56.5117 10.001H55.498L56.6084 8.32812ZM60.0771 8.32812L59.0225 6.72559H60.0361L60.6719 7.76855L61.3135 6.72559H62.3271L61.2607 8.32812L62.377 10.001H61.3604L60.6719 8.87891L59.9805 10.001H58.9668L60.0771 8.32812ZM63.5459 8.32812L62.4912 6.72559H63.5049L64.1406 7.76855L64.7822 6.72559H65.7959L64.7295 8.32812L65.8457 10.001H64.8291L64.1406 8.87891L63.4492 10.001H62.4355L63.5459 8.32812Z"
    fill="#838383" />
  <path d="M5.5 14.501H72.5V43.501H5.5V14.501Z" stroke="#7C7C7C" />
  <rect x="5" y="4.83691" width="22" height="6" fill="#7C7C7C" />
  <path
    d="M10.1396 8.16406L9.08496 6.56152H10.0986L10.7344 7.60449L11.376 6.56152H12.3896L11.3232 8.16406L12.4395 9.83691H11.4229L10.7344 8.71484L10.043 9.83691H9.0293L10.1396 8.16406ZM13.6084 8.16406L12.5537 6.56152H13.5674L14.2031 7.60449L14.8447 6.56152H15.8584L14.792 8.16406L15.9082 9.83691H14.8916L14.2031 8.71484L13.5117 9.83691H12.498L13.6084 8.16406ZM17.0771 8.16406L16.0225 6.56152H17.0361L17.6719 7.60449L18.3135 6.56152H19.3271L18.2607 8.16406L19.377 9.83691H18.3604L17.6719 8.71484L16.9805 9.83691H15.9668L17.0771 8.16406ZM20.5459 8.16406L19.4912 6.56152H20.5049L21.1406 7.60449L21.7822 6.56152H22.7959L21.7295 8.16406L22.8457 9.83691H21.8291L21.1406 8.71484L20.4492 9.83691H19.4355L20.5459 8.16406Z"
    fill="white" />
</svg>