<?xml version="1.0" encoding="utf-8"?>
<!-- Generator: Adobe Illustrator 25.4.0, SVG Export Plug-In . SVG Version: 6.00 Build 0)  -->
<svg version="1.1" xmlns="http://www.w3.org/2000/svg" xmlns:xlink="http://www.w3.org/1999/xlink" x="0px" y="0px"
	 viewBox="0 0 126 92" style="enable-background:new 0 0 126 92;" xml:space="preserve">
<style type="text/css">
	.st0{fill:#005EA3;}
	.st1{fill:none;stroke:#000000;stroke-miterlimit:10;}
	.st2{fill-rule:evenodd;clip-rule:evenodd;fill:#0D6F08;}
	.st3{fill:#FFFFFF;}
	.st4{fill:#0072C6;}
	.st5{fill-rule:evenodd;clip-rule:evenodd;fill:#AD6503;}
	.st6{fill-rule:evenodd;clip-rule:evenodd;fill:#D53D3D;}
	.st7{fill-rule:evenodd;clip-rule:evenodd;fill:#5C5C5C;}
	.st8{fill:#D53D3D;}
	.st9{fill:#AD6503;}
	.st10{fill:#FFFFFF;stroke:#C4C4C4;stroke-miterlimit:10;}
	.st11{fill:none;}
	.st12{fill:none;stroke:#D3D3D3;}
	.st13{font-family:'OpenSans-SemiBold';}
	.st14{font-size:8px;}
	.st15{fill:none;stroke:#C4C4C4;stroke-width:0.9;stroke-miterlimit:10;}
	.st16{fill:#D3D3D3;}
	.st17{opacity:0.6;fill:#D3D3D3;}
	.st18{fill:none;stroke:#C4C4C4;stroke-miterlimit:10;}
	.st19{fill:#C4C4C4;}
</style>
<g >
</g>
<g >
</g>
<g >
</g>
<g >
	<g id="Rectangle_14475_00000074441810077656627890000006217596707753647038_" transform="translate(160 677)">
		<path class="st10" d="M-157.5-676.6496h121c1.1046,0,2,0.8954,2,2v87c0,1.1046-0.8954,2-2,2h-121c-1.1046,0-2-0.8954-2-2v-87
			C-159.5-675.7542-158.6046-676.6496-157.5-676.6496z"/>
		<path class="st10" d="M-157.5-676.1496h121c0.8284,0,1.5,0.6716,1.5,1.5v87c0,0.8284-0.6716,1.5-1.5,1.5h-121
			c-0.8284,0-1.5-0.6716-1.5-1.5v-87C-159-675.478-158.3284-676.1496-157.5-676.1496z"/>
	</g>
	<g>
		<path class="st11" d="M27.5,11.8504h71c2.2091,0,4,1.7909,4,4v12c0,2.2091-1.7909,4-4,4h-71c-2.2091,0-4-1.7909-4-4v-12
			C23.5,13.6413,25.2909,11.8504,27.5,11.8504z"/>
		<path class="st12" d="M27.5,12.3504h71c1.933,0,3.5,1.567,3.5,3.5v12c0,1.933-1.567,3.5-3.5,3.5h-71c-1.933,0-3.5-1.567-3.5-3.5
			v-12C24,13.9174,25.567,12.3504,27.5,12.3504z"/>
		<path class="st3" d="M27.5,35.8504h71c2.2091,0,4,1.7909,4,4v12c0,2.2091-1.7909,4-4,4h-71c-2.2091,0-4-1.7909-4-4v-12
			C23.5,37.6413,25.2909,35.8504,27.5,35.8504z"/>
		<path class="st12" d="M27.5,36.3504h71c1.933,0,3.5,1.567,3.5,3.5v12c0,1.933-1.567,3.5-3.5,3.5h-71c-1.933,0-3.5-1.567-3.5-3.5
			v-12C24,37.9174,25.567,36.3504,27.5,36.3504z"/>
		<path class="st3" d="M27.5,59.8504h71c2.2091,0,4,1.7909,4,4v12c0,2.2091-1.7909,4-4,4h-71c-2.2091,0-4-1.7909-4-4v-12
			C23.5,61.6413,25.2909,59.8504,27.5,59.8504z"/>
		<path class="st12" d="M27.5,60.3504h71c1.933,0,3.5,1.567,3.5,3.5v12c0,1.933-1.567,3.5-3.5,3.5h-71c-1.933,0-3.5-1.567-3.5-3.5
			v-12C24,61.9174,25.567,60.3504,27.5,60.3504z"/>
		<text transform="matrix(1 0 0 1 30.5 24.8504)" class="st13 st14">Doc 1</text>
		<text transform="matrix(1 0 0 1 30.5 48.8504)" class="st13 st14">Doc 2</text>
		<text transform="matrix(1 0 0 1 30.5 72.8504)" class="st13 st14">Doc 3</text>
		<g>
			<path class="st15" d="M95.6953,19.5036h-2.0281c-0.1208,0-0.2188-0.0979-0.2188-0.2188v-2.0281"/>
			<path class="st15" d="M93.667,17.0378l2.247,2.247v7.1594c0,0.1208-0.0979,0.2188-0.2188,0.2188h-6.5625
				c-0.1208,0-0.2188-0.0979-0.2188-0.2188v-9.1875c0-0.1208,0.0979-0.2187,0.2187-0.2188L93.667,17.0378z"/>
			<line class="st15" x1="90.6079" y1="21.7009" x2="94.0145" y2="21.7009"/>
			<line class="st15" x1="90.6079" y1="23.8981" x2="94.0145" y2="23.8981"/>
		</g>
		<g>
			<path class="st15" d="M95.6953,43.5036h-2.0281c-0.1208,0-0.2188-0.0979-0.2188-0.2188v-2.0281"/>
			<path class="st15" d="M93.667,41.0378l2.247,2.247v7.1594c0,0.1208-0.0979,0.2188-0.2188,0.2188h-6.5625
				c-0.1208,0-0.2188-0.0979-0.2188-0.2188v-9.1875c0-0.1208,0.0979-0.2187,0.2187-0.2188L93.667,41.0378z"/>
			<line class="st15" x1="90.6079" y1="45.7009" x2="94.0145" y2="45.7009"/>
			<line class="st15" x1="90.6079" y1="47.8981" x2="94.0145" y2="47.8981"/>
		</g>
		<g>
			<path class="st15" d="M95.6953,67.5036h-2.0281c-0.1208,0-0.2188-0.0979-0.2188-0.2188v-2.0281"/>
			<path class="st15" d="M93.667,65.0378l2.247,2.247v7.1594c0,0.1208-0.0979,0.2188-0.2188,0.2188h-6.5625
				c-0.1208,0-0.2188-0.0979-0.2188-0.2188v-9.1875c0-0.1208,0.0979-0.2187,0.2187-0.2188L93.667,65.0378z"/>
			<line class="st15" x1="90.6079" y1="69.7009" x2="94.0145" y2="69.7009"/>
			<line class="st15" x1="90.6079" y1="71.8981" x2="94.0145" y2="71.8981"/>
		</g>
	</g>
</g>
</svg>
