<svg xmlns="http://www.w3.org/2000/svg" width="12.717" height="12.717" viewBox="0 0 12.717 12.717"><defs><style>.a{fill:#0072c6;}</style></defs><path class="a" d="M.4,7.153a.4.4,0,0,0-.4.4v.795a.4.4,0,0,0,.4.4H3.179V7.153ZM12.543,2.608,10.111.174A.6.6,0,0,0,9.689,0H9.538V3.179h3.179V3.028A.594.594,0,0,0,12.543,2.608Zm-3.8.77V0H3.775a.6.6,0,0,0-.6.6V7.153H6.358V5.534a.4.4,0,0,1,.681-.281l2.374,2.4a.423.423,0,0,1,0,.6L7.036,10.64a.4.4,0,0,1-.681-.281V8.743H3.179v3.378a.6.6,0,0,0,.6.6h8.345a.6.6,0,0,0,.6-.6V3.974H9.339A.6.6,0,0,1,8.743,3.378Z"/></svg>