<svg width="82" height="51" viewBox="0 0 82 51" fill="none" xmlns="http://www.w3.org/2000/svg">
<path fill-rule="evenodd" clip-rule="evenodd" d="M0 0H5.03197V50.6447H0V0Z" fill="#C4C4C4"/>
<path fill-rule="evenodd" clip-rule="evenodd" d="M7.03027 0H12.0622V50.6447H7.03027V0Z" fill="#C4C4C4"/>
<path fill-rule="evenodd" clip-rule="evenodd" d="M14.0605 0H19.0925V50.6447H14.0605V0Z" fill="#C4C4C4"/>
<path fill-rule="evenodd" clip-rule="evenodd" d="M21.0913 0H26.1233V50.6447H21.0913V0Z" fill="#C4C4C4"/>
<path fill-rule="evenodd" clip-rule="evenodd" d="M28.1216 0H33.1535V50.6447H28.1216V0Z" fill="#C4C4C4"/>
<path fill-rule="evenodd" clip-rule="evenodd" d="M35.1489 0H40.1809V50.6447H35.1489V0Z" fill="#C4C4C4"/>
<path fill-rule="evenodd" clip-rule="evenodd" d="M42.1792 0H47.2112V50.6447H42.1792V0Z" fill="#C4C4C4"/>
<path fill-rule="evenodd" clip-rule="evenodd" d="M49.2095 0H54.2414V50.6447H49.2095V0Z" fill="#C4C4C4"/>
<path fill-rule="evenodd" clip-rule="evenodd" d="M56.2397 0H61.2717V50.6447H56.2397V0Z" fill="#C4C4C4"/>
<path fill-rule="evenodd" clip-rule="evenodd" d="M63.2705 0H68.3025V50.6447H63.2705V0Z" fill="#C4C4C4"/>
<path fill-rule="evenodd" clip-rule="evenodd" d="M69.9375 0H74.9695V50.6447H69.9375V0Z" fill="#C4C4C4"/>
<path fill-rule="evenodd" clip-rule="evenodd" d="M76.9683 0H82.0002V50.6447H76.9683V0Z" fill="#C4C4C4"/>
</svg>
