<?xml version="1.0" encoding="utf-8"?>
<!-- Generator: Adobe Illustrator 25.4.0, SVG Export Plug-In . SVG Version: 6.00 Build 0)  -->
<svg version="1.1" xmlns="http://www.w3.org/2000/svg" xmlns:xlink="http://www.w3.org/1999/xlink" x="0px" y="0px"
	 viewBox="0 0 102 41" style="enable-background:new 0 0 102 41;" xml:space="preserve">
<style type="text/css">
	.st0{fill:#FFFFFF;}
	.st1{fill:none;stroke:#C5C4C4;stroke-width:1.5;stroke-miterlimit:10;}
	.st2{fill:#C5C4C4;}
	.st3{fill:#616160;}
	.st4{fill:#C4C4C4;}
	.st5{enable-background:new    ;}
	.st6{fill:#020203;}
	.st7{fill:none;stroke:#D3D3D3;stroke-width:1.5;stroke-miterlimit:10;}
	.st8{fill:#D3D3D3;}
	.st9{fill:none;stroke:#C5C4C4;stroke-width:0.75;stroke-miterlimit:10;}
	.st10{fill:none;stroke:#616160;stroke-miterlimit:10;}
	.st11{fill:none;stroke:#616160;stroke-width:2;stroke-miterlimit:10;}
	.st12{fill:none;stroke:#616160;stroke-width:0.75;stroke-miterlimit:10;}
	.st13{fill:#616160;stroke:#616160;stroke-miterlimit:10;}
	.st14{fill:none;stroke:#FFFFFF;stroke-miterlimit:10;}
	.st15{fill:#1D70B8;}
	.st16{fill:#FFFFFF;stroke:#C5C4C4;stroke-width:1.5;stroke-miterlimit:10;}
	.st17{fill:none;stroke:#616160;stroke-width:1.5;stroke-miterlimit:10;}
	.st18{fill:none;stroke:#D3D3D3;stroke-width:0.5;}
	.st19{fill:#FFFFFF;stroke:#616160;}
	.st20{fill:none;stroke:#616160;stroke-width:0.5;stroke-miterlimit:10;}
	.st21{fill:#FFFFFF;stroke:#616160;stroke-width:1.5;}
	.st22{fill:#C5C4C4;stroke:#C5C4C4;stroke-width:1.5;stroke-miterlimit:10;}
	.st23{opacity:0.6;}
	.st24{opacity:0.6;fill:#C5C4C4;}
	.st25{fill:#FFFFFF;stroke:#616160;stroke-width:0.5;}
	.st26{fill:none;stroke:#616160;stroke-width:0.5;}
</style>
<g id="Layer_5">
	<g id="Layer_7">
	</g>
</g>
<g >
</g>
<g >
</g>
<g id="Layer_6">
</g>
<g >
	<g>
		<rect x="11.5283" y="16.2119" class="st3" width="91.8594" height="1.5"/>
	</g>
	<g>
		<rect x="11.5283" y="32.6367" class="st8" width="91.8594" height="1.5"/>
	</g>
	<g>
		<rect x="11.5283" y="24.9248" class="st8" width="91.8594" height="1.5"/>
	</g>
</g>
<g id="Layer_8">
</g>
<g >
	<g>
		<path class="st3" d="M17.6904,14.2148h-0.9336V9.3047h-1.6797V8.5039h4.293v0.8008h-1.6797V14.2148z"/>
		<path class="st3" d="M22.8506,14.2148l-0.1836-0.6016h-0.0312c-0.208,0.2627-0.418,0.4424-0.6289,0.5371
			s-0.4814,0.1426-0.8125,0.1426c-0.4248,0-0.7559-0.1143-0.9941-0.3438s-0.3574-0.5537-0.3574-0.9727
			c0-0.4453,0.165-0.7812,0.4961-1.0078s0.835-0.3506,1.5117-0.3711l0.7461-0.0234v-0.2305c0-0.2764-0.0645-0.4824-0.1934-0.6191
			s-0.3291-0.2051-0.5996-0.2051c-0.2217,0-0.4336,0.0322-0.6367,0.0977s-0.3984,0.1416-0.5859,0.2305l-0.2969-0.6562
			c0.2344-0.1221,0.4912-0.2158,0.7695-0.2793s0.542-0.0957,0.7891-0.0957c0.5498,0,0.9639,0.1201,1.2441,0.3594
			s0.4199,0.6162,0.4199,1.1289v2.9102H22.8506z M21.4834,13.5898c0.333,0,0.6006-0.0928,0.8027-0.2793s0.3027-0.4473,0.3027-0.7832
			v-0.375l-0.5547,0.0234c-0.4326,0.0156-0.7471,0.0879-0.9434,0.2168s-0.2949,0.3262-0.2949,0.5918
			c0,0.1924,0.0576,0.3418,0.1719,0.4473S21.2539,13.5898,21.4834,13.5898z"/>
		<path class="st3" d="M26.9951,9.8164c0.5391,0,0.959,0.1953,1.2598,0.5859s0.4512,0.9385,0.4512,1.6445
			c0,0.708-0.1523,1.2598-0.457,1.6543s-0.7275,0.5918-1.2695,0.5918c-0.5469,0-0.9717-0.1963-1.2734-0.5898h-0.0625l-0.168,0.5117
			h-0.6875V8.1367h0.918V9.582c0,0.1064-0.0049,0.2656-0.0156,0.4766s-0.0186,0.3447-0.0234,0.4023h0.0391
			C25.998,10.0312,26.4277,9.8164,26.9951,9.8164z M26.7568,10.5664c-0.3701,0-0.6357,0.1084-0.7988,0.3262
			s-0.2471,0.5811-0.252,1.0918v0.0625c0,0.5264,0.083,0.9072,0.25,1.1426s0.4385,0.3535,0.8164,0.3535
			c0.3252,0,0.5723-0.1289,0.7402-0.3867s0.252-0.6299,0.252-1.1172C27.7646,11.0576,27.4287,10.5664,26.7568,10.5664z"/>
		<path class="st3" d="M30.6904,14.2148h-0.918V8.1367h0.918V14.2148z"/>
		<path class="st3" d="M33.8896,14.293c-0.6719,0-1.1973-0.1963-1.5762-0.5879s-0.5684-0.9316-0.5684-1.6191
			c0-0.7061,0.1758-1.2607,0.5273-1.6641s0.835-0.6055,1.4492-0.6055c0.5703,0,1.0205,0.1729,1.3516,0.5195
			s0.4961,0.8232,0.4961,1.4297v0.4961h-2.8789c0.0127,0.4189,0.126,0.7412,0.3398,0.9668s0.5146,0.3379,0.9023,0.3379
			c0.2549,0,0.4932-0.0244,0.7129-0.0723s0.4561-0.1279,0.709-0.2402V14c-0.2236,0.1064-0.4502,0.1826-0.6797,0.2266
			S34.1836,14.293,33.8896,14.293z M33.7217,10.5117c-0.292,0-0.5254,0.0928-0.7012,0.2773s-0.2803,0.4541-0.3145,0.8086h1.9609
			c-0.0049-0.3564-0.0908-0.627-0.2578-0.8105S34.0137,10.5117,33.7217,10.5117z"/>
	</g>
</g>
</svg>
