<?xml version="1.0" encoding="utf-8"?>
<!-- Generator: Adobe Adobe Illustrator 24.2.0, SVG Export Plug-In . SVG Version: 6.00 Build 0)  -->
<svg version="1.1" xmlns="http://www.w3.org/2000/svg" xmlns:xlink="http://www.w3.org/1999/xlink" x="0px" y="0px"
	 viewBox="0 0 26 26" style="enable-background:new 0 0 26 26;" xml:space="preserve">
<style type="text/css">
	.st0{stroke:#000000;stroke-width:0.3237;stroke-miterlimit:10;}
</style>
<g >
</g>
<g id="Icons">
	<path id="XMLID_385_" d="M24.4,0H1.6C0.7,0,0,0.7,0,1.6v22.8C0,25.3,0.7,26,1.6,26h22.8c0.9,0,1.6-0.7,1.6-1.6V1.6
		C26,0.7,25.3,0,24.4,0z M9.8,18.7v-3.2h6.5v3.2H9.8z M16.2,20.3v4.1H9.8v-4.1H16.2z M16.2,5.7v3.2H9.8V5.7H16.2z M16.2,10.6v3.2
		H9.8v-3.2H16.2z M8.1,13.8H1.6v-3.2h6.5V13.8z M8.1,15.4v3.2H1.6v-3.2H8.1z M17.9,15.4h6.5v3.2h-6.5V15.4z M17.9,13.8v-3.2h6.5v3.2
		H17.9z M17.9,8.9V5.7h6.5v3.2H17.9z M8.1,5.7v3.2H1.6V5.7H8.1z M1.6,20.3h6.5v4.1H1.6V20.3z M17.9,24.4v-4.1h6.5v4.1H17.9z"/>
</g>
</svg>
