<?xml version="1.0" encoding="utf-8"?>
<!-- Generator: Adobe Adobe Illustrator 24.2.0, SVG Export Plug-In . SVG Version: 6.00 Build 0)  -->
<svg version="1.1" xmlns="http://www.w3.org/2000/svg" xmlns:xlink="http://www.w3.org/1999/xlink" x="0px" y="0px"
	 viewBox="0 0 26 26" style="enable-background:new 0 0 26 26;" xml:space="preserve">
<style type="text/css">
	.st0{stroke:#000000;stroke-width:0.3237;stroke-miterlimit:10;}
</style>
<g >
</g>
<g id="Icons">
	<path id="XMLID_456_" d="M26,4.3c0-1-0.8-1.8-1.7-1.8H18c-0.3,0-0.6,0.1-0.8,0.2c-0.3-0.2-0.5-0.2-0.8-0.2h-6.3c0,0,0,0,0,0V2.4
		c0-0.9,0-1.6-0.5-2C9.1,0,8.6,0,7.5,0h-5C0.4,0,0,0.4,0,2.5v20.9C0,25.7,0.5,26,2.5,26h21.3c2,0,2.2-0.7,2.2-2.5V8.7
		c0-0.1,0-0.2,0-0.2h0V4.3z M24.3,4.3v2.4H18V4.3H24.3z M10.1,4.3h6.3v2.4l-6.3,0V4.3z M24.3,23.5c0,0.3,0,0.6,0,0.8
		c-0.1,0-0.3,0-0.5,0H2.5c-0.3,0-0.6,0-0.8,0c0-0.2,0-0.6,0-0.8V2.5c0-0.3,0-0.6,0-0.8c0.2,0,0.5,0,0.8,0h5c0.3,0,0.6,0,0.8,0
		c0,0.2,0,0.4,0,0.7v1.7c0,0,0,0.1,0,0.1v2.5c0,0,0,0.1,0,0.1v0.1c0,1,0.8,1.7,1.7,1.7h14.3V23.5z"/>
</g>
</svg>
