<?xml version="1.0" encoding="utf-8"?>
<!-- Generator: Adobe Adobe Illustrator 24.2.0, SVG Export Plug-In . SVG Version: 6.00 Build 0)  -->
<svg version="1.1" xmlns="http://www.w3.org/2000/svg" xmlns:xlink="http://www.w3.org/1999/xlink" x="0px" y="0px"
	 viewBox="0 0 16 16" style="enable-background:new 0 0 16 16;" xml:space="preserve">
<style type="text/css">
	.st0{fill:#FFFFFF;}
</style>
<g >
</g>
<g id="Icons">
	<g id="XMLID_1_">
		<path d="M15,1v14H1V1H15 M15,0H1C0.45,0,0,0.45,0,1v14c0,0.55,0.45,1,1,1h14c0.55,0,1-0.45,1-1V1C16,0.45,15.55,0,15,0L15,0z"/>
	</g>
	<g id="XMLID_27_">
		<g id="XMLID_35_">
			<path d="M12.75,9.76h-9.5C3.11,9.76,3,9.65,3,9.51V8.99c0-0.14,0.11-0.25,0.25-0.25h9.5c0.14,0,0.25,0.11,0.25,0.25v0.52
				C13,9.65,12.89,9.76,12.75,9.76z"/>
		</g>
	</g>
	<g id="XMLID_32_">
		<g id="XMLID_34_">
			<path d="M12.75,7.22h-9.5C3.11,7.22,3,7.11,3,6.97V6.45C3,6.31,3.11,6.2,3.25,6.2h9.5C12.89,6.2,13,6.31,13,6.45v0.52
				C13,7.11,12.89,7.22,12.75,7.22z"/>
		</g>
	</g>
	<g id="XMLID_29_">
		<rect id="XMLID_1242_" x="0.43" y="2.96" width="15.15" height="1"/>
	</g>
	<g id="XMLID_28_">
		<g id="XMLID_33_">
			<path d="M12.75,12.32h-9.5C3.11,12.32,3,12.21,3,12.07v-0.52c0-0.14,0.11-0.25,0.25-0.25h9.5c0.14,0,0.25,0.11,0.25,0.25v0.52
				C13,12.21,12.89,12.32,12.75,12.32z"/>
		</g>
	</g>
</g>
<g id="Layer_9">
</g>
</svg>
