<?xml version="1.0" encoding="utf-8"?>
<!-- Generator: Adobe Illustrator 25.4.0, SVG Export Plug-In . SVG Version: 6.00 Build 0)  -->
<svg version="1.1" xmlns="http://www.w3.org/2000/svg" xmlns:xlink="http://www.w3.org/1999/xlink" x="0px" y="0px"
	 viewBox="0 0 102 41" style="enable-background:new 0 0 102 41;" xml:space="preserve">
<style type="text/css">
	.st0{fill:#FFFFFF;}
	.st1{fill:none;stroke:#C5C4C4;stroke-width:1.5;stroke-miterlimit:10;}
	.st2{fill:#C5C4C4;}
	.st3{fill:#616160;}
	.st4{fill:#C4C4C4;}
	.st5{enable-background:new    ;}
	.st6{fill:#020203;}
	.st7{fill:none;stroke:#D3D3D3;stroke-width:1.5;stroke-miterlimit:10;}
	.st8{fill:#D3D3D3;}
	.st9{fill:none;stroke:#C5C4C4;stroke-width:0.75;stroke-miterlimit:10;}
	.st10{fill:none;stroke:#616160;stroke-miterlimit:10;}
	.st11{fill:none;stroke:#616160;stroke-width:2;stroke-miterlimit:10;}
	.st12{fill:none;stroke:#616160;stroke-width:0.75;stroke-miterlimit:10;}
	.st13{fill:#616160;stroke:#616160;stroke-miterlimit:10;}
	.st14{fill:none;stroke:#FFFFFF;stroke-miterlimit:10;}
	.st15{fill:#1D70B8;}
	.st16{fill:#FFFFFF;stroke:#C5C4C4;stroke-width:1.5;stroke-miterlimit:10;}
	.st17{fill:none;stroke:#616160;stroke-width:1.5;stroke-miterlimit:10;}
	.st18{fill:none;stroke:#D3D3D3;stroke-width:0.5;}
	.st19{fill:#FFFFFF;stroke:#616160;}
	.st20{fill:none;stroke:#616160;stroke-width:0.5;stroke-miterlimit:10;}
	.st21{fill:#FFFFFF;stroke:#616160;stroke-width:1.5;}
	.st22{fill:#C5C4C4;stroke:#C5C4C4;stroke-width:1.5;stroke-miterlimit:10;}
	.st23{opacity:0.6;}
	.st24{opacity:0.6;fill:#C5C4C4;}
	.st25{fill:#FFFFFF;stroke:#616160;stroke-width:0.5;}
	.st26{fill:none;stroke:#616160;stroke-width:0.5;}
</style>
<g id="Layer_5">
	<g id="Layer_7">
	</g>
</g>
<g >
</g>
<g >
</g>
<g id="Layer_6">
</g>
<g >
	<g>
		<path class="st0" d="M39.4158,17.6223H83.573c0.5523,0,1,0.4477,1,1v7.7541c0,0.5523-0.4477,1-1,1H18.5866c-0.5523,0-1-0.4477-1-1
			v-7.7541c0-0.5523,0.4477-1,1-1h1.6158"/>
		<path class="st3" d="M83.5732,28.126H18.5869c-0.9648,0-1.75-0.7852-1.75-1.75v-7.7539c0-0.9648,0.7852-1.75,1.75-1.75h1.6152v1.5
			h-1.6152c-0.1377,0-0.25,0.1123-0.25,0.25v7.7539c0,0.1377,0.1123,0.25,0.25,0.25h64.9863c0.1377,0,0.25-0.1123,0.25-0.25v-7.7539
			c0-0.1377-0.1123-0.25-0.25-0.25H39.416v-1.5h44.1572c0.9648,0,1.75,0.7852,1.75,1.75v7.7539
			C85.3232,27.3408,84.5381,28.126,83.5732,28.126z"/>
	</g>
	<g>
		<path class="st3" d="M23.5586,19.6875H22.625v-4.9102h-1.6797v-0.8008h4.293v0.8008h-1.6797V19.6875z"/>
		<path class="st3" d="M27.9023,19.7656c-0.6719,0-1.1973-0.1963-1.5762-0.5879s-0.5684-0.9316-0.5684-1.6191
			c0-0.7061,0.1758-1.2607,0.5273-1.6641s0.835-0.6055,1.4492-0.6055c0.5703,0,1.0205,0.1729,1.3516,0.5195
			s0.4961,0.8232,0.4961,1.4297v0.4961h-2.8789c0.0127,0.4189,0.126,0.7412,0.3398,0.9668s0.5146,0.3379,0.9023,0.3379
			c0.2549,0,0.4932-0.0244,0.7129-0.0723s0.4561-0.1279,0.709-0.2402v0.7461c-0.2236,0.1064-0.4502,0.1826-0.6797,0.2266
			S28.1963,19.7656,27.9023,19.7656z M27.7344,15.9844c-0.292,0-0.5254,0.0928-0.7012,0.2773s-0.2803,0.4541-0.3145,0.8086h1.9609
			c-0.0049-0.3564-0.0908-0.627-0.2578-0.8105S28.0264,15.9844,27.7344,15.9844z"/>
		<path class="st3" d="M31.5859,17.4805l-1.4492-2.1133h1.0469l0.9844,1.5117l0.9922-1.5117h1.0391l-1.4531,2.1133l1.5273,2.207
			h-1.0391l-1.0664-1.6172l-1.0625,1.6172h-1.0391L31.5859,17.4805z"/>
		<path class="st3" d="M36.6406,19.0234c0.2236,0,0.4482-0.0352,0.6719-0.1055v0.6914c-0.1016,0.0439-0.2324,0.0811-0.3926,0.1113
			s-0.3262,0.0449-0.498,0.0449c-0.8701,0-1.3047-0.458-1.3047-1.375v-2.3281h-0.5898v-0.4062l0.6328-0.3359l0.3125-0.9141h0.5664
			v0.9609h1.2305v0.6953h-1.2305v2.3125c0,0.2217,0.0557,0.3848,0.166,0.4902S36.4609,19.0234,36.6406,19.0234z"/>
	</g>
</g>
<g id="Layer_8">
</g>
<g >
</g>
</svg>
