<?xml version="1.0" encoding="utf-8"?>
<!-- Generator: Adobe Adobe Illustrator 24.2.0, SVG Export Plug-In . SVG Version: 6.00 Build 0)  -->
<svg version="1.1" xmlns="http://www.w3.org/2000/svg" xmlns:xlink="http://www.w3.org/1999/xlink" x="0px" y="0px"
	 viewBox="0 0 26 26" style="enable-background:new 0 0 26 26;" xml:space="preserve">
<style type="text/css">
	.st0{stroke:#000000;stroke-width:0.3237;stroke-miterlimit:10;}
</style>
<g >
</g>
<g id="Icons">
	<g id="XMLID_136_">
		<path id="XMLID_137_" d="M3.7,16.2H11c0.2,0,0.4-0.2,0.4-0.4V15c0-0.2-0.2-0.4-0.4-0.4H8.1V4.9H11c0.2,0,0.4-0.2,0.4-0.4V3.7
			c0-0.2-0.2-0.4-0.4-0.4H8.1H6.5H3.7c-0.2,0-0.4,0.2-0.4,0.4v0.8c0,0.2,0.2,0.4,0.4,0.4h2.8v9.8H3.7c-0.2,0-0.4,0.2-0.4,0.4v0.8
			C3.2,16.1,3.4,16.2,3.7,16.2z"/>
		<path id="XMLID_146_" d="M18.5,23.6c0.2,0.2,0.4,0.2,0.6,0l4.6-4.6c0.2-0.2,0.2-0.4,0-0.6l-0.6-0.6c-0.2-0.2-0.4-0.2-0.6,0
			l-4.6,4.6c-0.2,0.2-0.2,0.4,0,0.6L18.5,23.6z"/>
		<path id="XMLID_147_" d="M23.1,20.5l-2.6,2.6c-0.2,0.2-0.2,0.4,0,0.6l0.6,0.6c0.2,0.2,0.4,0.2,0.6,0l2.6-2.6
			c0.2-0.2,0.2-0.4,0-0.6l-0.6-0.6C23.5,20.4,23.3,20.4,23.1,20.5z"/>
		<path id="XMLID_150_" d="M24.4,0H1.6C0.7,0,0,0.7,0,1.6v22.8C0,25.3,0.7,26,1.6,26h22.8c0.9,0,1.6-0.7,1.6-1.6V1.6
			C26,0.7,25.3,0,24.4,0z M24.4,24.4H1.6V1.6h22.8V24.4z"/>
	</g>
</g>
</svg>
