<?xml version="1.0" encoding="utf-8"?>
<!-- Generator: Adobe Adobe Illustrator 24.2.0, SVG Export Plug-In . SVG Version: 6.00 Build 0)  -->
<svg version="1.1" xmlns="http://www.w3.org/2000/svg" xmlns:xlink="http://www.w3.org/1999/xlink" x="0px" y="0px"
	 viewBox="0 0 26 26" style="enable-background:new 0 0 26 26;" xml:space="preserve">
<style type="text/css">
	.st0{stroke:#000000;stroke-width:0.3237;stroke-miterlimit:10;}
</style>
<g >
</g>
<g id="Icons">
	<g id="XMLID_25_">
		<path id="XMLID_849_" d="M9.2,7.9H6.8H5.5H3.1C2.9,7.9,2.7,8,2.7,8.2v0.7c0,0.2,0.2,0.3,0.3,0.3h2.4v8.2H3.1
			c-0.2,0-0.3,0.2-0.3,0.3v0.7c0,0.2,0.2,0.3,0.3,0.3h6.2c0.2,0,0.3-0.2,0.3-0.3v-0.7c0-0.2-0.2-0.3-0.3-0.3H6.8V9.2h2.4
			c0.2,0,0.3-0.2,0.3-0.3V8.2C9.6,8,9.4,7.9,9.2,7.9z"/>
		<path id="XMLID_854_" d="M24.6,3.8H1.4C0.6,3.8,0,4.4,0,5.1v15.7c0,0.8,0.6,1.4,1.4,1.4h23.3c0.8,0,1.4-0.6,1.4-1.4V5.1
			C26,4.4,25.4,3.8,24.6,3.8z M1.4,20.9V5.1h23.3l0,15.7H1.4z"/>
	</g>
</g>
</svg>
