<?xml version="1.0" encoding="utf-8"?>
<!-- Generator: Adobe Adobe Illustrator 24.2.0, SVG Export Plug-In . SVG Version: 6.00 Build 0)  -->
<svg version="1.1" xmlns="http://www.w3.org/2000/svg" xmlns:xlink="http://www.w3.org/1999/xlink" x="0px" y="0px"
	 viewBox="0 0 26 26" style="enable-background:new 0 0 26 26;" xml:space="preserve">
<style type="text/css">
	.st0{fill:#FFFFFF;}
</style>
<g >
</g>
<g id="Icons">
	<g id="XMLID_962_">
		<g id="XMLID_174_">
			<path id="XMLID_258_" d="M9.75,11.38H1.62C0.73,11.38,0,10.65,0,9.75V1.63C0,0.73,0.73,0,1.62,0h8.12c0.9,0,1.62,0.73,1.62,1.62
				v8.12C11.38,10.65,10.65,11.38,9.75,11.38z M1.62,1.63v8.12h8.13l0-8.12H1.62z"/>
		</g>
		<g id="XMLID_170_">
			<path id="XMLID_255_" d="M24.38,11.38h-8.12c-0.9,0-1.62-0.73-1.62-1.62V1.63c0-0.9,0.73-1.62,1.62-1.62h8.12
				C25.27,0,26,0.73,26,1.63v8.12C26,10.65,25.27,11.38,24.38,11.38z M16.25,1.63v8.12h8.13l0-8.12H16.25z"/>
		</g>
		<g id="XMLID_169_">
			<path id="XMLID_252_" d="M9.75,26H1.62C0.73,26,0,25.27,0,24.38v-8.12c0-0.9,0.73-1.63,1.62-1.63h8.12c0.9,0,1.62,0.73,1.62,1.63
				v8.12C11.38,25.27,10.65,26,9.75,26z M1.62,16.25v8.12h8.13l0-8.12H1.62z"/>
		</g>
		<g id="XMLID_168_">
			<path id="XMLID_249_" d="M24.38,26h-8.12c-0.9,0-1.62-0.73-1.62-1.62v-8.12c0-0.9,0.73-1.63,1.62-1.63h8.12
				c0.9,0,1.62,0.73,1.62,1.63v8.12C26,25.27,25.27,26,24.38,26z M16.25,16.25v8.12h8.13l0-8.12H16.25z"/>
		</g>
	</g>
</g>
<g id="Layer_9">
</g>
</svg>
