<?xml version="1.0" encoding="utf-8"?>
<!-- Generator: Adobe Illustrator 27.1.1, SVG Export Plug-In . SVG Version: 6.00 Build 0)  -->
<svg version="1.1" xmlns="http://www.w3.org/2000/svg" xmlns:xlink="http://www.w3.org/1999/xlink" x="0px" y="0px"
	 viewBox="0 0 16 16" style="enable-background:new 0 0 16 16;" xml:space="preserve">
<style type="text/css">
	.st0{fill:none;}
	.st1{fill:#678134;}
	.st2{fill:#1B7D9F;}
	.st3{fill:#934D4F;}
	.st4{fill:#FFFFFF;}
	.st5{fill:#8B7734;}
	.st6{fill:none;stroke:#678134;}
	.st7{fill:none;stroke:#934D4F;}
	.st8{fill:none;stroke:#4EA3C0;}
	.st9{fill:none;stroke:#8B7734;}
</style>
<g id="Outline">
	<rect class="st0" width="16" height="16"/>
</g>
<g id="Color">
	<circle class="st3" cx="8" cy="11.72" r="1.2"/>
	<path class="st3" d="M8.9545,8.76V3.65c0-0.24-0.2-0.43-0.44-0.43h-1.029c-0.24,0-0.44,0.19-0.44,0.43v5.11
		c0.01,0.24,0.2,0.44,0.44,0.44h1.029C8.7545,9.2,8.9545,9,8.9545,8.76z"/>
</g>
<g id="White">
	<path id="Path_55779_00000114769368258920015840000011217758876522069891_" class="st4" d="M8,16c-4.42,0-8-3.58-8-8
		c0-4.42,3.58-8,8-8s8,3.58,8,8C15.99,12.42,12.42,15.99,8,16z M8.95,3.65c0-0.24-0.2-0.43-0.44-0.43H7.49
		c-0.24,0-0.44,0.19-0.44,0.43v5.11C7.06,9,7.25,9.2,7.49,9.2h1.02c0.24,0,0.44-0.2,0.44-0.44V3.65z M8,10.52
		c-0.66,0-1.2,0.53-1.2,1.2c0,0.66,0.54,1.2,1.2,1.2s1.2-0.54,1.2-1.2C9.2,11.05,8.66,10.52,8,10.52z"/>
</g>
</svg>
