<?xml version="1.0" encoding="utf-8"?>
<!-- Generator: Adobe Illustrator 26.3.1, SVG Export Plug-In . SVG Version: 6.00 Build 0)  -->
<svg version="1.1" xmlns="http://www.w3.org/2000/svg" xmlns:xlink="http://www.w3.org/1999/xlink" x="0px" y="0px"
	 viewBox="0 0 16 16" style="enable-background:new 0 0 16 16;" xml:space="preserve">
<style type="text/css">
	.st0{fill:none;}
	.st1{fill:#678134;}
	.st2{fill:#1B7D9F;}
	.st3{fill:#934D4F;}
	.st4{fill:#FFFFFF;}
	.st5{fill:#8B7734;}
</style>
<g id="Outline">
	<rect class="st0" width="16" height="16"/>
</g>
<g id="Color">
	<circle class="st2" cx="8" cy="4.28" r="1.2"/>
	<path class="st2" d="M8.954,7.24v5.11c0,0.24-0.2,0.43-0.44,0.43H7.486c-0.24,0-0.44-0.19-0.44-0.43V7.24
		C7.056,7,7.246,6.8,7.486,6.8h1.029C8.754,6.8,8.954,7,8.954,7.24z"/>
</g>
<g id="White">
	<path id="Path_55779" class="st4" d="M8,0C3.58,0,0,3.58,0,8c0,4.42,3.58,8,8,8s8-3.58,8-8C15.99,3.58,12.42,0.01,8,0z M8.95,12.35
		c0,0.24-0.2,0.43-0.44,0.43H7.49c-0.24,0-0.44-0.19-0.44-0.43V7.24C7.06,7,7.25,6.8,7.49,6.8h1.02c0.24,0,0.44,0.2,0.44,0.44V12.35
		z M8,5.48c-0.66,0-1.2-0.53-1.2-1.2c0-0.66,0.54-1.2,1.2-1.2s1.2,0.54,1.2,1.2C9.2,4.95,8.66,5.48,8,5.48z"/>
</g>
</svg>
