<?xml version="1.0" encoding="utf-8"?>
<!-- Generator: Adobe Illustrator 26.3.1, SVG Export Plug-In . SVG Version: 6.00 Build 0)  -->
<svg version="1.1" xmlns="http://www.w3.org/2000/svg" xmlns:xlink="http://www.w3.org/1999/xlink" x="0px" y="0px"
	 viewBox="0 0 16 16" style="enable-background:new 0 0 16 16;" xml:space="preserve">
<style type="text/css">
	.st0{fill:none;}
	.st1{fill:#678134;}
	.st2{fill:#1B7D9F;}
	.st3{fill:#934D4F;}
	.st4{fill:#FFFFFF;}
	.st5{fill:#8B7734;}
</style>
<g id="Outline">
	<rect class="st0" width="16" height="16"/>
	<rect class="st0" width="16" height="16"/>
</g>
<g id="Color">
	<path class="st1" d="M13.01,6.3l-5.94,5.94c-0.2,0.2-0.53,0.2-0.73,0L2.99,8.88c-0.2-0.2-0.2-0.53,0-0.73l0.73-0.73
		c0.2-0.2,0.53-0.2,0.73,0l2.26,2.26l4.84-4.84c0.2-0.2,0.53-0.2,0.73,0l0.73,0.73C13.21,5.77,13.21,6.1,13.01,6.3z"/>
</g>
<g id="White">
	<path id="Path_55758" class="st4" d="M8,0C3.58,0,0,3.58,0,8c0,4.42,3.58,8,8,8s8-3.58,8-8C16,3.58,12.42,0,8,0z M13.01,6.3
		l-5.94,5.94c-0.2,0.2-0.53,0.2-0.73,0L2.99,8.88c-0.2-0.2-0.2-0.53,0-0.73l0.73-0.73c0.2-0.2,0.53-0.2,0.73,0l2.26,2.26l4.84-4.84
		c0.2-0.2,0.53-0.2,0.73,0l0.73,0.73C13.21,5.77,13.21,6.1,13.01,6.3z"/>
</g>
</svg>
