<?xml version="1.0" encoding="utf-8"?>
<!-- Generator: Adobe Illustrator 27.1.1, SVG Export Plug-In . SVG Version: 6.00 Build 0)  -->
<svg version="1.1" xmlns="http://www.w3.org/2000/svg" xmlns:xlink="http://www.w3.org/1999/xlink" x="0px" y="0px"
	 viewBox="0 0 16 16" style="enable-background:new 0 0 16 16;" xml:space="preserve">
<style type="text/css">
	.st0{fill:none;}
	.st1{fill:#678134;}
	.st2{fill:#1B7D9F;}
	.st3{fill:#934D4F;}
	.st4{fill:#FFFFFF;}
	.st5{fill:#8B7734;}
	.st6{fill:none;stroke:#678134;}
	.st7{fill:none;stroke:#934D4F;}
	.st8{fill:none;stroke:#4EA3C0;}
	.st9{fill:none;stroke:#8B7734;}
</style>
<g id="Outline">
	<rect class="st0" width="16" height="16"/>
</g>
<g id="Color">
</g>
<g id="White">
	<circle class="st5" cx="8" cy="11.72" r="1.2"/>
	<path class="st5" d="M7.0455,8.76V3.65c0-0.24,0.2-0.43,0.44-0.43h1.029c0.24,0,0.44,0.19,0.44,0.43v5.11
		c-0.01,0.24-0.2,0.44-0.44,0.44h-1.029C7.2455,9.2,7.0455,9,7.0455,8.76z"/>
	<path id="Path_55779_00000003809610272794101960000015784032482381794981_" class="st4" d="M8,16c4.42,0,8-3.58,8-8
		c0-4.42-3.58-8-8-8S0,3.58,0,8C0.01,12.42,3.58,15.99,8,16z M7.05,3.65c0-0.24,0.2-0.43,0.44-0.43h1.02c0.24,0,0.44,0.19,0.44,0.43
		v5.11C8.94,9,8.75,9.2,8.51,9.2H7.49C7.25,9.2,7.05,9,7.05,8.76V3.65z M8,10.52c0.66,0,1.2,0.53,1.2,1.2c0,0.66-0.54,1.2-1.2,1.2
		s-1.2-0.54-1.2-1.2C6.8,11.05,7.34,10.52,8,10.52z"/>
</g>
</svg>
