<?xml version="1.0" encoding="utf-8"?>
<!-- Generator: Adobe Adobe Illustrator 24.2.0, SVG Export Plug-In . SVG Version: 6.00 Build 0)  -->
<svg version="1.1" xmlns="http://www.w3.org/2000/svg" xmlns:xlink="http://www.w3.org/1999/xlink" x="0px" y="0px"
	 viewBox="0 0 26 26" style="enable-background:new 0 0 26 26;" xml:space="preserve">
<style type="text/css">
	.st0{fill:#FFFFFF;}
</style>
<g >
</g>
<g id="Icons">
	<g id="XMLID_164_">
		<path id="XMLID_239_" d="M19.24,11.71H6.76c-2.77,0-5.02-2.25-5.02-5.02s2.25-5.02,5.02-5.02h12.47c2.77,0,5.02,2.25,5.02,5.02
			S22.01,11.71,19.24,11.71z M6.76,3.39c-1.81,0-3.29,1.48-3.29,3.29s1.48,3.29,3.29,3.29h12.47c1.81,0,3.29-1.48,3.29-3.29
			s-1.48-3.29-3.29-3.29H6.76z"/>
	</g>
	<g id="XMLID_163_">
		<path id="XMLID_236_" d="M19.24,24.66H6.76c-2.77,0-5.02-2.25-5.02-5.02v-0.19c0-2.77,2.25-5.02,5.02-5.02h12.47
			c2.77,0,5.02,2.25,5.02,5.02v0.19C24.26,22.41,22.01,24.66,19.24,24.66z M6.76,16.16c-1.81,0-3.29,1.48-3.29,3.29v0.19
			c0,1.82,1.48,3.29,3.29,3.29h12.47c1.81,0,3.29-1.48,3.29-3.29v-0.19c0-1.82-1.48-3.29-3.29-3.29H6.76z"/>
	</g>
	<g id="XMLID_162_">
		<circle id="XMLID_387_" cx="19.06" cy="6.69" r="2.17"/>
	</g>
	<g id="XMLID_161_">
		<circle id="XMLID_386_" cx="7.15" cy="19.54" r="2.17"/>
	</g>
</g>
<g id="Layer_9">
</g>
</svg>
