<?xml version="1.0" encoding="utf-8"?>
<!-- Generator: Adobe Illustrator 25.4.0, SVG Export Plug-In . SVG Version: 6.00 Build 0)  -->
<svg version="1.1" xmlns="http://www.w3.org/2000/svg" xmlns:xlink="http://www.w3.org/1999/xlink" x="0px" y="0px"
	 viewBox="0 0 102 41" style="enable-background:new 0 0 102 41;" xml:space="preserve">
<style type="text/css">
	.st0{fill:#FFFFFF;}
	.st1{fill:none;stroke:#C5C4C4;stroke-width:1.5;stroke-miterlimit:10;}
	.st2{fill:#C5C4C4;}
	.st3{fill:#616160;}
	.st4{fill:#C4C4C4;}
	.st5{enable-background:new    ;}
	.st6{fill:#020203;}
	.st7{fill:none;stroke:#D3D3D3;stroke-width:1.5;stroke-miterlimit:10;}
	.st8{fill:#D3D3D3;}
	.st9{fill:none;stroke:#C5C4C4;stroke-width:0.75;stroke-miterlimit:10;}
	.st10{fill:none;stroke:#616160;stroke-miterlimit:10;}
	.st11{fill:none;stroke:#616160;stroke-width:2;stroke-miterlimit:10;}
	.st12{fill:none;stroke:#616160;stroke-width:0.75;stroke-miterlimit:10;}
	.st13{fill:#616160;stroke:#616160;stroke-miterlimit:10;}
	.st14{fill:none;stroke:#FFFFFF;stroke-miterlimit:10;}
	.st15{fill:#1D70B8;}
	.st16{fill:#FFFFFF;stroke:#C5C4C4;stroke-width:1.5;stroke-miterlimit:10;}
	.st17{fill:none;stroke:#616160;stroke-width:1.5;stroke-miterlimit:10;}
	.st18{fill:none;stroke:#D3D3D3;stroke-width:0.5;}
	.st19{fill:#FFFFFF;stroke:#616160;}
	.st20{fill:none;stroke:#616160;stroke-width:0.5;stroke-miterlimit:10;}
	.st21{fill:#FFFFFF;stroke:#616160;stroke-width:1.5;}
	.st22{fill:#C5C4C4;stroke:#C5C4C4;stroke-width:1.5;stroke-miterlimit:10;}
	.st23{opacity:0.6;}
	.st24{opacity:0.6;fill:#C5C4C4;}
	.st25{fill:#FFFFFF;stroke:#616160;stroke-width:0.5;}
	.st26{fill:none;stroke:#616160;stroke-width:0.5;}
</style>
<g id="Layer_5">
	<g id="Layer_7">
	</g>
</g>
<g >
</g>
<g >
</g>
<g id="Layer_6">
</g>
<g >
	<g>
		<path class="st3" d="M33.2304,27h-13c-3.5898,0-6.5-2.9101-6.5-6.5v0c0-3.5898,2.9101-6.5,6.5-6.5h13c3.5898,0,6.5,2.9101,6.5,6.5
			v0C39.7304,24.0899,36.8202,27,33.2304,27z"/>
	</g>
	<circle class="st0" cx="32.9326" cy="20.5" r="5"/>
	<g>
		<path class="st4" d="M68.7696,27h13c3.5898,0,6.5-2.9101,6.5-6.5v0c0-3.5898-2.9101-6.5-6.5-6.5h-13c-3.5898,0-6.5,2.9101-6.5,6.5
			v0C62.2696,24.0899,65.1798,27,68.7696,27z"/>
	</g>
	<g>
		<circle class="st0" cx="69.0674" cy="20.5" r="5"/>
	</g>
	<g>
		<polygon class="st0" points="19.7285,23.6313 16.9502,20.8535 17.6572,20.1465 19.7285,22.2173 24.2236,17.7222 24.9307,18.4292 
					"/>
	</g>
	<g>
		<g>
			
				<rect x="80.0958" y="16.2574" transform="matrix(0.7071 -0.7071 0.7071 0.7071 9.1102 62.9941)" class="st0" width="0.9999" height="8.4853"/>
		</g>
		<g>
			
				<rect x="76.3531" y="20.0001" transform="matrix(0.7071 -0.7071 0.7071 0.7071 9.1102 62.9941)" class="st0" width="8.4853" height="0.9999"/>
		</g>
	</g>
</g>
<g id="Layer_8">
</g>
<g >
</g>
</svg>
