<?xml version="1.0" encoding="utf-8"?>
<!-- Generator: Adobe Adobe Illustrator 24.2.0, SVG Export Plug-In . SVG Version: 6.00 Build 0)  -->
<svg version="1.1" xmlns="http://www.w3.org/2000/svg" xmlns:xlink="http://www.w3.org/1999/xlink" x="0px" y="0px"
	 viewBox="0 0 26 26" style="enable-background:new 0 0 26 26;" xml:space="preserve">
<style type="text/css">
	.st0{stroke:#000000;stroke-width:0.3237;stroke-miterlimit:10;}
</style>
<g >
</g>
<g id="Icons">
	<g id="XMLID_375_">
		<g id="XMLID_1977_">
			<path id="XMLID_542_" d="M20.1,19.7H5.9c-3.2,0-5.9-2.6-5.9-5.9v-1.7c0-3.2,2.6-5.9,5.9-5.9h14.3c3.2,0,5.9,2.6,5.9,5.9v1.7
				C26,17.1,23.4,19.7,20.1,19.7z M5.9,8c-2.3,0-4.2,1.9-4.2,4.2v1.7c0,2.3,1.9,4.2,4.2,4.2h14.3c2.3,0,4.2-1.9,4.2-4.2v-1.7
				c0-2.3-1.9-4.2-4.2-4.2H5.9z"/>
		</g>
		<g id="XMLID_1976_">
			<path id="XMLID_539_" d="M20.1,19.7H5.9c-3.2,0-5.9-2.6-5.9-5.9v-1.7c0-3.2,2.6-5.9,5.9-5.9h14.3c3.2,0,5.9,2.6,5.9,5.9v1.7
				C26,17.1,23.4,19.7,20.1,19.7z M5.9,8c-2.3,0-4.2,1.9-4.2,4.2v1.7c0,2.3,1.9,4.2,4.2,4.2h14.3c2.3,0,4.2-1.9,4.2-4.2v-1.7
				c0-2.3-1.9-4.2-4.2-4.2H5.9z"/>
		</g>
		<g id="XMLID_1975_">
			<path id="XMLID_1226_" d="M21,13c0,1.6-1.3,2.9-2.9,2.9h0c-1.6,0-2.9-1.3-2.9-2.9v0c0-1.6,1.3-2.9,2.9-2.9h0
				C19.7,10.1,21,11.4,21,13L21,13z"/>
		</g>
	</g>
</g>
</svg>
