<?xml version="1.0" encoding="utf-8"?>
<!-- Generator: Adobe Illustrator 25.4.1, SVG Export Plug-In . SVG Version: 6.00 Build 0)  -->
<svg version="1.1"  xmlns="http://www.w3.org/2000/svg" xmlns:xlink="http://www.w3.org/1999/xlink" x="0px" y="0px"
	 viewBox="0 0 16 16" style="enable-background:new 0 0 16 16;" xml:space="preserve">
<style type="text/css">
	.st0{fill:#606060;}
</style>
<path class="st0" d="M10.3186,5.3736H2.9203L6.158,2.1359c0.0976-0.0976,0.0976-0.2559,0-0.3535L5.8022,1.4265
	c-0.0977-0.0977-0.256-0.0977-0.3536,0L1,5.8752l4.4487,4.4449c0.0977,0.0976,0.2559,0.0975,0.3535-0.0001l0.3557-0.3557
	c0.0977-0.0977,0.0976-0.256-0.0001-0.3536l-3.237-3.2338h7.4057c2.0164-0.0177,3.6379,1.5613,3.6712,3.6036
	c-0.0029,2.0105-1.6382,3.6437-3.6742,3.6437c-0.002,0-0.0029,0-0.0049,0c-0.5134,0-1.0974,0.0049-1.6685,0.0098
	c-0.4489,0.004-0.89,0.0081-1.2834,0.0094c-0.1378,0.0005-0.2466,0.112-0.2466,0.2498v0.5033c0,0.1383,0.1094,0.2506,0.2477,0.2502
	c0.3955-0.0013,0.8393-0.0054,1.2911-0.0094c0.5712-0.0049,1.1865-0.001,1.691-0.0098c1.2394,0,2.4063-0.4821,3.2842-1.358
	C14.514,12.3917,14.999,11.2248,15,9.9129C14.9589,7.3684,12.8641,5.3432,10.3186,5.3736z"/>
</svg>
