<?xml version="1.0" encoding="utf-8"?>
<!-- Generator: Adobe Illustrator 25.4.0, SVG Export Plug-In . SVG Version: 6.00 Build 0)  -->
<svg version="1.1" xmlns="http://www.w3.org/2000/svg" xmlns:xlink="http://www.w3.org/1999/xlink" x="0px" y="0px"
	 viewBox="0 0 102 41" style="enable-background:new 0 0 102 41;" xml:space="preserve">
<style type="text/css">
	.st0{fill:#FFFFFF;}
	.st1{fill:none;stroke:#C5C4C4;stroke-width:1.5;stroke-miterlimit:10;}
	.st2{fill:#C5C4C4;}
	.st3{fill:#616160;}
	.st4{fill:#C4C4C4;}
	.st5{enable-background:new    ;}
	.st6{fill:#020203;}
	.st7{fill:none;stroke:#D3D3D3;stroke-width:1.5;stroke-miterlimit:10;}
	.st8{fill:#D3D3D3;}
	.st9{fill:none;stroke:#C5C4C4;stroke-width:0.75;stroke-miterlimit:10;}
	.st10{fill:none;stroke:#616160;stroke-miterlimit:10;}
	.st11{fill:none;stroke:#616160;stroke-width:2;stroke-miterlimit:10;}
	.st12{fill:none;stroke:#616160;stroke-width:0.75;stroke-miterlimit:10;}
	.st13{fill:#616160;stroke:#616160;stroke-miterlimit:10;}
	.st14{fill:none;stroke:#FFFFFF;stroke-miterlimit:10;}
	.st15{fill:#1D70B8;}
	.st16{fill:#FFFFFF;stroke:#C5C4C4;stroke-width:1.5;stroke-miterlimit:10;}
	.st17{fill:none;stroke:#616160;stroke-width:1.5;stroke-miterlimit:10;}
	.st18{fill:none;stroke:#D3D3D3;stroke-width:0.5;}
	.st19{fill:#FFFFFF;stroke:#616160;}
	.st20{fill:none;stroke:#616160;stroke-width:0.5;stroke-miterlimit:10;}
	.st21{fill:#FFFFFF;stroke:#616160;stroke-width:1.5;}
	.st22{fill:#C5C4C4;stroke:#C5C4C4;stroke-width:1.5;stroke-miterlimit:10;}
	.st23{opacity:0.6;}
	.st24{opacity:0.6;fill:#C5C4C4;}
	.st25{fill:#FFFFFF;stroke:#616160;stroke-width:0.5;}
	.st26{fill:none;stroke:#616160;stroke-width:0.5;}
</style>
<g id="Layer_5">
	<g id="Layer_7">
	</g>
	<rect x="12.0289" y="5.4995" class="st0" width="90.0251" height="35.5219"/>
</g>
<g >
</g>
<g >
</g>
<g id="Layer_6">
</g>
<g >
</g>
<g id="Layer_8">
</g>
<g >
	<path class="st2" d="M101.9814,5.0312H12.8027c-0.9648,0-1.75,0.7852-1.75,1.75v34.498h1.5V6.7812c0-0.1377,0.1123-0.25,0.25-0.25
		H37.415v34.625h1.5V6.5312h63.0664V5.0312z"/>
	<g>
		<path class="st3" d="M33.2973,16.9627H16.3135c-1.2269,0-2.2214-0.9946-2.2214-2.2214v-4.4481
			c0-1.2269,0.9946-2.2214,2.2214-2.2214h16.9838c1.2269,0,2.2214,0.9946,2.2214,2.2214v4.4481
			C35.5188,15.9681,34.5242,16.9627,33.2973,16.9627z"/>
	</g>
	<g>
		<path class="st0" d="M19.0605,14.9053h-0.8174v-4.2969h-1.4688V9.9082h3.7559v0.7002h-1.4697V14.9053z"/>
		<path class="st0" d="M23.5762,14.9053l-0.1602-0.5264h-0.0273c-0.1826,0.2305-0.3662,0.3867-0.5508,0.4697
			s-0.4219,0.125-0.7109,0.125c-0.3711,0-0.6611-0.1006-0.8701-0.3008c-0.208-0.2002-0.3125-0.4844-0.3125-0.8516
			c0-0.3887,0.1445-0.6836,0.4346-0.8809c0.2891-0.1992,0.7295-0.3066,1.3223-0.3252l0.6523-0.0205v-0.2012
			c0-0.2422-0.0557-0.4229-0.1689-0.542c-0.1123-0.1201-0.2871-0.1797-0.5244-0.1797c-0.1934,0-0.3789,0.0283-0.5566,0.085
			c-0.1777,0.0576-0.3496,0.125-0.5137,0.2021l-0.2598-0.5742c0.2051-0.1074,0.4297-0.1885,0.6738-0.2441s0.4736-0.084,0.6904-0.084
			c0.4805,0,0.8438,0.1045,1.0889,0.3145s0.3672,0.5391,0.3672,0.9873v2.5469H23.5762z M22.3799,14.3584
			c0.292,0,0.5254-0.0811,0.7021-0.2441s0.2656-0.3916,0.2656-0.6855v-0.3281l-0.4863,0.0205
			c-0.3779,0.0137-0.6533,0.0771-0.8252,0.1895c-0.1719,0.1133-0.2578,0.2861-0.2578,0.5186c0,0.168,0.0498,0.2988,0.1504,0.3906
			C22.0293,14.3125,22.1797,14.3584,22.3799,14.3584z"/>
		<path class="st0" d="M27.2031,11.0566c0.4707,0,0.8389,0.1709,1.1016,0.5127c0.2637,0.3418,0.3945,0.8213,0.3945,1.4395
			c0,0.6191-0.1328,1.1016-0.3994,1.4473c-0.2666,0.3447-0.6367,0.5176-1.1104,0.5176c-0.4785,0-0.8506-0.1719-1.1152-0.5156
			h-0.0547l-0.1465,0.4473h-0.6016V9.5869h0.8027v1.2646c0,0.0938-0.0039,0.2324-0.0137,0.417
			c-0.0088,0.1846-0.0156,0.3018-0.0195,0.3516h0.0332C26.3301,11.2451,26.7061,11.0566,27.2031,11.0566z M26.9941,11.7129
			c-0.3232,0-0.5566,0.0947-0.6992,0.2852s-0.2158,0.5088-0.2207,0.9561v0.0547c0,0.46,0.0732,0.793,0.2188,0.999
			c0.1465,0.2061,0.3848,0.3096,0.7148,0.3096c0.2852,0,0.501-0.1133,0.6475-0.3379c0.1475-0.2266,0.2207-0.5518,0.2207-0.9785
			C27.876,12.1426,27.582,11.7129,26.9941,11.7129z"/>
		<path class="st0" d="M32.1719,13.8291c0,0.3691-0.1338,0.6514-0.4023,0.8486c-0.2695,0.1973-0.6543,0.2959-1.1562,0.2959
			c-0.5029,0-0.9072-0.0762-1.2129-0.2285v-0.6943c0.4443,0.2051,0.8574,0.3076,1.2402,0.3076c0.4951,0,0.7422-0.1494,0.7422-0.4473
			c0-0.0957-0.0273-0.1758-0.082-0.2402c-0.0547-0.0635-0.1445-0.1289-0.2695-0.1973c-0.126-0.0684-0.2998-0.1465-0.5234-0.2324
			c-0.4355-0.1689-0.7295-0.3379-0.8838-0.5059c-0.1533-0.1689-0.2305-0.3877-0.2305-0.6562c0-0.3242,0.1309-0.5752,0.3916-0.7539
			s0.6152-0.2686,1.0645-0.2686c0.4443,0,0.8652,0.0898,1.2617,0.2705l-0.2598,0.6045c-0.4082-0.1689-0.751-0.2529-1.0293-0.2529
			c-0.4238,0-0.6357,0.1211-0.6357,0.3623c0,0.1182,0.0557,0.2188,0.166,0.3008s0.3516,0.1943,0.7227,0.3389
			c0.3125,0.1201,0.5391,0.2305,0.6807,0.3311c0.1406,0.1006,0.2461,0.2158,0.3145,0.3467S32.1719,13.6465,32.1719,13.8291z"/>
	</g>
</g>
</svg>
