<?xml version="1.0" encoding="utf-8"?>
<!-- Generator: Adobe Illustrator 25.4.0, SVG Export Plug-In . SVG Version: 6.00 Build 0)  -->
<svg version="1.1" xmlns="http://www.w3.org/2000/svg" xmlns:xlink="http://www.w3.org/1999/xlink" x="0px" y="0px"
	 viewBox="0 0 16 16" style="enable-background:new 0 0 16 16;" xml:space="preserve">
<style type="text/css">
	.st0{fill:#005EA3;}
	.st1{fill:none;stroke:#000000;stroke-miterlimit:10;}
	.st2{fill-rule:evenodd;clip-rule:evenodd;fill:#0D6F08;}
	.st3{fill:#FFFFFF;}
	.st4{fill:#0072C6;}
	.st5{fill-rule:evenodd;clip-rule:evenodd;fill:#AD6503;}
	.st6{fill-rule:evenodd;clip-rule:evenodd;fill:#D53D3D;}
	.st7{fill-rule:evenodd;clip-rule:evenodd;fill:#5C5C5C;}
	.st8{fill:#D53D3D;}
	.st9{fill:#AD6503;}
	.st10{fill:#FFFFFF;stroke:#C4C4C4;stroke-miterlimit:10;}
	.st11{fill:none;}
	.st12{fill:none;stroke:#D3D3D3;}
	.st13{fill:none;stroke:#C4C4C4;stroke-width:0.9;stroke-miterlimit:10;}
	.st14{fill:#D3D3D3;}
	.st15{opacity:0.6;fill:#D3D3D3;}
	.st16{fill:none;stroke:#C4C4C4;stroke-miterlimit:10;}
	.st17{fill:#C4C4C4;}
</style>
<g >
</g>
<g >
</g>
<g >
	<path class="st3" d="M15.9318,13.8246L8.4331,0.8243c-0.1924-0.3336-0.6738-0.3336-0.8662,0L0.0682,13.8246
		c-0.1923,0.3334,0.0483,0.7499,0.4331,0.7499h14.9974C15.8835,14.5745,16.1241,14.158,15.9318,13.8246z M7.2495,4.5404
		c0-0.1381,0.1119-0.25,0.25-0.25h1c0.1381,0,0.25,0.1119,0.25,0.25v5c0,0.1381-0.1119,0.25-0.25,0.25h-1
		c-0.1381,0-0.25-0.1119-0.25-0.25V4.5404z M8.0042,13.2667c-0.5523,0-1-0.4477-1-1s0.4477-1,1-1s1,0.4477,1,1
		S8.5565,13.2667,8.0042,13.2667z"/>
</g>
<g >
</g>
</svg>
