<?xml version="1.0" encoding="utf-8"?>
<!-- Generator: Adobe Adobe Illustrator 24.2.0, SVG Export Plug-In . SVG Version: 6.00 Build 0)  -->
<svg version="1.1" xmlns="http://www.w3.org/2000/svg" xmlns:xlink="http://www.w3.org/1999/xlink" x="0px" y="0px"
	 viewBox="0 0 26 26" style="enable-background:new 0 0 26 26;" xml:space="preserve">
<style type="text/css">
	.st0{fill:#FFFFFF;}
</style>
<g >
</g>
<g id="Icons">
	<path id="XMLID_1019_" d="M16.28,13c0-1.52-1.05-2.79-2.45-3.16V8.1c1.41-0.37,2.45-1.64,2.45-3.16s-1.05-2.79-2.45-3.16V0H12.2
		v1.77C10.78,2.13,9.72,3.4,9.72,4.94s1.06,2.81,2.48,3.17v1.72c-1.42,0.36-2.48,1.64-2.48,3.17c0,1.53,1.06,2.81,2.48,3.17v1.68
		c-1.42,0.36-2.48,1.64-2.48,3.17s1.06,2.81,2.48,3.17V26h1.62v-1.82c1.41-0.37,2.45-1.64,2.45-3.16s-1.05-2.79-2.45-3.16v-1.7
		C15.23,15.79,16.28,14.52,16.28,13z M11.34,4.94c0-0.91,0.74-1.66,1.66-1.66s1.66,0.74,1.66,1.66S13.91,6.59,13,6.59
		S11.34,5.85,11.34,4.94z M11.34,13c0-0.91,0.74-1.66,1.66-1.66s1.66,0.74,1.66,1.66s-0.74,1.65-1.66,1.65S11.34,13.91,11.34,13z
		 M14.66,21.02c0,0.91-0.74,1.66-1.66,1.66s-1.66-0.74-1.66-1.66s0.74-1.66,1.66-1.66S14.66,20.11,14.66,21.02z"/>
</g>
<g id="Layer_9">
</g>
<g >
</g>
</svg>
