<?xml version="1.0" encoding="utf-8"?>
<!-- Generator: Adobe Adobe Illustrator 24.2.0, SVG Export Plug-In . SVG Version: 6.00 Build 0)  -->
<svg version="1.1" xmlns="http://www.w3.org/2000/svg" xmlns:xlink="http://www.w3.org/1999/xlink" x="0px" y="0px"
	 viewBox="0 0 26 26" style="enable-background:new 0 0 26 26;" xml:space="preserve">
<style type="text/css">
	.st0{fill:#FFFFFF;}
</style>
<g >
</g>
<g id="Icons">
	<path id="XMLID_1037_" d="M13,16.28c1.52,0,2.79-1.05,3.16-2.45h1.74c0.37,1.41,1.64,2.45,3.16,2.45s2.79-1.05,3.16-2.45H26V12.2
		h-1.77c-0.36-1.42-1.64-2.48-3.17-2.48s-2.81,1.06-3.17,2.48h-1.72c-0.36-1.42-1.64-2.48-3.17-2.48c-1.53,0-2.81,1.06-3.17,2.48
		H8.15c-0.36-1.42-1.64-2.48-3.17-2.48s-2.81,1.06-3.17,2.48H0l0,1.62h1.82c0.37,1.41,1.64,2.45,3.16,2.45s2.79-1.05,3.16-2.45h1.7
		C10.21,15.23,11.48,16.28,13,16.28z M21.06,11.34c0.91,0,1.66,0.74,1.66,1.66s-0.74,1.66-1.66,1.66s-1.66-0.74-1.66-1.66
		S20.15,11.34,21.06,11.34z M13,11.34c0.91,0,1.66,0.74,1.66,1.66s-0.74,1.66-1.66,1.66s-1.65-0.74-1.65-1.66S12.09,11.34,13,11.34z
		 M4.98,14.66c-0.91,0-1.66-0.74-1.66-1.66s0.74-1.66,1.66-1.66S6.63,12.09,6.63,13S5.89,14.66,4.98,14.66z"/>
</g>
<g id="Layer_9">
</g>
<g >
</g>
</svg>
